<?xml version="1.0" standalone="no"?>
<!DOCTYPE svg PUBLIC "-//W3C//DTD SVG 1.1//EN" "http://www.w3.org/Graphics/SVG/1.1/DTD/svg11.dtd" >
<svg xmlns="http://www.w3.org/2000/svg" xmlns:xlink="http://www.w3.org/1999/xlink" version="1.1">
<metadata>
Created by FontForge 20170731 at Tue Oct 10 21:59:00 2017
 By ,,,
Copyright 2017 The Inter UI project authors
</metadata>
<defs>
<font id="InterUI-Bold" horiz-adv-x="0" >
  <font-face 
    font-family="Inter UI Bold"
    font-weight="700"
    font-stretch="normal"
    units-per-em="2816"
    panose-1="2 0 0 0 0 0 0 0 0 0"
    ascent="2252"
    descent="-564"
    x-height="1536"
    bbox="-2050 -884 4003 2976"
    underline-thickness="128"
    underline-position="-832"
    unicode-range="U+0002-1F16B"
  />
<missing-glyph horiz-adv-x="2805" 
d="M250 2176v512h2304v-512h-2304zM250 1472v512h2304v-512h-2304zM250 768v512h2304v-512h-2304zM250 64v512h2304v-512h-2304zM250 -640v512h2304v-512h-2304z" />
    <glyph glyph-name="longst" unicode="&#x17f;t" horiz-adv-x="1947" 
d="M885 2140q185 0 361 -45.5t312 -99.5v-131h30v-328h271v-285h-271v-782q0 -77 30.5 -113.5t72 -47t75.5 -10.5q64 0 107 3v-305q-71 -13 -115 -15.5t-104 -2.5q-109 0 -212 51.5t-169.5 148t-66.5 232.5v841h-209v285h209v173h-33v82q-29 16 -96 28.5t-140 12.5
q-208 0 -208 -213v-1619h-384v1209h-221v279h221v131q0 255 144 388t396 133z" />
    <glyph glyph-name=".notdef" horiz-adv-x="2805" 
d="M250 2176v512h2304v-512h-2304zM250 1472v512h2304v-512h-2304zM250 768v512h2304v-512h-2304zM250 64v512h2304v-512h-2304zM250 -640v512h2304v-512h-2304z" />
    <glyph glyph-name=".null" 
 />
    <glyph glyph-name="nonmarkingreturn" horiz-adv-x="938" 
 />
    <glyph glyph-name="controlSOT" 
 />
    <glyph glyph-name="controlHT" unicode="&#x9;" horiz-adv-x="768" 
 />
    <glyph glyph-name="CR" unicode="&#xd;" horiz-adv-x="768" 
 />
    <glyph glyph-name="space" unicode=" " horiz-adv-x="768" 
 />
    <glyph glyph-name="exclam" unicode="!" horiz-adv-x="768" 
d="M588 2048l-44 -1433h-315l-43 1433h402zM384 -27q-100 0 -163 63t-63 155q0 93 63 156.5t163 63.5t164 -63.5t64 -156.5q0 -92 -64 -155t-164 -63z" />
    <glyph glyph-name="quotedbl" unicode="&#x22;" horiz-adv-x="1102" 
d="M141 1287zM423 2048v-761h-282v761h282zM935 2048v-761h-282v761h282z" />
    <glyph glyph-name="numbersign" unicode="#" horiz-adv-x="1792" 
d="M359 0l88 565h-319v234h355l65 416h-308v237h345l88 567h246l-88 -567h275l88 567h248l-88 -567h310v-237h-347l-65 -416h300v-234h-337l-88 -565h-247l88 565h-275l-88 -565h-246zM729 799h275l65 416h-275z" />
    <glyph glyph-name="dollar" unicode="$" horiz-adv-x="1793" 
d="M803 -256l3 227q-191 12 -351 87.5t-258 216t-102 346.5h388q10 -140 94.5 -220.5t232.5 -96.5l7 591l-98 28q-175 51 -301.5 121.5t-195.5 180t-69 276.5t88 292t241.5 198t349.5 83l3 230h184l-3 -235q268 -32 432.5 -193t169.5 -408h-386q-22 206 -220 260l-7 -541
l23 -7q290 -94 445 -232.5t155 -372.5q0 -259 -168.5 -417t-469.5 -184l-3 -230h-184zM542 1502q0 -90 73 -147.5t207 -106.5l6 494q-136 -11 -211 -76t-75 -164zM1241 565q0 83 -54.5 146t-185.5 119l-7 -519q118 24 182.5 94.5t64.5 159.5z" />
    <glyph glyph-name="percent" unicode="%" horiz-adv-x="2293" 
d="M207 1556v108q0 121 50 222.5t146.5 162.5t234.5 61q140 0 236 -61t145 -162.5t49 -222.5v-108q0 -121 -50 -221.5t-146 -161t-234 -60.5q-140 0 -236 60.5t-145.5 161t-49.5 221.5zM2017 2082l-1452 -2116h-313l1452 2116h313zM476 1664v-108q0 -77 35 -141.5t127 -64.5
t126.5 64.5t34.5 141.5v108q0 77 -33.5 143t-127.5 66q-91 0 -126.5 -66t-35.5 -143zM1227 384v108q0 121 50.5 222.5t146.5 162.5t234 61q140 0 236 -61t145 -162.5t49 -222.5v-108q0 -121 -50 -222.5t-146 -162.5t-234 -61q-140 0 -236 61t-145.5 162.5t-49.5 222.5z
M1496 492v-108q0 -77 35 -141.5t127 -64.5t126.5 64.5t34.5 141.5v108q0 77 -33.5 143t-127.5 66q-91 0 -126.5 -66t-35.5 -143z" />
    <glyph glyph-name="ampersand" unicode="&#x26;" horiz-adv-x="1947" 
d="M1416 0l-110 130q-223 -158 -520 -158q-202 0 -348 74t-225 204t-79 299q0 180 103.5 300.5t268.5 237.5q-91 122 -145.5 231.5t-54.5 223.5q0 241 147 386t394 145q155 0 268.5 -64.5t175.5 -171t62 -233.5q0 -143 -74 -255t-193 -199l-132 -96l362 -431q39 76 60.5 165
t21.5 189h322q0 -182 -41.5 -339t-135.5 -284l297 -354h-424zM640 1548q0 -65 38 -133t98 -144l108 74q87 57 120 113t33 122q0 64 -52 123.5t-141 59.5q-95 0 -149.5 -63t-54.5 -152zM507 567q0 -120 83 -203t215 -83q155 0 294 93l-411 485l-39 -28q-86 -72 -114 -139
t-28 -125z" />
    <glyph glyph-name="quotesingle" unicode="'" horiz-adv-x="546" 
d="M412 2048v-761h-282v761h282z" />
    <glyph glyph-name="parenleft" unicode="(" horiz-adv-x="995" 
d="M921 -384h-319q-109 148 -193.5 341.5t-133 416t-48.5 458.5t48.5 458.5t135.5 416t201 341.5h313q-180 -306 -260 -594.5t-80 -621.5q0 -321 79.5 -615.5t256.5 -600.5z" />
    <glyph glyph-name="parenright" unicode=")" horiz-adv-x="995" 
d="M70 0zM74 -384h319q109 148 193.5 341.5t133 416t48.5 458.5t-48.5 458.5t-135.5 416t-201 341.5h-313q180 -306 260 -594.5t80 -621.5q0 -321 -79.5 -615.5t-256.5 -600.5z" />
    <glyph glyph-name="asterisk" unicode="*" horiz-adv-x="1491" 
d="M272 972l290 371l-433 128l78 243l432 -166l-21 471h266l-24 -479l424 164l81 -244l-441 -128l285 -362l-212 -152l-257 389l-256 -381z" />
    <glyph glyph-name="plus" unicode="+" horiz-adv-x="1626" 
d="M1484 1033v-331h-503v-506h-331v506h-506v331h506v503h331v-503h503z" />
    <glyph glyph-name="comma" unicode="," horiz-adv-x="765" 
d="M574 316v-256q-2 -155 -70 -304.5t-174 -256.5l-215 87q47 103 91 206.5t44 248.5v275h324z" />
    <glyph glyph-name="hyphen" unicode="-" horiz-adv-x="1280" 
d="M1130 1014v-290h-980v290h980z" />
    <glyph glyph-name="period" unicode="." horiz-adv-x="765" 
d="M383 -28q-93 0 -159 66t-66 161q0 92 67 157.5t158 65.5q92 0 158 -66t66 -157q0 -95 -66 -161t-158 -66z" />
    <glyph glyph-name="slash" unicode="/" horiz-adv-x="1107" 
d="M1020 2048l-596 -2356h-338l596 2356h338z" />
    <glyph glyph-name="zero" unicode="0" horiz-adv-x="1664" 
d="M1545 1204v-334q0 -302 -92.5 -501.5t-253 -298t-365.5 -98.5q-206 0 -367.5 98.5t-254.5 298t-93 501.5v334q0 291 93 484.5t254.5 290.5t366.5 97t365.5 -97t253.5 -290.5t93 -484.5zM1164 815v443q0 252 -94 374.5t-237 122.5t-238 -122.5t-95 -374.5v-443
q0 -266 96 -392.5t238 -126.5q141 0 235.5 126.5t94.5 392.5z" />
    <glyph glyph-name="one" unicode="1" horiz-adv-x="1446" 
d="M1058 2061v-2061h-384v1604l-549 -201v319l893 339h40z" />
    <glyph glyph-name="two" unicode="2" horiz-adv-x="1664" 
d="M1526 327v-327h-1397v281l684 691q157 160 221.5 274t64.5 211q0 139 -76.5 225t-213.5 86q-151 0 -223 -111.5t-72 -261.5h-374q0 181 79.5 336t231 250t365.5 95q311 0 483.5 -159t172.5 -429q0 -204 -126.5 -388t-318.5 -390l-304 -319q-23 -23 -39 -34.5t-45 -24.5
l9 -21q30 12 52 14t57 2h769z" />
    <glyph glyph-name="three" unicode="3" horiz-adv-x="1664" 
d="M620 864v330h184q154 0 234 89t80 216q0 119 -76.5 196.5t-215.5 77.5q-119 0 -201.5 -65.5t-82.5 -174.5h-372q0 163 84 285t230 190t332 68q199 0 350.5 -65.5t237 -192.5t85.5 -313q0 -132 -81 -262t-236 -204q180 -59 266.5 -186t86.5 -292q0 -187 -94.5 -318.5
t-255.5 -201t-362 -69.5q-171 0 -324 61t-248.5 187t-95.5 321h378q0 -116 83.5 -188.5t215.5 -72.5q146 0 236 77.5t90 208.5q0 164 -93.5 231t-250.5 67h-184z" />
    <glyph glyph-name="four" unicode="4" horiz-adv-x="1747" 
d="M1628 721v-327h-296v-394h-345v394h-899v255l854 1399h390v-1327h296zM495 721h492v847l-45 -88z" />
    <glyph glyph-name="five" unicode="5" horiz-adv-x="1664" 
d="M498 927l-311 76l120 1045h1129v-332h-817l-61 -508h11q37 42 118 79.5t203 37.5q180 0 320 -83t220 -236.5t80 -363.5q0 -181 -76.5 -333t-230 -244.5t-384.5 -92.5q-171 0 -321 67t-245.5 195.5t-101.5 313.5h372q17 -128 96 -198t203 -70q155 0 237.5 109t82.5 273
q0 177 -94 277t-251 100q-115 0 -185 -34.5t-114 -77.5z" />
    <glyph glyph-name="six" unicode="6" horiz-adv-x="1664" 
d="M1140 1510q-36 111 -94 180.5t-192 69.5q-137 0 -232 -148t-108 -460q78 82 188.5 130t241.5 48q192 0 319 -92t190.5 -245t63.5 -336q0 -193 -82 -348t-233 -246t-357 -91q-328 0 -517 241t-189 696v73q-3 326 67.5 572t229 384t419.5 138q284 0 438.5 -156t206.5 -410
h-360zM519 691q0 -209 91.5 -309t233.5 -100q134 0 220.5 104t86.5 267q0 161 -78.5 264.5t-233.5 103.5q-150 0 -235 -95t-85 -225v0v-10z" />
    <glyph glyph-name="seven" unicode="7" horiz-adv-x="1619" 
d="M1491 2048v-251l-761 -1797h-400l752 1717h-954v331h1363z" />
    <glyph glyph-name="eight" unicode="8" horiz-adv-x="1747" 
d="M1549 570q0 -192 -88 -325.5t-240.5 -203t-344.5 -69.5t-346 69.5t-244 203t-90 325.5q0 168 86.5 297t232.5 201q-127 69 -200.5 185t-73.5 262q0 183 82 308t225 189t325 64q185 0 328 -64t224 -189t81 -308q0 -146 -73.5 -262.5t-200.5 -185.5q145 -72 231 -200.5
t86 -296.5zM1137 1496q0 122 -74 194.5t-191 72.5q-113 0 -187 -69.5t-74 -195.5q0 -125 74.5 -202.5t190.5 -77.5t188.5 77t72.5 201zM1175 593q0 141 -87 229.5t-217 88.5q-128 0 -215 -88.5t-87 -228.5q0 -137 88 -223.5t220 -86.5t215 86t83 223z" />
    <glyph glyph-name="nine" unicode="9" horiz-adv-x="1747" 
d="M559 533q35 -111 93.5 -181t192.5 -69q136 1 229.5 151t108.5 460q-79 -82 -189 -129t-240 -47q-192 0 -320.5 91.5t-193 244t-64.5 336.5q0 194 83.5 349t235.5 245.5t358 90.5q328 0 517 -240.5t189 -693.5v-76q0 -324 -71 -567t-228.5 -381.5t-417.5 -149.5
q-284 0 -438 156.5t-207 409.5h362zM547 1395q0 -161 78.5 -265t233.5 -104q150 0 234.5 95t84.5 225v0v10q0 209 -91 309.5t-233 100.5q-134 0 -220.5 -104t-86.5 -267z" />
    <glyph glyph-name="colon" unicode=":" horiz-adv-x="765" 
d="M158 0zM383 -28q-93 0 -159 66t-66 161q0 92 67 157.5t158 65.5q92 0 158 -66t66 -157q0 -95 -66 -161t-158 -66zM383 1042q-93 0 -159 66t-66 161q0 92 67 157.5t158 65.5q92 0 158 -66t66 -157q0 -95 -66 -161t-158 -66z" />
    <glyph glyph-name="semicolon" unicode=";" horiz-adv-x="765" 
d="M115 0zM574 316v-256q-2 -155 -70 -304.5t-174 -256.5l-215 87q47 103 91 206.5t44 248.5v275h324zM383 1076q-93 0 -159 66t-66 161q0 92 67 157.5t158 65.5q92 0 158 -66t66 -157q0 -95 -66 -161t-158 -66z" />
    <glyph glyph-name="less" unicode="&#x3c;" horiz-adv-x="1536" 
d="M1340 563v-363l-1144 505v308l1144 507v-364l-762 -296z" />
    <glyph glyph-name="equal" unicode="=" horiz-adv-x="1581" 
d="M214 1330h1152v-306h-1152v306zM214 732h1152v-306h-1152v306z" />
    <glyph glyph-name="greater" unicode="&#x3e;" horiz-adv-x="1536" 
d="M196 563l766 298l-766 295v361l1144 -504v-308l-1144 -507v365z" />
    <glyph glyph-name="question" unicode="?" horiz-adv-x="1525" 
d="M914 615h-331q0 184 44.5 300.5t110 191.5t131 132.5t110 121.5t44.5 161q0 122 -62 184.5t-174 62.5q-91 0 -165 -61t-75 -201h-377q1 193 83.5 319.5t222 188t311.5 61.5q286 0 447 -145t161 -400q0 -138 -48 -230t-119 -162.5t-142 -140t-120.5 -159.5t-51.5 -224z
M752 -22q-100 0 -164 63t-64 155q0 93 64 156.5t164 63.5q98 0 162 -63.5t64 -156.5q0 -92 -64 -155t-162 -63z" />
    <glyph glyph-name="at" unicode="@" horiz-adv-x="2747" 
d="M1422 2024q294 0 522.5 -89t385 -246t237.5 -363.5t81 -441.5q0 -251 -52.5 -454t-175 -322.5t-330.5 -119.5q-83 0 -156.5 13.5t-123.5 60t-63 145.5h-12q-25 -63 -96.5 -112t-166 -75t-188.5 -20q-255 19 -408.5 204t-153.5 532q0 211 80.5 357.5t204 228.5t254.5 101
q107 15 202 -2.5t160 -55t82 -81.5h12v112h287v-998q0 -62 30 -86t73 -24q110 0 171 136t61 464q0 424 -239.5 634t-689.5 210q-298 0 -510 -130.5t-325 -360t-113 -525.5q0 -484 254 -741.5t742 -257.5q106 0 211 17t191 40.5t138 43.5l90 -264q-56 -32 -160 -62.5
t-230 -50.5t-248 -20q-637 0 -974.5 335.5t-337.5 967.5q0 386 153.5 679t441 457t689.5 164zM1348 1128q-146 0 -230 -110t-84 -270q-1 -126 26 -225.5t94.5 -157t185.5 -57.5q365 0 365 440q0 223 -99.5 302.5t-257.5 77.5z" />
    <glyph glyph-name="A" unicode="A" horiz-adv-x="1958" 
d="M505 0h-423l691 2048h412l691 -2048h-422l-132 441h-685zM967 1538l-234 -778h493l-233 778h-26z" />
    <glyph glyph-name="B" unicode="B" horiz-adv-x="1756" 
d="M927 5h-760v2043h698q343 0 537 -149t194 -412q0 -140 -70 -260t-217 -183q177 -42 259 -165t82 -278q0 -293 -190.5 -444.5t-532.5 -151.5zM553 1721v-543l344 1q150 7 232 80t82 192q0 127 -84.5 198.5t-261.5 71.5h-312zM1269 606q0 138 -82.5 212.5t-244.5 74.5h-389
v-564h374q161 0 251.5 73t90.5 204z" />
    <glyph glyph-name="C" unicode="C" horiz-adv-x="1889" 
d="M1373 637l394 -41q-27 -181 -126 -322t-265.5 -221.5t-393.5 -80.5q-268 0 -456 127t-287 363t-99 565q0 324 101 559.5t289.5 362.5t449.5 127q232 0 397.5 -82.5t263.5 -225t127 -323.5l-390 -42q-14 81 -55.5 159.5t-120 130.5t-204.5 52q-232 0 -351 -190t-119 -528
q0 -332 114 -526t356 -194q134 0 210 53t113 129.5t52 147.5z" />
    <glyph glyph-name="D" unicode="D" horiz-adv-x="1870" 
d="M810 0h-648v2048h658q272 0 485.5 -128t336.5 -356t123 -526q0 -333 -124 -565t-339.5 -352.5t-491.5 -120.5zM799 1711h-249v-1374h242q258 0 418 165.5t160 535.5q0 210 -73 361t-202 231.5t-296 80.5z" />
    <glyph glyph-name="E" unicode="E" horiz-adv-x="1634" 
d="M1495 327v-327h-1328v2048h1322v-327h-933v-533h806v-327h-806v-534h939z" />
    <glyph glyph-name="F" unicode="F" horiz-adv-x="1625" 
d="M1349 1188v-327h-793v-861h-389v2048h1319v-327h-930v-533h793z" />
    <glyph glyph-name="G" unicode="G" horiz-adv-x="1949" 
d="M1804 1068v-323q0 -242 -103 -415t-282 -265.5t-408 -92.5q-257 0 -453.5 118t-307 352t-110.5 582q0 346 111 580t305 353t445 119q241 0 407 -94.5t261.5 -241t123.5 -300.5l-376 -39q-15 70 -61 150.5t-133 138t-222 57.5q-215 0 -344 -177.5t-129 -548.5
q0 -265 63.5 -423.5t175 -228t253.5 -69.5q174 0 289.5 106t115.5 364h-406v298h785z" />
    <glyph glyph-name="H" unicode="H" horiz-adv-x="1972" 
d="M556 2048v-860h860v860h389v-2048h-389v861h-860v-861h-389v2048h389z" />
    <glyph glyph-name="I" unicode="I" horiz-adv-x="726" 
d="M550 2048v-2048h-388v2048h388z" />
    <glyph glyph-name="J" unicode="J" horiz-adv-x="1520" 
d="M975 613v1435h386v-1435q0 -199 -84.5 -343t-232.5 -221t-339 -77q-185 0 -332.5 67.5t-232.5 201t-85 331.5h385q2 -136 78.5 -208.5t192.5 -72.5q110 0 187 77t77 245z" />
    <glyph glyph-name="K" unicode="K" horiz-adv-x="1830" 
d="M1256 0l-477 784l-223 -297v-487h-389v2048h389v-934h17l685 934h473l-712 -946l695 -1102h-458z" />
    <glyph glyph-name="L" unicode="L" horiz-adv-x="1536" 
d="M1416 327v-327h-1249v2048h389v-1721h860z" />
    <glyph glyph-name="M" unicode="M" horiz-adv-x="2394" 
d="M167 2048h502l515 -1470h24l518 1470h501v-2048h-385v1403h-15l-491 -1397h-283l-486 1403h-12v-1409h-388v2048z" />
    <glyph glyph-name="N" unicode="N" horiz-adv-x="1970" 
d="M1803 2048v-2048h-380l-850 1380h-17v-1380h-389v2048h383l849 -1383h17v1383h387z" />
    <glyph glyph-name="O" unicode="O" horiz-adv-x="1996" 
d="M1856 1021q0 -329 -109 -564t-302 -360t-445 -125t-446 125t-304 360t-110 564q0 331 109.5 567t303 362t445.5 126q251 0 444.5 -126t303.5 -362t110 -567zM1468 1008q0 350 -128 532.5t-345 182.5q-216 0 -341.5 -178.5t-125.5 -536.5q0 -346 130.5 -528t344.5 -182
q210 0 337.5 182t127.5 528z" />
    <glyph glyph-name="P" unicode="P" horiz-adv-x="1785" 
d="M931 741h-375v-741h-389v2048h754q239 0 401.5 -88t245.5 -239.5t83 -341.5q0 -194 -90 -337.5t-251.5 -222t-378.5 -78.5zM556 1721v-656h353q185 1 270 96.5t85 230.5q0 140 -78 235.5t-265 93.5h-365z" />
    <glyph glyph-name="Q" unicode="Q" horiz-adv-x="2006" 
d="M1856 1021q0 -268 -74 -474.5t-205 -341.5l212 -287l-260 -208l-234 312q-137 -50 -295 -50q-252 0 -446 125t-304 360t-110 564q0 331 109.5 567t303 362t445.5 126q251 0 444.5 -126t303.5 -362t110 -567zM1191 726l165 -223q54 90 83 216.5t29 288.5q0 350 -128 532.5
t-345 182.5q-216 0 -341.5 -178.5t-125.5 -536.5q0 -346 130.5 -528t344.5 -182q42 0 80 7l-152 204z" />
    <glyph glyph-name="R" unicode="R" horiz-adv-x="1762" 
d="M1287 0l-378 767h-353v-767h-389v2048h732q231 0 396 -80t253.5 -220t88.5 -319q0 -214 -97.5 -351t-263.5 -212l431 -847v-19h-420zM556 1721v-630h343q169 0 259.5 87t90.5 222q0 152 -84 236.5t-266 84.5h-343z" />
    <glyph glyph-name="S" unicode="S" horiz-adv-x="1764" 
d="M1232 1468q-14 128 -103 202t-247 74q-161 0 -250.5 -66.5t-89.5 -175.5q0 -105 99 -167t278 -120l109 -35q290 -94 445 -232.5t155 -372.5q0 -282 -199 -444t-552 -162q-206 0 -382.5 72t-286 216.5t-113.5 363.5h388q11 -157 116 -239t287 -82q167 0 261 79t94 186
q0 106 -90.5 180.5t-317.5 144.5l-114 33q-175 51 -301.5 121.5t-195.5 180t-69 276.5q0 175 96.5 304t263.5 200t379 71t374.5 -76t255 -212.5t96.5 -319.5h-386z" />
    <glyph glyph-name="T" unicode="T" horiz-adv-x="1789" 
d="M1703 2048v-327h-615v-1721h-386v1721h-616v327h1617z" />
    <glyph glyph-name="U" unicode="U" horiz-adv-x="1972" 
d="M1416 2048h389v-1351q0 -231 -108.5 -393t-294 -247t-417.5 -85q-237 0 -422 85t-290.5 247t-105.5 393v1351h389v-1351q0 -175 123 -280t307 -105q182 0 306 105t124 280v1351z" />
    <glyph glyph-name="V" unicode="V" horiz-adv-x="1958" 
d="M505 2048l462 -1538h26l461 1538h422l-691 -2048h-412l-691 2048h423z" />
    <glyph glyph-name="W" unicode="W" horiz-adv-x="2560" 
d="M488 2048l260 -1471h16l345 1471h344l345 -1474h16l261 1474h354l-413 -2048h-388l-340 1392h-16l-338 -1392h-388l-415 2048h357z" />
    <glyph glyph-name="X" unicode="X" horiz-adv-x="1916" 
d="M565 2048l378 -716q11 -21 11 -36h11q0 21 8 36l381 716h439l-576 -1024l586 -1024h-444l-386 721q-8 17 -8 39h-11q0 -16 -11 -39l-386 -721h-444l586 1024l-575 1024h441z" />
    <glyph glyph-name="Y" unicode="Y" horiz-adv-x="1914" 
d="M500 2048l457 -924l457 924h417l-680 -1290v-758h-388v758l-681 1290h418z" />
    <glyph glyph-name="Z" unicode="Z" horiz-adv-x="1736" 
d="M1602 327v-327h-1462v251l987 1470h-993v327h1462v-250l-987 -1471h993z" />
    <glyph glyph-name="bracketleft" unicode="[" horiz-adv-x="995" 
d="M893 2310v-298h-291v-2185h291v-296h-637v2779h637z" />
    <glyph glyph-name="backslash" unicode="\" horiz-adv-x="1096" 
d="M80 2048h339l596 -2356h-339z" />
    <glyph glyph-name="bracketright" unicode="]" horiz-adv-x="995" 
d="M102 2310h637v-2779h-637v296h291v2185h-291v298z" />
    <glyph glyph-name="asciicircum" unicode="^" horiz-adv-x="1269" 
d="M876 1004l-241 626l-241 -626h-308l410 1000h279l410 -1000h-309z" />
    <glyph glyph-name="underscore" unicode="_" horiz-adv-x="1280" 
d="M1270 0v-301h-1260v301h1260z" />
    <glyph glyph-name="grave" unicode="`" horiz-adv-x="923" 
d="M531 2112l270 -424h-316l-377 424h423z" />
    <glyph glyph-name="a" unicode="a" horiz-adv-x="1543" 
d="M1019 0v159h-12q-36 -65 -134.5 -127.5t-256.5 -62.5q-143 0 -259 52.5t-184 152t-68 240.5q0 239 184 377t569 138h145v64q0 140 -65.5 204.5t-183.5 64.5q-106 0 -174 -50t-105 -142l-358 68q47 152 150 244t235 133t266 41q168 0 309 -58t225.5 -186t84.5 -337v-975
h-368zM1003 674h-142q-182 0 -283.5 -61.5t-101.5 -182.5q0 -92 64 -131.5t141 -39.5q133 0 227.5 74t94.5 177v164z" />
    <glyph glyph-name="b" unicode="b" horiz-adv-x="1654" 
d="M156 2048h382v-623h9q59 60 143 95.5t198 35.5q196 0 346 -101t235 -279t85 -411q0 -234 -85 -413t-236 -280t-347 -101q-117 0 -203.5 36.5t-145.5 97.5h-10l-2 -105h-369v2048zM534 535q22 -93 101.5 -172t213.5 -79q169 0 254 134.5t85 346.5q0 209 -85 344.5
t-253 135.5q-100 0 -165.5 -46.5t-102 -109.5t-49.5 -114q-13 -54 -18 -110.5t-6 -95.5q1 -42 6.5 -111t18.5 -123z" />
    <glyph glyph-name="c" unicode="c" horiz-adv-x="1537" 
d="M1449 1042l-348 -49q-11 44 -42.5 103.5t-93 104t-163.5 44.5q-170 0 -253 -138.5t-83 -341.5q0 -211 84 -346t253 -135q137 0 205.5 72t90.5 157l350 -47q-32 -225 -205 -360t-436 -135q-223 0 -381.5 102t-242.5 281t-84 411q0 229 84 407.5t242 281t380 102.5
q182 0 319 -67t220 -183t104 -264z" />
    <glyph glyph-name="d" unicode="d" horiz-adv-x="1654" 
d="M1498 0h-370l-2 105h-9q-60 -61 -146 -97.5t-203 -36.5q-197 0 -347.5 101t-235.5 280t-85 413q0 233 85 411t235 279t345 101q114 0 198 -35.5t144 -95.5h9v623h382v-2048zM466 765q0 -212 85 -346.5t253 -134.5q134 0 214 79t102 172q12 54 18 123t7 111q-1 40 -6 96
t-18 110q-14 51 -50.5 114t-102 109.5t-165.5 46.5q-167 0 -252 -135.5t-85 -344.5z" />
    <glyph glyph-name="e" unicode="e" horiz-adv-x="1564" 
d="M837 -29q-231 0 -396 102.5t-253 279t-88 399.5q0 233 82 414.5t238 285.5t378 104q308 0 488.5 -196t180.5 -566v-160h-995q27 -167 128 -258.5t256 -91.5q113 0 189 46t136 137l245 -198q-68 -120 -218 -209t-371 -89zM797 1245q-137 0 -217.5 -95.5t-105.5 -251.5h635
q0 144 -79 245.5t-233 101.5z" />
    <glyph glyph-name="f" unicode="f" horiz-adv-x="1013" 
d="M636 0h-381v1251h-222v285h222v52q0 162 74.5 270.5t196.5 163t262 54.5q46 0 100.5 -5t80.5 -11v-302q-24 3 -49.5 5.5t-63.5 2.5q-50 0 -101 -14.5t-85 -53t-34 -110.5v-52h305l-1 -285h-304v-1251z" />
    <glyph glyph-name="g" unicode="g" horiz-adv-x="1654" 
d="M1145 1528h353v-1495q0 -198 -92.5 -335.5t-255 -209.5t-371.5 -72q-219 0 -372.5 72.5t-219.5 149.5l186 241q61 -52 155.5 -104.5t239.5 -52.5q167 0 260.5 80.5t95.5 264.5v67h-13q-59 -57 -143 -91.5t-197 -34.5q-197 0 -348.5 97.5t-237 272t-85.5 406.5
q0 226 85.5 400t236 273t346.5 99q123 0 210.5 -39.5t146.5 -105.5h11zM466 784q0 -212 86 -340.5t255 -128.5q134 0 217.5 77t105.5 169q14 53 19 120.5t6 108.5q0 39 -4.5 91t-19.5 105q-15 54 -53 115.5t-105 105t-167 43.5q-170 0 -255 -131.5t-85 -334.5z" />
    <glyph glyph-name="h" unicode="h" horiz-adv-x="1594" 
d="M538 855v-855h-382v2048h371v-694h16q63 87 169 144.5t248 57.5q210 0 344 -146t134 -444v-966h-382v968q0 125 -56.5 198.5t-172.5 73.5q-133 0 -211 -103t-78 -282z" />
    <glyph glyph-name="i" unicode="i" horiz-adv-x="714" 
d="M358 1668q-94 0 -157 60t-63 144q0 81 63 142.5t157 61.5t155.5 -61.5t61.5 -142.5q0 -84 -61.5 -144t-155.5 -60zM548 1536v-1536h-382v1536h382z" />
    <glyph glyph-name="j" unicode="j" horiz-adv-x="824" 
d="M470 1668q-94 0 -157 60t-63 144q0 81 63 142.5t157 61.5q93 0 155 -61.5t62 -142.5q0 -84 -62 -144t-155 -60zM278 1536h382v-1606q0 -256 -151 -383t-396 -127h-126v311h78q125 0 169 57t44 147v1601z" />
    <glyph glyph-name="k" unicode="k" horiz-adv-x="1531" 
d="M1108 0l-420 610l-150 -174v-436h-382v2048h382v-1084h20l483 572h451l-569 -656l607 -880h-422z" />
    <glyph glyph-name="l" unicode="l" horiz-adv-x="694" 
d="M538 2048v-2048h-382v2048h382z" />
    <glyph glyph-name="m" unicode="m" horiz-adv-x="2401" 
d="M1389 956v-956h-373v975q0 141 -65.5 203t-167.5 62q-98 0 -171.5 -72t-73.5 -218v-950h-382v1536h374v-198h13q55 88 156 153t244 65q140 0 237 -64t146 -170h16q52 94 167 164t269 70q130 0 235.5 -57.5t168.5 -185t63 -338.5v-975h-382v978q0 149 -71.5 205.5
t-157.5 56.5q-116 0 -180.5 -72.5t-64.5 -211.5z" />
    <glyph glyph-name="n" unicode="n" horiz-adv-x="1623" 
d="M538 848v-848h-382v1536h358v-198h16q62 96 171.5 157t256.5 61q134 0 250.5 -59t187.5 -189t71 -342v-966h-382v950q0 139 -74.5 214.5t-186.5 75.5q-130 0 -208 -105.5t-78 -286.5z" />
    <glyph glyph-name="o" unicode="o" horiz-adv-x="1586" 
d="M793 -27q-199 0 -355.5 90.5t-247 267.5t-90.5 437q0 249 92.5 425t249 269.5t348.5 93.5q194 0 351.5 -91t251 -267t93.5 -430q0 -263 -90.5 -440t-247 -266t-355.5 -89zM790 284q152 0 242.5 120t90.5 364t-91.5 360.5t-241.5 116.5q-146 0 -234 -120.5t-88 -356.5
t85 -360t237 -124z" />
    <glyph glyph-name="p" unicode="p" horiz-adv-x="1654" 
d="M156 -576v2112h369l3 -111h19q59 60 143 95.5t198 35.5q196 0 346 -101t235 -279t85 -411q0 -234 -85 -413t-236 -280t-347 -101q-117 0 -202.5 36t-145.5 97v-680h-382zM534 535q22 -93 101.5 -172t213.5 -79q169 0 254 134.5t85 346.5q0 209 -85 344.5t-253 135.5
q-100 0 -165.5 -46.5t-102 -109.5t-49.5 -114q-13 -54 -18 -110.5t-6 -95.5q1 -42 6.5 -111t18.5 -123z" />
    <glyph glyph-name="q" unicode="q" horiz-adv-x="1654" 
d="M1498 1536v-2112h-382v680q-60 -61 -145.5 -97t-202.5 -36q-197 0 -347.5 101t-235.5 280t-85 413q0 233 85 411t235 279t345 101q114 0 198 -35.5t144 -95.5h18l3 111h370zM466 765q0 -212 85 -346.5t253 -134.5q134 0 214 79t102 172q12 54 18 123t7 111q-1 40 -6 96
t-18 110q-14 51 -50.5 114t-102 109.5t-165.5 46.5q-167 0 -252 -135.5t-85 -344.5z" />
    <glyph glyph-name="r" unicode="r" horiz-adv-x="1034" 
d="M975 1549v-363q-18 3 -47 4t-56 1q-152 0 -242.5 -92.5t-91.5 -213.5v-885h-382v1536h382v-220h13q22 60 73.5 115t120.5 90.5t142 35.5q21 0 45.5 -1.5t42.5 -6.5z" />
    <glyph glyph-name="s" unicode="s" horiz-adv-x="1411" 
d="M139 1107q0 123 69 225t197 163t305 61q187 0 338.5 -68t231.5 -199l-266 -191q-28 40 -99.5 92.5t-189.5 52.5q-95 0 -152.5 -40.5t-57.5 -99.5q0 -66 57.5 -98.5t161.5 -64.5l132 -38q212 -66 316.5 -188.5t104.5 -273.5q0 -129 -72 -235.5t-204.5 -170t-311.5 -63.5
q-172 0 -336.5 66.5t-261.5 217.5l281 205q31 -47 103.5 -107t200.5 -60q98 0 164 39.5t66 102.5q0 67 -66.5 110t-187.5 83l-147 43q-199 65 -287.5 181.5t-88.5 254.5z" />
    <glyph glyph-name="t" unicode="t" horiz-adv-x="1013" 
d="M923 1536v-285h-271v-782q0 -77 30.5 -113.5t72 -47t75.5 -10.5q64 0 107 3v-305q-71 -13 -115 -15.5t-104 -2.5q-109 0 -212 51.5t-169.5 148t-66.5 232.5v841h-209v285h209v328h382v-328h271z" />
    <glyph glyph-name="u" unicode="u" horiz-adv-x="1623" 
d="M1085 681v855h382v-1536h-359v182h-16q-62 -85 -171 -143.5t-256 -58.5q-123 0 -240 58t-193 187.5t-76 344.5v966h382v-955q0 -139 74 -212t186 -73q130 0 208.5 102t78.5 283z" />
    <glyph glyph-name="v" unicode="v" horiz-adv-x="1525" 
d="M1465 1536l-518 -1536h-369l-519 1536h386l309 -1047h16l310 1047h385z" />
    <glyph glyph-name="w" unicode="w" horiz-adv-x="2207" 
d="M2124 1536l-408 -1536h-323l-279 967h-24l-276 -967h-323l-408 1536h373l215 -1010h18l268 1010h291l267 -1003h19l217 1003h373z" />
    <glyph glyph-name="x" unicode="x" horiz-adv-x="1525" 
d="M491 1536l271 -506l277 506h397l-436 -768l447 -768h-397l-288 492l-284 -492h-400l444 768l-431 768h400z" />
    <glyph glyph-name="y" unicode="y" horiz-adv-x="1525" 
d="M571 -63l30 95l-544 1504h399l316 -955l298 955h399l-572 -1759q-30 -91 -97 -177.5t-173 -143t-253 -56.5q-103 0 -185 25v306q35 -5 80 -5q121 0 191.5 48t110.5 163z" />
    <glyph glyph-name="z" unicode="z" horiz-adv-x="1511" 
d="M1374 311v-311h-1232v239l737 986h-724v311h1202v-235l-737 -990h754z" />
    <glyph glyph-name="braceleft" unicode="{" horiz-adv-x="995" 
d="M897 -279l-74 -217q-188 54 -291 149.5t-143.5 222t-40.5 272.5v276q0 131 -59 210.5t-191 79.5v276q132 0 191 77.5t59 208.5v280q0 144 40.5 270.5t143.5 222t291 147.5l74 -213q-127 -46 -172.5 -161t-45.5 -266v-280q0 -136 -55 -247.5t-179 -176.5
q124 -65 179 -177.5t55 -250.5v-276q0 -151 45.5 -266t172.5 -161z" />
    <glyph glyph-name="bar" unicode="|" horiz-adv-x="854" 
d="M598 2048v-2432h-342v2432h342z" />
    <glyph glyph-name="braceright" unicode="}" horiz-adv-x="995" 
d="M98 0zM98 -279l74 -217q188 54 291 149.5t143.5 222t40.5 272.5v276q0 131 59 210.5t191 79.5v276q-132 0 -191 77.5t-59 208.5v280q0 144 -40.5 270.5t-143.5 222t-291 147.5l-74 -213q127 -46 172.5 -161t45.5 -266v-280q0 -136 55 -247.5t179 -176.5
q-124 -65 -179 -177.5t-55 -250.5v-276q0 -151 -45.5 -266t-172.5 -161z" />
    <glyph glyph-name="asciitilde" unicode="~" horiz-adv-x="1882" 
d="M1425 1093h284q0 -171 -58.5 -302.5t-160.5 -205.5t-235 -74q-115 0 -201 45.5t-187 140.5q-58 55 -110.5 88.5t-111.5 33.5q-84 0 -133.5 -73t-49.5 -182l-290 6q0 258 128 411.5t327 153.5q113 0 206 -50t185 -140q59 -58 110.5 -87.5t107.5 -29.5q82 0 135.5 78
t53.5 187z" />
    <glyph glyph-name="nbspace" unicode="&#xa0;" horiz-adv-x="768" 
 />
    <glyph glyph-name="exclamdown" unicode="&#xa1;" horiz-adv-x="768" 
d="M158 0zM588 -517l-44 1433h-315l-43 -1433h402zM384 1558q-100 0 -163 -63t-63 -155q0 -93 63 -156.5t163 -63.5t164 63.5t64 156.5q0 92 -64 155t-164 63z" />
    <glyph glyph-name="cent" unicode="&#xa2;" horiz-adv-x="1614" 
d="M1448 1042l-348 -49q-11 44 -42.5 103.5t-93.5 104t-164 44.5q-170 0 -253 -138.5t-83 -341.5q0 -211 84.5 -346t253.5 -135q136 0 205 72t90 157l351 -47q-29 -201 -171 -331t-361 -157v-314h-276v324q-258 54 -400 264.5t-142 512.5q0 299 142 509.5t400 265.5v272h276
v-263q226 -30 364.5 -169.5t167.5 -337.5z" />
    <glyph glyph-name="sterling" unicode="&#xa3;" horiz-adv-x="1781" 
d="M1204 812h-432l8 -216q4 -83 -12.5 -151t-59.5 -123h890l-1 -322h-1429v322h126q63 16 82.5 95t18.5 161l-7 234h-225v313h215l-11 334q-6 199 73 336.5t221.5 209t327.5 71.5q299 0 455.5 -158.5t156.5 -414.5h-371q0 151 -71 202.5t-173 51.5q-101 0 -169.5 -72
t-68.5 -226l12 -334h444v-313z" />
    <glyph glyph-name="currency" unicode="&#xa4;" horiz-adv-x="2038" 
d="M198 836q0 145 40.5 273.5t113.5 234.5l-196 202l181 188l197 -200q102 77 225 119.5t258 42.5q136 0 260 -43.5t226 -121.5l197 203l185 -188l-203 -206q72 -105 112 -233t40 -271q0 -137 -37 -260.5t-103 -226.5l191 -191l-185 -188l-179 184q-104 -86 -233 -134
t-271 -48t-270 47t-232 131l-178 -180l-181 188l184 187q-67 103 -104.5 228t-37.5 263zM442 836q0 -171 77 -310t207.5 -221t290.5 -82q157 0 287 82t207 221t77 310q0 173 -77 312t-207 220t-287 81q-160 0 -290.5 -81t-207.5 -220t-77 -312z" />
    <glyph glyph-name="yen" unicode="&#xa5;" horiz-adv-x="1514" 
d="M1348 653v-232h-399v-421h-387v421h-432v232h432v164h-432v232h343l-454 999h407l331 -820l335 820h403l-456 -999h309v-232h-399v-164h399z" />
    <glyph glyph-name="brokenbar" unicode="&#xa6;" horiz-adv-x="854" 
d="M598 2048v-948h-342v948h342zM256 568h342v-952h-342v952z" />
    <glyph glyph-name="section" unicode="&#xa7;" horiz-adv-x="1781" 
d="M1597 -116q0 -248 -193 -380t-514 -132q-138 0 -271 28.5t-240 93.5t-170.5 176t-63.5 276l383 1q0 -107 54 -165t137.5 -80t170.5 -22q157 0 240.5 55.5t83.5 148.5q0 61 -36.5 105.5t-126 84t-247.5 84.5q-206 54 -352.5 125t-225 179.5t-78.5 276.5q0 125 59 219.5
t167 154.5q-90 69 -137.5 164t-47.5 231q0 158 87 276t246 183t374 65q332 0 522.5 -152t190.5 -437h-386q0 115 -82 196.5t-245 81.5q-170 0 -246 -61.5t-76 -147.5q0 -69 32 -114t119.5 -81.5t252.5 -81.5q210 -53 357.5 -124t225 -180t77.5 -277q0 -127 -59 -220.5
t-167 -152.5q91 -68 138 -163.5t47 -233.5zM938 478q53 -14 102.5 -29t94.5 -30q123 63 123 200q0 66 -37 114.5t-127.5 90.5t-249.5 89q-54 15 -103.5 30.5t-95.5 32.5q-59 -30 -86.5 -83t-27.5 -120q0 -73 33 -120.5t120.5 -87t253.5 -87.5z" />
    <glyph glyph-name="dieresis" unicode="&#xa8;" horiz-adv-x="1403" 
d="M181 1902q0 73 49.5 123.5t132.5 50.5t131.5 -50.5t48.5 -123.5q0 -71 -48.5 -121.5t-131.5 -50.5t-132.5 50.5t-49.5 121.5zM860 1902q0 73 49.5 123.5t132.5 50.5q82 0 131 -50.5t49 -123.5q0 -71 -49 -121.5t-131 -50.5q-83 0 -132.5 50.5t-49.5 121.5z" />
    <glyph glyph-name="copyright" unicode="&#xa9;" horiz-adv-x="2293" 
d="M170 1004q0 218 76 404.5t211 327t311.5 218.5t377.5 78q202 0 379 -78t311.5 -218.5t210 -327t75.5 -404.5q0 -219 -75.5 -407t-210 -328t-311.5 -218.5t-379 -78.5q-201 0 -377.5 78.5t-311.5 218.5t-211 328t-76 407zM338 1004q0 -183 63 -339.5t174.5 -273.5
t258 -182t312.5 -65q168 0 314.5 65t257.5 182t173.5 273.5t62.5 339.5q0 182 -62.5 337.5t-173.5 272t-257.5 181.5t-314.5 65q-166 0 -312.5 -65t-258 -181.5t-174.5 -272t-63 -337.5zM1374 820h216q0 -216 -125 -324t-337 -108q-220 0 -350 147.5t-130 384.5v164
q0 237 130 384.5t350 147.5q212 0 337 -108t125 -324h-214q0 132 -63 190t-185 58q-132 0 -199 -97.5t-67 -250.5v-164q0 -153 67 -250.5t199 -97.5q122 0 184 56.5t62 191.5z" />
    <glyph glyph-name="ordfeminine" unicode="&#xaa;" horiz-adv-x="1269" 
d="M834 969q-14 47 -22 95q-42 -45 -110.5 -78.5t-167.5 -33.5q-165 0 -253 85.5t-88 226.5q0 153 116 235t353 82h140v71q0 176 -160 176q-189 0 -189 -136l-239 17q0 140 116.5 231.5t311.5 91.5q180 0 290 -95.5t110 -284.5v-432q0 -68 7.5 -129.5t28.5 -121.5h-244z
M594 1149q56 0 113.5 26t94.5 61v185h-140q-120 0 -174 -46t-54 -106q0 -55 38 -87.5t122 -32.5z" />
    <glyph glyph-name="guillemotleft" unicode="&#xab;" horiz-adv-x="1435" 
d="M158 181zM796 181h-252l-386 558v28l386 559h252l-343 -573zM1336 181h-252l-386 558v28l386 559h252l-343 -573z" />
    <glyph glyph-name="logicalnot" unicode="&#xac;" horiz-adv-x="1525" 
d="M1338 1108v-592h-276v356h-872v236h1148z" />
    <glyph glyph-name="softhyphen" unicode="&#xad;" horiz-adv-x="1280" 
d="M150 724zM1130 1014v-290h-980v290h980z" />
    <glyph glyph-name="registered" unicode="&#xae;" horiz-adv-x="2293" 
d="M170 1004q0 218 76 404.5t211 327t311.5 218.5t377.5 78q202 0 379 -78t311.5 -218.5t210 -327t75.5 -404.5q0 -219 -75.5 -407t-210 -328t-311.5 -218.5t-379 -78.5q-201 0 -377.5 78.5t-311.5 218.5t-211 328t-76 407zM338 1004q0 -183 63 -339.5t174.5 -273.5
t258 -182t312.5 -65q168 0 314.5 65t257.5 182t173.5 273.5t62.5 339.5q0 182 -62.5 337.5t-173.5 272t-257.5 181.5t-314.5 65q-166 0 -312.5 -65t-258 -181.5t-174.5 -272t-63 -337.5zM1166 900h-216v-464h-208v1168h386q206 0 326 -91.5t120 -268.5q0 -156 -157 -241
q85 -43 119 -120t34 -175v-76q0 -110 24 -176v-20h-212q-15 33 -17.5 99.5t-2.5 96.5v76q0 96 -44 144t-152 48zM950 1420v-336h188q92 0 162 40t70 120q0 99 -54 137.5t-188 38.5h-178z" />
    <glyph glyph-name="macron" unicode="&#xaf;" horiz-adv-x="1435" 
d="M1192 1998v-224h-948v224h948z" />
    <glyph glyph-name="degree" unicode="&#xb0;" horiz-adv-x="1102" 
d="M554 1175q-118 0 -217.5 58t-159.5 155.5t-60 217.5t60 220t159.5 159.5t217.5 59.5q119 0 216.5 -59.5t155 -159.5t57.5 -220t-57.5 -217.5t-155 -155.5t-216.5 -58zM554 1403q82 0 141.5 59t59.5 146q0 86 -59.5 146t-141.5 60t-143 -60t-61 -146q0 -85 61 -145
t143 -60z" />
    <glyph glyph-name="plusminus" unicode="&#xb1;" horiz-adv-x="1626" 
d="M1487 1229v-331h-506v-414h-331v414h-506v331h506v414h331v-414h506zM1484 334v-334h-1340v334h1340z" />
    <glyph glyph-name="twosuperior" unicode="&#xb2;" horiz-adv-x="1269" 
d="M1191 1138v-222h-850v187l393 357q80 67 114 125.5t34 92.5q0 53 -34.5 85.5t-99.5 32.5q-80 0 -117.5 -46t-37.5 -107h-276q0 153 112.5 263t305.5 110q201 0 312.5 -87.5t111.5 -250.5q0 -120 -73.5 -208t-222.5 -204l-161 -128h489z" />
    <glyph glyph-name="threesuperior" unicode="&#xb3;" horiz-adv-x="1269" 
d="M544 1376v186h121q80 0 118.5 34t38.5 90q0 41 -33 75.5t-116 34.5q-58 0 -100 -23.5t-42 -65.5h-276q0 101 57 170t151 104t204 35q193 0 312 -79.5t119 -231.5q0 -82 -50 -141t-134 -91q95 -26 149.5 -86.5t54.5 -166.5q0 -151 -129 -235.5t-322 -84.5
q-103 0 -201.5 34t-163 109t-64.5 197h279q0 -46 43.5 -81t122.5 -35q83 0 121 37t38 87q0 70 -47 99t-130 29h-121z" />
    <glyph glyph-name="acute" unicode="&#xb4;" horiz-adv-x="929" 
d="M154 1688l261 424h392l-355 -424h-298z" />
    <glyph glyph-name="mu" unicode="&#xb5;" horiz-adv-x="1628" 
d="M1105 692v844h367v-1536h-339l-9 116q-128 -144 -325 -144q-75 0 -144.5 28.5t-127.5 92.5v-665h-371v2108h371v-849q0 -210 79 -302t202 -92q145 0 221 107.5t76 291.5z" />
    <glyph glyph-name="paragraph" unicode="&#xb6;" horiz-adv-x="1269" 
d="M1181 0h-300v716h-113q-220 0 -370.5 83.5t-228 229t-77.5 331.5q0 184 77.5 329.5t228 230t370.5 84.5h413v-2004z" />
    <glyph glyph-name="periodcentered" unicode="&#xb7;" horiz-adv-x="768" 
d="M158 755zM383 755q-93 0 -159 66t-66 161q0 92 67 157.5t158 65.5q92 0 158 -66t66 -157q0 -95 -66 -161t-158 -66z" />
    <glyph glyph-name="cedilla" unicode="&#xb8;" horiz-adv-x="923" 
d="M273 10h286l-16 -82q76 -12 140.5 -65.5t64.5 -170.5q0 -145 -120 -234t-352 -89l-10 221q70 0 115.5 25.5t45.5 86.5q0 59 -47 81t-151 29z" />
    <glyph glyph-name="onesuperior" unicode="&#xb9;" horiz-adv-x="1013" 
d="M768 1997v-1081h-272v760l-263 -58v214l511 165h24z" />
    <glyph glyph-name="ordmasculine" unicode="&#xba;" horiz-adv-x="1269" 
d="M158 1436v105q0 215 128.5 353t347.5 138q222 0 349 -138t127 -353v-105q0 -213 -126.5 -350t-345.5 -137q-222 0 -351 137t-129 350zM398 1541v-105q0 -123 60 -203.5t180 -80.5q117 0 174.5 80.5t57.5 203.5v105q0 122 -58 204.5t-178 82.5q-117 0 -176.5 -82.5
t-59.5 -204.5z" />
    <glyph glyph-name="guillemotright" unicode="&#xbb;" horiz-adv-x="1435" 
d="M157 181zM157 181l341 571l-341 571h250l388 -558v-26l-388 -558h-250zM700 181l341 571l-341 571h250l388 -558v-26l-388 -558h-250z" />
    <glyph glyph-name="onequarter" unicode="&#xbc;" horiz-adv-x="2126" 
d="M135 0zM670 1993v-1081h-272v760l-263 -58v214l511 165h24zM1602 1728l-976 -1564l-188 102l976 1566zM1981 446v-224h-123v-222h-276v222h-479l-16 181l494 681h277v-638h123zM1353 446h229v300l-19 -30z" />
    <glyph glyph-name="onehalf" unicode="&#xbd;" horiz-adv-x="2293" 
d="M212 0zM1641 1728l-976 -1564l-188 102l976 1566zM747 2001v-1081h-272v760l-263 -58v214l511 165h24zM2197 222v-222h-850v187l393 357q80 67 114 125.5t34 92.5q0 53 -34.5 85.5t-99.5 32.5q-80 0 -117.5 -46t-37.5 -107h-276q0 153 112.5 263t305.5 110
q201 0 312.5 -87.5t111.5 -250.5q0 -120 -73.5 -208t-222.5 -204l-161 -128h489z" />
    <glyph glyph-name="threequarters" unicode="&#xbe;" horiz-adv-x="2293" 
d="M276 0zM1888 1728l-976 -1564l-188 102l976 1566zM2256 446v-224h-123v-222h-276v222h-479l-16 181l494 681h277v-638h123zM1628 446h229v300l-19 -30zM582 1376v186h121q80 0 118.5 34t38.5 90q0 41 -33.5 75.5t-115.5 34.5q-58 0 -100 -23.5t-42 -65.5h-276
q0 101 57 170t151 104t204 35q193 0 312 -79.5t119 -231.5q0 -82 -50 -141t-134 -91q95 -26 149.5 -86.5t54.5 -166.5q0 -151 -129 -235.5t-322 -84.5q-103 0 -201.5 34t-163 109t-64.5 197h279q0 -46 43.5 -81t122.5 -35q83 0 121 37t38 87q0 70 -47.5 99t-129.5 29h-121z
" />
    <glyph glyph-name="questiondown" unicode="&#xbf;" horiz-adv-x="1525" 
d="M170 0zM651 904h331q0 -184 -44.5 -300.5t-110 -191.5t-131 -132.5t-110 -121.5t-44.5 -161q0 -122 62 -184.5t174 -62.5q91 0 165 61t75 201h377q-1 -193 -83.5 -319.5t-222 -188t-311.5 -61.5q-286 0 -447 145t-161 400q0 138 48 230t119 162.5t142 140t120.5 159.5
t51.5 224zM813 1541q100 0 164 -63t64 -155q0 -93 -64 -156.5t-164 -63.5q-98 0 -162 63.5t-64 156.5q0 92 64 155t162 63z" />
    <glyph glyph-name="Agrave" unicode="&#xc0;" horiz-adv-x="1958" 
d="M82 0zM505 0h-423l691 2048h412l691 -2048h-422l-132 441h-685zM967 1538l-234 -778h493l-233 778h-26zM901 2572l270 -424h-316l-377 424h423z" />
    <glyph glyph-name="Aacute" unicode="&#xc1;" horiz-adv-x="1958" 
d="M82 0zM505 0h-423l691 2048h412l691 -2048h-422l-132 441h-685zM967 1538l-234 -778h493l-233 778h-26zM800 2148l261 424h392l-355 -424h-298z" />
    <glyph glyph-name="Acircumflex" unicode="&#xc2;" horiz-adv-x="1958" 
d="M82 0zM505 0h-423l691 2048h412l691 -2048h-422l-132 441h-685zM967 1538l-234 -778h493l-233 778h-26zM448 2236zM762 2236l217 204l215 -204h312v13l-412 387h-233l-413 -387v-13h314z" />
    <glyph glyph-name="Atilde" unicode="&#xc3;" horiz-adv-x="1958" 
d="M82 0zM505 0h-423l691 2048h412l691 -2048h-422l-132 441h-685zM967 1538l-234 -778h493l-233 778h-26zM1271 2569l224 -16q0 -152 -88.5 -257.5t-223.5 -105.5q-88 0 -144 30t-107 60t-123 30q-50 0 -83.5 -35.5t-33.5 -98.5l-228 11q0 99 40.5 182.5t111 133.5
t160.5 50q73 0 132.5 -29.5t116.5 -59t125 -29.5q49 0 85 35.5t36 98.5z" />
    <glyph glyph-name="Adieresis" unicode="&#xc4;" horiz-adv-x="1958" 
d="M82 0zM505 0h-423l691 2048h412l691 -2048h-422l-132 441h-685zM967 1538l-234 -778h493l-233 778h-26zM458 2356q0 73 49.5 123.5t132.5 50.5t131.5 -50.5t48.5 -123.5q0 -71 -48.5 -121.5t-131.5 -50.5t-132.5 50.5t-49.5 121.5zM1137 2356q0 73 49.5 123.5t132.5 50.5
q82 0 131 -50.5t49 -123.5q0 -71 -49 -121.5t-131 -50.5q-83 0 -132.5 50.5t-49.5 121.5z" />
    <glyph glyph-name="Aring" unicode="&#xc5;" horiz-adv-x="1958" 
d="M82 0zM505 0h-423l691 2048h412l691 -2048h-422l-132 441h-685zM967 1538l-234 -778h493l-233 778h-26zM654 2445q0 124 93.5 214.5t234.5 90.5t233.5 -90.5t92.5 -214.5t-92.5 -210t-233.5 -86t-234.5 86t-93.5 210zM821 2445q0 -64 44.5 -111.5t116.5 -47.5t116.5 47.5
t44.5 111.5q0 65 -44.5 113.5t-116.5 48.5t-116.5 -48.5t-44.5 -113.5z" />
    <glyph glyph-name="AE" unicode="&#xc6;" horiz-adv-x="2752" 
d="M2629 314v-314h-1222l-18 443h-667l-223 -443h-439l1095 2048h1390v-314h-835l22 -548h701v-311h-689l22 -561h863zM881 760h495l-37 909z" />
    <glyph glyph-name="Ccedilla" unicode="&#xc7;" horiz-adv-x="1889" 
d="M140 0zM1373 637l394 -41q-27 -181 -126 -322t-265.5 -221.5t-393.5 -80.5q-268 0 -456 127t-287 363t-99 565q0 324 101 559.5t289.5 362.5t449.5 127q232 0 397.5 -82.5t263.5 -225t127 -323.5l-390 -42q-14 81 -55.5 159.5t-120 130.5t-204.5 52q-232 0 -351 -190
t-119 -528q0 -332 114 -526t356 -194q134 0 210 53t113 129.5t52 147.5zM855 4h286l-16 -82q76 -12 140.5 -65.5t64.5 -170.5q0 -145 -120 -234t-352 -89l-10 221q70 0 115.5 25.5t45.5 86.5q0 59 -47 81t-151 29z" />
    <glyph glyph-name="Egrave" unicode="&#xc8;" horiz-adv-x="1634" 
d="M167 0zM1495 327v-327h-1328v2048h1322v-327h-933v-533h806v-327h-806v-534h939zM771 2572l270 -424h-316l-377 424h423z" />
    <glyph glyph-name="Eacute" unicode="&#xc9;" horiz-adv-x="1634" 
d="M167 0zM1495 327v-327h-1328v2048h1322v-327h-933v-533h806v-327h-806v-534h939zM670 2148l261 424h392l-355 -424h-298z" />
    <glyph glyph-name="Ecircumflex" unicode="&#xca;" horiz-adv-x="1634" 
d="M167 0zM1495 327v-327h-1328v2048h1322v-327h-933v-533h806v-327h-806v-534h939zM318 2236zM632 2236l217 204l215 -204h312v13l-412 387h-233l-413 -387v-13h314z" />
    <glyph glyph-name="Edieresis" unicode="&#xcb;" horiz-adv-x="1634" 
d="M167 0zM1495 327v-327h-1328v2048h1322v-327h-933v-533h806v-327h-806v-534h939zM328 2356q0 73 49.5 123.5t132.5 50.5t131.5 -50.5t48.5 -123.5q0 -71 -48.5 -121.5t-131.5 -50.5t-132.5 50.5t-49.5 121.5zM1007 2356q0 73 49.5 123.5t132.5 50.5q82 0 131 -50.5
t49 -123.5q0 -71 -49 -121.5t-131 -50.5q-83 0 -132.5 50.5t-49.5 121.5z" />
    <glyph glyph-name="Igrave" unicode="&#xcc;" horiz-adv-x="726" 
d="M0 0zM550 2048v-2048h-388v2048h388zM278 2572l270 -424h-316l-377 424h423z" />
    <glyph glyph-name="Iacute" unicode="&#xcd;" horiz-adv-x="726" 
d="M162 0zM550 2048v-2048h-388v2048h388zM177 2148l261 424h392l-355 -424h-298z" />
    <glyph glyph-name="Icircumflex" unicode="&#xce;" horiz-adv-x="726" 
d="M0 0zM550 2048v-2048h-388v2048h388zM-175 2236zM139 2236l217 204l215 -204h312v13l-412 387h-233l-413 -387v-13h314z" />
    <glyph glyph-name="Idieresis" unicode="&#xcf;" horiz-adv-x="726" 
d="M0 0zM550 2048v-2048h-388v2048h388zM-165 2356q0 73 49.5 123.5t132.5 50.5t131.5 -50.5t48.5 -123.5q0 -71 -48.5 -121.5t-131.5 -50.5t-132.5 50.5t-49.5 121.5zM514 2356q0 73 49.5 123.5t132.5 50.5q82 0 131 -50.5t49 -123.5q0 -71 -49 -121.5t-131 -50.5
q-83 0 -132.5 50.5t-49.5 121.5z" />
    <glyph glyph-name="Eth" unicode="&#xd0;" horiz-adv-x="1900" 
d="M840 0h-648v898h-137v236h137v914h658q272 0 485.5 -128t336.5 -356t123 -526q0 -333 -124 -565t-339.5 -352.5t-491.5 -120.5zM1008 1134v-236h-428v-561h242q258 0 418 165.5t160 535.5q0 210 -73 361t-202 231.5t-296 80.5h-249v-577h428z" />
    <glyph glyph-name="Ntilde" unicode="&#xd1;" horiz-adv-x="1970" 
d="M167 0zM1803 2048v-2048h-380l-850 1380h-17v-1380h-389v2048h383l849 -1383h17v1383h387zM1321 2569l224 -16q0 -152 -88.5 -257.5t-223.5 -105.5q-88 0 -144 30t-107 60t-123 30q-50 0 -83.5 -35.5t-33.5 -98.5l-228 11q0 99 40.5 182.5t111 133.5t160.5 50
q73 0 132.5 -29.5t116.5 -59t125 -29.5q49 0 85 35.5t36 98.5z" />
    <glyph glyph-name="Ograve" unicode="&#xd2;" horiz-adv-x="1996" 
d="M140 0zM1856 1021q0 -329 -109 -564t-302 -360t-445 -125t-446 125t-304 360t-110 564q0 331 109.5 567t303 362t445.5 126q251 0 444.5 -126t303.5 -362t110 -567zM1468 1008q0 350 -128 532.5t-345 182.5q-216 0 -341.5 -178.5t-125.5 -536.5q0 -346 130.5 -528
t344.5 -182q210 0 337.5 182t127.5 528zM918 2572l270 -424h-316l-377 424h423z" />
    <glyph glyph-name="Oacute" unicode="&#xd3;" horiz-adv-x="1996" 
d="M140 0zM1856 1021q0 -329 -109 -564t-302 -360t-445 -125t-446 125t-304 360t-110 564q0 331 109.5 567t303 362t445.5 126q251 0 444.5 -126t303.5 -362t110 -567zM1468 1008q0 350 -128 532.5t-345 182.5q-216 0 -341.5 -178.5t-125.5 -536.5q0 -346 130.5 -528
t344.5 -182q210 0 337.5 182t127.5 528zM817 2148l261 424h392l-355 -424h-298z" />
    <glyph glyph-name="Ocircumflex" unicode="&#xd4;" horiz-adv-x="1996" 
d="M140 0zM1856 1021q0 -329 -109 -564t-302 -360t-445 -125t-446 125t-304 360t-110 564q0 331 109.5 567t303 362t445.5 126q251 0 444.5 -126t303.5 -362t110 -567zM1468 1008q0 350 -128 532.5t-345 182.5q-216 0 -341.5 -178.5t-125.5 -536.5q0 -346 130.5 -528
t344.5 -182q210 0 337.5 182t127.5 528zM465 2236zM779 2236l217 204l215 -204h312v13l-412 387h-233l-413 -387v-13h314z" />
    <glyph glyph-name="Otilde" unicode="&#xd5;" horiz-adv-x="1996" 
d="M140 0zM1856 1021q0 -329 -109 -564t-302 -360t-445 -125t-446 125t-304 360t-110 564q0 331 109.5 567t303 362t445.5 126q251 0 444.5 -126t303.5 -362t110 -567zM1468 1008q0 350 -128 532.5t-345 182.5q-216 0 -341.5 -178.5t-125.5 -536.5q0 -346 130.5 -528
t344.5 -182q210 0 337.5 182t127.5 528zM1288 2569l224 -16q0 -152 -88.5 -257.5t-223.5 -105.5q-88 0 -144 30t-107 60t-123 30q-50 0 -83.5 -35.5t-33.5 -98.5l-228 11q0 99 40.5 182.5t111 133.5t160.5 50q73 0 132.5 -29.5t116.5 -59t125 -29.5q49 0 85 35.5t36 98.5z
" />
    <glyph glyph-name="Odieresis" unicode="&#xd6;" horiz-adv-x="1996" 
d="M140 0zM1856 1021q0 -329 -109 -564t-302 -360t-445 -125t-446 125t-304 360t-110 564q0 331 109.5 567t303 362t445.5 126q251 0 444.5 -126t303.5 -362t110 -567zM1468 1008q0 350 -128 532.5t-345 182.5q-216 0 -341.5 -178.5t-125.5 -536.5q0 -346 130.5 -528
t344.5 -182q210 0 337.5 182t127.5 528zM475 2356q0 73 49.5 123.5t132.5 50.5t131.5 -50.5t48.5 -123.5q0 -71 -48.5 -121.5t-131.5 -50.5t-132.5 50.5t-49.5 121.5zM1154 2356q0 73 49.5 123.5t132.5 50.5q82 0 131 -50.5t49 -123.5q0 -71 -49 -121.5t-131 -50.5
q-83 0 -132.5 50.5t-49.5 121.5z" />
    <glyph glyph-name="multiply" unicode="&#xd7;" horiz-adv-x="1536" 
d="M345 286l-220 218l426 434l-432 440l220 218l429 -437l429 437l220 -218l-432 -440l426 -434l-220 -218l-423 431z" />
    <glyph glyph-name="Oslash" unicode="&#xd8;" horiz-adv-x="1996" 
d="M1856 1021q0 -329 -109 -564t-302 -360t-445 -125q-229 0 -411 103l-97 -163h-255l178 299q-130 135 -202.5 340t-72.5 470q0 331 109.5 567t303 362t445.5 126q255 0 450 -130l111 186h250l-197 -332q115 -136 179.5 -332.5t64.5 -446.5zM528 1008q0 -142 23 -256.5
t66 -201.5l643 1080q-110 93 -265 93q-216 0 -341.5 -178.5t-125.5 -536.5zM1468 1008q0 256 -72 428l-632 -1065q103 -73 239 -73q210 0 337.5 182t127.5 528z" />
    <glyph glyph-name="Ugrave" unicode="&#xd9;" horiz-adv-x="1972" 
d="M167 0zM1416 2048h389v-1351q0 -231 -108.5 -393t-294 -247t-417.5 -85q-237 0 -422 85t-290.5 247t-105.5 393v1351h389v-1351q0 -175 123 -280t307 -105q182 0 306 105t124 280v1351zM906 2572l270 -424h-316l-377 424h423z" />
    <glyph glyph-name="Uacute" unicode="&#xda;" horiz-adv-x="1972" 
d="M167 0zM1416 2048h389v-1351q0 -231 -108.5 -393t-294 -247t-417.5 -85q-237 0 -422 85t-290.5 247t-105.5 393v1351h389v-1351q0 -175 123 -280t307 -105q182 0 306 105t124 280v1351zM805 2148l261 424h392l-355 -424h-298z" />
    <glyph glyph-name="Ucircumflex" unicode="&#xdb;" horiz-adv-x="1972" 
d="M167 0zM1416 2048h389v-1351q0 -231 -108.5 -393t-294 -247t-417.5 -85q-237 0 -422 85t-290.5 247t-105.5 393v1351h389v-1351q0 -175 123 -280t307 -105q182 0 306 105t124 280v1351zM453 2236zM767 2236l217 204l215 -204h312v13l-412 387h-233l-413 -387v-13h314z
" />
    <glyph glyph-name="Udieresis" unicode="&#xdc;" horiz-adv-x="1972" 
d="M167 0zM1416 2048h389v-1351q0 -231 -108.5 -393t-294 -247t-417.5 -85q-237 0 -422 85t-290.5 247t-105.5 393v1351h389v-1351q0 -175 123 -280t307 -105q182 0 306 105t124 280v1351zM463 2356q0 73 49.5 123.5t132.5 50.5t131.5 -50.5t48.5 -123.5q0 -71 -48.5 -121.5
t-131.5 -50.5t-132.5 50.5t-49.5 121.5zM1142 2356q0 73 49.5 123.5t132.5 50.5q82 0 131 -50.5t49 -123.5q0 -71 -49 -121.5t-131 -50.5q-83 0 -132.5 50.5t-49.5 121.5z" />
    <glyph glyph-name="Yacute" unicode="&#xdd;" horiz-adv-x="1914" 
d="M82 0zM500 2048l457 -924l457 924h417l-680 -1290v-758h-388v758l-681 1290h418zM778 2148l261 424h392l-355 -424h-298z" />
    <glyph glyph-name="Thorn" unicode="&#xde;" horiz-adv-x="1781" 
d="M162 2048h388v-388h310q236 0 399.5 -80.5t247.5 -220t84 -315.5t-84 -316t-247.5 -220.5t-399.5 -80.5h-310v-427h-388v2048zM860 1352h-310v-616h310q186 0 273 86.5t87 217.5q0 133 -87 222.5t-273 89.5z" />
    <glyph glyph-name="germandbls" unicode="&#xdf;" horiz-adv-x="1699" 
d="M492 1511v-1511h-371v1516q0 312 170.5 470.5t459.5 158.5q151 0 280 -56t208.5 -168.5t79.5 -281.5q0 -103 -23 -165.5t-52.5 -107.5t-52.5 -95.5t-23 -129.5q0 -58 42.5 -109.5t105 -105t125.5 -116.5t105.5 -142.5t42.5 -183.5q0 -246 -157.5 -379t-446.5 -133
q-116 0 -225 25t-167 61l86 295q43 -23 121 -48.5t175 -25.5q246 0 246 197q0 68 -43 121t-106 103t-126 108t-106 134t-43 183q0 91 24 151.5t55 110t55 104.5t24 135q0 100 -68.5 156t-163.5 56q-109 0 -170 -74t-61 -253z" />
    <glyph glyph-name="agrave" unicode="&#xe0;" horiz-adv-x="1543" 
d="M105 0zM1019 0v159h-12q-36 -65 -134.5 -127.5t-256.5 -62.5q-143 0 -259 52.5t-184 152t-68 240.5q0 239 184 377t569 138h145v64q0 140 -65.5 204.5t-183.5 64.5q-106 0 -174 -50t-105 -142l-358 68q47 152 150 244t235 133t266 41q168 0 309 -58t225.5 -186t84.5 -337
v-975h-368zM1003 674h-142q-182 0 -283.5 -61.5t-101.5 -182.5q0 -92 64 -131.5t141 -39.5q133 0 227.5 74t94.5 177v164zM685 2118l270 -424h-316l-377 424h423z" />
    <glyph glyph-name="aacute" unicode="&#xe1;" horiz-adv-x="1543" 
d="M105 0zM1019 0v159h-12q-36 -65 -134.5 -127.5t-256.5 -62.5q-143 0 -259 52.5t-184 152t-68 240.5q0 239 184 377t569 138h145v64q0 140 -65.5 204.5t-183.5 64.5q-106 0 -174 -50t-105 -142l-358 68q47 152 150 244t235 133t266 41q168 0 309 -58t225.5 -186t84.5 -337
v-975h-368zM1003 674h-142q-182 0 -283.5 -61.5t-101.5 -182.5q0 -92 64 -131.5t141 -39.5q133 0 227.5 74t94.5 177v164zM584 1694l261 424h392l-355 -424h-298z" />
    <glyph glyph-name="acircumflex" unicode="&#xe2;" horiz-adv-x="1543" 
d="M105 0zM1019 0v159h-12q-36 -65 -134.5 -127.5t-256.5 -62.5q-143 0 -259 52.5t-184 152t-68 240.5q0 239 184 377t569 138h145v64q0 140 -65.5 204.5t-183.5 64.5q-106 0 -174 -50t-105 -142l-358 68q47 152 150 244t235 133t266 41q168 0 309 -58t225.5 -186t84.5 -337
v-975h-368zM1003 674h-142q-182 0 -283.5 -61.5t-101.5 -182.5q0 -92 64 -131.5t141 -39.5q133 0 227.5 74t94.5 177v164zM232 1782zM546 1782l217 204l215 -204h312v13l-412 387h-233l-413 -387v-13h314z" />
    <glyph glyph-name="atilde" unicode="&#xe3;" horiz-adv-x="1543" 
d="M105 0zM1019 0v159h-12q-36 -65 -134.5 -127.5t-256.5 -62.5q-143 0 -259 52.5t-184 152t-68 240.5q0 239 184 377t569 138h145v64q0 140 -65.5 204.5t-183.5 64.5q-106 0 -174 -50t-105 -142l-358 68q47 152 150 244t235 133t266 41q168 0 309 -58t225.5 -186t84.5 -337
v-975h-368zM1003 674h-142q-182 0 -283.5 -61.5t-101.5 -182.5q0 -92 64 -131.5t141 -39.5q133 0 227.5 74t94.5 177v164zM1055 2115l224 -16q0 -152 -88.5 -257.5t-223.5 -105.5q-88 0 -144 30t-107 60t-123 30q-50 0 -83.5 -35.5t-33.5 -98.5l-228 11q0 99 40.5 182.5
t111 133.5t160.5 50q73 0 132.5 -29.5t116.5 -59t125 -29.5q49 0 85 35.5t36 98.5z" />
    <glyph glyph-name="adieresis" unicode="&#xe4;" horiz-adv-x="1543" 
d="M105 0zM1019 0v159h-12q-36 -65 -134.5 -127.5t-256.5 -62.5q-143 0 -259 52.5t-184 152t-68 240.5q0 239 184 377t569 138h145v64q0 140 -65.5 204.5t-183.5 64.5q-106 0 -174 -50t-105 -142l-358 68q47 152 150 244t235 133t266 41q168 0 309 -58t225.5 -186t84.5 -337
v-975h-368zM1003 674h-142q-182 0 -283.5 -61.5t-101.5 -182.5q0 -92 64 -131.5t141 -39.5q133 0 227.5 74t94.5 177v164zM242 1902q0 73 49.5 123.5t132.5 50.5t131.5 -50.5t48.5 -123.5q0 -71 -48.5 -121.5t-131.5 -50.5t-132.5 50.5t-49.5 121.5zM921 1902
q0 73 49.5 123.5t132.5 50.5q82 0 131 -50.5t49 -123.5q0 -71 -49 -121.5t-131 -50.5q-83 0 -132.5 50.5t-49.5 121.5z" />
    <glyph glyph-name="aring" unicode="&#xe5;" horiz-adv-x="1543" 
d="M105 0zM1019 0v159h-12q-36 -65 -134.5 -127.5t-256.5 -62.5q-143 0 -259 52.5t-184 152t-68 240.5q0 239 184 377t569 138h145v64q0 140 -65.5 204.5t-183.5 64.5q-106 0 -174 -50t-105 -142l-358 68q47 152 150 244t235 133t266 41q168 0 309 -58t225.5 -186t84.5 -337
v-975h-368zM1003 674h-142q-182 0 -283.5 -61.5t-101.5 -182.5q0 -92 64 -131.5t141 -39.5q133 0 227.5 74t94.5 177v164zM438 1991q0 124 93.5 214.5t234.5 90.5t233.5 -90.5t92.5 -214.5t-92.5 -210t-233.5 -86t-234.5 86t-93.5 210zM605 1991q0 -64 44.5 -111.5
t116.5 -47.5t116.5 47.5t44.5 111.5q0 65 -44.5 113.5t-116.5 48.5t-116.5 -48.5t-44.5 -113.5z" />
    <glyph glyph-name="ae" unicode="&#xe6;" horiz-adv-x="2484" 
d="M1758 -29q-181 0 -322 64t-236 177q-80 -93 -227 -168t-342 -75q-149 0 -266.5 56t-186 156.5t-68.5 232.5q0 247 184 378.5t570 131.5h144v69q0 140 -65.5 204.5t-183.5 64.5q-106 0 -173.5 -50t-105.5 -142l-358 68q48 152 151 244t234.5 133t265.5 41
q143 0 268.5 -41.5t211.5 -132.5q87 83 204 128.5t261 45.5q308 0 488.5 -193t180.5 -563v-160h-994v-12q28 -165 129 -254.5t254 -89.5q114 0 190 46t135 137l245 -198q-68 -120 -217.5 -209t-370.5 -89zM1717 1245q-135 0 -215.5 -93.5t-106.5 -247.5h634
q0 144 -78.5 242.5t-233.5 98.5zM1008 670h-142q-182 0 -283.5 -59.5t-101.5 -180.5q0 -92 64 -131.5t141 -39.5q133 0 227.5 74t94.5 177v160z" />
    <glyph glyph-name="ccedilla" unicode="&#xe7;" horiz-adv-x="1537" 
d="M100 0zM1449 1042l-348 -49q-11 44 -42.5 103.5t-93 104t-163.5 44.5q-170 0 -253 -138.5t-83 -341.5q0 -211 84 -346t253 -135q137 0 205.5 72t90.5 157l350 -47q-32 -225 -205 -360t-436 -135q-223 0 -381.5 102t-242.5 281t-84 411q0 229 84 407.5t242 281t380 102.5
q182 0 319 -67t220 -183t104 -264zM671 -1h286l-16 -82q76 -12 140.5 -65.5t64.5 -170.5q0 -145 -120 -234t-352 -89l-10 221q70 0 115.5 25.5t45.5 86.5q0 59 -47 81t-151 29z" />
    <glyph glyph-name="egrave" unicode="&#xe8;" horiz-adv-x="1564" 
d="M100 0zM837 -29q-231 0 -396 102.5t-253 279t-88 399.5q0 233 82 414.5t238 285.5t378 104q308 0 488.5 -196t180.5 -566v-160h-995q27 -167 128 -258.5t256 -91.5q113 0 189 46t136 137l245 -198q-68 -120 -218 -209t-371 -89zM797 1245q-137 0 -217.5 -95.5
t-105.5 -251.5h635q0 144 -79 245.5t-233 101.5zM721 2118l270 -424h-316l-377 424h423z" />
    <glyph glyph-name="eacute" unicode="&#xe9;" horiz-adv-x="1564" 
d="M100 0zM837 -29q-231 0 -396 102.5t-253 279t-88 399.5q0 233 82 414.5t238 285.5t378 104q308 0 488.5 -196t180.5 -566v-160h-995q27 -167 128 -258.5t256 -91.5q113 0 189 46t136 137l245 -198q-68 -120 -218 -209t-371 -89zM797 1245q-137 0 -217.5 -95.5
t-105.5 -251.5h635q0 144 -79 245.5t-233 101.5zM620 1694l261 424h392l-355 -424h-298z" />
    <glyph glyph-name="ecircumflex" unicode="&#xea;" horiz-adv-x="1564" 
d="M100 0zM837 -29q-231 0 -396 102.5t-253 279t-88 399.5q0 233 82 414.5t238 285.5t378 104q308 0 488.5 -196t180.5 -566v-160h-995q27 -167 128 -258.5t256 -91.5q113 0 189 46t136 137l245 -198q-68 -120 -218 -209t-371 -89zM797 1245q-137 0 -217.5 -95.5
t-105.5 -251.5h635q0 144 -79 245.5t-233 101.5zM268 1782zM582 1782l217 204l215 -204h312v13l-412 387h-233l-413 -387v-13h314z" />
    <glyph glyph-name="edieresis" unicode="&#xeb;" horiz-adv-x="1564" 
d="M100 0zM837 -29q-231 0 -396 102.5t-253 279t-88 399.5q0 233 82 414.5t238 285.5t378 104q308 0 488.5 -196t180.5 -566v-160h-995q27 -167 128 -258.5t256 -91.5q113 0 189 46t136 137l245 -198q-68 -120 -218 -209t-371 -89zM797 1245q-137 0 -217.5 -95.5
t-105.5 -251.5h635q0 144 -79 245.5t-233 101.5zM278 1902q0 73 49.5 123.5t132.5 50.5t131.5 -50.5t48.5 -123.5q0 -71 -48.5 -121.5t-131.5 -50.5t-132.5 50.5t-49.5 121.5zM957 1902q0 73 49.5 123.5t132.5 50.5q82 0 131 -50.5t49 -123.5q0 -71 -49 -121.5t-131 -50.5
q-83 0 -132.5 50.5t-49.5 121.5z" />
    <glyph glyph-name="igrave" unicode="&#xec;" horiz-adv-x="714" 
d="M0 0zM548 1536v-1536h-382v1536h382zM276 2098l270 -424h-316l-377 424h423z" />
    <glyph glyph-name="iacute" unicode="&#xed;" horiz-adv-x="714" 
d="M166 0zM548 1536v-1536h-382v1536h382zM175 1674l261 424h392l-355 -424h-298z" />
    <glyph glyph-name="icircumflex" unicode="&#xee;" horiz-adv-x="714" 
d="M0 0zM548 1536v-1536h-382v1536h382zM-177 1762zM137 1762l217 204l215 -204h312v13l-412 387h-233l-413 -387v-13h314z" />
    <glyph glyph-name="idieresis" unicode="&#xef;" horiz-adv-x="714" 
d="M0 0zM548 1536v-1536h-382v1536h382zM-167 1882q0 73 49.5 123.5t132.5 50.5t131.5 -50.5t48.5 -123.5q0 -71 -48.5 -121.5t-131.5 -50.5t-132.5 50.5t-49.5 121.5zM512 1882q0 73 49.5 123.5t132.5 50.5q82 0 131 -50.5t49 -123.5q0 -71 -49 -121.5t-131 -50.5
q-83 0 -132.5 50.5t-49.5 121.5z" />
    <glyph glyph-name="eth" unicode="&#xf0;" horiz-adv-x="1709" 
d="M368 1879l115 294q325 -67 570 -249l237 152l108 -154l-197 -127q166 -169 259 -397t93 -505v-105q0 -242 -92 -425.5t-251.5 -287t-363.5 -103.5t-359 90.5t-241.5 243t-86.5 338.5q0 207 75 361.5t214.5 239.5t331.5 85q103 0 193 -31.5t161 -87.5q-35 119 -96 215.5
t-140 173.5l-274 -177l-108 156l224 144q-86 53 -180 92t-192 64zM537 644q0 -146 84.5 -253.5t231.5 -107.5q155 0 240 134.5t85 334.5v141q-36 57 -113 102t-198 45q-159 0 -244.5 -106t-85.5 -290z" />
    <glyph glyph-name="ntilde" unicode="&#xf1;" horiz-adv-x="1623" 
d="M156 0zM538 848v-848h-382v1536h358v-198h16q62 96 171.5 157t256.5 61q134 0 250.5 -59t187.5 -189t71 -342v-966h-382v950q0 139 -74.5 214.5t-186.5 75.5q-130 0 -208 -105.5t-78 -286.5zM1077 2115l224 -16q0 -152 -88.5 -257.5t-223.5 -105.5q-88 0 -144 30t-107 60
t-123 30q-50 0 -83.5 -35.5t-33.5 -98.5l-228 11q0 99 40.5 182.5t111 133.5t160.5 50q73 0 132.5 -29.5t116.5 -59t125 -29.5q49 0 85 35.5t36 98.5z" />
    <glyph glyph-name="ograve" unicode="&#xf2;" horiz-adv-x="1586" 
d="M100 0zM793 -27q-199 0 -355.5 90.5t-247 267.5t-90.5 437q0 249 92.5 425t249 269.5t348.5 93.5q194 0 351.5 -91t251 -267t93.5 -430q0 -263 -90.5 -440t-247 -266t-355.5 -89zM790 284q152 0 242.5 120t90.5 364t-91.5 360.5t-241.5 116.5q-146 0 -234 -120.5
t-88 -356.5t85 -360t237 -124zM714 2118l270 -424h-316l-377 424h423z" />
    <glyph glyph-name="oacute" unicode="&#xf3;" horiz-adv-x="1586" 
d="M100 0zM793 -27q-199 0 -355.5 90.5t-247 267.5t-90.5 437q0 249 92.5 425t249 269.5t348.5 93.5q194 0 351.5 -91t251 -267t93.5 -430q0 -263 -90.5 -440t-247 -266t-355.5 -89zM790 284q152 0 242.5 120t90.5 364t-91.5 360.5t-241.5 116.5q-146 0 -234 -120.5
t-88 -356.5t85 -360t237 -124zM613 1694l261 424h392l-355 -424h-298z" />
    <glyph glyph-name="ocircumflex" unicode="&#xf4;" horiz-adv-x="1586" 
d="M100 0zM793 -27q-199 0 -355.5 90.5t-247 267.5t-90.5 437q0 249 92.5 425t249 269.5t348.5 93.5q194 0 351.5 -91t251 -267t93.5 -430q0 -263 -90.5 -440t-247 -266t-355.5 -89zM790 284q152 0 242.5 120t90.5 364t-91.5 360.5t-241.5 116.5q-146 0 -234 -120.5
t-88 -356.5t85 -360t237 -124zM261 1782zM575 1782l217 204l215 -204h312v13l-412 387h-233l-413 -387v-13h314z" />
    <glyph glyph-name="otilde" unicode="&#xf5;" horiz-adv-x="1586" 
d="M100 0zM793 -27q-199 0 -355.5 90.5t-247 267.5t-90.5 437q0 249 92.5 425t249 269.5t348.5 93.5q194 0 351.5 -91t251 -267t93.5 -430q0 -263 -90.5 -440t-247 -266t-355.5 -89zM790 284q152 0 242.5 120t90.5 364t-91.5 360.5t-241.5 116.5q-146 0 -234 -120.5
t-88 -356.5t85 -360t237 -124zM1084 2115l224 -16q0 -152 -88.5 -257.5t-223.5 -105.5q-88 0 -144 30t-107 60t-123 30q-50 0 -83.5 -35.5t-33.5 -98.5l-228 11q0 99 40.5 182.5t111 133.5t160.5 50q73 0 132.5 -29.5t116.5 -59t125 -29.5q49 0 85 35.5t36 98.5z" />
    <glyph glyph-name="odieresis" unicode="&#xf6;" horiz-adv-x="1586" 
d="M100 0zM793 -27q-199 0 -355.5 90.5t-247 267.5t-90.5 437q0 249 92.5 425t249 269.5t348.5 93.5q194 0 351.5 -91t251 -267t93.5 -430q0 -263 -90.5 -440t-247 -266t-355.5 -89zM790 284q152 0 242.5 120t90.5 364t-91.5 360.5t-241.5 116.5q-146 0 -234 -120.5
t-88 -356.5t85 -360t237 -124zM271 1902q0 73 49.5 123.5t132.5 50.5t131.5 -50.5t48.5 -123.5q0 -71 -48.5 -121.5t-131.5 -50.5t-132.5 50.5t-49.5 121.5zM950 1902q0 73 49.5 123.5t132.5 50.5q82 0 131 -50.5t49 -123.5q0 -71 -49 -121.5t-131 -50.5q-83 0 -132.5 50.5
t-49.5 121.5z" />
    <glyph glyph-name="divide" unicode="&#xf7;" horiz-adv-x="1792" 
d="M676 1463q0 89 59.5 146.5t160.5 57.5q100 0 160 -57.5t60 -146.5q0 -88 -60 -144.5t-160 -56.5q-101 0 -160.5 56.5t-59.5 144.5zM1585 1071v-295h-1376v295h1376zM676 381q0 89 59.5 147.5t160.5 58.5q100 0 160 -58.5t60 -147.5q0 -87 -60 -143.5t-160 -56.5
q-101 0 -160.5 56.5t-59.5 143.5z" />
    <glyph glyph-name="oslash" unicode="&#xf8;" horiz-adv-x="1586" 
d="M793 -27q-137 0 -254 43l-93 -190h-215l138 284q-124 97 -196.5 262.5t-72.5 395.5q0 249 92.5 425t249 269.5t348.5 93.5q140 0 262 -48l89 183h217l-137 -280q121 -99 193 -260.5t72 -382.5q0 -263 -90.5 -440t-247 -266t-355.5 -89zM468 768q0 -203 64 -325l380 779
q-55 23 -122 23q-146 0 -234 -120.5t-88 -356.5zM790 284q152 0 242.5 120t90.5 364q0 195 -63 314l-380 -778q50 -20 110 -20z" />
    <glyph glyph-name="ugrave" unicode="&#xf9;" horiz-adv-x="1623" 
d="M156 0zM1085 681v855h382v-1536h-359v182h-16q-62 -85 -171 -143.5t-256 -58.5q-123 0 -240 58t-193 187.5t-76 344.5v966h382v-955q0 -139 74 -212t186 -73q130 0 208.5 102t78.5 283zM718 2118l270 -424h-316l-377 424h423z" />
    <glyph glyph-name="uacute" unicode="&#xfa;" horiz-adv-x="1623" 
d="M156 0zM1085 681v855h382v-1536h-359v182h-16q-62 -85 -171 -143.5t-256 -58.5q-123 0 -240 58t-193 187.5t-76 344.5v966h382v-955q0 -139 74 -212t186 -73q130 0 208.5 102t78.5 283zM617 1694l261 424h392l-355 -424h-298z" />
    <glyph glyph-name="ucircumflex" unicode="&#xfb;" horiz-adv-x="1623" 
d="M156 0zM1085 681v855h382v-1536h-359v182h-16q-62 -85 -171 -143.5t-256 -58.5q-123 0 -240 58t-193 187.5t-76 344.5v966h382v-955q0 -139 74 -212t186 -73q130 0 208.5 102t78.5 283zM265 1782zM579 1782l217 204l215 -204h312v13l-412 387h-233l-413 -387v-13h314z
" />
    <glyph glyph-name="udieresis" unicode="&#xfc;" horiz-adv-x="1623" 
d="M156 0zM1085 681v855h382v-1536h-359v182h-16q-62 -85 -171 -143.5t-256 -58.5q-123 0 -240 58t-193 187.5t-76 344.5v966h382v-955q0 -139 74 -212t186 -73q130 0 208.5 102t78.5 283zM275 1902q0 73 49.5 123.5t132.5 50.5t131.5 -50.5t48.5 -123.5q0 -71 -48.5 -121.5
t-131.5 -50.5t-132.5 50.5t-49.5 121.5zM954 1902q0 73 49.5 123.5t132.5 50.5q82 0 131 -50.5t49 -123.5q0 -71 -49 -121.5t-131 -50.5q-83 0 -132.5 50.5t-49.5 121.5z" />
    <glyph glyph-name="yacute" unicode="&#xfd;" horiz-adv-x="1525" 
d="M57 0zM571 -63l30 95l-544 1504h399l316 -955l298 955h399l-572 -1759q-30 -91 -97 -177.5t-173 -143t-253 -56.5q-103 0 -185 25v306q35 -5 80 -5q121 0 191.5 48t110.5 163zM583 1694l261 424h392l-355 -424h-298z" />
    <glyph glyph-name="thorn" unicode="&#xfe;" horiz-adv-x="1648" 
d="M156 2048h382v-623h9q59 60 143 95.5t198 35.5q196 0 346 -101t235 -279t85 -411q0 -234 -85 -413t-236 -280t-347 -101q-117 0 -202.5 36t-145.5 97v-680h-382v2624zM534 535q22 -93 101.5 -172t213.5 -79q169 0 254 134.5t85 346.5q0 209 -85 344.5t-253 135.5
q-100 0 -165.5 -46.5t-102 -109.5t-49.5 -114q-13 -54 -18 -110.5t-6 -95.5q1 -42 6.5 -111t18.5 -123z" />
    <glyph glyph-name="ydieresis" unicode="&#xff;" horiz-adv-x="1525" 
d="M57 0zM571 -63l30 95l-544 1504h399l316 -955l298 955h399l-572 -1759q-30 -91 -97 -177.5t-173 -143t-253 -56.5q-103 0 -185 25v306q35 -5 80 -5q121 0 191.5 48t110.5 163zM241 1902q0 73 49.5 123.5t132.5 50.5t131.5 -50.5t48.5 -123.5q0 -71 -48.5 -121.5
t-131.5 -50.5t-132.5 50.5t-49.5 121.5zM920 1902q0 73 49.5 123.5t132.5 50.5q82 0 131 -50.5t49 -123.5q0 -71 -49 -121.5t-131 -50.5q-83 0 -132.5 50.5t-49.5 121.5z" />
    <glyph glyph-name="Amacron" unicode="&#x100;" horiz-adv-x="1958" 
d="M82 0zM505 0h-423l691 2048h412l691 -2048h-422l-132 441h-685zM967 1538l-234 -778h493l-233 778h-26zM1456 2457v-224h-948v224h948z" />
    <glyph glyph-name="amacron" unicode="&#x101;" horiz-adv-x="1543" 
d="M105 0zM1019 0v159h-12q-36 -65 -134.5 -127.5t-256.5 -62.5q-143 0 -259 52.5t-184 152t-68 240.5q0 239 184 377t569 138h145v64q0 140 -65.5 204.5t-183.5 64.5q-106 0 -174 -50t-105 -142l-358 68q47 152 150 244t235 133t266 41q168 0 309 -58t225.5 -186t84.5 -337
v-975h-368zM1003 674h-142q-182 0 -283.5 -61.5t-101.5 -182.5q0 -92 64 -131.5t141 -39.5q133 0 227.5 74t94.5 177v164zM1240 2003v-224h-948v224h948z" />
    <glyph glyph-name="Abreve" unicode="&#x102;" horiz-adv-x="1958" 
d="M82 0zM505 0h-423l691 2048h412l691 -2048h-422l-132 441h-685zM967 1538l-234 -778h493l-233 778h-26zM1173 2555h277q0 -178 -126.5 -291t-344.5 -113q-214 0 -340 113t-126 291h274q0 -72 43.5 -127.5t148.5 -55.5t149.5 55.5t44.5 127.5z" />
    <glyph glyph-name="abreve" unicode="&#x103;" horiz-adv-x="1543" 
d="M105 0zM1019 0v159h-12q-36 -65 -134.5 -127.5t-256.5 -62.5q-143 0 -259 52.5t-184 152t-68 240.5q0 239 184 377t569 138h145v64q0 140 -65.5 204.5t-183.5 64.5q-106 0 -174 -50t-105 -142l-358 68q47 152 150 244t235 133t266 41q168 0 309 -58t225.5 -186t84.5 -337
v-975h-368zM1003 674h-142q-182 0 -283.5 -61.5t-101.5 -182.5q0 -92 64 -131.5t141 -39.5q133 0 227.5 74t94.5 177v164zM957 2101h277q0 -178 -126.5 -291t-344.5 -113q-214 0 -340 113t-126 291h274q0 -72 43.5 -127.5t148.5 -55.5t149.5 55.5t44.5 127.5z" />
    <glyph glyph-name="Aogonek" unicode="&#x104;" horiz-adv-x="1958" 
d="M505 0h-423l691 2048h412l691 -2048h-67q-102 -60 -158 -117.5t-56 -131.5q0 -41 20.5 -66t73.5 -25q39 0 65 10t45 18l39 -210q-34 -21 -89 -40.5t-137 -19.5q-130 0 -219.5 71.5t-89.5 210.5q0 78 37 154.5t130 145.5h-16l-132 441h-685zM967 1538l-234 -778h493
l-233 778h-26z" />
    <glyph glyph-name="aogonek" unicode="&#x105;" horiz-adv-x="1543" 
d="M1019 0v159h-12q-36 -65 -134.5 -127.5t-256.5 -62.5q-143 0 -259 52.5t-184 152t-68 240.5q0 239 184 377t569 138h145v64q0 140 -65.5 204.5t-183.5 64.5q-106 0 -174 -50t-105 -142l-358 68q47 152 150 244t235 133t266 41q168 0 309 -58t225.5 -186t84.5 -337v-975
h-7q-102 -60 -158 -117.5t-56 -131.5q0 -41 21 -66t73 -25q39 0 64.5 10t45.5 18l39 -210q-35 -21 -89.5 -40.5t-136.5 -19.5q-130 0 -219.5 71.5t-89.5 210.5q0 78 37 154.5t130 145.5h-22zM1003 674h-142q-182 0 -283.5 -61.5t-101.5 -182.5q0 -92 64 -131.5t141 -39.5
q133 0 227.5 74t94.5 177v164z" />
    <glyph glyph-name="Cacute" unicode="&#x106;" horiz-adv-x="1889" 
d="M140 0zM1373 637l394 -41q-27 -181 -126 -322t-265.5 -221.5t-393.5 -80.5q-268 0 -456 127t-287 363t-99 565q0 324 101 559.5t289.5 362.5t449.5 127q232 0 397.5 -82.5t263.5 -225t127 -323.5l-390 -42q-14 81 -55.5 159.5t-120 130.5t-204.5 52q-232 0 -351 -190
t-119 -528q0 -332 114 -526t356 -194q134 0 210 53t113 129.5t52 147.5zM818 2148l261 424h392l-355 -424h-298z" />
    <glyph glyph-name="cacute" unicode="&#x107;" horiz-adv-x="1537" 
d="M100 0zM1449 1042l-348 -49q-11 44 -42.5 103.5t-93 104t-163.5 44.5q-170 0 -253 -138.5t-83 -341.5q0 -211 84 -346t253 -135q137 0 205.5 72t90.5 157l350 -47q-32 -225 -205 -360t-436 -135q-223 0 -381.5 102t-242.5 281t-84 411q0 229 84 407.5t242 281t380 102.5
q182 0 319 -67t220 -183t104 -264zM609 1694l261 424h392l-355 -424h-298z" />
    <glyph glyph-name="Ccircumflex" unicode="&#x108;" horiz-adv-x="1889" 
d="M140 0zM1373 637l394 -41q-27 -181 -126 -322t-265.5 -221.5t-393.5 -80.5q-268 0 -456 127t-287 363t-99 565q0 324 101 559.5t289.5 362.5t449.5 127q232 0 397.5 -82.5t263.5 -225t127 -323.5l-390 -42q-14 81 -55.5 159.5t-120 130.5t-204.5 52q-232 0 -351 -190
t-119 -528q0 -332 114 -526t356 -194q134 0 210 53t113 129.5t52 147.5zM466 2236zM780 2236l217 204l215 -204h312v13l-412 387h-233l-413 -387v-13h314z" />
    <glyph glyph-name="ccircumflex" unicode="&#x109;" horiz-adv-x="1537" 
d="M100 0zM1449 1042l-348 -49q-11 44 -42.5 103.5t-93 104t-163.5 44.5q-170 0 -253 -138.5t-83 -341.5q0 -211 84 -346t253 -135q137 0 205.5 72t90.5 157l350 -47q-32 -225 -205 -360t-436 -135q-223 0 -381.5 102t-242.5 281t-84 411q0 229 84 407.5t242 281t380 102.5
q182 0 319 -67t220 -183t104 -264zM257 1782zM571 1782l217 204l215 -204h312v13l-412 387h-233l-413 -387v-13h314z" />
    <glyph glyph-name="Cdotaccent" unicode="&#x10a;" horiz-adv-x="1889" 
d="M140 0zM1373 637l394 -41q-27 -181 -126 -322t-265.5 -221.5t-393.5 -80.5q-268 0 -456 127t-287 363t-99 565q0 324 101 559.5t289.5 362.5t449.5 127q232 0 397.5 -82.5t263.5 -225t127 -323.5l-390 -42q-14 81 -55.5 159.5t-120 130.5t-204.5 52q-232 0 -351 -190
t-119 -528q0 -332 114 -526t356 -194q134 0 210 53t113 129.5t52 147.5zM800 2378q0 80 52.5 132.5t144.5 52.5t145.5 -52.5t53.5 -132.5q0 -78 -53.5 -129.5t-145.5 -51.5t-144.5 51.5t-52.5 129.5z" />
    <glyph glyph-name="cdotaccent" unicode="&#x10b;" horiz-adv-x="1537" 
d="M100 0zM1449 1042l-348 -49q-11 44 -42.5 103.5t-93 104t-163.5 44.5q-170 0 -253 -138.5t-83 -341.5q0 -211 84 -346t253 -135q137 0 205.5 72t90.5 157l350 -47q-32 -225 -205 -360t-436 -135q-223 0 -381.5 102t-242.5 281t-84 411q0 229 84 407.5t242 281t380 102.5
q182 0 319 -67t220 -183t104 -264zM591 1924q0 80 52.5 132.5t144.5 52.5t145.5 -52.5t53.5 -132.5q0 -78 -53.5 -129.5t-145.5 -51.5t-144.5 51.5t-52.5 129.5z" />
    <glyph glyph-name="Ccaron" unicode="&#x10c;" horiz-adv-x="1889" 
d="M140 0zM1373 637l394 -41q-27 -181 -126 -322t-265.5 -221.5t-393.5 -80.5q-268 0 -456 127t-287 363t-99 565q0 324 101 559.5t289.5 362.5t449.5 127q232 0 397.5 -82.5t263.5 -225t127 -323.5l-390 -42q-14 81 -55.5 159.5t-120 130.5t-204.5 52q-232 0 -351 -190
t-119 -528q0 -332 114 -526t356 -194q134 0 210 53t113 129.5t52 147.5zM780 2568l217 -204l215 204h312v-13l-412 -387h-233l-413 387v13h314z" />
    <glyph glyph-name="ccaron" unicode="&#x10d;" horiz-adv-x="1537" 
d="M100 0zM1449 1042l-348 -49q-11 44 -42.5 103.5t-93 104t-163.5 44.5q-170 0 -253 -138.5t-83 -341.5q0 -211 84 -346t253 -135q137 0 205.5 72t90.5 157l350 -47q-32 -225 -205 -360t-436 -135q-223 0 -381.5 102t-242.5 281t-84 411q0 229 84 407.5t242 281t380 102.5
q182 0 319 -67t220 -183t104 -264zM571 2114l217 -204l215 204h312v-13l-412 -387h-233l-413 387v13h314z" />
    <glyph glyph-name="Dcaron" unicode="&#x10e;" horiz-adv-x="1870" 
d="M162 0zM810 0h-648v2048h658q272 0 485.5 -128t336.5 -356t123 -526q0 -333 -124 -565t-339.5 -352.5t-491.5 -120.5zM799 1711h-249v-1374h242q258 0 418 165.5t160 535.5q0 210 -73 361t-202 231.5t-296 80.5zM571 2568l217 -204l215 204h312v-13l-412 -387h-233
l-413 387v13h314z" />
    <glyph glyph-name="dcaron" unicode="&#x10f;" horiz-adv-x="1804" 
d="M100 0zM1498 0h-370l-2 105h-9q-60 -61 -146 -97.5t-203 -36.5q-197 0 -347.5 101t-235.5 280t-85 413q0 233 85 411t235 279t345 101q114 0 198 -35.5t144 -95.5h9v623h382v-2048zM466 765q0 -212 85 -346.5t253 -134.5q134 0 214 79t102 172q12 54 18 123t7 111
q-1 40 -6 96t-18 110q-14 51 -50.5 114t-102 109.5t-165.5 46.5q-167 0 -252 -135.5t-85 -344.5zM1972 2127v-191q-1 -156 -44.5 -303.5t-139.5 -256.5l-215 86q45 103 76 205.5t31 248.5v211h292z" />
    <glyph glyph-name="Dcroat" unicode="&#x110;" horiz-adv-x="1900" 
d="M840 0h-648v898h-137v236h137v914h658q272 0 485.5 -128t336.5 -356t123 -526q0 -333 -124 -565t-339.5 -352.5t-491.5 -120.5zM1008 1134v-236h-428v-561h242q258 0 418 165.5t160 535.5q0 210 -73 361t-202 231.5t-296 80.5h-249v-577h428z" />
    <glyph glyph-name="dcroat" unicode="&#x111;" horiz-adv-x="1698" 
d="M1498 0h-370l-2 105h-9q-60 -61 -146 -97.5t-203 -36.5q-197 0 -347.5 101t-235.5 280t-85 413q0 233 85 411t235 279t345 101q114 0 198 -35.5t144 -95.5h9v236h-371v236h371v151h382v-151h200v-236h-200v-1661zM466 765q0 -212 85 -346.5t253 -134.5q134 0 214 79
t102 172q12 54 18 123t7 111q-1 40 -6 96t-18 110q-14 51 -50.5 114t-102 109.5t-165.5 46.5q-167 0 -252 -135.5t-85 -344.5z" />
    <glyph glyph-name="Emacron" unicode="&#x112;" horiz-adv-x="1634" 
d="M167 0zM1495 327v-327h-1328v2048h1322v-327h-933v-533h806v-327h-806v-534h939zM1326 2457v-224h-948v224h948z" />
    <glyph glyph-name="emacron" unicode="&#x113;" horiz-adv-x="1564" 
d="M100 0zM837 -29q-231 0 -396 102.5t-253 279t-88 399.5q0 233 82 414.5t238 285.5t378 104q308 0 488.5 -196t180.5 -566v-160h-995q27 -167 128 -258.5t256 -91.5q113 0 189 46t136 137l245 -198q-68 -120 -218 -209t-371 -89zM797 1245q-137 0 -217.5 -95.5
t-105.5 -251.5h635q0 144 -79 245.5t-233 101.5zM1276 2003v-224h-948v224h948z" />
    <glyph glyph-name="Ebreve" unicode="&#x114;" horiz-adv-x="1634" 
d="M167 0zM1495 327v-327h-1328v2048h1322v-327h-933v-533h806v-327h-806v-534h939zM1043 2555h277q0 -178 -126.5 -291t-344.5 -113q-214 0 -340 113t-126 291h274q0 -72 43.5 -127.5t148.5 -55.5t149.5 55.5t44.5 127.5z" />
    <glyph glyph-name="ebreve" unicode="&#x115;" horiz-adv-x="1564" 
d="M100 0zM837 -29q-231 0 -396 102.5t-253 279t-88 399.5q0 233 82 414.5t238 285.5t378 104q308 0 488.5 -196t180.5 -566v-160h-995q27 -167 128 -258.5t256 -91.5q113 0 189 46t136 137l245 -198q-68 -120 -218 -209t-371 -89zM797 1245q-137 0 -217.5 -95.5
t-105.5 -251.5h635q0 144 -79 245.5t-233 101.5zM993 2101h277q0 -178 -126.5 -291t-344.5 -113q-214 0 -340 113t-126 291h274q0 -72 43.5 -127.5t148.5 -55.5t149.5 55.5t44.5 127.5z" />
    <glyph glyph-name="Edotaccent" unicode="&#x116;" horiz-adv-x="1634" 
d="M167 0zM1495 327v-327h-1328v2048h1322v-327h-933v-533h806v-327h-806v-534h939zM652 2378q0 80 52.5 132.5t144.5 52.5t145.5 -52.5t53.5 -132.5q0 -78 -53.5 -129.5t-145.5 -51.5t-144.5 51.5t-52.5 129.5z" />
    <glyph glyph-name="edotaccent" unicode="&#x117;" horiz-adv-x="1564" 
d="M100 0zM837 -29q-231 0 -396 102.5t-253 279t-88 399.5q0 233 82 414.5t238 285.5t378 104q308 0 488.5 -196t180.5 -566v-160h-995q27 -167 128 -258.5t256 -91.5q113 0 189 46t136 137l245 -198q-68 -120 -218 -209t-371 -89zM797 1245q-137 0 -217.5 -95.5
t-105.5 -251.5h635q0 144 -79 245.5t-233 101.5zM602 1924q0 80 52.5 132.5t144.5 52.5t145.5 -52.5t53.5 -132.5q0 -78 -53.5 -129.5t-145.5 -51.5t-144.5 51.5t-52.5 129.5z" />
    <glyph glyph-name="Eogonek" unicode="&#x118;" horiz-adv-x="1634" 
d="M1495 327v-327h-128q-102 -60 -158 -117.5t-56 -131.5q0 -41 20.5 -66t73.5 -25q39 0 65 10t45 18l39 -210q-34 -21 -89 -40.5t-137 -19.5q-130 0 -219.5 71.5t-89.5 210.5q0 78 37 154.5t130 145.5h-861v2048h1322v-327h-933v-533h806v-327h-806v-534h939z" />
    <glyph glyph-name="eogonek" unicode="&#x119;" horiz-adv-x="1564" 
d="M1239 -459q-35 -21 -89.5 -40.5t-136.5 -19.5q-130 0 -219.5 71.5t-89.5 210.5q0 54 16.5 107t55.5 103q-213 14 -364 119t-231.5 276t-80.5 384q0 233 82 414.5t238 285.5t378 104q308 0 488.5 -196t180.5 -566v-160h-995q27 -167 128 -258.5t256 -91.5q113 0 189 46
t136 137l245 -198q-37 -65 -97.5 -122.5t-143.5 -98.5q-91 -56 -140 -110.5t-49 -123.5q0 -41 21 -66t73 -25q39 0 64.5 10t45.5 18zM797 1245q-137 0 -217.5 -95.5t-105.5 -251.5h635q0 144 -79 245.5t-233 101.5z" />
    <glyph glyph-name="Ecaron" unicode="&#x11a;" horiz-adv-x="1634" 
d="M167 0zM1495 327v-327h-1328v2048h1322v-327h-933v-533h806v-327h-806v-534h939zM632 2568l217 -204l215 204h312v-13l-412 -387h-233l-413 387v13h314z" />
    <glyph glyph-name="ecaron" unicode="&#x11b;" horiz-adv-x="1564" 
d="M100 0zM837 -29q-231 0 -396 102.5t-253 279t-88 399.5q0 233 82 414.5t238 285.5t378 104q308 0 488.5 -196t180.5 -566v-160h-995q27 -167 128 -258.5t256 -91.5q113 0 189 46t136 137l245 -198q-68 -120 -218 -209t-371 -89zM797 1245q-137 0 -217.5 -95.5
t-105.5 -251.5h635q0 144 -79 245.5t-233 101.5zM582 2114l217 -204l215 204h312v-13l-412 -387h-233l-413 387v13h314z" />
    <glyph glyph-name="Gcircumflex" unicode="&#x11c;" horiz-adv-x="1949" 
d="M140 0zM1804 1068v-323q0 -242 -103 -415t-282 -265.5t-408 -92.5q-257 0 -453.5 118t-307 352t-110.5 582q0 346 111 580t305 353t445 119q241 0 407 -94.5t261.5 -241t123.5 -300.5l-376 -39q-15 70 -61 150.5t-133 138t-222 57.5q-215 0 -344 -177.5t-129 -548.5
q0 -265 63.5 -423.5t175 -228t253.5 -69.5q174 0 289.5 106t115.5 364h-406v298h785zM490 2236zM804 2236l217 204l215 -204h312v13l-412 387h-233l-413 -387v-13h314z" />
    <glyph glyph-name="gcircumflex" unicode="&#x11d;" horiz-adv-x="1654" 
d="M100 0zM1145 1528h353v-1495q0 -198 -92.5 -335.5t-255 -209.5t-371.5 -72q-219 0 -372.5 72.5t-219.5 149.5l186 241q61 -52 155.5 -104.5t239.5 -52.5q167 0 260.5 80.5t95.5 264.5v67h-13q-59 -57 -143 -91.5t-197 -34.5q-197 0 -348.5 97.5t-237 272t-85.5 406.5
q0 226 85.5 400t236 273t346.5 99q123 0 210.5 -39.5t146.5 -105.5h11zM466 784q0 -212 86 -340.5t255 -128.5q134 0 217.5 77t105.5 169q14 53 19 120.5t6 108.5q0 39 -4.5 91t-19.5 105q-15 54 -53 115.5t-105 105t-167 43.5q-170 0 -255 -131.5t-85 -334.5zM277 1782z
M591 1782l217 204l215 -204h312v13l-412 387h-233l-413 -387v-13h314z" />
    <glyph glyph-name="Gbreve" unicode="&#x11e;" horiz-adv-x="1949" 
d="M140 0zM1804 1068v-323q0 -242 -103 -415t-282 -265.5t-408 -92.5q-257 0 -453.5 118t-307 352t-110.5 582q0 346 111 580t305 353t445 119q241 0 407 -94.5t261.5 -241t123.5 -300.5l-376 -39q-15 70 -61 150.5t-133 138t-222 57.5q-215 0 -344 -177.5t-129 -548.5
q0 -265 63.5 -423.5t175 -228t253.5 -69.5q174 0 289.5 106t115.5 364h-406v298h785zM1215 2555h277q0 -178 -126.5 -291t-344.5 -113q-214 0 -340 113t-126 291h274q0 -72 43.5 -127.5t148.5 -55.5t149.5 55.5t44.5 127.5z" />
    <glyph glyph-name="gbreve" unicode="&#x11f;" horiz-adv-x="1654" 
d="M100 0zM1145 1528h353v-1495q0 -198 -92.5 -335.5t-255 -209.5t-371.5 -72q-219 0 -372.5 72.5t-219.5 149.5l186 241q61 -52 155.5 -104.5t239.5 -52.5q167 0 260.5 80.5t95.5 264.5v67h-13q-59 -57 -143 -91.5t-197 -34.5q-197 0 -348.5 97.5t-237 272t-85.5 406.5
q0 226 85.5 400t236 273t346.5 99q123 0 210.5 -39.5t146.5 -105.5h11zM466 784q0 -212 86 -340.5t255 -128.5q134 0 217.5 77t105.5 169q14 53 19 120.5t6 108.5q0 39 -4.5 91t-19.5 105q-15 54 -53 115.5t-105 105t-167 43.5q-170 0 -255 -131.5t-85 -334.5zM1002 2101
h277q0 -178 -126.5 -291t-344.5 -113q-214 0 -340 113t-126 291h274q0 -72 43.5 -127.5t148.5 -55.5t149.5 55.5t44.5 127.5z" />
    <glyph glyph-name="Gdotaccent" unicode="&#x120;" horiz-adv-x="1949" 
d="M140 0zM1804 1068v-323q0 -242 -103 -415t-282 -265.5t-408 -92.5q-257 0 -453.5 118t-307 352t-110.5 582q0 346 111 580t305 353t445 119q241 0 407 -94.5t261.5 -241t123.5 -300.5l-376 -39q-15 70 -61 150.5t-133 138t-222 57.5q-215 0 -344 -177.5t-129 -548.5
q0 -265 63.5 -423.5t175 -228t253.5 -69.5q174 0 289.5 106t115.5 364h-406v298h785zM824 2378q0 80 52.5 132.5t144.5 52.5t145.5 -52.5t53.5 -132.5q0 -78 -53.5 -129.5t-145.5 -51.5t-144.5 51.5t-52.5 129.5z" />
    <glyph glyph-name="gdotaccent" unicode="&#x121;" horiz-adv-x="1654" 
d="M100 0zM1145 1528h353v-1495q0 -198 -92.5 -335.5t-255 -209.5t-371.5 -72q-219 0 -372.5 72.5t-219.5 149.5l186 241q61 -52 155.5 -104.5t239.5 -52.5q167 0 260.5 80.5t95.5 264.5v67h-13q-59 -57 -143 -91.5t-197 -34.5q-197 0 -348.5 97.5t-237 272t-85.5 406.5
q0 226 85.5 400t236 273t346.5 99q123 0 210.5 -39.5t146.5 -105.5h11zM466 784q0 -212 86 -340.5t255 -128.5q134 0 217.5 77t105.5 169q14 53 19 120.5t6 108.5q0 39 -4.5 91t-19.5 105q-15 54 -53 115.5t-105 105t-167 43.5q-170 0 -255 -131.5t-85 -334.5zM611 1924
q0 80 52.5 132.5t144.5 52.5t145.5 -52.5t53.5 -132.5q0 -78 -53.5 -129.5t-145.5 -51.5t-144.5 51.5t-52.5 129.5z" />
    <glyph glyph-name="Gcommaaccent" unicode="&#x122;" horiz-adv-x="1949" 
d="M140 0zM1804 1068v-323q0 -242 -103 -415t-282 -265.5t-408 -92.5q-257 0 -453.5 118t-307 352t-110.5 582q0 346 111 580t305 353t445 119q241 0 407 -94.5t261.5 -241t123.5 -300.5l-376 -39q-15 70 -61 150.5t-133 138t-222 57.5q-215 0 -344 -177.5t-129 -548.5
q0 -265 63.5 -423.5t175 -228t253.5 -69.5q174 0 289.5 106t115.5 364h-406v298h785zM1205 -126v-191q-1 -156 -44.5 -303.5t-139.5 -256.5l-215 86q45 103 76 205.5t31 248.5v211h292z" />
    <glyph glyph-name="gcommaaccent" unicode="&#x123;" horiz-adv-x="1654" 
d="M100 0zM1145 1528h353v-1495q0 -198 -92.5 -335.5t-255 -209.5t-371.5 -72q-219 0 -372.5 72.5t-219.5 149.5l186 241q61 -52 155.5 -104.5t239.5 -52.5q167 0 260.5 80.5t95.5 264.5v67h-13q-59 -57 -143 -91.5t-197 -34.5q-197 0 -348.5 97.5t-237 272t-85.5 406.5
q0 226 85.5 400t236 273t346.5 99q123 0 210.5 -39.5t146.5 -105.5h11zM466 784q0 -212 86 -340.5t255 -128.5q134 0 217.5 77t105.5 169q14 53 19 120.5t6 108.5q0 39 -4.5 91t-19.5 105q-15 54 -53 115.5t-105 105t-167 43.5q-170 0 -255 -131.5t-85 -334.5zM651 1738v186
q0 144 58 266t141 181l198 -111q-37 -64 -63.5 -153t-26.5 -197l-2 -172h-305z" />
    <glyph glyph-name="Hcircumflex" unicode="&#x124;" horiz-adv-x="1972" 
d="M167 0zM556 2048v-860h860v860h389v-2048h-389v861h-860v-861h-389v2048h389zM501 2236zM815 2236l217 204l215 -204h312v13l-412 387h-233l-413 -387v-13h314z" />
    <glyph glyph-name="hcircumflex" unicode="&#x125;" horiz-adv-x="1594" 
d="M156 0zM538 855v-855h-382v2048h371v-694h16q63 87 169 144.5t248 57.5q210 0 344 -146t134 -444v-966h-382v968q0 125 -56.5 198.5t-172.5 73.5q-133 0 -211 -103t-78 -282zM251 2320zM565 2320l217 204l215 -204h312v13l-412 387h-233l-413 -387v-13h314z" />
    <glyph glyph-name="Hbar" unicode="&#x126;" horiz-adv-x="1954" 
d="M557 2048v-372h861v372h388v-372h155v-234h-155v-1442h-388v861h-861v-861h-388v1442h-158v234h158v372h388zM557 1188h861v254h-861v-254z" />
    <glyph glyph-name="hbar" unicode="&#x127;" horiz-adv-x="1624" 
d="M568 855v-855h-382v1685h-239v236h239v127h371v-127h343v-236h-343v-331h16q63 87 169 144.5t248 57.5q210 0 344 -146t134 -444v-966h-382v968q0 125 -56.5 198.5t-172.5 73.5q-133 0 -211 -103t-78 -282z" />
    <glyph glyph-name="Itilde" unicode="&#x128;" horiz-adv-x="726" 
d="M0 0zM550 2048v-2048h-388v2048h388zM648 2569l224 -16q0 -152 -88.5 -257.5t-223.5 -105.5q-88 0 -144 30t-107 60t-123 30q-50 0 -83.5 -35.5t-33.5 -98.5l-228 11q0 99 40.5 182.5t111 133.5t160.5 50q73 0 132.5 -29.5t116.5 -59t125 -29.5q49 0 85 35.5t36 98.5z
" />
    <glyph glyph-name="itilde" unicode="&#x129;" horiz-adv-x="714" 
d="M0 0zM548 1536v-1536h-382v1536h382zM646 2095l224 -16q0 -152 -88.5 -257.5t-223.5 -105.5q-88 0 -144 30t-107 60t-123 30q-50 0 -83.5 -35.5t-33.5 -98.5l-228 11q0 99 40.5 182.5t111 133.5t160.5 50q73 0 132.5 -29.5t116.5 -59t125 -29.5q49 0 85 35.5t36 98.5z
" />
    <glyph glyph-name="Imacron" unicode="&#x12a;" horiz-adv-x="726" 
d="M0 0zM550 2048v-2048h-388v2048h388zM833 2457v-224h-948v224h948z" />
    <glyph glyph-name="imacron" unicode="&#x12b;" horiz-adv-x="714" 
d="M0 0zM548 1536v-1536h-382v1536h382zM831 1983v-224h-948v224h948z" />
    <glyph glyph-name="Ibreve" unicode="&#x12c;" horiz-adv-x="726" 
d="M0 0zM550 2048v-2048h-388v2048h388zM550 2555h277q0 -178 -126.5 -291t-344.5 -113q-214 0 -340 113t-126 291h274q0 -72 43.5 -127.5t148.5 -55.5t149.5 55.5t44.5 127.5z" />
    <glyph glyph-name="ibreve" unicode="&#x12d;" horiz-adv-x="714" 
d="M0 0zM548 1536v-1536h-382v1536h382zM548 2081h277q0 -178 -126.5 -291t-344.5 -113q-214 0 -340 113t-126 291h274q0 -72 43.5 -127.5t148.5 -55.5t149.5 55.5t44.5 127.5z" />
    <glyph glyph-name="Iogonek" unicode="&#x12e;" horiz-adv-x="726" 
d="M0 0zM550 2048v-2048h-388v2048h388zM297 90l194 -84q-102 -60 -158 -117.5t-56 -131.5q0 -41 21 -66t73 -25q39 0 64.5 10t45.5 18l39 -210q-35 -21 -89.5 -40.5t-136.5 -19.5q-130 0 -219.5 71.5t-89.5 210.5q0 104 67 203t245 181z" />
    <glyph glyph-name="iogonek" unicode="&#x12f;" horiz-adv-x="714" 
d="M0 0zM358 1668q-94 0 -157 60t-63 144q0 81 63 142.5t157 61.5t155.5 -61.5t61.5 -142.5q0 -84 -61.5 -144t-155.5 -60zM548 1536v-1536h-382v1536h382zM298 84l194 -84q-102 -60 -158 -117.5t-56 -131.5q0 -41 21 -66t73 -25q39 0 64.5 10t45.5 18l39 -210
q-35 -21 -89.5 -40.5t-136.5 -19.5q-130 0 -219.5 71.5t-89.5 210.5q0 104 67 203t245 181z" />
    <glyph glyph-name="Idotaccent" unicode="&#x130;" horiz-adv-x="726" 
d="M159 0zM550 2048v-2048h-388v2048h388zM159 2378q0 80 52.5 132.5t144.5 52.5t145.5 -52.5t53.5 -132.5q0 -78 -53.5 -129.5t-145.5 -51.5t-144.5 51.5t-52.5 129.5z" />
    <glyph glyph-name="dotlessi" unicode="&#x131;" horiz-adv-x="714" 
d="M548 1536v-1536h-382v1536h382z" />
    <glyph glyph-name="IJ" unicode="&#x132;" horiz-adv-x="2502" 
d="M418 0zM806 2048v-2048h-388v2048h388zM1957 613v1435h386v-1435q0 -199 -84.5 -343t-232.5 -221t-339 -77q-185 0 -332.5 67.5t-232.5 201t-85 331.5h385q2 -136 78.5 -208.5t192.5 -72.5q110 0 187 77t77 245z" />
    <glyph glyph-name="ij" unicode="&#x133;" horiz-adv-x="1794" 
d="M394 0zM614 1668q-94 0 -157 60t-63 144q0 81 63 142.5t157 61.5t155.5 -61.5t61.5 -142.5q0 -84 -61.5 -144t-155.5 -60zM804 1536v-1536h-382v1536h382zM1440 1668q-94 0 -157 60t-63 144q0 81 63 142.5t157 61.5q93 0 155 -61.5t62 -142.5q0 -84 -62 -144t-155 -60z
M1248 1536h382v-1606q0 -256 -151 -383t-396 -127h-126v311h78q125 0 169 57t44 147v1601z" />
    <glyph glyph-name="Jcircumflex" unicode="&#x134;" horiz-adv-x="1520" 
d="M55 0zM975 613v1435h386v-1435q0 -199 -84.5 -343t-232.5 -221t-339 -77q-185 0 -332.5 67.5t-232.5 201t-85 331.5h385q2 -136 78.5 -208.5t192.5 -72.5q110 0 187 77t77 245zM631 2236zM945 2236l217 204l215 -204h312v13l-412 387h-233l-413 -387v-13h314z" />
    <glyph glyph-name="jcircumflex" unicode="&#x135;" horiz-adv-x="824" 
d="M0 0zM278 1536h382v-1606q0 -256 -151 -383t-396 -127h-126v311h78q125 0 169 57t44 147v1601zM-63 1734zM251 1734l217 204l215 -204h312v13l-412 387h-233l-413 -387v-13h314z" />
    <glyph glyph-name="Kcommaaccent" unicode="&#x136;" horiz-adv-x="1830" 
d="M167 0zM1256 0l-477 784l-223 -297v-487h-389v2048h389v-934h17l685 934h473l-712 -946l695 -1102h-458zM1069 -31v-191q-1 -156 -44.5 -303.5t-139.5 -256.5l-215 86q45 103 76 205.5t31 248.5v211h292z" />
    <glyph glyph-name="kcommaaccent" unicode="&#x137;" horiz-adv-x="1531" 
d="M156 0zM1108 0l-420 610l-150 -174v-436h-382v2048h382v-1084h20l483 572h451l-569 -656l607 -880h-422zM892 -88v-191q-1 -156 -44.5 -303.5t-139.5 -256.5l-215 86q45 103 76 205.5t31 248.5v211h292z" />
    <glyph glyph-name="kgreenlandic" unicode="&#x138;" horiz-adv-x="1781" 
d="M1107 0l-378 558h-161v-558h-385v1488h385v-567h120l402 567h482l-533 -718l559 -770h-491z" />
    <glyph glyph-name="Lacute" unicode="&#x139;" horiz-adv-x="1536" 
d="M167 0zM1416 327v-327h-1249v2048h389v-1721h860zM181 2148l261 424h392l-355 -424h-298z" />
    <glyph glyph-name="lacute" unicode="&#x13a;" horiz-adv-x="694" 
d="M156 0zM538 2048v-2048h-382v2048h382zM168 2219l261 424h392l-355 -424h-298z" />
    <glyph glyph-name="Lcommaaccent" unicode="&#x13b;" horiz-adv-x="1536" 
d="M167 0zM1416 327v-327h-1249v2048h389v-1721h860zM946 -104v-191q-1 -156 -44.5 -303.5t-139.5 -256.5l-215 86q45 103 76 205.5t31 248.5v211h292z" />
    <glyph glyph-name="lcommaaccent" unicode="&#x13c;" horiz-adv-x="694" 
d="M86 0zM538 2048v-2048h-382v2048h382zM485 -114v-191q-1 -156 -44.5 -303.5t-139.5 -256.5l-215 86q45 103 76 205.5t31 248.5v211h292z" />
    <glyph glyph-name="Lcaron" unicode="&#x13d;" horiz-adv-x="1536" 
d="M167 0zM1416 327v-327h-1249v2048h389v-1721h860zM1196 2018v-191q-1 -156 -44.5 -303.5t-139.5 -256.5l-215 86q45 103 76 205.5t31 248.5v211h292z" />
    <glyph glyph-name="lcaron" unicode="&#x13e;" horiz-adv-x="844" 
d="M156 0zM538 2048v-2048h-382v2048h382zM1020 2127v-191q-1 -156 -44.5 -303.5t-139.5 -256.5l-215 86q45 103 76 205.5t31 248.5v211h292z" />
    <glyph glyph-name="Ldot" unicode="&#x13f;" horiz-adv-x="1536" 
d="M167 0zM1416 327v-327h-1249v2048h389v-1721h860zM784 1150q0 80 52.5 132.5t144.5 52.5t145.5 -52.5t53.5 -132.5q0 -78 -53.5 -129.5t-145.5 -51.5t-144.5 51.5t-52.5 129.5z" />
    <glyph glyph-name="ldot" unicode="&#x140;" horiz-adv-x="914" 
d="M156 0zM538 2048v-2048h-382v2048h382zM666 1078q0 80 52.5 132.5t144.5 52.5t145.5 -52.5t53.5 -132.5q0 -78 -53.5 -129.5t-145.5 -51.5t-144.5 51.5t-52.5 129.5z" />
    <glyph glyph-name="L_slash" unicode="&#x141;" horiz-adv-x="1702" 
d="M1528 327v-327h-1249v894l-206 -60v221l206 60v933h388v-819l291 85v-224l-291 -84v-679h861z" />
    <glyph glyph-name="lslash" unicode="&#x142;" horiz-adv-x="694" 
d="M726 1322v-223l-188 -64v-1035h-382v906l-194 -66v223l194 66v919h382v-790z" />
    <glyph glyph-name="Nacute" unicode="&#x143;" horiz-adv-x="1970" 
d="M167 0zM1803 2048v-2048h-380l-850 1380h-17v-1380h-389v2048h383l849 -1383h17v1383h387zM850 2148l261 424h392l-355 -424h-298z" />
    <glyph glyph-name="nacute" unicode="&#x144;" horiz-adv-x="1623" 
d="M156 0zM538 848v-848h-382v1536h358v-198h16q62 96 171.5 157t256.5 61q134 0 250.5 -59t187.5 -189t71 -342v-966h-382v950q0 139 -74.5 214.5t-186.5 75.5q-130 0 -208 -105.5t-78 -286.5zM606 1694l261 424h392l-355 -424h-298z" />
    <glyph glyph-name="Ncommaaccent" unicode="&#x145;" horiz-adv-x="1970" 
d="M167 0zM1803 2048v-2048h-380l-850 1380h-17v-1380h-389v2048h383l849 -1383h17v1383h387zM1166 -114v-191q-1 -156 -44.5 -303.5t-139.5 -256.5l-215 86q45 103 76 205.5t31 248.5v211h292z" />
    <glyph glyph-name="ncommaaccent" unicode="&#x146;" horiz-adv-x="1623" 
d="M156 0zM538 848v-848h-382v1536h358v-198h16q62 96 171.5 157t256.5 61q134 0 250.5 -59t187.5 -189t71 -342v-966h-382v950q0 139 -74.5 214.5t-186.5 75.5q-130 0 -208 -105.5t-78 -286.5zM892 -114v-191q-1 -156 -44.5 -303.5t-139.5 -256.5l-215 86q45 103 76 205.5
t31 248.5v211h292z" />
    <glyph glyph-name="Ncaron" unicode="&#x147;" horiz-adv-x="1970" 
d="M167 0zM1803 2048v-2048h-380l-850 1380h-17v-1380h-389v2048h383l849 -1383h17v1383h387zM812 2568l217 -204l215 204h312v-13l-412 -387h-233l-413 387v13h314z" />
    <glyph glyph-name="ncaron" unicode="&#x148;" horiz-adv-x="1623" 
d="M156 0zM538 848v-848h-382v1536h358v-198h16q62 96 171.5 157t256.5 61q134 0 250.5 -59t187.5 -189t71 -342v-966h-382v950q0 139 -74.5 214.5t-186.5 75.5q-130 0 -208 -105.5t-78 -286.5zM568 2114l217 -204l215 204h312v-13l-412 -387h-233l-413 387v13h314z" />
    <glyph glyph-name="napostrophe" unicode="&#x149;" horiz-adv-x="1623" 
d="M0 0zM538 848v-848h-382v1536h358v-198h16q62 96 171.5 157t256.5 61q134 0 250.5 -59t187.5 -189t71 -342v-966h-382v950q0 139 -74.5 214.5t-186.5 75.5q-130 0 -208 -105.5t-78 -286.5zM162 2127v-191q-1 -156 -44.5 -303.5t-139.5 -256.5l-215 86q45 103 76 205.5
t31 248.5v211h292z" />
    <glyph glyph-name="Eng" unicode="&#x14a;" horiz-adv-x="1970" 
d="M1803 2048v-2126q0 -176 -75.5 -292t-201 -172.5t-276.5 -56.5q-44 0 -92.5 1.5t-93.5 10.5v313q21 -2 54 -4t56 -2q94 0 170 47t76 174v64l-847 1375h-17v-1380h-389v2048h383l849 -1383h17v1383h387z" />
    <glyph glyph-name="eng" unicode="&#x14b;" horiz-adv-x="1623" 
d="M538 848v-848h-382v1536h358v-198h16q62 96 171.5 157t256.5 61q134 0 250.5 -59t187.5 -189t71 -342v-1036q0 -253 -141.5 -387.5t-368.5 -134.5q-49 0 -99 3.5t-96 14.5l23 311q25 -5 51.5 -9t63.5 -4q84 0 134.5 48t50.5 158v1020q0 139 -74.5 214.5t-186.5 75.5
q-130 0 -208 -105.5t-78 -286.5z" />
    <glyph glyph-name="Omacron" unicode="&#x14c;" horiz-adv-x="1996" 
d="M140 0zM1856 1021q0 -329 -109 -564t-302 -360t-445 -125t-446 125t-304 360t-110 564q0 331 109.5 567t303 362t445.5 126q251 0 444.5 -126t303.5 -362t110 -567zM1468 1008q0 350 -128 532.5t-345 182.5q-216 0 -341.5 -178.5t-125.5 -536.5q0 -346 130.5 -528
t344.5 -182q210 0 337.5 182t127.5 528zM1473 2457v-224h-948v224h948z" />
    <glyph glyph-name="omacron" unicode="&#x14d;" horiz-adv-x="1586" 
d="M100 0zM793 -27q-199 0 -355.5 90.5t-247 267.5t-90.5 437q0 249 92.5 425t249 269.5t348.5 93.5q194 0 351.5 -91t251 -267t93.5 -430q0 -263 -90.5 -440t-247 -266t-355.5 -89zM790 284q152 0 242.5 120t90.5 364t-91.5 360.5t-241.5 116.5q-146 0 -234 -120.5
t-88 -356.5t85 -360t237 -124zM1269 2003v-224h-948v224h948z" />
    <glyph glyph-name="Obreve" unicode="&#x14e;" horiz-adv-x="1996" 
d="M140 0zM1856 1021q0 -329 -109 -564t-302 -360t-445 -125t-446 125t-304 360t-110 564q0 331 109.5 567t303 362t445.5 126q251 0 444.5 -126t303.5 -362t110 -567zM1468 1008q0 350 -128 532.5t-345 182.5q-216 0 -341.5 -178.5t-125.5 -536.5q0 -346 130.5 -528
t344.5 -182q210 0 337.5 182t127.5 528zM1190 2555h277q0 -178 -126.5 -291t-344.5 -113q-214 0 -340 113t-126 291h274q0 -72 43.5 -127.5t148.5 -55.5t149.5 55.5t44.5 127.5z" />
    <glyph glyph-name="obreve" unicode="&#x14f;" horiz-adv-x="1586" 
d="M100 0zM793 -27q-199 0 -355.5 90.5t-247 267.5t-90.5 437q0 249 92.5 425t249 269.5t348.5 93.5q194 0 351.5 -91t251 -267t93.5 -430q0 -263 -90.5 -440t-247 -266t-355.5 -89zM790 284q152 0 242.5 120t90.5 364t-91.5 360.5t-241.5 116.5q-146 0 -234 -120.5
t-88 -356.5t85 -360t237 -124zM986 2101h277q0 -178 -126.5 -291t-344.5 -113q-214 0 -340 113t-126 291h274q0 -72 43.5 -127.5t148.5 -55.5t149.5 55.5t44.5 127.5z" />
    <glyph glyph-name="Ohungarumlaut" unicode="&#x150;" horiz-adv-x="1996" 
d="M140 0zM1856 1021q0 -329 -109 -564t-302 -360t-445 -125t-446 125t-304 360t-110 564q0 331 109.5 567t303 362t445.5 126q251 0 444.5 -126t303.5 -362t110 -567zM1468 1008q0 350 -128 532.5t-345 182.5q-216 0 -341.5 -178.5t-125.5 -536.5q0 -346 130.5 -528
t344.5 -182q210 0 337.5 182t127.5 528zM1067 2157l308 416h334l-364 -416h-278zM584 2157l253 416h333l-314 -416h-272z" />
    <glyph glyph-name="ohungarumlaut" unicode="&#x151;" horiz-adv-x="1586" 
d="M100 0zM793 -27q-199 0 -355.5 90.5t-247 267.5t-90.5 437q0 249 92.5 425t249 269.5t348.5 93.5q194 0 351.5 -91t251 -267t93.5 -430q0 -263 -90.5 -440t-247 -266t-355.5 -89zM790 284q152 0 242.5 120t90.5 364t-91.5 360.5t-241.5 116.5q-146 0 -234 -120.5
t-88 -356.5t85 -360t237 -124zM863 1703l308 416h334l-364 -416h-278zM380 1703l253 416h333l-314 -416h-272z" />
    <glyph glyph-name="OE" unicode="&#x152;" horiz-adv-x="2753" 
d="M975 2048h1580v-327h-933v-533h806v-327h-806v-534h939v-327h-1586q-245 0 -431 103t-290 287t-104 426v420q0 242 104 425t290 285t431 102zM975 311h259v1426h-259q-205 0 -323 -123.5t-118 -377.5v-420q0 -254 119.5 -379.5t321.5 -125.5z" />
    <glyph glyph-name="oe" unicode="&#x153;" horiz-adv-x="2585" 
d="M793 -27q-199 0 -355.5 90.5t-247 267.5t-90.5 437q0 249 92.5 425t249 269.5t348.5 93.5q153 0 286 -57.5t228 -169.5q90 107 219.5 167t295.5 60q307 0 488 -196t181 -566v-160h-995q27 -167 128 -258.5t256 -91.5q113 0 189 46t136 137l245 -198q-68 -120 -218 -209
t-371 -89q-176 0 -314 60.5t-233 167.5q-93 -112 -226.5 -169t-291.5 -57zM790 284q143 0 232 106.5t100 322.5q-1 19 -1 39q0 29 1 57q-8 222 -98 329t-234 107q-146 0 -234 -120.5t-88 -356.5t85 -360t237 -124zM1818 1245q-137 0 -217.5 -95.5t-105.5 -251.5h635
q0 144 -79 245.5t-233 101.5z" />
    <glyph glyph-name="Racute" unicode="&#x154;" horiz-adv-x="1762" 
d="M167 0zM1287 0l-378 767h-353v-767h-389v2048h732q231 0 396 -80t253.5 -220t88.5 -319q0 -214 -97.5 -351t-263.5 -212l431 -847v-19h-420zM556 1721v-630h343q169 0 259.5 87t90.5 222q0 152 -84 236.5t-266 84.5h-343zM709 2148l261 424h392l-355 -424h-298z" />
    <glyph glyph-name="racute" unicode="&#x155;" horiz-adv-x="1034" 
d="M156 0zM975 1549v-363q-18 3 -47 4t-56 1q-152 0 -242.5 -92.5t-91.5 -213.5v-885h-382v1536h382v-220h13q22 60 73.5 115t120.5 90.5t142 35.5q21 0 45.5 -1.5t42.5 -6.5zM398 1694l261 424h392l-355 -424h-298z" />
    <glyph glyph-name="Rcommaaccent" unicode="&#x156;" horiz-adv-x="1762" 
d="M167 0zM1287 0l-378 767h-353v-767h-389v2048h732q231 0 396 -80t253.5 -220t88.5 -319q0 -214 -97.5 -351t-263.5 -212l431 -847v-19h-420zM556 1721v-630h343q169 0 259.5 87t90.5 222q0 152 -84 236.5t-266 84.5h-343zM1033 -110v-191q-1 -156 -44.5 -303.5
t-139.5 -256.5l-215 86q45 103 76 205.5t31 248.5v211h292z" />
    <glyph glyph-name="rcommaaccent" unicode="&#x157;" horiz-adv-x="1034" 
d="M93 0zM975 1549v-363q-18 3 -47 4t-56 1q-152 0 -242.5 -92.5t-91.5 -213.5v-885h-382v1536h382v-220h13q22 60 73.5 115t120.5 90.5t142 35.5q21 0 45.5 -1.5t42.5 -6.5zM492 -114v-191q-1 -156 -44.5 -303.5t-139.5 -256.5l-215 86q45 103 76 205.5t31 248.5v211h292z
" />
    <glyph glyph-name="Rcaron" unicode="&#x158;" horiz-adv-x="1762" 
d="M167 0zM1287 0l-378 767h-353v-767h-389v2048h732q231 0 396 -80t253.5 -220t88.5 -319q0 -214 -97.5 -351t-263.5 -212l431 -847v-19h-420zM556 1721v-630h343q169 0 259.5 87t90.5 222q0 152 -84 236.5t-266 84.5h-343zM671 2568l217 -204l215 204h312v-13l-412 -387
h-233l-413 387v13h314z" />
    <glyph glyph-name="rcaron" unicode="&#x159;" horiz-adv-x="1034" 
d="M46 0zM975 1549v-363q-18 3 -47 4t-56 1q-152 0 -242.5 -92.5t-91.5 -213.5v-885h-382v1536h382v-220h13q22 60 73.5 115t120.5 90.5t142 35.5q21 0 45.5 -1.5t42.5 -6.5zM360 2114l217 -204l215 204h312v-13l-412 -387h-233l-413 387v13h314z" />
    <glyph glyph-name="Sacute" unicode="&#x15a;" horiz-adv-x="1764" 
d="M95 0zM1232 1468q-14 128 -103 202t-247 74q-161 0 -250.5 -66.5t-89.5 -175.5q0 -105 99 -167t278 -120l109 -35q290 -94 445 -232.5t155 -372.5q0 -282 -199 -444t-552 -162q-206 0 -382.5 72t-286 216.5t-113.5 363.5h388q11 -157 116 -239t287 -82q167 0 261 79
t94 186q0 106 -90.5 180.5t-317.5 144.5l-114 33q-175 51 -301.5 121.5t-195.5 180t-69 276.5q0 175 96.5 304t263.5 200t379 71t374.5 -76t255 -212.5t96.5 -319.5h-386zM711 2148l261 424h392l-355 -424h-298z" />
    <glyph glyph-name="sacute" unicode="&#x15b;" horiz-adv-x="1411" 
d="M101 0zM139 1107q0 123 69 225t197 163t305 61q187 0 338.5 -68t231.5 -199l-266 -191q-28 40 -99.5 92.5t-189.5 52.5q-95 0 -152.5 -40.5t-57.5 -99.5q0 -66 57.5 -98.5t161.5 -64.5l132 -38q212 -66 316.5 -188.5t104.5 -273.5q0 -129 -72 -235.5t-204.5 -170
t-311.5 -63.5q-172 0 -336.5 66.5t-261.5 217.5l281 205q31 -47 103.5 -107t200.5 -60q98 0 164 39.5t66 102.5q0 67 -66.5 110t-187.5 83l-147 43q-199 65 -287.5 181.5t-88.5 254.5zM577 1694l261 424h392l-355 -424h-298z" />
    <glyph glyph-name="Scircumflex" unicode="&#x15c;" horiz-adv-x="1764" 
d="M95 0zM1232 1468q-14 128 -103 202t-247 74q-161 0 -250.5 -66.5t-89.5 -175.5q0 -105 99 -167t278 -120l109 -35q290 -94 445 -232.5t155 -372.5q0 -282 -199 -444t-552 -162q-206 0 -382.5 72t-286 216.5t-113.5 363.5h388q11 -157 116 -239t287 -82q167 0 261 79
t94 186q0 106 -90.5 180.5t-317.5 144.5l-114 33q-175 51 -301.5 121.5t-195.5 180t-69 276.5q0 175 96.5 304t263.5 200t379 71t374.5 -76t255 -212.5t96.5 -319.5h-386zM359 2236zM673 2236l217 204l215 -204h312v13l-412 387h-233l-413 -387v-13h314z" />
    <glyph glyph-name="scircumflex" unicode="&#x15d;" horiz-adv-x="1411" 
d="M101 0zM139 1107q0 123 69 225t197 163t305 61q187 0 338.5 -68t231.5 -199l-266 -191q-28 40 -99.5 92.5t-189.5 52.5q-95 0 -152.5 -40.5t-57.5 -99.5q0 -66 57.5 -98.5t161.5 -64.5l132 -38q212 -66 316.5 -188.5t104.5 -273.5q0 -129 -72 -235.5t-204.5 -170
t-311.5 -63.5q-172 0 -336.5 66.5t-261.5 217.5l281 205q31 -47 103.5 -107t200.5 -60q98 0 164 39.5t66 102.5q0 67 -66.5 110t-187.5 83l-147 43q-199 65 -287.5 181.5t-88.5 254.5zM225 1782zM539 1782l217 204l215 -204h312v13l-412 387h-233l-413 -387v-13h314z" />
    <glyph glyph-name="Scedilla" unicode="&#x15e;" horiz-adv-x="1764" 
d="M95 0zM1232 1468q-14 128 -103 202t-247 74q-161 0 -250.5 -66.5t-89.5 -175.5q0 -105 99 -167t278 -120l109 -35q290 -94 445 -232.5t155 -372.5q0 -282 -199 -444t-552 -162q-206 0 -382.5 72t-286 216.5t-113.5 363.5h388q11 -157 116 -239t287 -82q167 0 261 79
t94 186q0 106 -90.5 180.5t-317.5 144.5l-114 33q-175 51 -301.5 121.5t-195.5 180t-69 276.5q0 175 96.5 304t263.5 200t379 71t374.5 -76t255 -212.5t96.5 -319.5h-386zM751 -3h286l-16 -82q76 -12 140.5 -65.5t64.5 -170.5q0 -145 -120 -234t-352 -89l-10 221
q70 0 115.5 25.5t45.5 86.5q0 59 -47 81t-151 29z" />
    <glyph glyph-name="scedilla" unicode="&#x15f;" horiz-adv-x="1411" 
d="M101 0zM139 1107q0 123 69 225t197 163t305 61q187 0 338.5 -68t231.5 -199l-266 -191q-28 40 -99.5 92.5t-189.5 52.5q-95 0 -152.5 -40.5t-57.5 -99.5q0 -66 57.5 -98.5t161.5 -64.5l132 -38q212 -66 316.5 -188.5t104.5 -273.5q0 -129 -72 -235.5t-204.5 -170
t-311.5 -63.5q-172 0 -336.5 66.5t-261.5 217.5l281 205q31 -47 103.5 -107t200.5 -60q98 0 164 39.5t66 102.5q0 67 -66.5 110t-187.5 83l-147 43q-199 65 -287.5 181.5t-88.5 254.5zM576 10h286l-16 -82q76 -12 140.5 -65.5t64.5 -170.5q0 -145 -120 -234t-352 -89
l-10 221q70 0 115.5 25.5t45.5 86.5q0 59 -47 81t-151 29z" />
    <glyph glyph-name="Scaron" unicode="&#x160;" horiz-adv-x="1764" 
d="M95 0zM1232 1468q-14 128 -103 202t-247 74q-161 0 -250.5 -66.5t-89.5 -175.5q0 -105 99 -167t278 -120l109 -35q290 -94 445 -232.5t155 -372.5q0 -282 -199 -444t-552 -162q-206 0 -382.5 72t-286 216.5t-113.5 363.5h388q11 -157 116 -239t287 -82q167 0 261 79
t94 186q0 106 -90.5 180.5t-317.5 144.5l-114 33q-175 51 -301.5 121.5t-195.5 180t-69 276.5q0 175 96.5 304t263.5 200t379 71t374.5 -76t255 -212.5t96.5 -319.5h-386zM673 2568l217 -204l215 204h312v-13l-412 -387h-233l-413 387v13h314z" />
    <glyph glyph-name="scaron" unicode="&#x161;" horiz-adv-x="1411" 
d="M101 0zM139 1107q0 123 69 225t197 163t305 61q187 0 338.5 -68t231.5 -199l-266 -191q-28 40 -99.5 92.5t-189.5 52.5q-95 0 -152.5 -40.5t-57.5 -99.5q0 -66 57.5 -98.5t161.5 -64.5l132 -38q212 -66 316.5 -188.5t104.5 -273.5q0 -129 -72 -235.5t-204.5 -170
t-311.5 -63.5q-172 0 -336.5 66.5t-261.5 217.5l281 205q31 -47 103.5 -107t200.5 -60q98 0 164 39.5t66 102.5q0 67 -66.5 110t-187.5 83l-147 43q-199 65 -287.5 181.5t-88.5 254.5zM539 2114l217 -204l215 204h312v-13l-412 -387h-233l-413 387v13h314z" />
    <glyph glyph-name="Tcommaaccent" unicode="&#x162;" horiz-adv-x="1789" 
d="M86 0zM1703 2048v-327h-615v-1721h-386v1721h-616v327h1617zM749 20h286l-16 -82q76 -12 140.5 -65.5t64.5 -170.5q0 -145 -120 -234t-352 -89l-10 221q70 0 115.5 25.5t45.5 86.5q0 59 -47 81t-151 29z" />
    <glyph glyph-name="tcommaaccent" unicode="&#x163;" horiz-adv-x="1013" 
d="M61 0zM923 1536v-285h-271v-782q0 -77 30.5 -113.5t72 -47t75.5 -10.5q64 0 107 3v-305q-71 -13 -115 -15.5t-104 -2.5q-109 0 -212 51.5t-169.5 148t-66.5 232.5v841h-209v285h209v328h382v-328h271zM483 10h286l-16 -82q76 -12 140.5 -65.5t64.5 -170.5
q0 -145 -120 -234t-352 -89l-10 221q70 0 115.5 25.5t45.5 86.5q0 59 -47 81t-151 29z" />
    <glyph glyph-name="Tcaron" unicode="&#x164;" horiz-adv-x="1789" 
d="M86 0zM1703 2048v-327h-615v-1721h-386v1721h-616v327h1617zM671 2568l217 -204l215 204h312v-13l-412 -387h-233l-413 387v13h314z" />
    <glyph glyph-name="tcaron" unicode="&#x165;" horiz-adv-x="1053" 
d="M61 0zM923 1536v-285h-271v-782q0 -77 30.5 -113.5t72 -47t75.5 -10.5q64 0 107 3v-305q-71 -13 -115 -15.5t-104 -2.5q-109 0 -212 51.5t-169.5 148t-66.5 232.5v841h-209v285h209v328h382v-328h271zM1168 2308v-191q-1 -156 -44.5 -303.5t-139.5 -256.5l-215 86
q45 103 76 205.5t31 248.5v211h292z" />
    <glyph glyph-name="Tbar" unicode="&#x166;" horiz-adv-x="1789" 
d="M1321 1287v-236h-233v-1051h-386v1051h-334v236h334v434h-616v327h1617v-327h-615v-434h233z" />
    <glyph glyph-name="tbar" unicode="&#x167;" horiz-adv-x="1013" 
d="M936 990v-236h-284v-285q0 -77 30.5 -113.5t72 -47t75.5 -10.5q64 0 107 3v-305q-71 -13 -115 -15.5t-104 -2.5q-109 0 -212 51.5t-169.5 148t-66.5 232.5v344h-287v236h287v261h-209v285h209v328h382v-328h271v-285h-271v-261h284z" />
    <glyph glyph-name="Utilde" unicode="&#x168;" horiz-adv-x="1972" 
d="M167 0zM1416 2048h389v-1351q0 -231 -108.5 -393t-294 -247t-417.5 -85q-237 0 -422 85t-290.5 247t-105.5 393v1351h389v-1351q0 -175 123 -280t307 -105q182 0 306 105t124 280v1351zM1276 2569l224 -16q0 -152 -88.5 -257.5t-223.5 -105.5q-88 0 -144 30t-107 60
t-123 30q-50 0 -83.5 -35.5t-33.5 -98.5l-228 11q0 99 40.5 182.5t111 133.5t160.5 50q73 0 132.5 -29.5t116.5 -59t125 -29.5q49 0 85 35.5t36 98.5z" />
    <glyph glyph-name="utilde" unicode="&#x169;" horiz-adv-x="1623" 
d="M156 0zM1085 681v855h382v-1536h-359v182h-16q-62 -85 -171 -143.5t-256 -58.5q-123 0 -240 58t-193 187.5t-76 344.5v966h382v-955q0 -139 74 -212t186 -73q130 0 208.5 102t78.5 283zM1088 2115l224 -16q0 -152 -88.5 -257.5t-223.5 -105.5q-88 0 -144 30t-107 60
t-123 30q-50 0 -83.5 -35.5t-33.5 -98.5l-228 11q0 99 40.5 182.5t111 133.5t160.5 50q73 0 132.5 -29.5t116.5 -59t125 -29.5q49 0 85 35.5t36 98.5z" />
    <glyph glyph-name="Umacron" unicode="&#x16a;" horiz-adv-x="1972" 
d="M167 0zM1416 2048h389v-1351q0 -231 -108.5 -393t-294 -247t-417.5 -85q-237 0 -422 85t-290.5 247t-105.5 393v1351h389v-1351q0 -175 123 -280t307 -105q182 0 306 105t124 280v1351zM1461 2457v-224h-948v224h948z" />
    <glyph glyph-name="umacron" unicode="&#x16b;" horiz-adv-x="1623" 
d="M156 0zM1085 681v855h382v-1536h-359v182h-16q-62 -85 -171 -143.5t-256 -58.5q-123 0 -240 58t-193 187.5t-76 344.5v966h382v-955q0 -139 74 -212t186 -73q130 0 208.5 102t78.5 283zM1273 2003v-224h-948v224h948z" />
    <glyph glyph-name="Ubreve" unicode="&#x16c;" horiz-adv-x="1972" 
d="M167 0zM1416 2048h389v-1351q0 -231 -108.5 -393t-294 -247t-417.5 -85q-237 0 -422 85t-290.5 247t-105.5 393v1351h389v-1351q0 -175 123 -280t307 -105q182 0 306 105t124 280v1351zM1178 2555h277q0 -178 -126.5 -291t-344.5 -113q-214 0 -340 113t-126 291h274
q0 -72 43.5 -127.5t148.5 -55.5t149.5 55.5t44.5 127.5z" />
    <glyph glyph-name="ubreve" unicode="&#x16d;" horiz-adv-x="1623" 
d="M156 0zM1085 681v855h382v-1536h-359v182h-16q-62 -85 -171 -143.5t-256 -58.5q-123 0 -240 58t-193 187.5t-76 344.5v966h382v-955q0 -139 74 -212t186 -73q130 0 208.5 102t78.5 283zM990 2101h277q0 -178 -126.5 -291t-344.5 -113q-214 0 -340 113t-126 291h274
q0 -72 43.5 -127.5t148.5 -55.5t149.5 55.5t44.5 127.5z" />
    <glyph glyph-name="Uring" unicode="&#x16e;" horiz-adv-x="1972" 
d="M167 0zM1416 2048h389v-1351q0 -231 -108.5 -393t-294 -247t-417.5 -85q-237 0 -422 85t-290.5 247t-105.5 393v1351h389v-1351q0 -175 123 -280t307 -105q182 0 306 105t124 280v1351zM659 2445q0 124 93.5 214.5t234.5 90.5t233.5 -90.5t92.5 -214.5t-92.5 -210
t-233.5 -86t-234.5 86t-93.5 210zM826 2445q0 -64 44.5 -111.5t116.5 -47.5t116.5 47.5t44.5 111.5q0 65 -44.5 113.5t-116.5 48.5t-116.5 -48.5t-44.5 -113.5z" />
    <glyph glyph-name="uring" unicode="&#x16f;" horiz-adv-x="1623" 
d="M156 0zM1085 681v855h382v-1536h-359v182h-16q-62 -85 -171 -143.5t-256 -58.5q-123 0 -240 58t-193 187.5t-76 344.5v966h382v-955q0 -139 74 -212t186 -73q130 0 208.5 102t78.5 283zM471 1991q0 124 93.5 214.5t234.5 90.5t233.5 -90.5t92.5 -214.5t-92.5 -210
t-233.5 -86t-234.5 86t-93.5 210zM638 1991q0 -64 44.5 -111.5t116.5 -47.5t116.5 47.5t44.5 111.5q0 65 -44.5 113.5t-116.5 48.5t-116.5 -48.5t-44.5 -113.5z" />
    <glyph glyph-name="Uhungarumlaut" unicode="&#x170;" horiz-adv-x="1972" 
d="M167 0zM1416 2048h389v-1351q0 -231 -108.5 -393t-294 -247t-417.5 -85q-237 0 -422 85t-290.5 247t-105.5 393v1351h389v-1351q0 -175 123 -280t307 -105q182 0 306 105t124 280v1351zM1055 2157l308 416h334l-364 -416h-278zM572 2157l253 416h333l-314 -416h-272z" />
    <glyph glyph-name="uhungarumlaut" unicode="&#x171;" horiz-adv-x="1623" 
d="M156 0zM1085 681v855h382v-1536h-359v182h-16q-62 -85 -171 -143.5t-256 -58.5q-123 0 -240 58t-193 187.5t-76 344.5v966h382v-955q0 -139 74 -212t186 -73q130 0 208.5 102t78.5 283zM867 1703l308 416h334l-364 -416h-278zM384 1703l253 416h333l-314 -416h-272z" />
    <glyph glyph-name="Uogonek" unicode="&#x172;" horiz-adv-x="1972" 
d="M1416 2048h389v-1351q0 -283 -160.5 -461.5t-415.5 -237.5q-82 -73 -82 -157q0 -41 20.5 -66t73.5 -25q39 0 65 10t45 18l39 -210q-34 -21 -89 -40.5t-137 -19.5q-130 0 -219.5 71.5t-89.5 210.5q0 47 12.5 93.5t41.5 90.5q-217 14 -384.5 102.5t-262.5 245.5t-95 375
v1351h389v-1351q0 -175 123 -280t307 -105q182 0 306 105t124 280v1351z" />
    <glyph glyph-name="uogonek" unicode="&#x173;" horiz-adv-x="1623" 
d="M1085 681v855h382v-1536h-117q-102 -60 -158 -117.5t-56 -131.5q0 -41 21 -66t73 -25q39 0 64.5 10t45.5 18l39 -210q-35 -21 -89.5 -40.5t-136.5 -19.5q-130 0 -219.5 71.5t-89.5 210.5q0 96 57 188.5t207 171.5v122h-16q-62 -85 -171 -143.5t-256 -58.5q-123 0 -240 58
t-193 187.5t-76 344.5v966h382v-955q0 -139 74 -212t186 -73q130 0 208.5 102t78.5 283z" />
    <glyph glyph-name="Wcircumflex" unicode="&#x174;" horiz-adv-x="2560" 
d="M131 0zM488 2048l260 -1471h16l345 1471h344l345 -1474h16l261 1474h354l-413 -2048h-388l-340 1392h-16l-338 -1392h-388l-415 2048h357zM754 2236zM1068 2236l217 204l215 -204h312v13l-412 387h-233l-413 -387v-13h314z" />
    <glyph glyph-name="wcircumflex" unicode="&#x175;" horiz-adv-x="2207" 
d="M83 0zM2124 1536l-408 -1536h-323l-279 967h-24l-276 -967h-323l-408 1536h373l215 -1010h18l268 1010h291l267 -1003h19l217 1003h373zM611 1782zM925 1782l217 204l215 -204h312v13l-412 387h-233l-413 -387v-13h314z" />
    <glyph glyph-name="Ycircumflex" unicode="&#x176;" horiz-adv-x="1914" 
d="M82 0zM500 2048l457 -924l457 924h417l-680 -1290v-758h-388v758l-681 1290h418zM426 2236zM740 2236l217 204l215 -204h312v13l-412 387h-233l-413 -387v-13h314z" />
    <glyph glyph-name="ycircumflex" unicode="&#x177;" horiz-adv-x="1525" 
d="M57 0zM571 -63l30 95l-544 1504h399l316 -955l298 955h399l-572 -1759q-30 -91 -97 -177.5t-173 -143t-253 -56.5q-103 0 -185 25v306q35 -5 80 -5q121 0 191.5 48t110.5 163zM231 1782zM545 1782l217 204l215 -204h312v13l-412 387h-233l-413 -387v-13h314z" />
    <glyph glyph-name="Ydieresis" unicode="&#x178;" horiz-adv-x="1914" 
d="M82 0zM500 2048l457 -924l457 924h417l-680 -1290v-758h-388v758l-681 1290h418zM436 2356q0 73 49.5 123.5t132.5 50.5t131.5 -50.5t48.5 -123.5q0 -71 -48.5 -121.5t-131.5 -50.5t-132.5 50.5t-49.5 121.5zM1115 2356q0 73 49.5 123.5t132.5 50.5q82 0 131 -50.5
t49 -123.5q0 -71 -49 -121.5t-131 -50.5q-83 0 -132.5 50.5t-49.5 121.5z" />
    <glyph glyph-name="Zacute" unicode="&#x179;" horiz-adv-x="1736" 
d="M134 0zM1602 327v-327h-1462v251l987 1470h-993v327h1462v-250l-987 -1471h993zM697 2148l261 424h392l-355 -424h-298z" />
    <glyph glyph-name="zacute" unicode="&#x17a;" horiz-adv-x="1511" 
d="M142 0zM1374 311v-311h-1232v239l737 986h-724v311h1202v-235l-737 -990h754zM581 1694l261 424h392l-355 -424h-298z" />
    <glyph glyph-name="Zdotaccent" unicode="&#x17b;" horiz-adv-x="1736" 
d="M134 0zM1602 327v-327h-1462v251l987 1470h-993v327h1462v-250l-987 -1471h993zM679 2378q0 80 52.5 132.5t144.5 52.5t145.5 -52.5t53.5 -132.5q0 -78 -53.5 -129.5t-145.5 -51.5t-144.5 51.5t-52.5 129.5z" />
    <glyph glyph-name="zdotaccent" unicode="&#x17c;" horiz-adv-x="1511" 
d="M142 0zM1374 311v-311h-1232v239l737 986h-724v311h1202v-235l-737 -990h754zM563 1924q0 80 52.5 132.5t144.5 52.5t145.5 -52.5t53.5 -132.5q0 -78 -53.5 -129.5t-145.5 -51.5t-144.5 51.5t-52.5 129.5z" />
    <glyph glyph-name="Zcaron" unicode="&#x17d;" horiz-adv-x="1736" 
d="M134 0zM1602 327v-327h-1462v251l987 1470h-993v327h1462v-250l-987 -1471h993zM659 2568l217 -204l215 204h312v-13l-412 -387h-233l-413 387v13h314z" />
    <glyph glyph-name="zcaron" unicode="&#x17e;" horiz-adv-x="1511" 
d="M142 0zM1374 311v-311h-1232v239l737 986h-724v311h1202v-235l-737 -990h754zM543 2114l217 -204l215 204h312v-13l-412 -387h-233l-413 387v13h314z" />
    <glyph glyph-name="longs" unicode="&#x17f;" horiz-adv-x="757" 
d="M386 0h-385v1619q0 255 143 388t398 133q54 0 107 -8t107 -20l-32 -292q-30 6 -59.5 9t-70.5 3q-208 0 -208 -213v-1619z" />
    <glyph glyph-name="bbar" unicode="&#x180;" horiz-adv-x="1771" 
d="M23 0zM276 2048h382v-623h9q59 60 143 95.5t198 35.5q196 0 346 -101t235 -279t85 -411q0 -234 -85 -413t-236 -280t-347 -101q-117 0 -203.5 36.5t-145.5 97.5h-10l-2 -105h-369v2048zM654 535q22 -93 101.5 -172t213.5 -79q169 0 254 134.5t85 346.5q0 209 -85 344.5
t-253 135.5q-100 0 -165.5 -46.5t-102 -109.5t-49.5 -114q-13 -54 -18 -110.5t-6 -95.5q1 -42 6.5 -111t18.5 -123zM976 1923v-236h-953v236h953z" />
    <glyph glyph-name="Bhook" unicode="&#x181;" horiz-adv-x="2206" 
d="M1375 5h-760v1719h-73q-80 0 -121.5 -37t-56.5 -95t-15 -121v-110h-349v185q0 226 144 364t397 138h772q343 0 537.5 -149t194.5 -412q0 -140 -70.5 -260t-217.5 -183q177 -42 259.5 -165t82.5 -278q0 -293 -191 -444.5t-533 -151.5zM1001 1721v-543l344 1
q151 7 232.5 80t81.5 192q0 127 -84.5 198.5t-261.5 71.5h-312zM1717 606q0 138 -82.5 212.5t-244.5 74.5h-389v-564h374q161 0 251.5 73t90.5 204z" />
    <glyph glyph-name="Btopbar" unicode="&#x182;" horiz-adv-x="1781" 
d="M126 0zM1481 2048v-327h-915v-1721h-389v2048h1304zM1624 643q0 -190 -90.5 -334.5t-258.5 -226.5t-401 -82h-748v2048h389v-779h359q233 0 401 -77.5t258.5 -218.5t90.5 -330zM515 317h359q176 0 270.5 98.5t94.5 231.5q0 127 -94.5 216t-270.5 89h-359v-635z" />
    <glyph glyph-name="btopbar" unicode="&#x183;" horiz-adv-x="1765" 
d="M156 2048h1181v-324h-799v-299h9q59 60 143 95.5t198 35.5q196 0 346 -101t235 -279t85 -411q0 -234 -85 -413t-236 -280t-347 -101q-117 0 -203.5 36.5t-145.5 97.5h-10l-2 -105h-369v2048zM534 535q22 -93 101.5 -172t213.5 -79q169 0 254 134.5t85 346.5
q0 209 -85 344.5t-253 135.5q-100 0 -165.5 -46.5t-102 -109.5t-49.5 -114q-13 -54 -18 -110.5t-6 -95.5q1 -42 6.5 -111t18.5 -123z" />
    <glyph glyph-name="Tonesix" unicode="&#x184;" horiz-adv-x="1947" 
d="M1826 643q0 -190 -90.5 -334.5t-258.5 -226.5t-401 -82h-747v1362l-219 214v180l219 217v75h388v-779h359q233 0 401 -77.5t258.5 -218.5t90.5 -330zM717 317h359q177 0 271.5 98.5t94.5 231.5q0 127 -94.5 216t-271.5 89h-359v-635z" />
    <glyph glyph-name="tonesix" unicode="&#x185;" horiz-adv-x="1781" 
d="M336 2112h66v-64h314v-623h10q59 60 143 95.5t198 35.5q195 0 345.5 -101t235.5 -279t85 -411q0 -234 -85 -413t-236 -280t-348 -101q-117 0 -203 36.5t-146 97.5h-9l-2 -105h-369v1441l-249 243v182zM713 535q23 -93 102 -172t213 -79q169 0 254 134.5t85 346.5
q0 209 -85 344.5t-253 135.5q-100 0 -165.5 -46.5t-101.5 -109.5t-50 -114q-13 -54 -18.5 -110.5t-6.5 -95.5q1 -42 7.5 -111t18.5 -123z" />
    <glyph glyph-name="Oopen" unicode="&#x186;" horiz-adv-x="1889" 
d="M121 0zM516 637l-394 -41q27 -181 126 -322t265.5 -221.5t393.5 -80.5q268 0 456 127t287 363t99 565q0 324 -101 559.5t-289.5 362.5t-449.5 127q-232 0 -397.5 -82.5t-263.5 -225t-127 -323.5l390 -42q14 81 55.5 159.5t120 130.5t204.5 52q232 0 351 -190t119 -528
q0 -332 -114 -526t-356 -194q-134 0 -210 53t-113 129.5t-52 147.5z" />
    <glyph glyph-name="Chook" unicode="&#x187;" horiz-adv-x="2106" 
d="M1373 637l394 -41q-27 -181 -126 -322t-265.5 -221.5t-393.5 -80.5q-268 0 -456 127t-287 363t-99 565q0 324 101 559.5t289.5 362.5t449.5 127q171 0 306 -46t234 -128q65 106 176.5 161t255.5 55q48 0 94 -1.5t92 -10.5v-312q-21 1 -54 3t-56 2q-62 0 -122 -22.5
t-99 -75.5t-39 -146v-110l-390 -42q-14 81 -55.5 159.5t-120 130.5t-204.5 52q-232 0 -351 -190t-119 -528q0 -332 114 -526t356 -194q134 0 210 53t113 129.5t52 147.5z" />
    <glyph glyph-name="chook" unicode="&#x188;" horiz-adv-x="1737" 
d="M1392 975h-280v22l-29 -4q-11 44 -42.5 103.5t-93 104t-163.5 44.5q-170 0 -253.5 -138.5t-83.5 -341.5q0 -211 84.5 -346t253.5 -135q137 0 205.5 72t89.5 157l351 -47q-32 -225 -205 -360t-436 -135q-223 0 -381.5 102t-243 281t-84.5 411q0 229 84 407.5t242 281
t380 102.5q111 0 205 -25.5t170 -71.5q52 109 154 166.5t240 57.5q44 0 84 -4.5t80 -15.5v-262q-22 3 -46 6.5t-50 3.5q-85 0 -158.5 -39.5t-73.5 -155.5v-29q28 -69 39 -145l-39 -5v-62z" />
    <glyph glyph-name="Dbar1" unicode="&#x189;" horiz-adv-x="2026" 
d="M50 0zM963 0h-648v2048h658q272 0 485.5 -128t336.5 -356t123 -526q0 -333 -124 -565t-339.5 -352.5t-491.5 -120.5zM952 1711h-249v-1374h242q258 0 418 165.5t160 535.5q0 210 -73 361t-202 231.5t-296 80.5zM1003 1138v-236h-953v236h953z" />
    <glyph glyph-name="Dhook" unicode="&#x18a;" horiz-adv-x="2326" 
d="M1267 0h-649v1711h-76q-120 0 -156.5 -73t-36.5 -167v-110h-349v185q0 226 144 364t397 138h735q272 0 485.5 -128t337 -356t123.5 -526q0 -333 -124 -565t-340 -352.5t-491 -120.5zM1255 1711h-249v-1374h242q258 0 418.5 165.5t160.5 535.5q0 210 -73 361t-202 231.5
t-297 80.5z" />
    <glyph glyph-name="Dtopbar" unicode="&#x18b;" horiz-adv-x="1781" 
d="M1640 0h-745q-233 0 -401.5 82t-259.5 226.5t-91 334.5q0 189 91 330.5t259.5 219.5t401.5 78h347v433h-904v329h1302v-2033zM1242 322v629h-347q-180 0 -266 -88.5t-86 -215.5q0 -133 86 -229t266 -96h347z" />
    <glyph glyph-name="dtopbar" unicode="&#x18c;" horiz-adv-x="1599" 
d="M1503 0h-370l-2 105h-9q-59 -61 -145.5 -97.5t-203.5 -36.5q-197 0 -347.5 101t-235.5 280t-85 413q0 233 85 411t235 279t346 101q114 0 198 -35.5t143 -95.5h9v299h-823v324h1205v-2048zM471 765q0 -212 85 -346.5t254 -134.5q134 0 213 79t102 172q12 54 18 123t7 111
q-1 40 -6 96t-18 110q-14 51 -50.5 114t-102 109.5t-165.5 46.5q-167 0 -252 -135.5t-85 -344.5z" />
    <glyph glyph-name="deltaturn" unicode="&#x18d;" horiz-adv-x="1691" 
d="M1368 -516h-1069v306h569q-39 34 -104.5 85t-142.5 112q-202 169 -336.5 354t-134.5 415v28q0 210 81 375.5t236.5 261t378.5 95.5t379 -91t238 -248.5t82 -356.5v-28q0 -182 -72 -327t-198.5 -237t-291.5 -119q-13 -1 -23 -1h-23q64 -57 146 -134t159 -153t126 -131
v-206zM1160 756v28q0 117 -30.5 213.5t-99 153.5t-184.5 57q-114 0 -183 -57t-100 -153.5t-31 -213.5v-28q0 -156 67 -267.5t155 -164.5q19 -7 39 -8.5t44 -1.5q117 0 188 60.5t103 161t32 220.5z" />
    <glyph glyph-name="Eturn" unicode="&#x18e;" horiz-adv-x="1634" 
d="M139 0zM139 1721v327h1328v-2048h-1322v327h933v533h-806v327h806v534h-939z" />
    <glyph glyph-name="Schwa" unicode="&#x18f;" horiz-adv-x="2037" 
d="M1021 -28q-282 0 -473.5 115t-288.5 325.5t-97 497.5v219h1314q-5 154 -61.5 279.5t-178.5 199.5t-324 74q-184 0 -316 -29.5t-211 -56.5l-68 325q29 15 118 41.5t218 48t278 21.5q308 0 518.5 -120t318.5 -331t108 -486v-194q0 -275 -113.5 -484t-307 -327t-434.5 -118z
M1021 318q202 0 316 140t135 348h-912v-41q0 -125 44.5 -226.5t145.5 -161t271 -59.5z" />
    <glyph glyph-name="Epsilon1" unicode="&#x190;" horiz-adv-x="1781" 
d="M888 1178h239v-312h-239q-176 0 -263 -69t-87 -231q0 -142 101.5 -207t268.5 -65q158 0 248.5 74t90.5 188h399q0 -153 -64 -263.5t-170.5 -181.5t-237.5 -105t-266 -34q-224 0 -399 61.5t-274.5 191.5t-99.5 335q0 173 90 291t255 176q-143 61 -228 171.5t-85 261.5
q0 186 92.5 313.5t259.5 193t389 65.5q192 0 353.5 -68.5t259 -195t97.5 -301.5h-399q0 115 -86.5 177t-224.5 62q-180 0 -261 -72.5t-81 -179.5q0 -127 73 -201.5t249 -74.5z" />
    <glyph glyph-name="Fhook" unicode="&#x191;" horiz-adv-x="1625" 
d="M1349 1188v-327h-793v-970q0 -188 -75.5 -289t-190 -139.5t-231.5 -38.5q-37 0 -93.5 1t-89.5 8v301q17 -3 41 -4.5t41 -1.5q84 0 146.5 33.5t62.5 130.5v2156h1319v-327h-930v-533h793z" />
    <glyph glyph-name="florin" unicode="&#x192;" horiz-adv-x="1182" 
d="M1033 1488v-279h-283v-1284q0 -256 -132.5 -390.5t-365.5 -134.5q-50 0 -96 4t-96 16l20 304q21 -7 62.5 -11.5t65.5 -4.5q87 0 121.5 56.5t34.5 160.5v1284h-221v279h221v131q0 255 144 388t396 133q57 0 110 -8t108 -20l-32 -295q-60 12 -137 12q-203 0 -203 -210v-131
h283z" />
    <glyph glyph-name="Ghook" unicode="&#x193;" horiz-adv-x="2178" 
d="M1804 1068v-323q0 -242 -103 -415t-282 -265.5t-408 -92.5q-257 0 -453.5 118t-307 352t-110.5 582q0 346 111 580t305 353t445 119q158 0 283.5 -43.5t220.5 -115.5q54 146 178.5 222.5t294.5 76.5q50 0 94 -4t91 -15v-310q-27 3 -54 7t-56 4q-63 0 -122.5 -15
t-98.5 -59t-39 -129v-255l-376 -39q-15 70 -61 150.5t-133 138t-222 57.5q-215 0 -344 -177.5t-129 -548.5q0 -265 63.5 -423.5t175 -228t253.5 -69.5q174 0 289.5 106t115.5 364h-406v298h785z" />
    <glyph glyph-name="Gamma1" unicode="&#x194;" horiz-adv-x="1947" 
d="M77 2019h440l457 -1096l456 1096h440l-707 -1548q108 -247 192 -428.5t84 -267.5q0 -130 -62 -213t-167.5 -122.5t-235.5 -39.5t-238 39.5t-172 122.5t-64 213q0 87 88 268.5t198 431.5zM887 -215q0 -42 20.5 -71.5t66.5 -29.5q48 0 67 31t19 70q0 48 -20.5 111
t-63.5 162q-44 -98 -66.5 -161.5t-22.5 -111.5z" />
    <glyph glyph-name="hv" unicode="&#x195;" horiz-adv-x="2474" 
d="M538 855v-855h-382v2048h371v-694h16q63 87 169 144.5t248 57.5q210 0 344 -144t134 -446v-366q0 -172 76 -240t172 -68t173.5 68t77.5 240v936h381v-936q0 -284 -167 -456t-465 -172t-464 172t-166 456v368q0 125 -57 198.5t-172 73.5q-132 0 -210.5 -103t-78.5 -282z
" />
    <glyph glyph-name="Iota1" unicode="&#x196;" horiz-adv-x="1013" 
d="M514 2112v-1619q0 -100 52.5 -155t155.5 -55q41 0 70.5 3.5t59.5 9.5l32 -296q-54 -12 -107 -20t-107 -8q-255 0 -398 134.5t-143 386.5v1619h385z" />
    <glyph glyph-name="Istroke" unicode="&#x197;" horiz-adv-x="1106" 
d="M76 0zM738 2048v-2048h-388v2048h388zM1029 1172v-236h-953v236h953z" />
    <glyph glyph-name="Khook" unicode="&#x198;" horiz-adv-x="1851" 
d="M1256 0l-478 782l-222 -295v-487h-389v2048h389v-934h17l488 661l66 93q85 118 202 168t245 36t246 -87l-128 -280q-83 48 -147.5 28t-128.5 -104l-40 -52l-359 -475l697 -1102h-458z" />
    <glyph glyph-name="khook" unicode="&#x199;" horiz-adv-x="1531" 
d="M1108 0l-420 607l-150 -172v-435h-382v1609q0 188 74.5 289t187.5 139.5t229 38.5q55 0 108 -4t90 -11v-296q-20 3 -45 5.5t-51 2.5q-85 0 -148 -33.5t-63 -130.5v-645h20l483 572h451l-570 -656l608 -880h-422z" />
    <glyph glyph-name="lbar" unicode="&#x19a;" horiz-adv-x="1140" 
d="M93 0zM773 2048v-2048h-382v2048h382zM1046 1244v-236h-953v236h953z" />
    <glyph glyph-name="lambdabar" unicode="&#x19b;" horiz-adv-x="1781" 
d="M1024 1903v-262l-47 -16l472 -1192q25 -58 57 -100.5t87 -42.5h45l3 -306q-26 -6 -63 -8.5t-81 -2.5q-164 0 -256.5 76t-147.5 229l-238 648l-311 -926h-416l528 1448l-25 60l-371 -126v263l270 91q-27 41 -64 58t-88 17q-16 0 -35.5 -0.5t-41.5 -3.5l-8 288
q39 12 101.5 19.5t109.5 7.5q152 0 239.5 -62t130.5 -174l12 -30z" />
    <glyph glyph-name="mcapturn" unicode="&#x19c;" horiz-adv-x="2549" 
d="M2009 0l-17 162q-70 -89 -174 -139.5t-241 -50.5q-146 0 -256.5 56.5t-171.5 189.5q-70 -115 -185 -180.5t-277 -65.5q-151 0 -261.5 55.5t-171 190t-60.5 372.5v1414h383v-1414q0 -170 61.5 -237t155.5 -67q117 0 188.5 48.5t106.5 130.5q-5 59 -5 125v1414h381v-1414
q0 -170 62 -237t156 -67q114 0 184.5 46t106.5 124v1548h383v-2004h-348z" />
    <glyph glyph-name="Nhook" unicode="&#x19d;" horiz-adv-x="1970" 
d="M1803 2048v-2048h-380l-850 1380h-17v-1489q0 -188 -75.5 -289t-190 -139.5t-231.5 -38.5q-37 0 -93.5 1t-89.5 8v301q17 -3 41 -4.5t41 -1.5q84 0 146.5 33.5t62.5 130.5v2156h383l849 -1383h17v1383h387z" />
    <glyph glyph-name="nlegrightlong" unicode="&#x19e;" horiz-adv-x="1617" 
d="M153 0zM535 848v-848h-382v1536h358v-198h16q62 96 171.5 157t256.5 61q135 0 251 -59t187 -189t71 -342v-1542h-382v1526q0 139 -74 214.5t-186 75.5q-130 0 -208.5 -105.5t-78.5 -286.5z" />
    <glyph glyph-name="Obar" unicode="&#x19f;" horiz-adv-x="1990" 
d="M134 0zM1850 1021q0 -329 -109 -564t-302 -360t-444 -125q-253 0 -447 125t-304 360t-110 564q0 331 109.5 567t303 362t445.5 126t445.5 -126t303 -362t109.5 -567zM989 1723q-188 0 -308.5 -135.5t-149.5 -407.5q154 35 264.5 27.5t206 -30.5t202 -38.5t253.5 3.5
q-25 285 -148.5 433t-319.5 148zM998 298q186 0 308 144t149 420q-147 -29 -253.5 -18t-202 34.5t-207 36.5t-266.5 -13q20 -295 147.5 -449.5t324.5 -154.5z" />
    <glyph glyph-name="Ohorn" unicode="&#x1a0;" horiz-adv-x="2035" 
d="M1856 1021q0 -329 -109 -564t-302 -360t-445 -125t-446 125t-304 360t-110 564q0 331 109.5 567t302.5 362t446 126q386 0 620 -283q79 36 110 130.5t31 236.5h266q0 -215 -69.5 -358.5t-214.5 -203.5q55 -118 85 -263t30 -314zM1468 1008q0 350 -128 532.5t-345 182.5
q-216 0 -341.5 -178.5t-125.5 -536.5q0 -346 130.5 -528t344.5 -182q210 0 337.5 182t127.5 528z" />
    <glyph glyph-name="ohorn" unicode="&#x1a1;" horiz-adv-x="1668" 
d="M793 -27q-199 0 -355.5 90.5t-247 267.5t-90.5 437q0 249 92.5 425t249 269.5t348.5 93.5q160 0 297.5 -62.5t233.5 -184.5q63 40 83.5 123t20.5 199h241q0 -180 -59.5 -304.5t-190.5 -180.5q34 -80 52 -174.5t18 -203.5q0 -263 -90.5 -440t-247 -266t-355.5 -89z
M790 284q152 0 242.5 120t90.5 364t-91.5 360.5t-241.5 116.5q-146 0 -234 -120.5t-88 -356.5t85 -360t237 -124z" />
    <glyph glyph-name="OI" unicode="&#x1a2;" horiz-adv-x="2459" 
d="M2331 2004v-2576h-382v2127l-204 -89v-1207q-45 -56 -137.5 -123t-244 -115.5t-372.5 -48.5q-255 0 -449.5 112.5t-304 328.5t-109.5 527v124q0 308 109.5 524t304 330t449.5 114t417 -63t251 -137l382 172h290zM1010 1709q-478 0 -478 -645v-124q0 -304 119.5 -475
t362.5 -171q158 0 235 37.5t112 69.5v1200q-43 41 -121 74.5t-230 33.5z" />
    <glyph glyph-name="oi" unicode="&#x1a3;" horiz-adv-x="1947" 
d="M1862 1488v-2060h-384v1616l-145 -66v-720q-77 -119 -210 -202.5t-351 -83.5q-231 0 -382.5 100.5t-226.5 271t-75 380.5v40q0 208 75 379t227 272t382 101q152 0 270 -56.5t196 -133.5l356 162h268zM766 283q118 0 182 63v785q-31 35 -76.5 56t-107.5 21
q-120 0 -183.5 -63.5t-86.5 -165t-23 -215.5v-40q0 -194 64.5 -317.5t230.5 -123.5z" />
    <glyph glyph-name="Phook" unicode="&#x1a4;" horiz-adv-x="2233" 
d="M1379 741h-375v-741h-389v1724h-73q-80 0 -121.5 -37t-56.5 -95t-15 -121v-110h-349v185q0 226 144 364t397 138h829q238 0 400.5 -88t245.5 -239.5t83 -341.5q0 -194 -90 -337.5t-251.5 -222t-378.5 -78.5zM1004 1721v-656h353q185 1 270 96.5t85 230.5q0 140 -78 235.5
t-264 93.5h-366z" />
    <glyph glyph-name="phook" unicode="&#x1a5;" horiz-adv-x="1654" 
d="M156 -576v2112v0q3 161 73 247t178 118.5t224 32.5q67 0 116.5 -7t82.5 -16v-278q-17 5 -51 12t-72 7q-84 0 -132 -42t-48 -140l1 -45h19q59 60 143 95.5t198 35.5q196 0 346 -101t235 -279t85 -411q0 -234 -85 -413t-236 -280t-347 -101q-117 0 -202.5 36t-145.5 97
v-680h-382zM534 535q22 -93 101.5 -172t213.5 -79q169 0 254 134.5t85 346.5q0 209 -85 344.5t-253 135.5q-100 0 -165.5 -46.5t-102 -109.5t-49.5 -114q-13 -54 -18 -110.5t-6 -95.5q1 -42 6.5 -111t18.5 -123z" />
    <glyph glyph-name="YR" unicode="&#x1a6;" horiz-adv-x="2037" 
d="M1493 -486l-633 1229h-340v-743h-402v2004h3v140h399v-140h336q344 0 539.5 -155.5t195.5 -451.5q0 -215 -96.5 -349t-262.5 -207l687 -1308v-19h-426zM520 1678v-613h336q167 0 252 84t85 220q0 143 -82.5 226t-254.5 83h-336z" />
    <glyph glyph-name="Tonetwo" unicode="&#x1a7;" horiz-adv-x="1781" 
d="M528 524q0 -102 79 -169t242 -67q179 0 292 77.5t113 260.5h401q0 -167 -69 -290.5t-185.5 -204t-259.5 -120t-292 -39.5q-329 0 -524.5 147.5t-195.5 408.5q0 244 166 395.5t497 250.5q197 60 300 128t103 169t-81.5 171t-246.5 70q-175 0 -258 -83.5t-83 -214.5h-397
q0 177 90 316.5t254.5 220.5t387.5 81q216 0 381.5 -70.5t259 -197t93.5 -292.5q0 -171 -90.5 -288.5t-242.5 -198t-336 -139.5q-165 -52 -250.5 -98t-116.5 -99t-31 -125z" />
    <glyph glyph-name="tonetwo" unicode="&#x1a8;" horiz-adv-x="1525" 
d="M507 412q0 -72 61.5 -117.5t177.5 -45.5q109 0 192.5 51.5t88.5 172.5h367q0 -121 -73.5 -236t-216 -190t-350.5 -75q-188 0 -327.5 59t-216.5 162t-77 235q0 144 71.5 234.5t197.5 144t290 86.5q161 31 222 72t61 109q0 70 -56.5 118.5t-161.5 48.5q-119 0 -176.5 -59
t-57.5 -144h-385q0 137 75 245t214 170.5t330 62.5q183 0 315.5 -64t203.5 -169t71 -228q0 -127 -69 -215t-189 -144t-274 -88q-190 -40 -249 -85.5t-59 -110.5z" />
    <glyph glyph-name="Esh" unicode="&#x1a9;" horiz-adv-x="1781" 
d="M175 0zM1207 1028v-23l-490 -677h877v-328h-1419v211l611 803l-611 807v212h1383v-331h-839z" />
    <glyph glyph-name="eshlooprev" unicode="&#x1aa;" horiz-adv-x="1691" 
d="M153 1621q0 149 73 273t195.5 197.5t272.5 73.5q149 0 272.5 -73.5t197 -197.5t73.5 -273v-1662q0 -121 48.5 -176t138.5 -55q57 0 114 12v-305q-46 -12 -95 -16.5t-99 -4.5q-234 0 -363 140t-129 405v1146q-77 -24 -158 -24q-150 0 -272.5 73t-195.5 195.5t-73 271.5z
M697 1413q81 0 139 52.5t58 159.5q0 104 -58 157t-139 53q-89 0 -147 -53t-58 -157q0 -107 58 -159.5t147 -52.5z" />
    <glyph glyph-name="tpalatalhook" unicode="&#x1ab;" horiz-adv-x="1013" 
d="M920 1536v-285h-271v-782q0 -77 30.5 -113.5t72.5 -47t75 -10.5q63 0 108 3v-410q0 -223 -121.5 -343.5t-323.5 -120.5q-44 0 -84 3t-83 14v262q25 -3 49 -5.5t51 -2.5q84 0 157.5 38.5t73.5 154.5v91q-99 14 -187 68.5t-143.5 145.5t-55.5 214v841h-209v285h209v328h381
v-328h271z" />
    <glyph glyph-name="Thook" unicode="&#x1ac;" horiz-adv-x="2004" 
d="M1929 2048v-327h-615v-1721h-389v1721h-394q-117 0 -156 -76t-39 -167v-110h-325v180q0 230 135 365t385 135h1398z" />
    <glyph glyph-name="thook" unicode="&#x1ad;" horiz-adv-x="1179" 
d="M988 1488v-279h-256v-750q0 -100 40 -134.5t113 -34.5q37 0 66.5 4t51.5 7v-293q-48 -17 -106 -26.5t-132 -9.5q-187 0 -301.5 104.5t-114.5 345.5v787h-223v279h223v212q0 143 45.5 234t120 141.5t164 70t178.5 19.5q112 0 198 -23v-257q-48 12 -97 12q-84 0 -155 -40.5
t-71 -156.5v-212h256z" />
    <glyph glyph-name="Trthook" unicode="&#x1ae;" horiz-adv-x="1789" 
d="M1700 2048v-327h-615v-1830q0 -97 66 -128t151 -31h81v-308h-183q-117 0 -232.5 38t-192 138.5t-76.5 288.5v1832h-615v327h1616z" />
    <glyph glyph-name="Uhorn" unicode="&#x1af;" horiz-adv-x="2167" 
d="M1302 2048h388v-322q132 33 166.5 138t34.5 269h261q0 -273 -100.5 -435t-361.5 -194v-807q0 -231 -108 -393t-293.5 -247t-417.5 -85q-237 0 -422 85t-290.5 247t-105.5 393v1351h388v-1351q0 -175 123.5 -280t307.5 -105q182 0 306 105t124 280v1351z" />
    <glyph glyph-name="uhorn" unicode="&#x1b0;" horiz-adv-x="1811" 
d="M1085 681v855h382v-226q89 29 111 105t22 202h234q0 -217 -80 -343t-287 -158v-1116h-359v182h-16q-62 -85 -171 -143.5t-256 -58.5q-123 0 -240 58t-193 187.5t-76 344.5v966h382v-955q0 -139 74 -212t186 -73q130 0 208.5 102t78.5 283z" />
    <glyph glyph-name="Upsilon2" unicode="&#x1b1;" horiz-adv-x="1781" 
d="M540 942v-124q0 -257 95 -389.5t259 -132.5q160 0 254 132.5t94 389.5v124q0 340 -77.5 512t-205.5 218v332h703v-326h-300q141 -128 231 -320t90 -416v-120q0 -250 -100 -441.5t-277.5 -300t-411.5 -108.5q-235 0 -414 108.5t-279.5 300t-100.5 441.5v120
q0 225 90 416.5t230 319.5h-297v326h691v-332q-122 -46 -198 -219.5t-76 -510.5z" />
    <glyph glyph-name="Vcursive" unicode="&#x1b2;" horiz-adv-x="1781" 
d="M893 -28q-223 0 -395.5 80.5t-270.5 238t-98 388.5v1325h398v-1325q0 -202 97 -293.5t269 -91.5q169 0 265 91.5t96 293.5v805q0 128 -46 172t-146 44q-28 0 -57 -2.5t-57 -8.5v316q48 13 96 18.5t97 5.5q237 0 376 -140t139 -405v-805q0 -231 -99.5 -388.5t-272 -238
t-391.5 -80.5z" />
    <glyph glyph-name="Yhook" unicode="&#x1b3;" horiz-adv-x="1914" 
d="M500 2048l457 -924l282 570l52 103q73 147 184 211.5t237 65t243 -46.5l-79 -296q-94 31 -161 6t-118 -128l-29 -59l-417 -792v-758h-388v758l-681 1290h418z" />
    <glyph glyph-name="yhook" unicode="&#x1b4;" horiz-adv-x="1648" 
d="M571 -63l30 94l-544 1505h399l314 -949l254 798l33 103q44 133 135 241.5t248 140.5q95 23 173.5 12.5t148.5 -33.5l-38 -291q-37 11 -65 18.5t-64 -0.5q-70 -11 -112.5 -69t-77.5 -165l-20 -59l-488 -1506q-30 -91 -97 -177.5t-173 -143t-253 -56.5q-103 0 -185 25v306
q27 -5 80 -5q121 0 193 47.5t109 163.5z" />
    <glyph glyph-name="Zbar" unicode="&#x1b5;" horiz-adv-x="1736" 
d="M134 0zM1602 327v-327h-1462v251l987 1470h-993v327h1462v-250l-987 -1471h993zM1332 1138v-236h-953v236h953z" />
    <glyph glyph-name="zbar" unicode="&#x1b6;" horiz-adv-x="1511" 
d="M142 0zM1374 311v-311h-1232v239l737 986h-724v311h1202v-235l-737 -990h754zM1232 897v-236h-953v236h953z" />
    <glyph glyph-name="Ezh" unicode="&#x1b7;" horiz-adv-x="1947" 
d="M161 100h400q20 -188 111.5 -278.5t290.5 -90.5q227 0 327 130.5t100 402.5q0 301 -108 424.5t-328 123.5h-357v234l554 632h-974v326h1482v-230l-573 -661q323 -36 513 -250.5t190 -598.5q0 -420 -224.5 -637t-601.5 -217q-245 0 -419 89t-271 245t-112 356z" />
    <glyph glyph-name="Ezhreversed" unicode="&#x1b8;" horiz-adv-x="2037" 
d="M1432 100h399q-15 -200 -112 -356t-271 -245t-419 -89q-377 0 -601.5 217t-224.5 637q0 386 193 600.5t518 249.5l-571 660v230h1472v-326h-967l552 -632v-234h-361q-221 0 -328.5 -123.5t-107.5 -424.5q0 -272 100 -402.5t326 -130.5q200 0 291.5 90.5t111.5 278.5z" />
    <glyph glyph-name="ezhreversed" unicode="&#x1b9;" horiz-adv-x="1781" 
d="M231 1488h1295v-308h-844l467 -503v-250h-188q-193 0 -293.5 -87t-100.5 -290q0 -121 89.5 -203.5t249.5 -82.5q141 0 225 81t84 195h384q0 -153 -59.5 -263.5t-159.5 -181.5t-223 -105t-251 -34q-210 0 -373.5 69.5t-257 201t-93.5 317.5q0 267 141.5 429t401.5 204
l-497 560z" />
    <glyph glyph-name="ezhtail" unicode="&#x1ba;" horiz-adv-x="1525" 
d="M493 -163q0 -77 65.5 -118.5t175.5 -41.5q100 0 187.5 48t92.5 175h366q0 -122 -73 -236.5t-215.5 -189t-349.5 -74.5q-189 0 -328.5 58.5t-216.5 161t-77 234.5q0 194 139 300.5t407 159.5q165 33 230.5 71.5t65.5 116.5q0 70 -56 111t-163 41h-308v227l361 299h-604
v308h1204v-220l-416 -371q168 -49 260 -161t92 -253q0 -136 -74 -225t-195 -142.5t-264 -82.5q-186 -41 -246 -88t-60 -108z" />
    <glyph glyph-name="twostroke" unicode="&#x1bb;" horiz-adv-x="1664" 
d="M129 0zM1526 327v-327h-1397v281l684 691q157 160 221.5 274t64.5 211q0 139 -76.5 225t-213.5 86q-151 0 -223 -111.5t-72 -261.5h-374q0 181 79.5 336t231 250t365.5 95q311 0 483.5 -159t172.5 -429q0 -204 -126.5 -388t-318.5 -390l-304 -319q-23 -23 -39 -34.5
t-45 -24.5l9 -21q30 12 52 14t57 2h769zM1526 1138v-236h-953v236h953z" />
    <glyph glyph-name="Tonefive" unicode="&#x1bc;" horiz-adv-x="1781" 
d="M635 927l-311 76l78 679h-276v322h313l5 44h1129v-332h-817l-61 -508h10q37 42 118.5 79.5t203.5 37.5q179 0 319.5 -83t220.5 -236.5t80 -363.5q0 -181 -76.5 -333t-230.5 -244.5t-384 -92.5q-171 0 -321.5 67t-245.5 195.5t-101 313.5h372q17 -128 95.5 -198t203.5 -70
q155 0 237 109t82 273q0 177 -93.5 277t-250.5 100q-116 0 -186 -34.5t-113 -77.5z" />
    <glyph glyph-name="tonefive" unicode="&#x1bd;" horiz-adv-x="1691" 
d="M664 638l-345 17l67 524h-227v309h1276v-309h-694l-38 -264q45 26 125.5 48t170.5 23q253 2 393 -129.5t140 -370.5q0 -146 -64.5 -261.5t-204 -182t-363.5 -66.5q-159 0 -306.5 48.5t-241.5 151t-94 262.5l378 22q6 -84 77 -128t187 -44q130 0 190.5 60t60.5 158
t-65.5 157t-187.5 59q-98 0 -152 -25.5t-82 -58.5z" />
    <glyph glyph-name="glottalstopbarinv" unicode="&#x1be;" horiz-adv-x="1525" 
d="M1019 412q0 70 -51 115t-125.5 86.5t-149.5 100t-126 154t-51 250.5v91h-221v279h221v366h385v-366h257v-279h-257v-94q0 -94 35.5 -152t92 -96t119 -71.5t119 -77t92 -112t35.5 -178.5q0 -132 -76.5 -235t-215.5 -162t-327 -59q-209 0 -352.5 75t-216.5 190t-73 236h367
q6 -127 93 -175.5t187 -48.5q112 0 175.5 43.5t63.5 119.5z" />
    <glyph glyph-name="wynn" unicode="&#x1bf;" horiz-adv-x="1781" 
d="M1558 731q0 -283 -118.5 -466.5t-332.5 -300.5t-499 -199v-337h-385v2060h359l13 -145q68 82 162.5 127.5t218.5 45.5q189 0 318.5 -94.5t196.5 -264.5t67 -396v-30zM874 1205q-101 0 -165.5 -40t-100.5 -113v-983q252 68 408 229t156 433v30q0 187 -68.5 315.5
t-229.5 128.5z" />
    <glyph glyph-name="pipe" unicode="&#x1c0;" horiz-adv-x="755" 
d="M497 2019v-2019h-238v2019h238z" />
    <glyph glyph-name="pipedbl" unicode="&#x1c1;" horiz-adv-x="1013" 
d="M196 0zM434 2019v-2019h-238v2019h238zM806 2019v-2019h-238v2019h238z" />
    <glyph glyph-name="pipedblbar" unicode="&#x1c2;" horiz-adv-x="1230" 
d="M138 0zM735 2019v-2019h-238v2019h238zM1091 1487v-236h-953v236h953zM1091 848v-236h-953v236h953z" />
    <glyph glyph-name="exclam1" unicode="&#x1c3;" horiz-adv-x="757" 
d="M143 0zM573 2048l-44 -1433h-315l-43 1433h402zM369 -27q-100 0 -163 63t-63 155q0 93 63 156.5t163 63.5t164 -63.5t64 -156.5q0 -92 -64 -155t-164 -63z" />
    <glyph glyph-name="Dzcaron_" unicode="&#x1c5;" horiz-adv-x="3198" 
d="M162 0zM810 0h-648v2048h658q272 0 485.5 -128t336.5 -356t123 -526q0 -333 -124 -565t-339.5 -352.5t-491.5 -120.5zM799 1711h-249v-1374h242q258 0 418 165.5t160 535.5q0 210 -73 361t-202 231.5t-296 80.5zM3061 311v-311h-1232v239l737 986h-724v311h1202v-235
l-737 -990h754zM2238 2048l217 -204l215 204h312v-13l-412 -387h-233l-413 387v13h314z" />
    <glyph glyph-name="dzcaron" unicode="&#x1c6;" horiz-adv-x="2948" 
d="M100 0zM100 0zM1498 0h-370l-2 105h-9q-60 -61 -146 -97.5t-203 -36.5q-197 0 -347.5 101t-235.5 280t-85 413q0 233 85 411t235 279t345 101q114 0 198 -35.5t144 -95.5h9v623h382v-2048zM466 765q0 -212 85 -346.5t253 -134.5q134 0 214 79t102 172q12 54 18 123t7 111
q-1 40 -6 96t-18 110q-14 51 -50.5 114t-102 109.5t-165.5 46.5q-167 0 -252 -135.5t-85 -344.5zM2812 311v-311h-1232v239l737 986h-724v311h1202v-235l-737 -990h754zM2008 2048l217 -204l215 204h312v-13l-412 -387h-233l-413 387v13h314z" />
    <glyph glyph-name="LJ" unicode="&#x1c7;" horiz-adv-x="3312" 
d="M423 0zM1672 327v-327h-1249v2048h389v-1721h860zM2767 613v1435h386v-1435q0 -199 -84.5 -343t-232.5 -221t-339 -77q-185 0 -332.5 67.5t-232.5 201t-85 331.5h385q2 -136 78.5 -208.5t192.5 -72.5q110 0 187 77t77 245z" />
    <glyph glyph-name="Lj" unicode="&#x1c8;" horiz-adv-x="2616" 
d="M423 0zM1672 327v-327h-1249v2048h389v-1721h860zM2262 1668q-94 0 -157 60t-63 144q0 81 63 142.5t157 61.5q93 0 155 -61.5t62 -142.5q0 -84 -62 -144t-155 -60zM2070 1536h382v-1606q0 -256 -151 -383t-396 -127h-126v311h78q125 0 169 57t44 147v1601z" />
    <glyph glyph-name="lj" unicode="&#x1c9;" horiz-adv-x="1774" 
d="M412 0zM794 2048v-2048h-382v2048h382zM1420 1668q-94 0 -157 60t-63 144q0 81 63 142.5t157 61.5q93 0 155 -61.5t62 -142.5q0 -84 -62 -144t-155 -60zM1228 1536h382v-1606q0 -256 -151 -383t-396 -127h-126v311h78q125 0 169 57t44 147v1601z" />
    <glyph glyph-name="NJ" unicode="&#x1ca;" horiz-adv-x="3746" 
d="M423 0zM2059 2048v-2048h-380l-850 1380h-17v-1380h-389v2048h383l849 -1383h17v1383h387zM3201 613v1435h386v-1435q0 -199 -84.5 -343t-232.5 -221t-339 -77q-185 0 -332.5 67.5t-232.5 201t-85 331.5h385q2 -136 78.5 -208.5t192.5 -72.5q110 0 187 77t77 245z" />
    <glyph glyph-name="Nj" unicode="&#x1cb;" horiz-adv-x="3050" 
d="M423 0zM2059 2048v-2048h-380l-850 1380h-17v-1380h-389v2048h383l849 -1383h17v1383h387zM2696 1668q-94 0 -157 60t-63 144q0 81 63 142.5t157 61.5q93 0 155 -61.5t62 -142.5q0 -84 -62 -144t-155 -60zM2504 1536h382v-1606q0 -256 -151 -383t-396 -127h-126v311h78
q125 0 169 57t44 147v1601z" />
    <glyph glyph-name="nj" unicode="&#x1cc;" horiz-adv-x="2703" 
d="M412 0zM794 848v-848h-382v1536h358v-198h16q62 96 171.5 157t256.5 61q134 0 250.5 -59t187.5 -189t71 -342v-966h-382v950q0 139 -74.5 214.5t-186.5 75.5q-130 0 -208 -105.5t-78 -286.5zM2349 1668q-94 0 -157 60t-63 144q0 81 63 142.5t157 61.5q93 0 155 -61.5
t62 -142.5q0 -84 -62 -144t-155 -60zM2157 1536h382v-1606q0 -256 -151 -383t-396 -127h-126v311h78q125 0 169 57t44 147v1601z" />
    <glyph glyph-name="Acaron" unicode="&#x1cd;" horiz-adv-x="1958" 
d="M82 0zM505 0h-423l691 2048h412l691 -2048h-422l-132 441h-685zM967 1538l-234 -778h493l-233 778h-26zM762 2568l217 -204l215 204h312v-13l-412 -387h-233l-413 387v13h314z" />
    <glyph glyph-name="acaron" unicode="&#x1ce;" horiz-adv-x="1543" 
d="M105 0zM1019 0v159h-12q-36 -65 -134.5 -127.5t-256.5 -62.5q-143 0 -259 52.5t-184 152t-68 240.5q0 239 184 377t569 138h145v64q0 140 -65.5 204.5t-183.5 64.5q-106 0 -174 -50t-105 -142l-358 68q47 152 150 244t235 133t266 41q168 0 309 -58t225.5 -186t84.5 -337
v-975h-368zM1003 674h-142q-182 0 -283.5 -61.5t-101.5 -182.5q0 -92 64 -131.5t141 -39.5q133 0 227.5 74t94.5 177v164zM546 2114l217 -204l215 204h312v-13l-412 -387h-233l-413 387v13h314z" />
    <glyph glyph-name="Icaron" unicode="&#x1cf;" horiz-adv-x="726" 
d="M0 0zM550 2048v-2048h-388v2048h388zM139 2568l217 -204l215 204h312v-13l-412 -387h-233l-413 387v13h314z" />
    <glyph glyph-name="icaron" unicode="&#x1d0;" horiz-adv-x="714" 
d="M0 0zM548 1536v-1536h-382v1536h382zM137 2094l217 -204l215 204h312v-13l-412 -387h-233l-413 387v13h314z" />
    <glyph glyph-name="Ocaron" unicode="&#x1d1;" horiz-adv-x="1996" 
d="M140 0zM1856 1021q0 -329 -109 -564t-302 -360t-445 -125t-446 125t-304 360t-110 564q0 331 109.5 567t303 362t445.5 126q251 0 444.5 -126t303.5 -362t110 -567zM1468 1008q0 350 -128 532.5t-345 182.5q-216 0 -341.5 -178.5t-125.5 -536.5q0 -346 130.5 -528
t344.5 -182q210 0 337.5 182t127.5 528zM779 2568l217 -204l215 204h312v-13l-412 -387h-233l-413 387v13h314z" />
    <glyph glyph-name="ocaron" unicode="&#x1d2;" horiz-adv-x="1586" 
d="M100 0zM793 -27q-199 0 -355.5 90.5t-247 267.5t-90.5 437q0 249 92.5 425t249 269.5t348.5 93.5q194 0 351.5 -91t251 -267t93.5 -430q0 -263 -90.5 -440t-247 -266t-355.5 -89zM790 284q152 0 242.5 120t90.5 364t-91.5 360.5t-241.5 116.5q-146 0 -234 -120.5
t-88 -356.5t85 -360t237 -124zM575 2114l217 -204l215 204h312v-13l-412 -387h-233l-413 387v13h314z" />
    <glyph glyph-name="Ucaron" unicode="&#x1d3;" horiz-adv-x="1972" 
d="M167 0zM1416 2048h389v-1351q0 -231 -108.5 -393t-294 -247t-417.5 -85q-237 0 -422 85t-290.5 247t-105.5 393v1351h389v-1351q0 -175 123 -280t307 -105q182 0 306 105t124 280v1351zM767 2568l217 -204l215 204h312v-13l-412 -387h-233l-413 387v13h314z" />
    <glyph glyph-name="ucaron" unicode="&#x1d4;" horiz-adv-x="1623" 
d="M156 0zM1085 681v855h382v-1536h-359v182h-16q-62 -85 -171 -143.5t-256 -58.5q-123 0 -240 58t-193 187.5t-76 344.5v966h382v-955q0 -139 74 -212t186 -73q130 0 208.5 102t78.5 283zM579 2114l217 -204l215 204h312v-13l-412 -387h-233l-413 387v13h314z" />
    <glyph glyph-name="Udieresismacron" unicode="&#x1d5;" horiz-adv-x="1972" 
d="M167 0zM1416 2048h389v-1351q0 -231 -108.5 -393t-294 -247t-417.5 -85q-237 0 -422 85t-290.5 247t-105.5 393v1351h389v-1351q0 -175 123 -280t307 -105q182 0 306 105t124 280v1351zM1458 2848v-227h-948v227h948zM501 2340q0 67 48.5 113.5t132.5 46.5t133.5 -46.5
t49.5 -113.5q0 -68 -49.5 -114t-133.5 -46t-132.5 46t-48.5 114zM1104 2339q0 67 48.5 113.5t133.5 46.5q84 0 133 -46.5t49 -113.5q0 -68 -49 -114t-133 -46q-85 0 -133.5 46t-48.5 114z" />
    <glyph glyph-name="udieresismacron" unicode="&#x1d6;" horiz-adv-x="1623" 
d="M156 0zM1085 681v855h382v-1536h-359v182h-16q-62 -85 -171 -143.5t-256 -58.5q-123 0 -240 58t-193 187.5t-76 344.5v966h382v-955q0 -139 74 -212t186 -73q130 0 208.5 102t78.5 283zM1273 2431v-226h-948v226h948zM279 1886q0 73 51.5 122.5t134.5 49.5t135 -49.5
t52 -122.5q0 -72 -52 -121.5t-135 -49.5t-134.5 49.5t-51.5 121.5zM940 1885q0 73 52 123t135 50t135 -50t52 -123q0 -72 -52 -121.5t-135 -49.5t-135 49.5t-52 121.5z" />
    <glyph glyph-name="Udieresisacute" unicode="&#x1d7;" horiz-adv-x="1972" 
d="M167 0zM1416 2048h389v-1351q0 -231 -108.5 -393t-294 -247t-417.5 -85q-237 0 -422 85t-290.5 247t-105.5 393v1351h389v-1351q0 -175 123 -280t307 -105q182 0 306 105t124 280v1351zM866 2488l176 274h283l-249 -274h-210zM501 2340q0 67 48.5 113.5t132.5 46.5
t133.5 -46.5t49.5 -113.5q0 -68 -49.5 -114t-133.5 -46t-132.5 46t-48.5 114zM1104 2339q0 67 48.5 113.5t133.5 46.5q84 0 133 -46.5t49 -113.5q0 -68 -49 -114t-133 -46q-85 0 -133.5 46t-48.5 114z" />
    <glyph glyph-name="udieresisacute" unicode="&#x1d8;" horiz-adv-x="1623" 
d="M156 0zM1085 681v855h382v-1536h-359v182h-16q-62 -85 -171 -143.5t-256 -58.5q-123 0 -240 58t-193 187.5t-76 344.5v966h382v-955q0 -139 74 -212t186 -73q130 0 208.5 102t78.5 283zM611 2122l269 424h423l-382 -424h-310zM279 1886q0 73 51.5 122.5t134.5 49.5
t135 -49.5t52 -122.5q0 -72 -52 -121.5t-135 -49.5t-134.5 49.5t-51.5 121.5zM940 1885q0 73 52 123t135 50t135 -50t52 -123q0 -72 -52 -121.5t-135 -49.5t-135 49.5t-52 121.5z" />
    <glyph glyph-name="Udieresiscaron" unicode="&#x1d9;" horiz-adv-x="1972" 
d="M167 0zM1416 2048h389v-1351q0 -231 -108.5 -393t-294 -247t-417.5 -85q-237 0 -422 85t-290.5 247t-105.5 393v1351h389v-1351q0 -175 123 -280t307 -105q182 0 306 105t124 280v1351zM801 2853l183 -158l184 158h328v-22l-382 -313h-260l-381 313v22h328zM501 2340
q0 67 48.5 113.5t132.5 46.5t133.5 -46.5t49.5 -113.5q0 -68 -49.5 -114t-133.5 -46t-132.5 46t-48.5 114zM1104 2339q0 67 48.5 113.5t133.5 46.5q84 0 133 -46.5t49 -113.5q0 -68 -49 -114t-133 -46q-85 0 -133.5 46t-48.5 114z" />
    <glyph glyph-name="udieresiscaron" unicode="&#x1da;" horiz-adv-x="1623" 
d="M156 0zM1085 681v855h382v-1536h-359v182h-16q-62 -85 -171 -143.5t-256 -58.5q-123 0 -240 58t-193 187.5t-76 344.5v966h382v-955q0 -139 74 -212t186 -73q130 0 208.5 102t78.5 283zM594 2547l202 -199l201 199h328v-14l-408 -386h-242l-409 388v12h328zM279 1886
q0 73 51.5 122.5t134.5 49.5t135 -49.5t52 -122.5q0 -72 -52 -121.5t-135 -49.5t-134.5 49.5t-51.5 121.5zM940 1885q0 73 52 123t135 50t135 -50t52 -123q0 -72 -52 -121.5t-135 -49.5t-135 49.5t-52 121.5z" />
    <glyph glyph-name="Udieresisgrave" unicode="&#x1db;" horiz-adv-x="1972" 
d="M167 0zM1416 2048h389v-1351q0 -231 -108.5 -393t-294 -247t-417.5 -85q-237 0 -422 85t-290.5 247t-105.5 393v1351h389v-1351q0 -175 123 -280t307 -105q182 0 306 105t124 280v1351zM930 2762l176 -274h-211l-248 274h283zM501 2340q0 67 48.5 113.5t132.5 46.5
t133.5 -46.5t49.5 -113.5q0 -68 -49.5 -114t-133.5 -46t-132.5 46t-48.5 114zM1104 2339q0 67 48.5 113.5t133.5 46.5q84 0 133 -46.5t49 -113.5q0 -68 -49 -114t-133 -46q-85 0 -133.5 46t-48.5 114z" />
    <glyph glyph-name="udieresisgrave" unicode="&#x1dc;" horiz-adv-x="1623" 
d="M156 0zM1085 681v855h382v-1536h-359v182h-16q-62 -85 -171 -143.5t-256 -58.5q-123 0 -240 58t-193 187.5t-76 344.5v966h382v-955q0 -139 74 -212t186 -73q130 0 208.5 102t78.5 283zM717 2546l271 -424h-315l-378 424h422zM279 1886q0 73 51.5 122.5t134.5 49.5
t135 -49.5t52 -122.5q0 -72 -52 -121.5t-135 -49.5t-134.5 49.5t-51.5 121.5zM940 1885q0 73 52 123t135 50t135 -50t52 -123q0 -72 -52 -121.5t-135 -49.5t-135 49.5t-52 121.5z" />
    <glyph glyph-name="eturn" unicode="&#x1dd;" horiz-adv-x="1525" 
d="M115 0zM709 1517q218 0 375.5 -96t242.5 -260.5t85 -372.5v-54q0 -218 -82.5 -390.5t-232 -272t-352.5 -99.5q-309 0 -469.5 185.5t-160.5 489.5v218h907q-17 144 -103.5 244t-245.5 100q-149 0 -241 -32.5t-174 -79.5l-109 249q79 63 221 117t339 54zM745 284
q117 0 184 89.5t88 225.5h-525v-36q0 -121 59.5 -200t193.5 -79z" />
    <glyph glyph-name="Adieresismacron" unicode="&#x1de;" horiz-adv-x="1958" 
d="M82 0zM505 0h-423l691 2048h412l691 -2048h-422l-132 441h-685zM967 1538l-234 -778h493l-233 778h-26zM1453 2848v-227h-948v227h948zM496 2340q0 67 48.5 113.5t132.5 46.5t133.5 -46.5t49.5 -113.5q0 -68 -49.5 -114t-133.5 -46t-132.5 46t-48.5 114zM1099 2339
q0 67 48.5 113.5t133.5 46.5q84 0 133 -46.5t49 -113.5q0 -68 -49 -114t-133 -46q-85 0 -133.5 46t-48.5 114z" />
    <glyph glyph-name="adieresismacron" unicode="&#x1df;" horiz-adv-x="1543" 
d="M105 0zM1019 0v159h-12q-36 -65 -134.5 -127.5t-256.5 -62.5q-143 0 -259 52.5t-184 152t-68 240.5q0 239 184 377t569 138h145v64q0 140 -65.5 204.5t-183.5 64.5q-106 0 -174 -50t-105 -142l-358 68q47 152 150 244t235 133t266 41q168 0 309 -58t225.5 -186t84.5 -337
v-975h-368zM1003 674h-142q-182 0 -283.5 -61.5t-101.5 -182.5q0 -92 64 -131.5t141 -39.5q133 0 227.5 74t94.5 177v164zM1240 2431v-226h-948v226h948zM246 1886q0 73 51.5 122.5t134.5 49.5t135 -49.5t52 -122.5q0 -72 -52 -121.5t-135 -49.5t-134.5 49.5t-51.5 121.5z
M907 1885q0 73 52 123t135 50t135 -50t52 -123q0 -72 -52 -121.5t-135 -49.5t-135 49.5t-52 121.5z" />
    <glyph glyph-name="Adotmacron" unicode="&#x1e0;" horiz-adv-x="1958" 
d="M82 0zM505 0h-423l691 2048h412l691 -2048h-422l-132 441h-685zM967 1538l-234 -778h493l-233 778h-26zM1453 2845v-226h-948v226h948zM797 2346q0 67 49 113.5t133 46.5t133 -46.5t49 -113.5q0 -68 -49 -114t-133 -46t-133 46t-49 114z" />
    <glyph glyph-name="adotmacron" unicode="&#x1e1;" horiz-adv-x="1543" 
d="M105 0zM1019 0v159h-12q-36 -65 -134.5 -127.5t-256.5 -62.5q-143 0 -259 52.5t-184 152t-68 240.5q0 239 184 377t569 138h145v64q0 140 -65.5 204.5t-183.5 64.5q-106 0 -174 -50t-105 -142l-358 68q47 152 150 244t235 133t266 41q168 0 309 -58t225.5 -186t84.5 -337
v-975h-368zM1003 674h-142q-182 0 -283.5 -61.5t-101.5 -182.5q0 -92 64 -131.5t141 -39.5q133 0 227.5 74t94.5 177v164zM1240 2482v-227h-948v227h948zM564 1918q0 79 53.5 132t144.5 53q92 0 145.5 -53t53.5 -132t-53.5 -131t-145.5 -52q-91 0 -144.5 52t-53.5 131z" />
    <glyph glyph-name="AEmacron" unicode="&#x1e2;" horiz-adv-x="2752" 
d="M60 0zM2629 314v-314h-1222l-18 443h-667l-223 -443h-439l1095 2048h1390v-314h-835l22 -548h701v-311h-689l22 -561h863zM881 760h495l-37 909zM1857 2468v-224h-948v224h948z" />
    <glyph glyph-name="aemacron" unicode="&#x1e3;" horiz-adv-x="2484" 
d="M110 0zM1758 -29q-181 0 -322 64t-236 177q-80 -93 -227 -168t-342 -75q-149 0 -266.5 56t-186 156.5t-68.5 232.5q0 247 184 378.5t570 131.5h144v69q0 140 -65.5 204.5t-183.5 64.5q-106 0 -173.5 -50t-105.5 -142l-358 68q48 152 151 244t234.5 133t265.5 41
q143 0 268.5 -41.5t211.5 -132.5q87 83 204 128.5t261 45.5q308 0 488.5 -193t180.5 -563v-160h-994v-12q28 -165 129 -254.5t254 -89.5q114 0 190 46t135 137l245 -198q-68 -120 -217.5 -209t-370.5 -89zM1717 1245q-135 0 -215.5 -93.5t-106.5 -247.5h634
q0 144 -78.5 242.5t-233.5 98.5zM1008 670h-142q-182 0 -283.5 -59.5t-101.5 -180.5q0 -92 64 -131.5t141 -39.5q133 0 227.5 74t94.5 177v160zM1722 2003v-224h-948v224h948z" />
    <glyph glyph-name="Gbar" unicode="&#x1e4;" horiz-adv-x="2006" 
d="M1947 652v-214h-222q-84 -222 -281 -344t-459 -122q-258 0 -454.5 118t-307 352t-110.5 582q0 346 111 580t305.5 353t444.5 119q241 0 407.5 -94.5t261.5 -241t123 -300.5l-376 -39q-14 70 -60.5 150.5t-133 138t-222.5 57.5q-214 0 -343.5 -177.5t-129.5 -548.5
q0 -265 63.5 -423.5t174.5 -228t254 -69.5q99 0 180.5 32.5t136.5 105.5h-317v214h398q8 55 8 118h-406v298h784v-323q0 -48 -4 -93h174z" />
    <glyph glyph-name="gbar" unicode="&#x1e5;" horiz-adv-x="1711" 
d="M100 0zM1145 1528h353v-1495q0 -198 -92.5 -335.5t-255 -209.5t-371.5 -72q-219 0 -372.5 72.5t-219.5 149.5l186 241q61 -52 155.5 -104.5t239.5 -52.5q167 0 260.5 80.5t95.5 264.5v67h-13q-59 -57 -143 -91.5t-197 -34.5q-197 0 -348.5 97.5t-237 272t-85.5 406.5
q0 226 85.5 400t236 273t346.5 99q123 0 210.5 -39.5t146.5 -105.5h11zM466 784q0 -212 86 -340.5t255 -128.5q134 0 217.5 77t105.5 169q14 53 19 120.5t6 108.5q0 39 -4.5 91t-19.5 105q-15 54 -53 115.5t-105 105t-167 43.5q-170 0 -255 -131.5t-85 -334.5zM1711 905
v-236h-953v236h953z" />
    <glyph glyph-name="Gcaron" unicode="&#x1e6;" horiz-adv-x="1949" 
d="M140 0zM1804 1068v-323q0 -242 -103 -415t-282 -265.5t-408 -92.5q-257 0 -453.5 118t-307 352t-110.5 582q0 346 111 580t305 353t445 119q241 0 407 -94.5t261.5 -241t123.5 -300.5l-376 -39q-15 70 -61 150.5t-133 138t-222 57.5q-215 0 -344 -177.5t-129 -548.5
q0 -265 63.5 -423.5t175 -228t253.5 -69.5q174 0 289.5 106t115.5 364h-406v298h785zM804 2568l217 -204l215 204h312v-13l-412 -387h-233l-413 387v13h314z" />
    <glyph glyph-name="gcaron" unicode="&#x1e7;" horiz-adv-x="1654" 
d="M100 0zM1145 1528h353v-1495q0 -198 -92.5 -335.5t-255 -209.5t-371.5 -72q-219 0 -372.5 72.5t-219.5 149.5l186 241q61 -52 155.5 -104.5t239.5 -52.5q167 0 260.5 80.5t95.5 264.5v67h-13q-59 -57 -143 -91.5t-197 -34.5q-197 0 -348.5 97.5t-237 272t-85.5 406.5
q0 226 85.5 400t236 273t346.5 99q123 0 210.5 -39.5t146.5 -105.5h11zM466 784q0 -212 86 -340.5t255 -128.5q134 0 217.5 77t105.5 169q14 53 19 120.5t6 108.5q0 39 -4.5 91t-19.5 105q-15 54 -53 115.5t-105 105t-167 43.5q-170 0 -255 -131.5t-85 -334.5zM591 2114
l217 -204l215 204h312v-13l-412 -387h-233l-413 387v13h314z" />
    <glyph glyph-name="Kcaron" unicode="&#x1e8;" horiz-adv-x="1830" 
d="M167 0zM1256 0l-477 784l-223 -297v-487h-389v2048h389v-934h17l685 934h473l-712 -946l695 -1102h-458zM625 2568l217 -204l215 204h312v-13l-412 -387h-233l-413 387v13h314z" />
    <glyph glyph-name="kcaron" unicode="&#x1e9;" horiz-adv-x="1531" 
d="M156 0zM1108 0l-420 610l-150 -174v-436h-382v2048h382v-1084h20l483 572h451l-569 -656l607 -880h-422zM595 2568l217 -204l215 204h312v-13l-412 -387h-233l-413 387v13h314z" />
    <glyph glyph-name="Oogonek" unicode="&#x1ea;" horiz-adv-x="1996" 
d="M140 0zM1856 1021q0 -329 -109 -564t-302 -360t-445 -125t-446 125t-304 360t-110 564q0 331 109.5 567t303 362t445.5 126q251 0 444.5 -126t303.5 -362t110 -567zM1468 1008q0 350 -128 532.5t-345 182.5q-216 0 -341.5 -178.5t-125.5 -536.5q0 -346 130.5 -528
t344.5 -182q210 0 337.5 182t127.5 528zM940 84l194 -84q-102 -60 -158 -117.5t-56 -131.5q0 -41 21 -66t73 -25q39 0 64.5 10t45.5 18l39 -210q-35 -21 -89.5 -40.5t-136.5 -19.5q-130 0 -219.5 71.5t-89.5 210.5q0 104 67 203t245 181z" />
    <glyph glyph-name="oogonek" unicode="&#x1eb;" horiz-adv-x="1586" 
d="M100 0zM793 -27q-199 0 -355.5 90.5t-247 267.5t-90.5 437q0 249 92.5 425t249 269.5t348.5 93.5q194 0 351.5 -91t251 -267t93.5 -430q0 -263 -90.5 -440t-247 -266t-355.5 -89zM790 284q152 0 242.5 120t90.5 364t-91.5 360.5t-241.5 116.5q-146 0 -234 -120.5
t-88 -356.5t85 -360t237 -124zM727 84l194 -84q-102 -60 -158 -117.5t-56 -131.5q0 -41 21 -66t73 -25q39 0 64.5 10t45.5 18l39 -210q-35 -21 -89.5 -40.5t-136.5 -19.5q-130 0 -219.5 71.5t-89.5 210.5q0 104 67 203t245 181z" />
    <glyph glyph-name="Oogonekmacron" unicode="&#x1ec;" horiz-adv-x="1996" 
d="M140 0zM1856 1021q0 -329 -109 -564t-302 -360t-445 -125t-446 125t-304 360t-110 564q0 331 109.5 567t303 362t445.5 126q251 0 444.5 -126t303.5 -362t110 -567zM1468 1008q0 350 -128 532.5t-345 182.5q-216 0 -341.5 -178.5t-125.5 -536.5q0 -346 130.5 -528
t344.5 -182q210 0 337.5 182t127.5 528zM940 84l194 -84q-102 -60 -158 -117.5t-56 -131.5q0 -41 21 -66t73 -25q39 0 64.5 10t45.5 18l39 -210q-35 -21 -89.5 -40.5t-136.5 -19.5q-130 0 -219.5 71.5t-89.5 210.5q0 104 67 203t245 181zM1473 2457v-224h-948v224h948z" />
    <glyph glyph-name="oogonekmacron" unicode="&#x1ed;" horiz-adv-x="1586" 
d="M100 0zM793 -27q-199 0 -355.5 90.5t-247 267.5t-90.5 437q0 249 92.5 425t249 269.5t348.5 93.5q194 0 351.5 -91t251 -267t93.5 -430q0 -263 -90.5 -440t-247 -266t-355.5 -89zM790 284q152 0 242.5 120t90.5 364t-91.5 360.5t-241.5 116.5q-146 0 -234 -120.5
t-88 -356.5t85 -360t237 -124zM727 84l194 -84q-102 -60 -158 -117.5t-56 -131.5q0 -41 21 -66t73 -25q39 0 64.5 10t45.5 18l39 -210q-35 -21 -89.5 -40.5t-136.5 -19.5q-130 0 -219.5 71.5t-89.5 210.5q0 104 67 203t245 181zM1269 2003v-224h-948v224h948z" />
    <glyph glyph-name="Ezhcaron" unicode="&#x1ee;" horiz-adv-x="1947" 
d="M155 0zM155 100h400q20 -188 111.5 -278.5t290.5 -90.5q227 0 327 130.5t100 402.5q0 301 -108 424.5t-328 123.5h-357v234l554 632h-974v326h1482v-230l-573 -661q323 -36 513 -250.5t190 -598.5q0 -420 -224.5 -637t-601.5 -217q-245 0 -419 89t-271 245t-112 356z
M688 2457l217 -204l215 204h312v-13l-412 -387h-233l-413 387v13h314z" />
    <glyph glyph-name="ezhcaron" unicode="&#x1ef;" horiz-adv-x="1691" 
d="M647 2096l183 -190l185 190h327v-22l-382 -350h-260l-380 352v20h327zM210 1488h1298v-251l-497 -560q259 -42 401 -204t142 -429q0 -186 -93.5 -317.5t-257 -201t-373.5 -69.5q-128 0 -251 34t-223 105t-159.5 181.5t-59.5 263.5h386q0 -114 83 -195t224 -81
q160 0 250 82.5t90 203.5q0 203 -101 290t-292 87h-190v250l467 503h-844v308z" />
    <glyph glyph-name="jcaron" unicode="&#x1f0;" horiz-adv-x="824" 
d="M0 0zM278 1536h382v-1606q0 -256 -151 -383t-396 -127h-126v311h78q125 0 169 57t44 147v1601zM251 2066l217 -204l215 204h312v-13l-412 -387h-233l-413 387v13h314z" />
    <glyph glyph-name="DZ" unicode="&#x1f1;" horiz-adv-x="3862" 
d="M418 0zM1066 0h-648v2048h658q272 0 485.5 -128t336.5 -356t123 -526q0 -333 -124 -565t-339.5 -352.5t-491.5 -120.5zM1055 1711h-249v-1374h242q258 0 418 165.5t160 535.5q0 210 -73 361t-202 231.5t-296 80.5zM3728 327v-327h-1462v251l987 1470h-993v327h1462v-250
l-987 -1471h993z" />
    <glyph glyph-name="Dz" unicode="&#x1f2;" horiz-adv-x="3637" 
d="M418 0zM1066 0h-648v2048h658q272 0 485.5 -128t336.5 -356t123 -526q0 -333 -124 -565t-339.5 -352.5t-491.5 -120.5zM1055 1711h-249v-1374h242q258 0 418 165.5t160 535.5q0 210 -73 361t-202 231.5t-296 80.5zM3500 311v-311h-1232v239l737 986h-724v311h1202v-235
l-737 -990h754z" />
    <glyph glyph-name="Gacute" unicode="&#x1f4;" horiz-adv-x="1949" 
d="M140 0zM1804 1068v-323q0 -242 -103 -415t-282 -265.5t-408 -92.5q-257 0 -453.5 118t-307 352t-110.5 582q0 346 111 580t305 353t445 119q241 0 407 -94.5t261.5 -241t123.5 -300.5l-376 -39q-15 70 -61 150.5t-133 138t-222 57.5q-215 0 -344 -177.5t-129 -548.5
q0 -265 63.5 -423.5t175 -228t253.5 -69.5q174 0 289.5 106t115.5 364h-406v298h785zM842 2148l261 424h392l-355 -424h-298z" />
    <glyph glyph-name="gacute" unicode="&#x1f5;" horiz-adv-x="1654" 
d="M100 0zM1145 1528h353v-1495q0 -198 -92.5 -335.5t-255 -209.5t-371.5 -72q-219 0 -372.5 72.5t-219.5 149.5l186 241q61 -52 155.5 -104.5t239.5 -52.5q167 0 260.5 80.5t95.5 264.5v67h-13q-59 -57 -143 -91.5t-197 -34.5q-197 0 -348.5 97.5t-237 272t-85.5 406.5
q0 226 85.5 400t236 273t346.5 99q123 0 210.5 -39.5t146.5 -105.5h11zM466 784q0 -212 86 -340.5t255 -128.5q134 0 217.5 77t105.5 169q14 53 19 120.5t6 108.5q0 39 -4.5 91t-19.5 105q-15 54 -53 115.5t-105 105t-167 43.5q-170 0 -255 -131.5t-85 -334.5zM629 1694
l261 424h392l-355 -424h-298z" />
    <glyph glyph-name="uni01F6" unicode="&#x1f6;" horiz-adv-x="3000" 
d="M553 2048v-865h863v865h386v-1369q0 -180 80 -280t250 -100q172 0 249.5 100t77.5 280v826h385v-826q0 -347 -192 -527t-520 -180q-331 0 -523.5 181.5t-192.5 525.5v185h-863v-864h-386v2048h386z" />
    <glyph glyph-name="uni01F7" unicode="&#x1f7;" horiz-adv-x="1947" 
d="M587 2004v-47q147 75 340 75q253 0 440 -100t290 -294t103 -478v-72q0 -294 -140.5 -547.5t-403.5 -446t-629 -302.5v-364h-397v2576h397zM927 1709q-107 0 -192.5 -40t-147.5 -111v-1434q259 95 429 245.5t254 335.5t84 383v76q0 254 -90.5 399.5t-336.5 145.5z" />
    <glyph glyph-name="uni01F8" unicode="&#x1f8;" horiz-adv-x="1970" 
d="M167 0zM1803 2048v-2048h-380l-850 1380h-17v-1380h-389v2048h383l849 -1383h17v1383h387zM951 2572l270 -424h-316l-377 424h423z" />
    <glyph glyph-name="uni01F9" unicode="&#x1f9;" horiz-adv-x="1623" 
d="M156 0zM538 848v-848h-382v1536h358v-198h16q62 96 171.5 157t256.5 61q134 0 250.5 -59t187.5 -189t71 -342v-966h-382v950q0 139 -74.5 214.5t-186.5 75.5q-130 0 -208 -105.5t-78 -286.5zM707 2118l270 -424h-316l-377 424h423z" />
    <glyph glyph-name="Aringacute" unicode="&#x1fa;" horiz-adv-x="1958" 
d="M82 0zM505 0h-423l691 2048h412l691 -2048h-422l-132 441h-685zM967 1538l-234 -778h493l-233 778h-26zM885 2495l251 280h349l-363 -280h-237zM705 2184q0 108 79.5 181.5t194.5 73.5q114 0 192 -73.5t78 -181.5q0 -109 -78 -178t-192 -69q-115 0 -194.5 69t-79.5 178z
M857 2184q0 -52 35 -85.5t87 -33.5t84.5 33.5t32.5 85.5q0 56 -32.5 90t-84.5 34t-87 -34t-35 -90z" />
    <glyph glyph-name="aringacute" unicode="&#x1fb;" horiz-adv-x="1543" 
d="M105 0zM1019 0v159h-12q-36 -65 -134.5 -127.5t-256.5 -62.5q-143 0 -259 52.5t-184 152t-68 240.5q0 239 184 377t569 138h145v64q0 140 -65.5 204.5t-183.5 64.5q-106 0 -174 -50t-105 -142l-358 68q47 152 150 244t235 133t266 41q168 0 309 -58t225.5 -186t84.5 -337
v-975h-368zM1003 674h-142q-182 0 -283.5 -61.5t-101.5 -182.5q0 -92 64 -131.5t141 -39.5q133 0 227.5 74t94.5 177v164zM669 2041l251 280h349l-363 -280h-237zM489 1730q0 108 79.5 181.5t194.5 73.5q114 0 192 -73.5t78 -181.5q0 -109 -78 -178t-192 -69
q-115 0 -194.5 69t-79.5 178zM641 1730q0 -52 35 -85.5t87 -33.5t84.5 33.5t32.5 85.5q0 56 -32.5 90t-84.5 34t-87 -34t-35 -90z" />
    <glyph glyph-name="AEacute" unicode="&#x1fc;" horiz-adv-x="2752" 
d="M60 0zM2629 314v-314h-1222l-18 443h-667l-223 -443h-439l1095 2048h1390v-314h-835l22 -548h701v-311h-689l22 -561h863zM881 760h495l-37 909zM1201 2159l261 424h392l-355 -424h-298z" />
    <glyph glyph-name="aeacute" unicode="&#x1fd;" horiz-adv-x="2484" 
d="M110 0zM1758 -29q-181 0 -322 64t-236 177q-80 -93 -227 -168t-342 -75q-149 0 -266.5 56t-186 156.5t-68.5 232.5q0 247 184 378.5t570 131.5h144v69q0 140 -65.5 204.5t-183.5 64.5q-106 0 -173.5 -50t-105.5 -142l-358 68q48 152 151 244t234.5 133t265.5 41
q143 0 268.5 -41.5t211.5 -132.5q87 83 204 128.5t261 45.5q308 0 488.5 -193t180.5 -563v-160h-994v-12q28 -165 129 -254.5t254 -89.5q114 0 190 46t135 137l245 -198q-68 -120 -217.5 -209t-370.5 -89zM1717 1245q-135 0 -215.5 -93.5t-106.5 -247.5h634
q0 144 -78.5 242.5t-233.5 98.5zM1008 670h-142q-182 0 -283.5 -59.5t-101.5 -180.5q0 -92 64 -131.5t141 -39.5q133 0 227.5 74t94.5 177v160zM1066 1694l261 424h392l-355 -424h-298z" />
    <glyph glyph-name="Oslashacute" unicode="&#x1fe;" horiz-adv-x="1996" 
d="M140 0zM1856 1021q0 -329 -109 -564t-302 -360t-445 -125q-229 0 -411 103l-97 -163h-255l178 299q-130 135 -202.5 340t-72.5 470q0 331 109.5 567t303 362t445.5 126q255 0 450 -130l111 186h250l-197 -332q115 -136 179.5 -332.5t64.5 -446.5zM528 1008
q0 -142 23 -256.5t66 -201.5l643 1080q-110 93 -265 93q-216 0 -341.5 -178.5t-125.5 -536.5zM1468 1008q0 256 -72 428l-632 -1065q103 -73 239 -73q210 0 337.5 182t127.5 528zM807 2216l261 424h392l-355 -424h-298z" />
    <glyph glyph-name="oslashacute" unicode="&#x1ff;" horiz-adv-x="1586" 
d="M100 0zM793 -27q-137 0 -254 43l-93 -190h-215l138 284q-124 97 -196.5 262.5t-72.5 395.5q0 249 92.5 425t249 269.5t348.5 93.5q140 0 262 -48l89 183h217l-137 -280q121 -99 193 -260.5t72 -382.5q0 -263 -90.5 -440t-247 -266t-355.5 -89zM468 768q0 -203 64 -325
l380 779q-55 23 -122 23q-146 0 -234 -120.5t-88 -356.5zM790 284q152 0 242.5 120t90.5 364q0 195 -63 314l-380 -778q50 -20 110 -20zM514 1688l261 424h392l-355 -424h-298z" />
    <glyph glyph-name="Adblgrave" unicode="&#x200;" horiz-adv-x="1958" 
d="M82 0zM505 0h-423l691 2048h412l691 -2048h-422l-132 441h-685zM967 1538l-234 -778h493l-233 778h-26zM919 2182h-320l-404 365h387zM1374 2182h-310l-337 365h377z" />
    <glyph glyph-name="adblgrave" unicode="&#x201;" horiz-adv-x="1543" 
d="M0 0zM1019 0v159h-12q-36 -65 -134.5 -127.5t-256.5 -62.5q-143 0 -259 52.5t-184 152t-68 240.5q0 239 184 377t569 138h145v64q0 140 -65.5 204.5t-183.5 64.5q-106 0 -174 -50t-105 -142l-358 68q47 152 150 244t235 133t266 41q168 0 309 -58t225.5 -186t84.5 -337
v-975h-368zM1003 674h-142q-182 0 -283.5 -61.5t-101.5 -182.5q0 -92 64 -131.5t141 -39.5q133 0 227.5 74t94.5 177v164zM703 1728h-320l-404 365h387zM1158 1728h-310l-337 365h377z" />
    <glyph glyph-name="Ainvertedbreve" unicode="&#x202;" horiz-adv-x="1958" 
d="M82 0zM505 0h-423l691 2048h412l691 -2048h-422l-132 441h-685zM967 1538l-234 -778h493l-233 778h-26zM1448 2221h-277q0 72 -43.5 128t-147.5 56q-107 0 -150.5 -56t-43.5 -128h-276q0 178 126.5 291t343.5 113q216 0 342 -113t126 -291z" />
    <glyph glyph-name="ainvertedbreve" unicode="&#x203;" horiz-adv-x="1543" 
d="M105 0zM1019 0v159h-12q-36 -65 -134.5 -127.5t-256.5 -62.5q-143 0 -259 52.5t-184 152t-68 240.5q0 239 184 377t569 138h145v64q0 140 -65.5 204.5t-183.5 64.5q-106 0 -174 -50t-105 -142l-358 68q47 152 150 244t235 133t266 41q168 0 309 -58t225.5 -186t84.5 -337
v-975h-368zM1003 674h-142q-182 0 -283.5 -61.5t-101.5 -182.5q0 -92 64 -131.5t141 -39.5q133 0 227.5 74t94.5 177v164zM1232 1767h-277q0 72 -43.5 128t-147.5 56q-107 0 -150.5 -56t-43.5 -128h-276q0 178 126.5 291t343.5 113q216 0 342 -113t126 -291z" />
    <glyph glyph-name="Edblgrave" unicode="&#x204;" horiz-adv-x="1634" 
d="M65 0zM1495 327v-327h-1328v2048h1322v-327h-933v-533h806v-327h-806v-534h939zM789 2182h-320l-404 365h387zM1244 2182h-310l-337 365h377z" />
    <glyph glyph-name="edblgrave" unicode="&#x205;" horiz-adv-x="1564" 
d="M15 0zM837 -29q-231 0 -396 102.5t-253 279t-88 399.5q0 233 82 414.5t238 285.5t378 104q308 0 488.5 -196t180.5 -566v-160h-995q27 -167 128 -258.5t256 -91.5q113 0 189 46t136 137l245 -198q-68 -120 -218 -209t-371 -89zM797 1245q-137 0 -217.5 -95.5
t-105.5 -251.5h635q0 144 -79 245.5t-233 101.5zM739 1728h-320l-404 365h387zM1194 1728h-310l-337 365h377z" />
    <glyph glyph-name="Einvertedbreve" unicode="&#x206;" horiz-adv-x="1634" 
d="M167 0zM1495 327v-327h-1328v2048h1322v-327h-933v-533h806v-327h-806v-534h939zM1318 2221h-277q0 72 -43.5 128t-147.5 56q-107 0 -150.5 -56t-43.5 -128h-276q0 178 126.5 291t343.5 113q216 0 342 -113t126 -291z" />
    <glyph glyph-name="einvertedbreve" unicode="&#x207;" horiz-adv-x="1564" 
d="M100 0zM837 -29q-231 0 -396 102.5t-253 279t-88 399.5q0 233 82 414.5t238 285.5t378 104q308 0 488.5 -196t180.5 -566v-160h-995q27 -167 128 -258.5t256 -91.5q113 0 189 46t136 137l245 -198q-68 -120 -218 -209t-371 -89zM797 1245q-137 0 -217.5 -95.5
t-105.5 -251.5h635q0 144 -79 245.5t-233 101.5zM1268 1767h-277q0 72 -43.5 128t-147.5 56q-107 0 -150.5 -56t-43.5 -128h-276q0 178 126.5 291t343.5 113q216 0 342 -113t126 -291z" />
    <glyph glyph-name="Idblgrave" unicode="&#x208;" horiz-adv-x="726" 
d="M0 0zM550 2048v-2048h-388v2048h388zM296 2182h-320l-404 365h387zM751 2182h-310l-337 365h377z" />
    <glyph glyph-name="idblgrave" unicode="&#x209;" horiz-adv-x="714" 
d="M0 0zM548 1536v-1536h-382v1536h382zM294 1708h-320l-404 365h387zM749 1708h-310l-337 365h377z" />
    <glyph glyph-name="Iinvertedbreve" unicode="&#x20a;" horiz-adv-x="726" 
d="M0 0zM550 2048v-2048h-388v2048h388zM825 2221h-277q0 72 -43.5 128t-147.5 56q-107 0 -150.5 -56t-43.5 -128h-276q0 178 126.5 291t343.5 113q216 0 342 -113t126 -291z" />
    <glyph glyph-name="iinvertedbreve" unicode="&#x20b;" horiz-adv-x="714" 
d="M0 0zM548 1536v-1536h-382v1536h382zM823 1747h-277q0 72 -43.5 128t-147.5 56q-107 0 -150.5 -56t-43.5 -128h-276q0 178 126.5 291t343.5 113q216 0 342 -113t126 -291z" />
    <glyph glyph-name="Odblgrave" unicode="&#x20c;" horiz-adv-x="1996" 
d="M140 0zM1856 1021q0 -329 -109 -564t-302 -360t-445 -125t-446 125t-304 360t-110 564q0 331 109.5 567t303 362t445.5 126q251 0 444.5 -126t303.5 -362t110 -567zM1468 1008q0 350 -128 532.5t-345 182.5q-216 0 -341.5 -178.5t-125.5 -536.5q0 -346 130.5 -528
t344.5 -182q210 0 337.5 182t127.5 528zM936 2182h-320l-404 365h387zM1391 2182h-310l-337 365h377z" />
    <glyph glyph-name="odblgrave" unicode="&#x20d;" horiz-adv-x="1586" 
d="M8 0zM793 -27q-199 0 -355.5 90.5t-247 267.5t-90.5 437q0 249 92.5 425t249 269.5t348.5 93.5q194 0 351.5 -91t251 -267t93.5 -430q0 -263 -90.5 -440t-247 -266t-355.5 -89zM790 284q152 0 242.5 120t90.5 364t-91.5 360.5t-241.5 116.5q-146 0 -234 -120.5
t-88 -356.5t85 -360t237 -124zM732 1728h-320l-404 365h387zM1187 1728h-310l-337 365h377z" />
    <glyph glyph-name="Oinvertedbreve" unicode="&#x20e;" horiz-adv-x="1996" 
d="M140 0zM1856 1021q0 -329 -109 -564t-302 -360t-445 -125t-446 125t-304 360t-110 564q0 331 109.5 567t303 362t445.5 126q251 0 444.5 -126t303.5 -362t110 -567zM1468 1008q0 350 -128 532.5t-345 182.5q-216 0 -341.5 -178.5t-125.5 -536.5q0 -346 130.5 -528
t344.5 -182q210 0 337.5 182t127.5 528zM1465 2221h-277q0 72 -43.5 128t-147.5 56q-107 0 -150.5 -56t-43.5 -128h-276q0 178 126.5 291t343.5 113q216 0 342 -113t126 -291z" />
    <glyph glyph-name="oinvertedbreve" unicode="&#x20f;" horiz-adv-x="1586" 
d="M100 0zM793 -27q-199 0 -355.5 90.5t-247 267.5t-90.5 437q0 249 92.5 425t249 269.5t348.5 93.5q194 0 351.5 -91t251 -267t93.5 -430q0 -263 -90.5 -440t-247 -266t-355.5 -89zM790 284q152 0 242.5 120t90.5 364t-91.5 360.5t-241.5 116.5q-146 0 -234 -120.5
t-88 -356.5t85 -360t237 -124zM1261 1767h-277q0 72 -43.5 128t-147.5 56q-107 0 -150.5 -56t-43.5 -128h-276q0 178 126.5 291t343.5 113q216 0 342 -113t126 -291z" />
    <glyph glyph-name="Rdblgrave" unicode="&#x210;" horiz-adv-x="1762" 
d="M104 0zM1287 0l-378 767h-353v-767h-389v2048h732q231 0 396 -80t253.5 -220t88.5 -319q0 -214 -97.5 -351t-263.5 -212l431 -847v-19h-420zM556 1721v-630h343q169 0 259.5 87t90.5 222q0 152 -84 236.5t-266 84.5h-343zM828 2182h-320l-404 365h387zM1283 2182h-310
l-337 365h377z" />
    <glyph glyph-name="rdblgrave" unicode="&#x211;" horiz-adv-x="1034" 
d="M0 0zM975 1549v-363q-18 3 -47 4t-56 1q-152 0 -242.5 -92.5t-91.5 -213.5v-885h-382v1536h382v-220h13q22 60 73.5 115t120.5 90.5t142 35.5q21 0 45.5 -1.5t42.5 -6.5zM517 1728h-320l-404 365h387zM972 1728h-310l-337 365h377z" />
    <glyph glyph-name="Rinvertedbreve" unicode="&#x212;" horiz-adv-x="1762" 
d="M167 0zM1287 0l-378 767h-353v-767h-389v2048h732q231 0 396 -80t253.5 -220t88.5 -319q0 -214 -97.5 -351t-263.5 -212l431 -847v-19h-420zM556 1721v-630h343q169 0 259.5 87t90.5 222q0 152 -84 236.5t-266 84.5h-343zM1357 2221h-277q0 72 -43.5 128t-147.5 56
q-107 0 -150.5 -56t-43.5 -128h-276q0 178 126.5 291t343.5 113q216 0 342 -113t126 -291z" />
    <glyph glyph-name="rinvertedbreve" unicode="&#x213;" horiz-adv-x="1034" 
d="M108 0zM975 1549v-363q-18 3 -47 4t-56 1q-152 0 -242.5 -92.5t-91.5 -213.5v-885h-382v1536h382v-220h13q22 60 73.5 115t120.5 90.5t142 35.5q21 0 45.5 -1.5t42.5 -6.5zM1046 1767h-277q0 72 -43.5 128t-147.5 56q-107 0 -150.5 -56t-43.5 -128h-276q0 178 126.5 291
t343.5 113q216 0 342 -113t126 -291z" />
    <glyph glyph-name="Udblgrave" unicode="&#x214;" horiz-adv-x="1972" 
d="M167 0zM1416 2048h389v-1351q0 -231 -108.5 -393t-294 -247t-417.5 -85q-237 0 -422 85t-290.5 247t-105.5 393v1351h389v-1351q0 -175 123 -280t307 -105q182 0 306 105t124 280v1351zM924 2182h-320l-404 365h387zM1379 2182h-310l-337 365h377z" />
    <glyph glyph-name="udblgrave" unicode="&#x215;" horiz-adv-x="1623" 
d="M12 0zM1085 681v855h382v-1536h-359v182h-16q-62 -85 -171 -143.5t-256 -58.5q-123 0 -240 58t-193 187.5t-76 344.5v966h382v-955q0 -139 74 -212t186 -73q130 0 208.5 102t78.5 283zM736 1728h-320l-404 365h387zM1191 1728h-310l-337 365h377z" />
    <glyph glyph-name="Uinvertedbreve" unicode="&#x216;" horiz-adv-x="1972" 
d="M167 0zM1416 2048h389v-1351q0 -231 -108.5 -393t-294 -247t-417.5 -85q-237 0 -422 85t-290.5 247t-105.5 393v1351h389v-1351q0 -175 123 -280t307 -105q182 0 306 105t124 280v1351zM1453 2221h-277q0 72 -43.5 128t-147.5 56q-107 0 -150.5 -56t-43.5 -128h-276
q0 178 126.5 291t343.5 113q216 0 342 -113t126 -291z" />
    <glyph glyph-name="uinvertedbreve" unicode="&#x217;" horiz-adv-x="1623" 
d="M156 0zM1085 681v855h382v-1536h-359v182h-16q-62 -85 -171 -143.5t-256 -58.5q-123 0 -240 58t-193 187.5t-76 344.5v966h382v-955q0 -139 74 -212t186 -73q130 0 208.5 102t78.5 283zM1265 1767h-277q0 72 -43.5 128t-147.5 56q-107 0 -150.5 -56t-43.5 -128h-276
q0 178 126.5 291t343.5 113q216 0 342 -113t126 -291z" />
    <glyph glyph-name="Scommaaccent" unicode="&#x218;" horiz-adv-x="1764" 
d="M95 0zM1232 1468q-14 128 -103 202t-247 74q-161 0 -250.5 -66.5t-89.5 -175.5q0 -105 99 -167t278 -120l109 -35q290 -94 445 -232.5t155 -372.5q0 -282 -199 -444t-552 -162q-206 0 -382.5 72t-286 216.5t-113.5 363.5h388q11 -157 116 -239t287 -82q167 0 261 79
t94 186q0 106 -90.5 180.5t-317.5 144.5l-114 33q-175 51 -301.5 121.5t-195.5 180t-69 276.5q0 175 96.5 304t263.5 200t379 71t374.5 -76t255 -212.5t96.5 -319.5h-386zM1039 -133v-191q-1 -156 -44.5 -303.5t-139.5 -256.5l-215 86q45 103 76 205.5t31 248.5v211h292z
" />
    <glyph glyph-name="scommaaccent" unicode="&#x219;" horiz-adv-x="1411" 
d="M101 0zM139 1107q0 123 69 225t197 163t305 61q187 0 338.5 -68t231.5 -199l-266 -191q-28 40 -99.5 92.5t-189.5 52.5q-95 0 -152.5 -40.5t-57.5 -99.5q0 -66 57.5 -98.5t161.5 -64.5l132 -38q212 -66 316.5 -188.5t104.5 -273.5q0 -129 -72 -235.5t-204.5 -170
t-311.5 -63.5q-172 0 -336.5 66.5t-261.5 217.5l281 205q31 -47 103.5 -107t200.5 -60q98 0 164 39.5t66 102.5q0 67 -66.5 110t-187.5 83l-147 43q-199 65 -287.5 181.5t-88.5 254.5zM864 -120v-191q-1 -156 -44.5 -303.5t-139.5 -256.5l-215 86q45 103 76 205.5t31 248.5
v211h292z" />
    <glyph glyph-name="uni021A" unicode="&#x21a;" horiz-adv-x="1789" 
d="M86 0zM1703 2048v-327h-615v-1721h-386v1721h-616v327h1617zM1037 -110v-191q-1 -156 -44.5 -303.5t-139.5 -256.5l-215 86q45 103 76 205.5t31 248.5v211h292z" />
    <glyph glyph-name="uni021B" unicode="&#x21b;" horiz-adv-x="1013" 
d="M61 0zM923 1536v-285h-271v-782q0 -77 30.5 -113.5t72 -47t75.5 -10.5q64 0 107 3v-305q-71 -13 -115 -15.5t-104 -2.5q-109 0 -212 51.5t-169.5 148t-66.5 232.5v841h-209v285h209v328h382v-328h271zM771 -120v-191q-1 -156 -44.5 -303.5t-139.5 -256.5l-215 86
q45 103 76 205.5t31 248.5v211h292z" />
    <glyph glyph-name="uni021C" unicode="&#x21c;" horiz-adv-x="1781" 
d="M293 423v299q337 102 537 197t288 212t88 286q0 125 -79 207t-263 82q-126 0 -220 -63t-94 -180h-399q0 179 99.5 305.5t261.5 193.5t352 67q334 0 536 -145t202 -424q0 -157 -57.5 -289t-166.5 -243q119 -66 186 -182t67 -277q0 -235 -99.5 -414.5t-280 -309.5
t-425 -215t-533.5 -130v319q456 90 697 273.5t241 482.5q0 108 -25 170t-76 93q-162 -96 -373 -174t-464 -141z" />
    <glyph glyph-name="uni021D" unicode="&#x21d;" horiz-adv-x="1525" 
d="M302 231v279q198 61 348 133t234 166.5t84 223.5q0 77 -43.5 133.5t-163.5 56.5q-101 0 -165.5 -43t-64.5 -118h-384q0 141 80.5 242.5t216 156.5t299.5 55q279 0 443.5 -111.5t164.5 -324.5q0 -244 -178 -430q98 -58 152 -156.5t54 -236.5q0 -235 -132 -404.5
t-373.5 -280.5t-571.5 -172v289q231 73 384.5 151t230.5 182.5t77 258.5q0 116 -51 192q-127 -73 -288 -133t-353 -109z" />
    <glyph glyph-name="uni021E" unicode="&#x21e;" horiz-adv-x="1972" 
d="M167 0zM556 2048v-860h860v860h389v-2048h-389v861h-860v-861h-389v2048h389zM815 2568l217 -204l215 204h312v-13l-412 -387h-233l-413 387v13h314z" />
    <glyph glyph-name="uni021F" unicode="&#x21f;" horiz-adv-x="1594" 
d="M156 0zM538 855v-855h-382v2048h371v-694h16q63 87 169 144.5t248 57.5q210 0 344 -146t134 -444v-966h-382v968q0 125 -56.5 198.5t-172.5 73.5q-133 0 -211 -103t-78 -282zM565 2652l217 -204l215 204h312v-13l-412 -387h-233l-413 387v13h314z" />
    <glyph glyph-name="uni0220" unicode="&#x220;" horiz-adv-x="1781" 
d="M1626 -572h-388v1972q0 321 -337 321q-191 0 -359 -105v-1616h-383v2004h383v-72q84 44 184 72t214 28q188 0 344 -73t249 -214t93 -345v-1972z" />
    <glyph glyph-name="uni0221" unicode="&#x221;" horiz-adv-x="2202" 
d="M2131 -209q0 -170 -120.5 -276.5t-353.5 -106.5q-189 0 -299 68t-161 175l-228 -206l-175 231l351 305v104q-59 -53 -140 -83.5t-188 -30.5q-197 0 -347.5 101t-235.5 280t-85 413q0 233 85 411t235 279t346 101q114 0 198 -35.5t143 -95.5h9v623h382v-1892q67 9 140 9
q210 0 327 -102t117 -272zM515 765q0 -212 85 -346.5t254 -134.5q134 0 213 79t102 172q13 54 18.5 123t6.5 111q-1 39 -6 95.5t-18 110.5q-14 51 -50 114t-101.5 109.5t-165.5 46.5q-168 0 -253 -135.5t-85 -344.5zM1516 -181q0 -71 37 -115.5t107 -44.5q56 0 96 31.5
t40 92.5q0 56 -41 85.5t-107 29.5q-67 0 -132 -24v-55z" />
    <glyph glyph-name="uni0222" unicode="&#x222;" horiz-adv-x="1781" 
d="M869 1297h41q167 0 260.5 50t93.5 180q0 91 -45.5 132.5t-133.5 62.5v310q169 -3 300.5 -57t207 -164.5t75.5 -283.5q0 -146 -64.5 -246.5t-175.5 -162.5q111 -78 174 -199.5t63 -287.5q0 -216 -99 -362.5t-271 -221.5t-390 -75h-29q-218 0 -390.5 74.5t-272.5 220.5
t-100 360q0 168 63.5 290.5t175.5 200.5q-111 61 -175 161.5t-64 247.5q0 173 75 283.5t206 164.5t300 57v-310q-89 -21 -133 -62.5t-44 -132.5q0 -130 93 -180t259 -50zM905 970h-29q-167 0 -263 -89t-96 -254q0 -161 96 -247t263 -86h29q170 0 263.5 86.5t93.5 250.5
q0 161 -93.5 250t-263.5 89z" />
    <glyph glyph-name="uni0223" unicode="&#x223;" horiz-adv-x="1781" 
d="M911 1269q173 0 268.5 68.5t95.5 229.5q0 121 -52.5 184t-136.5 94v295q252 -3 411.5 -148.5t159.5 -419.5q0 -169 -64 -282.5t-175 -180.5q112 -75 175.5 -196t63.5 -290q0 -215 -97.5 -359.5t-267 -218t-386.5 -73.5h-29q-218 0 -388 73.5t-267.5 218t-97.5 358.5
q0 170 63.5 291t175.5 196q-111 67 -175 181t-64 282q0 274 160 419.5t411 148.5v-295q-84 -31 -135 -94t-51 -184q0 -161 95.5 -229.5t265.5 -68.5h41zM906 961h-29q-171 0 -269.5 -89t-98.5 -250t98.5 -250t269.5 -89h29q172 0 269 89t97 251q0 161 -97 249.5t-269 88.5z
" />
    <glyph glyph-name="uni0224" unicode="&#x224;" horiz-adv-x="1736" 
d="M1596 1798l-984 -1471h491q250 0 385 -135t135 -366v-166h-323v96q0 61 -15.5 117t-58 91.5t-123.5 35.5h-963v251l984 1470h-990v327h1462v-250z" />
    <glyph glyph-name="zhook" unicode="&#x225;" horiz-adv-x="1509" 
d="M1357 1301l-738 -990h291q251 0 385.5 -136.5t134.5 -363.5v-173h-319v97q0 63 -15 124t-58 101t-128 40h-768v239l739 986h-726v311h1202v-235z" />
    <glyph glyph-name="uni0226" unicode="&#x226;" horiz-adv-x="1958" 
d="M82 0zM505 0h-423l691 2048h412l691 -2048h-422l-132 441h-685zM967 1538l-234 -778h493l-233 778h-26zM782 2378q0 80 52.5 132.5t144.5 52.5t145.5 -52.5t53.5 -132.5q0 -78 -53.5 -129.5t-145.5 -51.5t-144.5 51.5t-52.5 129.5z" />
    <glyph glyph-name="uni0227" unicode="&#x227;" horiz-adv-x="1543" 
d="M105 0zM1019 0v159h-12q-36 -65 -134.5 -127.5t-256.5 -62.5q-143 0 -259 52.5t-184 152t-68 240.5q0 239 184 377t569 138h145v64q0 140 -65.5 204.5t-183.5 64.5q-106 0 -174 -50t-105 -142l-358 68q47 152 150 244t235 133t266 41q168 0 309 -58t225.5 -186t84.5 -337
v-975h-368zM1003 674h-142q-182 0 -283.5 -61.5t-101.5 -182.5q0 -92 64 -131.5t141 -39.5q133 0 227.5 74t94.5 177v164zM566 1924q0 80 52.5 132.5t144.5 52.5t145.5 -52.5t53.5 -132.5q0 -78 -53.5 -129.5t-145.5 -51.5t-144.5 51.5t-52.5 129.5z" />
    <glyph glyph-name="uni0228" unicode="&#x228;" horiz-adv-x="1634" 
d="M167 0zM1495 327v-327h-1328v2048h1322v-327h-933v-533h806v-327h-806v-534h939zM780 26h286l-16 -82q76 -12 140.5 -65.5t64.5 -170.5q0 -145 -120 -234t-352 -89l-10 221q70 0 115.5 25.5t45.5 86.5q0 59 -47 81t-151 29z" />
    <glyph glyph-name="uni0229" unicode="&#x229;" horiz-adv-x="1564" 
d="M100 0zM837 -29q-231 0 -396 102.5t-253 279t-88 399.5q0 233 82 414.5t238 285.5t378 104q308 0 488.5 -196t180.5 -566v-160h-995q27 -167 128 -258.5t256 -91.5q113 0 189 46t136 137l245 -198q-68 -120 -218 -209t-371 -89zM797 1245q-137 0 -217.5 -95.5
t-105.5 -251.5h635q0 144 -79 245.5t-233 101.5zM672 10h286l-16 -82q76 -12 140.5 -65.5t64.5 -170.5q0 -145 -120 -234t-352 -89l-10 221q70 0 115.5 25.5t45.5 86.5q0 59 -47 81t-151 29z" />
    <glyph glyph-name="uni022A" unicode="&#x22a;" horiz-adv-x="1996" 
d="M140 0zM1856 1021q0 -329 -109 -564t-302 -360t-445 -125t-446 125t-304 360t-110 564q0 331 109.5 567t303 362t445.5 126q251 0 444.5 -126t303.5 -362t110 -567zM1468 1008q0 350 -128 532.5t-345 182.5q-216 0 -341.5 -178.5t-125.5 -536.5q0 -346 130.5 -528
t344.5 -182q210 0 337.5 182t127.5 528zM1470 2848v-227h-948v227h948zM513 2340q0 67 48.5 113.5t132.5 46.5t133.5 -46.5t49.5 -113.5q0 -68 -49.5 -114t-133.5 -46t-132.5 46t-48.5 114zM1116 2339q0 67 48.5 113.5t133.5 46.5q84 0 133 -46.5t49 -113.5q0 -68 -49 -114
t-133 -46q-85 0 -133.5 46t-48.5 114z" />
    <glyph glyph-name="uni022B" unicode="&#x22b;" horiz-adv-x="1586" 
d="M100 0zM793 -27q-199 0 -355.5 90.5t-247 267.5t-90.5 437q0 249 92.5 425t249 269.5t348.5 93.5q194 0 351.5 -91t251 -267t93.5 -430q0 -263 -90.5 -440t-247 -266t-355.5 -89zM790 284q152 0 242.5 120t90.5 364t-91.5 360.5t-241.5 116.5q-146 0 -234 -120.5
t-88 -356.5t85 -360t237 -124zM1269 2431v-226h-948v226h948zM275 1886q0 73 51.5 122.5t134.5 49.5t135 -49.5t52 -122.5q0 -72 -52 -121.5t-135 -49.5t-134.5 49.5t-51.5 121.5zM936 1885q0 73 52 123t135 50t135 -50t52 -123q0 -72 -52 -121.5t-135 -49.5t-135 49.5
t-52 121.5z" />
    <glyph glyph-name="uni022C" unicode="&#x22c;" horiz-adv-x="1996" 
d="M140 0zM1856 1021q0 -329 -109 -564t-302 -360t-445 -125t-446 125t-304 360t-110 564q0 331 109.5 567t303 362t445.5 126q251 0 444.5 -126t303.5 -362t110 -567zM1468 1008q0 350 -128 532.5t-345 182.5q-216 0 -341.5 -178.5t-125.5 -536.5q0 -346 130.5 -528
t344.5 -182q210 0 337.5 182t127.5 528zM1470 2857v-227h-948v227h948zM1236 2495l161 -46q0 -100 -63.5 -174.5t-162.5 -74.5q-73 0 -122.5 23t-94 46.5t-103.5 23.5q-39 0 -66 -34.5t-27 -84.5l-160 45q0 98 62 174.5t162 76.5q60 0 111.5 -23t101.5 -46t107 -23
q38 0 66 34t28 83z" />
    <glyph glyph-name="uni022D" unicode="&#x22d;" horiz-adv-x="1586" 
d="M100 0zM793 -27q-199 0 -355.5 90.5t-247 267.5t-90.5 437q0 249 92.5 425t249 269.5t348.5 93.5q194 0 351.5 -91t251 -267t93.5 -430q0 -263 -90.5 -440t-247 -266t-355.5 -89zM790 284q152 0 242.5 120t90.5 364t-91.5 360.5t-241.5 116.5q-146 0 -234 -120.5
t-88 -356.5t85 -360t237 -124zM1269 2499v-226h-948v226h948zM1082 2114l225 -16q0 -152 -88.5 -257.5t-223.5 -105.5q-89 0 -145 30t-107 59.5t-124 29.5q-49 0 -82.5 -35t-33.5 -98l-226 12q0 100 40 183t110.5 133t159.5 50q73 0 132.5 -30t117 -59.5t126.5 -29.5
q49 0 84 35t35 99z" />
    <glyph glyph-name="uni022E" unicode="&#x22e;" horiz-adv-x="1996" 
d="M140 0zM1856 1021q0 -329 -109 -564t-302 -360t-445 -125t-446 125t-304 360t-110 564q0 331 109.5 567t303 362t445.5 126q251 0 444.5 -126t303.5 -362t110 -567zM1468 1008q0 350 -128 532.5t-345 182.5q-216 0 -341.5 -178.5t-125.5 -536.5q0 -346 130.5 -528
t344.5 -182q210 0 337.5 182t127.5 528zM799 2378q0 80 52.5 132.5t144.5 52.5t145.5 -52.5t53.5 -132.5q0 -78 -53.5 -129.5t-145.5 -51.5t-144.5 51.5t-52.5 129.5z" />
    <glyph glyph-name="uni022F" unicode="&#x22f;" horiz-adv-x="1586" 
d="M100 0zM793 -27q-199 0 -355.5 90.5t-247 267.5t-90.5 437q0 249 92.5 425t249 269.5t348.5 93.5q194 0 351.5 -91t251 -267t93.5 -430q0 -263 -90.5 -440t-247 -266t-355.5 -89zM790 284q152 0 242.5 120t90.5 364t-91.5 360.5t-241.5 116.5q-146 0 -234 -120.5
t-88 -356.5t85 -360t237 -124zM595 1924q0 80 52.5 132.5t144.5 52.5t145.5 -52.5t53.5 -132.5q0 -78 -53.5 -129.5t-145.5 -51.5t-144.5 51.5t-52.5 129.5z" />
    <glyph glyph-name="uni0230" unicode="&#x230;" horiz-adv-x="1996" 
d="M140 0zM1856 1021q0 -329 -109 -564t-302 -360t-445 -125t-446 125t-304 360t-110 564q0 331 109.5 567t303 362t445.5 126q251 0 444.5 -126t303.5 -362t110 -567zM1468 1008q0 350 -128 532.5t-345 182.5q-216 0 -341.5 -178.5t-125.5 -536.5q0 -346 130.5 -528
t344.5 -182q210 0 337.5 182t127.5 528zM1470 2845v-226h-948v226h948zM814 2346q0 67 49 113.5t133 46.5t133 -46.5t49 -113.5q0 -68 -49 -114t-133 -46t-133 46t-49 114z" />
    <glyph glyph-name="uni0231" unicode="&#x231;" horiz-adv-x="1586" 
d="M100 0zM793 -27q-199 0 -355.5 90.5t-247 267.5t-90.5 437q0 249 92.5 425t249 269.5t348.5 93.5q194 0 351.5 -91t251 -267t93.5 -430q0 -263 -90.5 -440t-247 -266t-355.5 -89zM790 284q152 0 242.5 120t90.5 364t-91.5 360.5t-241.5 116.5q-146 0 -234 -120.5
t-88 -356.5t85 -360t237 -124zM1269 2482v-227h-948v227h948zM593 1918q0 79 53.5 132t144.5 53q92 0 145.5 -53t53.5 -132t-53.5 -131t-145.5 -52q-91 0 -144.5 52t-53.5 131z" />
    <glyph glyph-name="uni0232" unicode="&#x232;" horiz-adv-x="1914" 
d="M82 0zM500 2048l457 -924l457 924h417l-680 -1290v-758h-388v758l-681 1290h418zM1434 2457v-224h-948v224h948z" />
    <glyph glyph-name="uni0233" unicode="&#x233;" horiz-adv-x="1525" 
d="M57 0zM571 -63l30 95l-544 1504h399l316 -955l298 955h399l-572 -1759q-30 -91 -97 -177.5t-173 -143t-253 -56.5q-103 0 -185 25v306q35 -5 80 -5q121 0 191.5 48t110.5 163zM1239 2003v-224h-948v224h948z" />
    <glyph glyph-name="lcurl" unicode="&#x234;" horiz-adv-x="1101" 
d="M538 2048v-1863q92 24 171 24q119 0 209.5 -51.5t141.5 -138t51 -192.5q0 -107 -52.5 -198.5t-149.5 -148t-230 -56.5q-142 0 -266 68.5t-193 194.5l-229 -206l-194 221l237 214q57 49 122 92v2040h382zM538 -144q0 -71 37 -115.5t106 -44.5q49 0 81.5 36t32.5 87
q0 45 -33.5 80.5t-92.5 35.5q-67 0 -131 -23v-56z" />
    <glyph glyph-name="ncurl" unicode="&#x235;" horiz-adv-x="2046" 
d="M538 848v-848h-382v1536h358v-198h16q62 96 171.5 157t256.5 61q134 0 250.5 -59t187.5 -189t71 -342v-700q92 24 171 24q119 0 209.5 -51.5t141.5 -138t51 -192.5t-52.5 -198t-149.5 -148.5t-230 -56.5q-142 0 -266 68.5t-193 194.5l-229 -206l-194 221l237 214
q57 49 122 92v861q0 139 -74.5 214.5t-186.5 75.5q-130 0 -208 -105.5t-78 -286.5zM1467 -63q0 -71 37 -115.5t106 -44.5q49 0 81.5 36t32.5 87q0 45 -34 80.5t-92 35.5q-67 0 -131 -23v-56z" />
    <glyph glyph-name="tcurl" unicode="&#x236;" horiz-adv-x="1288" 
d="M962 1536v-285h-271v-522q93 24 172 24q119 0 210.5 -51.5t143 -138t51.5 -192.5q0 -107 -53.5 -198.5t-151.5 -148t-231 -56.5q-141 0 -265.5 68.5t-193.5 195.5l-229 -207l-193 221l236 214q57 49 122 92v699h-209v285h209v328h382v-328h271zM691 400
q0 -71 37.5 -115.5t106.5 -44.5q49 0 82.5 36t33.5 87q0 45 -34.5 80.5t-93.5 35.5q-67 0 -132 -24v-55z" />
    <glyph glyph-name="dotlessj" unicode="&#x237;" horiz-adv-x="824" 
d="M278 1536h382v-1606q0 -256 -151 -383t-396 -127h-126v311h78q125 0 169 57t44 147v1601z" />
    <glyph glyph-name="uni0238" unicode="&#x238;" horiz-adv-x="2549" 
d="M135 728v28q0 226 69 397t199.5 267t315.5 96q115 0 205.5 -42.5t157.5 -119.5v758h386v-758q67 77 157.5 119.5t208.5 42.5q194 0 323.5 -97.5t194 -268t64.5 -391.5v-28q0 -221 -64.5 -392.5t-193 -269t-320.5 -97.5q-120 0 -211.5 42.5t-158.5 119.5v-134h-349
l-18 157q-69 -87 -165 -136t-221 -49q-182 0 -312 98.5t-199 269t-69 388.5zM2033 731v28q0 121 -25.5 222t-89.5 162.5t-182 61.5q-101 0 -166.5 -42.5t-101.5 -116.5v-600q36 -76 102 -119.5t170 -43.5q114 0 178 58.5t89.5 159.5t25.5 230zM520 756v-28
q0 -123 28.5 -223.5t93 -159.5t172.5 -59q100 0 165.5 44t102.5 120v592q-37 77 -103 120t-164 43q-161 0 -228 -130t-67 -319z" />
    <glyph glyph-name="uni0239" unicode="&#x239;" horiz-adv-x="2549" 
d="M135 731v28q0 226 68 396.5t198.5 265.5t318.5 95q126 0 221 -47t164 -132l22 151h311l15 -145q69 82 162.5 127.5t217.5 45.5q190 0 319.5 -94.5t195.5 -264.5t66 -396v-30q0 -216 -66.5 -388t-195 -271.5t-315.5 -99.5q-119 0 -210 42t-159 117v-703h-386v699
q-67 -73 -157 -114t-207 -41q-186 0 -316 99t-198.5 271t-68.5 389zM520 759v-28q0 -123 29 -225t94.5 -162.5t173.5 -60.5q100 0 164.5 41t100.5 111v626q-37 70 -101.5 108.5t-162.5 38.5q-108 0 -173.5 -60t-95 -162t-29.5 -227zM2032 731v30q0 187 -69.5 315.5
t-231.5 128.5q-98 0 -162 -39t-101 -109v-623q36 -69 101 -110t166 -41q109 0 174 61t94 163t29 224z" />
    <glyph glyph-name="uni023A" unicode="&#x23a;" horiz-adv-x="1958" 
d="M622 0h-287l-219 -267h-271l448 547l597 1768h412l129 -382l361 441h271l-553 -675l483 -1432h-422l-132 441h-685zM1084 1538l-139 -464l223 272l-58 192h-26zM958 760h385l-103 344z" />
    <glyph glyph-name="uni023B" unicode="&#x23b;" horiz-adv-x="2000" 
d="M1373 637l394 -41q-27 -181 -126 -322t-265.5 -221.5t-393.5 -80.5q-150 0 -278 42l-65 -193h-228l98 290q-179 127 -274 361t-95 555q0 324 101 559.5t289.5 362.5t449.5 127q99 0 188 -16l47 138h228l-69 -203q167 -80 266 -224t128 -326l-390 -42q-12 65 -40.5 130.5
t-80.5 115.5l-441 -1306q80 -36 182 -36q134 0 210 53t113 129.5t52 147.5zM528 1027q0 -166 28 -299t85 -226l419 1239q-30 4 -62 4q-232 0 -351 -190t-119 -528z" />
    <glyph glyph-name="uni023C" unicode="&#x23c;" horiz-adv-x="1525" 
d="M1446 1042l-348 -49q-9 37 -32 86.5t-67 90.5l-305 -869q49 -17 106 -17q136 0 205 72t91 157l350 -47q-32 -225 -205 -360t-436 -135q-116 0 -217 29l-201 -572h-229l235 666q-143 103 -219.5 277t-76.5 394q0 229 84 407.5t241.5 281t380.5 102.5q52 0 102 -6l160 454
h227l-179 -511q140 -64 225.5 -182t107.5 -269zM463 765q0 -181 59 -302l276 782q-170 -1 -252.5 -139t-82.5 -341z" />
    <glyph glyph-name="L_bar" unicode="&#x23d;" horiz-adv-x="1702" 
d="M1007 1172v-236h-300v-609h860v-327h-1249v936h-264v236h264v876h389v-876h300z" />
    <glyph glyph-name="uni023E" unicode="&#x23e;" horiz-adv-x="1792" 
d="M1708 2048v-327h-258l-357 -716v-1005h-386v232l-205 -411h-232l437 878v1022h-615v327h1286l75 150h235l-75 -150h95zM1093 1721v-246l123 246h-123z" />
    <glyph glyph-name="uni023F" unicode="&#x23f;" horiz-adv-x="1411" 
d="M139 1107q0 123 69 225t197 163t305 61q187 0 338.5 -68t231.5 -199l-266 -191q-28 40 -99.5 92.5t-189.5 52.5q-95 0 -152.5 -40.5t-57.5 -99.5q0 -66 57.5 -98.5t161.5 -64.5l132 -38q212 -66 316.5 -188.5t104.5 -273.5q0 -129 -72 -235.5t-204.5 -170t-311.5 -63.5
q-45 0 -89 4q86 -158 135.5 -209.5t111.5 -51.5q64 0 120.5 33t97.5 69l128 -222q-66 -58 -158 -114t-210 -56q-115 0 -200 51t-150 135t-122 183l-262 462l281 205q31 -47 103.5 -107t200.5 -60q98 0 164 39.5t66 102.5q0 67 -66.5 110t-187.5 83l-147 43
q-199 65 -287.5 181.5t-88.5 254.5z" />
    <glyph glyph-name="uni0240" unicode="&#x240;" horiz-adv-x="1508" 
d="M619 311h34q145 0 242.5 -57t165 -141.5t120 -169t106 -141.5t125.5 -57q62 0 119 34.5t91 65.5l129 -251q-63 -61 -157 -115.5t-216 -54.5q-124 0 -206.5 58t-145 144t-123.5 172t-140 144t-198 58h-423v239l739 986h-726v311h1202v-235z" />
    <glyph glyph-name="uni0241" unicode="&#x241;" horiz-adv-x="1525" 
d="M550 0v686h184q122 0 185.5 60t85.5 156t22 205v171q0 107 -23 204t-86.5 158t-183.5 61q-124 0 -190.5 -75t-69.5 -190h-380q2 178 85 312t225.5 209t324.5 75q229 0 385.5 -101t236.5 -272t80 -381v-171q0 -257 -121 -453.5t-357 -264.5v-389h-403z" />
    <glyph glyph-name="uni0242" unicode="&#x242;" horiz-adv-x="1525" 
d="M577 660h149q153 0 206.5 84.5t53.5 195.5q0 108 -49 188t-185 80q-95 0 -153 -71t-58 -186h-386q0 161 73.5 289t207.5 202t316 74q212 0 349 -74.5t202.5 -204t65.5 -293.5q0 -202 -106 -329t-300 -160v-455h-386v660z" />
    <glyph glyph-name="uni0243" unicode="&#x243;" horiz-adv-x="1958" 
d="M33 5zM1062 5h-760v2043h698q343 0 537 -149t194 -412q0 -140 -70 -260t-217 -183q177 -42 259 -165t82 -278q0 -293 -190.5 -444.5t-532.5 -151.5zM688 1721v-543l344 1q150 7 232 80t82 192q0 127 -84.5 198.5t-261.5 71.5h-312zM1404 606q0 138 -82.5 212.5
t-244.5 74.5h-389v-564h374q161 0 251.5 73t90.5 204zM986 716v-236h-953v236h953z" />
    <glyph glyph-name="uni0244" unicode="&#x244;" horiz-adv-x="2221" 
d="M2162 1170v-229h-214v-244q0 -231 -108.5 -393t-294 -247t-417.5 -85q-237 0 -421.5 85t-290.5 247t-106 393v244h-251v229h251v878h389v-878h860v878h389v-878h214zM699 697q0 -175 123 -280t307 -105q182 0 306 105t124 280v244h-860v-244z" />
    <glyph glyph-name="uni0245" unicode="&#x245;" horiz-adv-x="2037" 
d="M1483 0l-465 1520l-463 -1520h-442l701 2004h409l702 -2004h-442z" />
    <glyph glyph-name="uni0246" unicode="&#x246;" horiz-adv-x="1743" 
d="M1495 327v-327h-694l-51 -179h-231l51 179h-403v2048h982l42 150h230l-42 -150h110v-327h-203l-150 -533h226v-327h-318l-151 -534h602zM556 1188h349l151 533h-500v-533zM556 327h106l151 534h-257v-534z" />
    <glyph glyph-name="uni0247" unicode="&#x247;" horiz-adv-x="1564" 
d="M837 -29q-104 0 -198 22l-196 -569h-231l225 652q-162 100 -249.5 277t-87.5 399q0 233 82 414.5t238 285.5t378 104q77 0 147 -13l174 505h229l-199 -577q151 -86 234.5 -257t83.5 -420v-160h-607l-116 -336q53 -14 112 -14q113 0 189 46t136 137l245 -198
q-68 -120 -218 -209t-371 -89zM797 1245q-137 0 -217.5 -95.5t-105.5 -251.5h247l120 345q-22 2 -44 2zM1109 898q0 146 -75 240l-83 -240h158zM472 634q20 -127 85 -212l73 212h-158z" />
    <glyph glyph-name="uni0248" unicode="&#x248;" horiz-adv-x="1672" 
d="M94 0zM1014 613v1435h386v-1435q0 -199 -84.5 -343t-232.5 -221t-339 -77q-185 0 -332.5 67.5t-232.5 201t-85 331.5h385q2 -136 78.5 -208.5t192.5 -72.5q110 0 187 77t77 245zM1596 1172v-236h-953v236h953z" />
    <glyph glyph-name="uni0249" unicode="&#x249;" horiz-adv-x="1018" 
d="M44 0zM527 1668q-94 0 -157 60t-63 144q0 81 63 142.5t157 61.5q93 0 155 -61.5t62 -142.5q0 -84 -62 -144t-155 -60zM335 1536h382v-1606q0 -256 -151 -383t-396 -127h-126v311h78q125 0 169 57t44 147v1601zM997 922v-236h-953v236h953z" />
    <glyph glyph-name="Q_rthook" unicode="&#x24a;" horiz-adv-x="2185" 
d="M1951 2051v-2160q0 -97 63 -130.5t148 -33.5q27 0 51.5 2.5t45.5 5.5v-296q-73 -15 -199 -15q-117 0 -230 38.5t-187 139.5t-74 289v283h-16q-79 -95 -216 -149t-326 -54q-261 0 -460 135.5t-311.5 373.5t-112.5 547q0 304 112 541t310.5 372.5t458.5 135.5
q166 0 309 -52t224 -150h20l15 177h375zM503 1025q0 -207 58.5 -365t178 -247t301.5 -89q145 0 244.5 53t159 136t83.5 174q16 81 28 182t12 162q0 55 -7.5 139t-28.5 163q-16 56 -50 124.5t-91.5 131t-145.5 103t-213 40.5q-180 0 -297 -94t-174.5 -254.5t-57.5 -358.5z
" />
    <glyph glyph-name="qrthook" unicode="&#x24b;" horiz-adv-x="1732" 
d="M1498 1536v-1645q0 -97 63 -130.5t148 -33.5q26 0 51 2.5t45 5.5v-296q-73 -15 -198 -15q-117 0 -230 38.5t-187 139.5t-74 289v216h-16q-54 -61 -134 -98.5t-198 -37.5q-197 0 -347.5 101t-235.5 280t-85 413q0 233 85 411t235 279t345 101q125 0 212.5 -42t145.5 -110
h18l11 132h346zM466 765q0 -212 85 -346.5t253 -134.5q134 0 214 79t102 172q12 55 18.5 123t6.5 110q0 40 -5.5 96t-18.5 111q-14 51 -50.5 114t-102 109.5t-165.5 46.5q-167 0 -252 -135.5t-85 -344.5z" />
    <glyph glyph-name="uni024C" unicode="&#x24c;" horiz-adv-x="1954" 
d="M1430 0l-378 739h-358v-739h-386v739h-235v319h235v961h734q344 0 541 -161.5t197 -457.5q0 -214 -97.5 -351t-265.5 -211l431 -819v-19h-418zM694 1698v-640h348q167 0 257.5 89t90.5 225q0 152 -82.5 239t-265.5 87h-348z" />
    <glyph glyph-name="uni024D" unicode="&#x24d;" horiz-adv-x="1223" 
d="M0 0zM1106 1549v-363q-18 3 -47 4t-56 1q-152 0 -242.5 -92.5t-91.5 -213.5v-885h-382v1536h382v-220h13q22 60 73.5 115t120.5 90.5t142 35.5q21 0 45.5 -1.5t42.5 -6.5zM946 839v-236h-953v236h953z" />
    <glyph glyph-name="uni024E" unicode="&#x24e;" horiz-adv-x="2019" 
d="M547 2048l210 -425h494l210 425h417l-224 -425h312v-208h-422l-346 -657v-758h-388v758l-347 657h-406v208h296l-224 425h418zM1004 1124l144 291h-288z" />
    <glyph glyph-name="uni024F" unicode="&#x24f;" horiz-adv-x="1691" 
d="M688 -63l30 95l-293 810h-318v207h243l-176 487h399l161 -487h301l152 487h399l-158 -487h161v-207h-229l-346 -1065q-30 -91 -97 -177.5t-173 -143t-253 -56.5q-103 0 -185 25v306q35 -5 80 -5q122 0 192 48t110 163zM803 842l86 -261l81 261h-167z" />
    <glyph glyph-name="aturn" unicode="&#x250;" horiz-adv-x="1549" 
d="M162 0zM530 1532v-159h12q36 65 134.5 127.5t256.5 62.5q143 0 259 -52.5t184 -152t68 -240.5q0 -239 -184 -377t-569 -138h-145v-64q0 -140 65.5 -204.5t183.5 -64.5q106 0 174 50t105 142l358 -68q-47 -152 -150 -244t-235 -133t-266 -41q-168 0 -309 58t-225.5 186
t-84.5 337v975h368zM546 858h142q182 0 283.5 61.5t101.5 182.5q0 92 -64 131.5t-141 39.5q-133 0 -227.5 -74t-94.5 -177v-164z" />
    <glyph glyph-name="ascript" unicode="&#x251;" horiz-adv-x="1615" 
d="M100 0zM100 717v28q0 234 67 413.5t196.5 281.5t318.5 102q126 0 217.5 -58t155.5 -161l22 196h333v-1059q0 -107 26.5 -147t72.5 -40q22 0 31 5l35 -271q-45 -23 -86 -29t-88 -6q-244 0 -324 247q-65 -115 -162 -181t-235 -66q-188 0 -317 95.5t-196 264t-67 385.5z
M472 745v-28q0 -186 72 -307.5t232 -121.5q103 0 166.5 48t97.5 126v571q-33 88 -95.5 141.5t-164.5 53.5q-108 0 -176 -65.5t-100 -175t-32 -242.5z" />
    <glyph glyph-name="ascriptturn" unicode="&#x252;" horiz-adv-x="1781" 
d="M650 -3h-333v1014q0 107 -26.5 146.5t-72.5 39.5q-10 0 -17 -2t-13 -2l-32 285q44 25 85 31.5t89 6.5q118 0 202.5 -56.5t127.5 -172.5q64 106 159.5 166t229.5 60q187 0 316 -93.5t196.5 -258.5t67.5 -379v-28q0 -229 -67.5 -406t-197.5 -278t-319 -101q-123 0 -213 55
t-153 152zM1243 754v28q0 181 -64.5 302t-227.5 121q-91 0 -152 -39t-98 -106q1 -24 1 -49v-577q37 -72 98 -113t149 -41q107 0 171.5 64.5t93.5 172t29 237.5z" />
    <glyph glyph-name="bhook" unicode="&#x253;" horiz-adv-x="1654" 
d="M759 1773q-84 0 -152.5 -33.5t-68.5 -130.5v-182h18q55 56 137.5 92.5t194.5 36.5q196 0 346 -101t235 -279t85 -411q0 -234 -85 -413t-236 -280t-347 -101q-123 0 -212.5 41.5t-145.5 105.5h-17l-9 -118h-346v1609q0 143 44.5 234.5t118 142t162 70.5t176.5 20
q125 0 199 -15v-296q-21 3 -45.5 5.5t-51.5 2.5zM534 535q22 -93 101.5 -172t213.5 -79q169 0 254 134.5t85 346.5q0 209 -85 344.5t-253 135.5q-100 0 -165.5 -46.5t-102 -109.5t-49.5 -114q-13 -55 -18.5 -111t-5.5 -96q0 -42 6.5 -110t18.5 -123z" />
    <glyph glyph-name="oopen" unicode="&#x254;" horiz-adv-x="1525" 
d="M112 511h362q4 -103 76 -165.5t184 -62.5q122 0 186 62t86.5 162.5t22.5 216.5v40q0 114 -23.5 215.5t-87.5 165t-184 63.5q-124 0 -190 -79t-70 -189h-362q3 174 81.5 303.5t216.5 201t319 71.5q229 0 381 -101t227.5 -272t75.5 -379v-40q0 -210 -75.5 -380.5t-228 -271
t-383.5 -100.5q-170 0 -308 70.5t-220.5 192t-85.5 276.5z" />
    <glyph glyph-name="ccurl" unicode="&#x255;" horiz-adv-x="1532" 
d="M790 -28q-114 0 -209.5 27.5t-171.5 77.5q-39 -52 -80 -108.5t-82 -115.5l-247 212q104 141 198 251q-92 179 -92 415v40q0 209 77 381t229 275t378 103q180 0 319.5 -69.5t219 -194.5t79.5 -291h-351q-4 99 -73 174t-200 75q-119 0 -185.5 -64t-93.5 -167.5t-27 -221.5
v-40q0 -69 7 -126q254 208 502 208q147 0 239 -51t135 -132.5t43 -175.5q0 -127 -72.5 -237t-210 -177.5t-331.5 -67.5zM816 280q89 0 160 39t71 109q0 50 -33.5 72t-74.5 22q-68 0 -147.5 -51t-167.5 -141q75 -50 192 -50z" />
    <glyph glyph-name="drthook" unicode="&#x256;" horiz-adv-x="1787" 
d="M1116 2048h382v-2157q0 -97 63 -130.5t148 -33.5q26 0 51 2.5t45 5.5v-296q-73 -15 -198 -15q-117 0 -230 38.5t-187 139.5t-74 289v213q-60 -61 -145.5 -97t-202.5 -36q-197 0 -347.5 101t-235.5 280t-85 413q0 233 85 411t235 279t345 101q114 0 198 -35.5t144 -95.5h9
v623zM466 765q0 -212 85 -346.5t253 -134.5q134 0 214 79t102 172q12 54 18 123t7 111q-1 40 -6 96t-18 110q-14 51 -50.5 114t-102 109.5t-165.5 46.5q-167 0 -252 -135.5t-85 -344.5z" />
    <glyph glyph-name="dhook" unicode="&#x257;" horiz-adv-x="1771" 
d="M1227 0l-83 52l-12 66l-58 -44q-70 -52 -190.5 -77.5t-365.5 -25.5q-162 107 -253 274t-128 375.5t-37 441.5q90 193 222 300.5t271 150.5t251 43q102 -17 169.5 -61.5t94.5 -75.5l8 37v148q0 144 48 236.5t125 144t166.5 72t173.5 20.5q61 0 113.5 -5.5t85.5 -12.5v-298
q-45 11 -97 11q-49 0 -103 -9t-92 -44.5t-38 -114.5v-336h-63l63 -753zM466 765q0 -212 85 -346.5t253 -134.5q134 0 214 79t102 172q12 55 18.5 123t6.5 110q0 40 -5.5 96t-18.5 111q-14 51 -50.5 114t-102 109.5t-165.5 46.5q-167 0 -252 -135.5t-85 -344.5z" />
    <glyph glyph-name="erev" unicode="&#x258;" horiz-adv-x="1525" 
d="M700 -28q-219 0 -362 85t-216 189l194 206q134 -169 362 -169q158 0 253 94t114 244h-952v164q0 218 73 382.5t218 256.5t360 92q208 0 363 -97.5t241.5 -271t86.5 -399.5v-53q0 -201 -88 -365t-252.5 -261t-394.5 -97zM470 885h571q-22 146 -94 234.5t-201 88.5
q-145 0 -208.5 -85t-67.5 -207v-31z" />
    <glyph glyph-name="schwa" unicode="&#x259;" horiz-adv-x="1525" 
d="M709 1517q218 0 375.5 -96t242.5 -260.5t85 -372.5v-54q0 -218 -82.5 -390.5t-232 -272t-352.5 -99.5q-309 0 -469.5 185.5t-160.5 489.5v218h907q-17 144 -103.5 244t-245.5 100q-149 0 -241 -32.5t-174 -79.5l-109 249q79 63 221 117t339 54zM745 284q117 0 184 89.5
t88 225.5h-525v-36q0 -121 59.5 -200t193.5 -79z" />
    <glyph glyph-name="schwahook" unicode="&#x25a;" horiz-adv-x="2203" 
d="M728 1516q260 0 435.5 -123.5t248.5 -319.5l333 72q22 -135 41 -232.5t55.5 -150t113.5 -52.5q26 0 45 1.5t36 2.5l49 -238q-44 -24 -97.5 -39t-111.5 -15q-127 0 -198 54.5t-107.5 146t-60.5 204.5l-50 -12v-20v-55q0 -226 -85.5 -399t-240 -271t-362.5 -98
q-215 0 -360 92.5t-218.5 257t-73.5 382.5v83l919 206q-42 98 -127.5 156.5t-206.5 58.5q-231 0 -364 -172l-192 209q71 101 215.5 186t363.5 85zM498 572q0 -122 65.5 -205.5t210.5 -83.5q155 0 228 124.5t75 321.5l-579 -124v-33z" />
    <glyph glyph-name="epsilon1" unicode="&#x25b;" horiz-adv-x="1691" 
d="M231 0zM896 891h260v-260h-260q-131 0 -206.5 -42t-75.5 -140q0 -71 71 -127.5t209 -56.5q139 0 213 52.5t74 123.5h381q0 -163 -95.5 -266.5t-244 -153t-307.5 -49.5q-194 0 -349 53.5t-245 154t-90 240.5q0 128 73.5 215.5t209.5 131.5q-120 48 -189 130.5t-69 182.5
q0 142 83.5 239t232.5 147t343 50q170 0 312.5 -55t228 -156.5t85.5 -242.5h-384q0 75 -75 118t-185 43q-134 0 -194.5 -53.5t-60.5 -115.5q0 -74 63.5 -118.5t190.5 -44.5z" />
    <glyph glyph-name="epsilon1rev" unicode="&#x25c;" horiz-adv-x="1525" 
d="M764 631h-259v260h259q127 0 191 44.5t64 118.5q0 62 -59.5 115.5t-194.5 53.5q-112 0 -185.5 -43t-73.5 -118h-384q0 141 85 242.5t227 156.5t313 55q193 0 341 -50t232 -147t84 -239q0 -100 -69 -182.5t-190 -130.5q136 -44 209.5 -131.5t73.5 -215.5
q0 -140 -90 -240.5t-244 -154t-347 -53.5q-159 0 -308 49.5t-245.5 153t-96.5 266.5h385q0 -71 73 -123.5t210 -52.5q138 0 209 56.5t71 127.5q0 98 -75 140t-206 42z" />
    <glyph glyph-name="epsilon1revhook" unicode="&#x25d;" horiz-adv-x="2203" 
d="M789 631h-259v260h259q127 0 191 44.5t64 118.5q0 62 -59.5 115.5t-194.5 53.5q-112 0 -185.5 -43t-73.5 -118h-384q0 141 85 242.5t226.5 156.5t313.5 55q229 0 394.5 -70.5t228.5 -205.5l349 74q20 -134 39 -231t56 -150t112 -53q49 0 82 6l49 -241q-95 -52 -208 -52
q-128 0 -199 54.5t-107.5 145.5t-61.5 201l-100 -23q-59 -133 -236 -204q136 -44 209.5 -131.5t73.5 -215.5q0 -140 -90 -240.5t-244 -154t-347 -53.5q-158 0 -307.5 49.5t-246 153t-96.5 266.5h385q0 -71 72.5 -123.5t210.5 -52.5q137 0 208.5 56.5t71.5 127.5
q0 98 -75 140t-206 42z" />
    <glyph glyph-name="epsilon1revclosed" unicode="&#x25e;" horiz-adv-x="1525" 
d="M1408 420q0 -140 -81 -240.5t-224.5 -154t-330.5 -53.5q-114 0 -230 36.5t-212 124t-154.5 238.5t-58.5 380v0v2v2v0q1 213 57 359.5t150 234.5t210.5 127.5t237.5 39.5q280 0 445.5 -111.5t165.5 -324.5q0 -100 -60.5 -182.5t-169.5 -130.5q255 -89 255 -347zM792 635
h-84v253h84q112 0 159.5 46t47.5 120q0 62 -44.5 115.5t-164.5 53.5q-71 0 -137.5 -39.5t-109 -141.5t-42.5 -290q1 -277 80.5 -383t208.5 -106q126 0 180.5 57.5t54.5 128.5q0 98 -58.5 142t-174.5 44z" />
    <glyph glyph-name="jdotlessbar" unicode="&#x25f;" horiz-adv-x="987" 
d="M26 0zM317 1536h382v-1606q0 -256 -151 -383t-396 -127h-126v311h78q125 0 169 57t44 147v1601zM986 236v-236h-953v236h953z" />
    <glyph glyph-name="ghook" unicode="&#x260;" horiz-adv-x="1742" 
d="M1719 1773q-84 0 -152.5 -33.5t-68.5 -130.5v-1576q0 -198 -92.5 -335.5t-255 -209.5t-371.5 -72q-219 0 -372.5 72.5t-219.5 149.5l186 241q61 -52 155.5 -104.5t239.5 -52.5q167 0 260.5 80.5t95.5 264.5v67h-13q-59 -57 -143 -91.5t-197 -34.5q-197 0 -348.5 97.5
t-237 272t-85.5 406.5q0 226 85.5 400t236 273t346.5 99q123 0 210.5 -39.5t146.5 -105.5h11l6 79v119q0 188 70 289t179 139.5t226 38.5q125 0 199 -15v-296q-21 3 -45.5 5.5t-51.5 2.5zM466 784q0 -212 86 -340.5t255 -128.5q134 0 217.5 77t105.5 169q14 53 19 120.5
t6 108.5q0 39 -4.5 91t-19.5 105q-15 54 -53 115.5t-105 105t-167 43.5q-170 0 -255 -131.5t-85 -334.5z" />
    <glyph glyph-name="gcursive" unicode="&#x261;" horiz-adv-x="1614" 
d="M87 0zM1132 1528h353v-1495q0 -198 -92.5 -335.5t-255 -209.5t-371.5 -72q-219 0 -372.5 72.5t-219.5 149.5l186 241q61 -52 155.5 -104.5t239.5 -52.5q167 0 260.5 80.5t95.5 264.5v67h-13q-59 -57 -143 -91.5t-197 -34.5q-197 0 -348.5 97.5t-237 272t-85.5 406.5
q0 226 85.5 400t236 273t346.5 99q123 0 210.5 -39.5t146.5 -105.5h11zM453 784q0 -212 86 -340.5t255 -128.5q134 0 217.5 77t105.5 169q14 53 19 120.5t6 108.5q0 39 -4.5 91t-19.5 105q-15 54 -53 115.5t-105 105t-167 43.5q-170 0 -255 -131.5t-85 -334.5z" />
    <glyph glyph-name="Gsmallcap" unicode="&#x262;" horiz-adv-x="1781" 
d="M1602 796v-575q-47 -53 -131.5 -110.5t-219 -96.5t-331.5 -39q-218 0 -384 83.5t-259.5 232.5t-93.5 345v224q0 196 92 343.5t254 230t372 82.5q311 0 482.5 -133.5t198.5 -388.5h-382q-20 113 -90.5 165.5t-208.5 52.5q-155 0 -244 -99t-89 -250v-227q0 -152 91 -252.5
t261 -100.5q136 0 204 19t103 42v186h-310v266h685z" />
    <glyph glyph-name="gamma1" unicode="&#x263;" horiz-adv-x="1746" 
d="M872 -600q-130 0 -237 39t-171 118t-64 200q0 110 93 287l187 358l-579 1103h393l378 -735l383 735h392l-578 -1118l172 -335q47 -92 70 -169t23 -126q0 -181 -133 -269t-329 -88zM786 -217q0 -42 20 -72.5t66 -30.5q48 0 67 31t19 72q0 44 -20 98.5t-60 136.5
q-43 -81 -67.5 -136t-24.5 -99z" />
    <glyph glyph-name="babygamma" unicode="&#x264;" horiz-adv-x="1870" 
d="M865 330q0 -28 14.5 -51.5t55.5 -23.5t55.5 23.5t14.5 51.5q0 31 -19 71.5t-51 94.5q-32 -54 -51 -94.5t-19 -71.5zM268 1076l-193 229q69 83 159 147t237 64q137 0 247.5 -93t216.5 -253q107 160 218.5 253t250.5 93q143 0 234.5 -64t160.5 -147l-195 -229
q-34 38 -72 66t-79 28q-45 0 -87 -29.5t-95.5 -103t-132.5 -206.5q101 -175 158.5 -291.5t57.5 -227.5q0 -166 -114 -253t-305 -87q-190 0 -304.5 87t-114.5 253q0 112 57.5 228.5t159.5 291.5q-79 133 -132 206.5t-95 102.5t-87 29q-42 0 -79.5 -28t-71.5 -66z" />
    <glyph glyph-name="hturn" unicode="&#x265;" horiz-adv-x="1594" 
d="M156 0zM1056 681v855h382v-2048h-371v694h-16q-63 -87 -169 -144.5t-248 -57.5q-210 0 -344 146t-134 444v966h382v-968q0 -125 56.5 -198.5t172.5 -73.5q133 0 211 103t78 282z" />
    <glyph glyph-name="hhook" unicode="&#x266;" horiz-adv-x="1594" 
d="M538 855v-855h-382v1609q0 188 72.5 289t184 139.5t229.5 38.5q124 0 198 -15v-296q-21 3 -45.5 5.5t-51.5 2.5q-84 0 -147.5 -33.5t-63.5 -130.5v-241h-5v-14h16q63 87 169 144.5t248 57.5q210 0 344 -146t134 -444v-966h-382v968q0 125 -56.5 198.5t-172.5 73.5
q-133 0 -211 -103t-78 -282z" />
    <glyph glyph-name="henghook" unicode="&#x267;" horiz-adv-x="1594" 
d="M538 855v-855h-382v1609q0 188 72.5 289t184 139.5t229.5 38.5q124 0 198 -15v-296q-21 3 -45.5 5.5t-51.5 2.5q-84 0 -147.5 -33.5t-63.5 -130.5v-241h-5v-14h16q63 87 169 144.5t248 57.5q210 0 344 -146t134 -444v-1075q0 -188 -74 -289t-187 -139.5t-230 -38.5
q-125 0 -198 15v296q20 -3 45 -5.5t51 -2.5q85 0 148 33.5t63 130.5v1077q0 125 -56.5 198.5t-172.5 73.5q-133 0 -211 -103t-78 -282z" />
    <glyph glyph-name="ibar" unicode="&#x268;" horiz-adv-x="1140" 
d="M93 0zM599 1668q-94 0 -157 60t-63 144q0 81 63 142.5t157 61.5t155.5 -61.5t61.5 -142.5q0 -84 -61.5 -144t-155.5 -60zM789 1536v-1536h-382v1536h382zM1046 922v-236h-953v236h953z" />
    <glyph glyph-name="iota1" unicode="&#x269;" horiz-adv-x="1013" 
d="M155 1488h384v-1049q0 -116 69.5 -158t153.5 -42q48 0 100 11v-259q-40 -8 -90.5 -13.5t-110.5 -5.5q-89 0 -178 20t-163.5 70.5t-119.5 142t-45 234.5v1049z" />
    <glyph glyph-name="Ismallcap" unicode="&#x26a;" horiz-adv-x="1179" 
d="M988 311v-311h-796v311h203v869h-203v308h796v-308h-208v-869h208z" />
    <glyph glyph-name="lmidtilde" unicode="&#x26b;" horiz-adv-x="1160" 
d="M36 0zM755 2048v-2048h-382v2048h382zM843 1330l224 -16q0 -152 -88.5 -257.5t-223.5 -105.5q-88 0 -144 30t-107 60t-123 30q-50 0 -83.5 -35.5t-33.5 -98.5l-228 11q0 99 40.5 182.5t111 133.5t160.5 50q73 0 132.5 -29.5t116.5 -59t125 -29.5q49 0 85 35.5t36 98.5z
" />
    <glyph glyph-name="lbelt" unicode="&#x26c;" horiz-adv-x="1572" 
d="M1444 772h-348v-772h-381v772h-152q-208 0 -323.5 104.5t-115.5 273.5q0 167 118.5 286.5t353.5 119.5q63 0 119 -9v501h381v-1004h348v-272zM595 1044h120v75q0 156 -125 156q-56 0 -93 -35t-37 -82q0 -44 34.5 -79t100.5 -35z" />
    <glyph glyph-name="lrthook" unicode="&#x26d;" horiz-adv-x="694" 
d="M538 2048v-2157q0 -97 63 -130.5t148 -33.5q26 0 51 2.5t45 5.5v-296q-73 -15 -198 -15q-117 0 -230 38.5t-187 139.5t-74 289v2157h382z" />
    <glyph glyph-name="lyogh" unicode="&#x26e;" horiz-adv-x="1781" 
d="M542 2048v-560h1011l1 -251l-465 -624q244 -48 377 -206.5t133 -418.5q0 -186 -93.5 -317.5t-257.5 -201t-374 -69.5q-170 0 -314 46t-243.5 153t-134.5 291h385q25 -92 96 -137t211 -45q162 0 251.5 87t89.5 236q0 173 -101 256.5t-292 83.5h-116v250l403 559h-567
v-1180h-382v2048h382z" />
    <glyph glyph-name="mturn" unicode="&#x26f;" horiz-adv-x="2401" 
d="M156 0zM1012 580v956h373v-975q0 -141 65.5 -203t167.5 -62q98 0 171.5 72t73.5 218v950h382v-1536h-374v198h-13q-55 -88 -156 -153t-244 -65q-140 0 -237 64t-146 170h-16q-52 -94 -167 -164t-269 -70q-130 0 -235.5 57.5t-168.5 185t-63 338.5v975h382v-978
q0 -149 71.5 -205.5t157.5 -56.5q116 0 180.5 72.5t64.5 211.5z" />
    <glyph glyph-name="mturndescend" unicode="&#x270;" horiz-adv-x="2401" 
d="M1012 580v956h373v-975q0 -141 65.5 -203t167.5 -62q98 0 171.5 72t73.5 218v950h382v-2112h-374v774h-13q-55 -88 -156 -153t-244 -65q-140 0 -237 64t-146 170h-16q-53 -94 -167.5 -164t-268.5 -70q-130 0 -235.5 57.5t-168.5 185t-63 338.5v975h382v-978
q0 -149 71.5 -205.5t157.5 -56.5q115 0 180 72.5t65 211.5z" />
    <glyph glyph-name="mhook" unicode="&#x271;" horiz-adv-x="2401" 
d="M1389 956v-956h-373v975q0 141 -65.5 203t-167.5 62q-98 0 -171.5 -72t-73.5 -218v-950h-382v1536h374v-198h13q55 88 156 153t244 65q140 0 237 -64t146 -170h16q52 94 167 164t269 70q130 0 235.5 -57.5t168.5 -185t63 -338.5v-1084q0 -188 -74 -289t-187 -139.5
t-230 -38.5q-124 0 -198 15v296q20 -3 45 -5.5t51 -2.5q85 0 148 33.5t63 130.5v1087q0 149 -71.5 205.5t-157.5 56.5q-116 0 -180.5 -72.5t-64.5 -211.5z" />
    <glyph glyph-name="nlfthook" unicode="&#x272;" horiz-adv-x="1701" 
d="M616 848v-957q0 -188 -74 -289t-187 -139.5t-230 -38.5q-125 0 -199 15v296q21 -3 45.5 -5.5t51.5 -2.5q84 0 147.5 33.5t63.5 130.5v1645h358v-198h16q62 96 171.5 157t256.5 61q134 0 250.5 -59t187.5 -189t71 -342v-966h-382v950q0 139 -74.5 214.5t-186.5 75.5
q-130 0 -208 -105.5t-78 -286.5z" />
    <glyph glyph-name="nrthook" unicode="&#x273;" horiz-adv-x="1701" 
d="M538 848v-848h-382v1536h358v-198h16q62 96 171.5 157t256.5 61q134 0 250.5 -59t187.5 -189t71 -342v-1075q0 -97 63 -130.5t148 -33.5q26 0 51 2.5t45 5.5v-296q-74 -15 -198 -15q-117 0 -230 38.5t-187 139.5t-74 289v1059q0 139 -74.5 214.5t-186.5 75.5
q-130 0 -208 -105.5t-78 -286.5z" />
    <glyph glyph-name="Nsmallcap" unicode="&#x274;" horiz-adv-x="1525" 
d="M505 0h-383v1488h383l517 -945v945h383v-1488h-383l-517 949v-949z" />
    <glyph glyph-name="obar" unicode="&#x275;" horiz-adv-x="1781" 
d="M91 0zM785 -27q-199 0 -355.5 90.5t-247.5 267.5t-91 437q0 249 92.5 425t249.5 269.5t349 93.5q194 0 351.5 -91t251 -267t93.5 -430q0 -263 -90.5 -440t-247 -266t-355.5 -89zM782 1245q-130 0 -214.5 -95.5t-102.5 -282.5h645q-18 193 -106 285.5t-222 92.5zM782 284
q126 0 211 83t111 251h-634q51 -334 312 -334z" />
    </font>
</defs>
</svg>
