<?xml version="1.0" standalone="no"?>
<!DOCTYPE svg PUBLIC "-//W3C//DTD SVG 1.1//EN" "http://www.w3.org/Graphics/SVG/1.1/DTD/svg11.dtd" >
<svg xmlns="http://www.w3.org/2000/svg" xmlns:xlink="http://www.w3.org/1999/xlink" version="1.1">
<metadata>
Created by FontForge 20170731 at Tue Oct 10 22:01:52 2017
 By ,,,
Copyright 2017 The Inter UI project authors
</metadata>
<defs>
<font id="InterUI-BlackItalic" horiz-adv-x="0" >
  <font-face 
    font-family="Inter UI Black"
    font-weight="900"
    font-style="italic"
    font-stretch="normal"
    units-per-em="2816"
    panose-1="0 0 0 0 0 0 0 0 0 0"
    ascent="2252"
    descent="-564"
    x-height="1536"
    bbox="-2192 -903 4199 2976"
    underline-thickness="256"
    underline-position="-1408"
    slope="-9.39999"
    unicode-range="U+0002-1F16B"
  />
<missing-glyph horiz-adv-x="2826" 
d="M256 2176v512h2304v-512h-2304zM256 1472v512h2304v-512h-2304zM256 768v512h2304v-512h-2304zM256 64v512h2304v-512h-2304zM256 -640v512h2304v-512h-2304z" />
    <glyph glyph-name="longst" unicode="&#x17f;t" horiz-adv-x="2048" 
d="M1096 2141q185 0 355 -48t344 -99l-17 -133l46 2l-55 -326l238 -1l-57 -320h-232l-128 -734q-8 -54 12 -93t79 -43l138 -2l-49 -355q-124 -18 -238 -14q-121 4 -214.5 66.5t-143 164t-38.5 222.5l136 787l-188 1l58 320h181l40 175h-29l8 40q-46 22 -102.5 29t-106.5 8
q-89 0 -150.5 -46t-78.5 -134l-278 -1608h-434l207 1167l-215 1l57 320h210l17 120q35 259 202 396t426 137z" />
    <glyph glyph-name=".notdef" horiz-adv-x="2826" 
d="M256 2176v512h2304v-512h-2304zM256 1472v512h2304v-512h-2304zM256 768v512h2304v-512h-2304zM256 64v512h2304v-512h-2304zM256 -640v512h2304v-512h-2304z" />
    <glyph glyph-name=".null" 
 />
    <glyph glyph-name="nonmarkingreturn" horiz-adv-x="938" 
 />
    <glyph glyph-name="controlSOT" 
 />
    <glyph glyph-name="controlHT" unicode="&#x9;" horiz-adv-x="778" 
 />
    <glyph glyph-name="CR" unicode="&#xd;" horiz-adv-x="778" 
 />
    <glyph glyph-name="space" unicode=" " horiz-adv-x="778" 
 />
    <glyph glyph-name="exclam" unicode="!" horiz-adv-x="768" 
d="M819 2048l-299 -1412h-352l190 1412h461zM261 -25q-98 0 -165 63.5t-68 161.5q-2 105 68 173.5t174 67.5q97 0 165.5 -63t70.5 -162q2 -106 -69.5 -174t-175.5 -67z" />
    <glyph glyph-name="quotedbl" unicode="&#x22;" horiz-adv-x="1024" 
d="M593 2048l-125 -792h-309l124 792h310zM1089 2048l-124 -792h-309l124 792h309z" />
    <glyph glyph-name="numbersign" unicode="#" horiz-adv-x="1792" 
d="M184 0l198 563l-306 1l45 252l336 1l132 362l-305 1l45 252h336l193 572h267l-200 -571l227 -1l191 572h271l-200 -571l307 -1l-45 -252l-338 -1l-131 -361l306 -2l-45 -252h-338l-190 -564h-271l198 563l-227 1l-189 -564h-267zM718 817l226 -1l130 363l-226 1z" />
    <glyph glyph-name="dollar" unicode="$" horiz-adv-x="1792" 
d="M604 -256l50 233q-198 13 -338.5 103t-214 240.5t-70.5 344.5h447q0 -126 49 -204.5t179 -101.5l96 510q-22 9 -38 15l-36 12q-148 51 -266.5 124t-183 186.5t-51.5 287.5q11 146 81 253t179.5 178t239.5 107t260 40l49 232h182l-51 -238q255 -35 389 -206t132 -421h-446
q-1 77 -24.5 137t-96.5 94l-95 -453l6 -4q137 -70 259 -148t194 -191.5t58 -290.5q-15 -196 -115 -326t-255 -199t-337 -80l-50 -234h-182zM674 1487q-9 -56 19 -93.5t73 -62.5t87 -44l86 403q-88 -13 -168 -59.5t-97 -143.5zM1095 581q15 75 -23 125t-98 88l-94 -427
q73 28 136 80t79 134z" />
    <glyph glyph-name="percent" unicode="%" horiz-adv-x="2304" 
d="M319 1556l12 107q15 130 78.5 237t168 169.5t242.5 59.5q131 -3 220.5 -67t132 -168.5t30.5 -229.5l-12 -108q-15 -130 -78.5 -235.5t-168 -166.5t-241.5 -58q-130 3 -220.5 65.5t-133 166t-30.5 228.5zM2231 2099l-1805 -2151h-376l1805 2152zM632 1664l-15 -111
q-6 -59 7.5 -121.5t90.5 -65.5q81 -2 123 59t53 131l15 109q5 40 2 84t-25.5 75.5t-74.5 33.5q-82 2 -124 -61t-52 -133zM1105 384l12 107q15 130 78.5 237t168 169.5t242.5 58.5q131 -3 221 -66.5t132.5 -168t30.5 -229.5l-13 -108q-15 -130 -78.5 -236.5t-168 -169
t-241.5 -58.5q-131 3 -221 66.5t-132.5 168t-30.5 229.5zM1418 492l-14 -111q-7 -59 7 -121.5t90 -65.5q82 -3 124 58.5t52 131.5l15 110q5 40 2 84t-25.5 75t-74.5 33q-82 3 -124 -60t-52 -134z" />
    <glyph glyph-name="ampersand" unicode="&#x26;" horiz-adv-x="2048" 
d="M1247 0l-69 109q-119 -69 -246 -103.5t-265 -32.5q-168 2 -301.5 72t-207 197.5t-59.5 302.5q9 129 72 226.5t157.5 171.5t197.5 135q-41 108 -76.5 214.5t-26.5 224.5q14 162 94.5 289.5t212 200t296.5 69.5q136 -3 241.5 -66.5t162.5 -172.5t48 -246
q-10 -149 -99.5 -264t-208.5 -196l-155 -102l237 -359q57 80 92.5 166.5t44.5 184.5l361 1q-8 -184 -76 -361t-197 -309l240 -352h-470zM793 1521q-11 -64 8.5 -123t46.5 -114l100 61q60 37 110 88t62 124q10 61 -23.5 106t-96.5 46q-84 2 -139 -54t-68 -134zM541 571
q-13 -89 30 -159.5t140 -73.5q67 -3 130.5 16t124.5 44l-267 420l-24 -15q-113 -86 -134 -232z" />
    <glyph glyph-name="quotesingle" unicode="'" horiz-adv-x="512" 
d="M593 2048l-125 -792h-309l124 792h310z" />
    <glyph glyph-name="parenleft" unicode="(" horiz-adv-x="1040" 
d="M764 -390l-339 5q-113 174 -168 379.5t-63.5 419.5t18.5 415q47 336 190.5 648.5t365.5 569.5h370q-111 -202 -215 -392.5t-184 -391.5t-116 -434q-32 -201 -33.5 -412t39 -416.5t135.5 -390.5z" />
    <glyph glyph-name="parenright" unicode=")" horiz-adv-x="1040" 
d="M-124 -383q108 202 211.5 393t183 391.5t116.5 432.5q48 304 24.5 622.5t-169.5 597.5l340 -5q114 -174 169.5 -379.5t64.5 -419.5t-19 -416q-47 -336 -189.5 -647.5t-362.5 -569.5h-369z" />
    <glyph glyph-name="asterisk" unicode="*" horiz-adv-x="1536" 
d="M287 957l368 363l-414 129l121 246l402 -185l54 494h282l-125 -485l433 171l53 -272l-472 -127l239 -368l-242 -156l-174 407l-309 -387z" />
    <glyph glyph-name="plus" unicode="+" horiz-adv-x="1536" 
d="M1451 1044l-67 -384h-476l-87 -496h-376l92 495l-486 1l67 384h480l86 492h376l-91 -491z" />
    <glyph glyph-name="comma" unicode="," horiz-adv-x="768" 
d="M492 348l-48 -291q-28 -176 -121.5 -331t-232.5 -265l-220 111q55 119 123 220.5t92 235.5l56 320h351z" />
    <glyph glyph-name="hyphen" unicode="-" horiz-adv-x="1280" 
d="M1155 1028l-58 -328h-996l58 328h996z" />
    <glyph glyph-name="period" unicode="." horiz-adv-x="768" 
d="M261 -29q-99 1 -165.5 74.5t-67.5 170.5q-2 103 70.5 180.5t177.5 76.5q98 -1 165 -73t68 -168q2 -103 -70 -182.5t-178 -78.5z" />
    <glyph glyph-name="slash" unicode="/" horiz-adv-x="1152" 
d="M1260 2048l-987 -2356h-399l987 2356h399z" />
    <glyph glyph-name="zero" unicode="0" horiz-adv-x="1664" 
d="M1577 1204l-55 -339q-27 -170 -89 -330.5t-164 -288.5t-247 -202.5t-337 -71.5q-187 3 -309 81.5t-188.5 207.5t-84 286t4.5 317l55 340q26 166 89.5 323t166 282t247 197.5t331.5 69.5q180 -2 302 -79t190.5 -203t89 -279.5t-1.5 -310.5zM1072 804l74 461q8 57 11 129.5
t-10 141.5t-53.5 115t-121.5 50q-118 6 -191.5 -64t-113 -173.5t-53.5 -199.5l-74 -461q-8 -58 -13 -133t6.5 -146.5t52 -120t124.5 -52.5q92 -4 156 37.5t105.5 111t65.5 150t35 154.5z" />
    <glyph glyph-name="one" unicode="1" horiz-adv-x="1536" 
d="M1326 2070l-347 -2070h-453l271 1535l-590 -196l66 377l1005 353z" />
    <glyph glyph-name="two" unicode="2" horiz-adv-x="1664" 
d="M1422 384l-60 -384h-1369l55 352l731 648q62 57 130.5 127.5t120.5 151t66 169.5q16 97 -18.5 180t-148.5 86q-90 3 -154 -45.5t-100.5 -125t-44.5 -155.5l-432 -2q5 149 69.5 275.5t171 220.5t240.5 145t279 50q178 -2 316 -70.5t211 -199t56 -317.5
q-16 -172 -108.5 -318t-218.5 -271.5t-242 -236.5l-241 -222q-24 -19 -48.5 -29.5t-53.5 -19.5l1 -29q41 17 86 18z" />
    <glyph glyph-name="three" unicode="3" horiz-adv-x="1664" 
d="M574 832l60 384l194 -1q129 1 216 79.5t105 205.5q13 97 -39.5 156t-149.5 61q-89 3 -168.5 -44.5t-93.5 -140.5l-435 -2q4 136 67 238.5t165 171.5t224 103.5t244 32.5q172 -1 318.5 -63.5t231 -187.5t70.5 -314q-13 -175 -125 -294.5t-263 -188.5q140 -63 210 -183.5
t60 -273.5q-11 -152 -81.5 -265t-182 -188t-246 -111.5t-273.5 -34.5q-177 2 -316.5 72t-220 200.5t-79.5 312.5h430q0 -99 60.5 -160t160.5 -64q115 -4 210 62.5t112 184.5q19 130 -42 189t-186 62z" />
    <glyph glyph-name="four" unicode="4" horiz-adv-x="1792" 
d="M1609 784l-68 -384h-294l-70 -400h-403l75 399l-843 1l56 329l1008 1319h462l-224 -1263zM519 786l391 -2l125 680l-27 -36z" />
    <glyph glyph-name="five" unicode="5" horiz-adv-x="1664" 
d="M550 918l-351 92l278 1038h1127l-60 -384h-769l-128 -441q55 69 137 93.5t167 23.5q141 -1 241 -62t160.5 -161.5t84 -222.5t11.5 -246q-19 -198 -122 -352t-265.5 -241t-362.5 -84q-175 3 -314 78.5t-220 209t-82 311.5l431 -1q4 -95 50 -164.5t151 -73.5
q100 -3 164.5 50t99 135.5t44.5 167.5q10 82 -5.5 158.5t-66.5 126t-147 51.5q-72 1 -137.5 -24.5t-115.5 -77.5z" />
    <glyph glyph-name="six" unicode="6" horiz-adv-x="1664" 
d="M1172 1494q-22 91 -62.5 151t-143.5 64q-93 3 -157 -52.5t-106.5 -141t-70 -176t-48.5 -157.5q171 174 409 170q140 -2 234.5 -63t149 -160t72.5 -219t6 -240q-19 -195 -121.5 -354.5t-265 -253.5t-362.5 -91q-185 3 -308 83.5t-191 212t-89 289.5t-1 316l10 76
q20 150 57 308.5t99 306t157 264.5t230.5 184.5t319.5 64.5q182 -3 302.5 -80t190.5 -207.5t100 -295.5zM524 710q-8 -77 -2 -164.5t48.5 -149.5t144.5 -65q93 -2 159 49.5t105 131t50 160.5q9 73 -5 147.5t-60 125t-134 52.5q-116 3 -201.5 -73.5t-101.5 -189.5z" />
    <glyph glyph-name="seven" unicode="7" horiz-adv-x="1664" 
d="M1683 2048l-42 -269l-980 -1779h-474l949 1662l-882 2l60 384h1369z" />
    <glyph glyph-name="eight" unicode="8" horiz-adv-x="1792" 
d="M1494 572q-16 -198 -122.5 -332.5t-270 -202.5t-350.5 -65q-175 2 -317.5 70t-220.5 197.5t-63 316.5q16 184 123 309t270 196q-96 86 -145.5 193t-39.5 238q15 188 113.5 319.5t252.5 199.5t334 65q171 -2 303.5 -69.5t202.5 -194t56 -304.5q-13 -164 -106 -277.5
t-235 -182.5q114 -90 170.5 -209t44.5 -267zM1181 1484q11 86 -20.5 154t-128.5 71q-108 3 -171 -69.5t-76 -172.5q-12 -85 18 -159t130 -77q111 -4 172.5 75t75.5 178zM1068 609q14 99 -27.5 178t-151.5 82q-122 4 -202 -80t-96 -198q-14 -100 31 -174.5t153 -77.5
q120 -4 198.5 76t94.5 194z" />
    <glyph glyph-name="nine" unicode="9" horiz-adv-x="1792" 
d="M555 547q22 -91 62 -151.5t144 -63.5q92 -2 155.5 54.5t106 143.5t70 178t48.5 156q-170 -172 -408 -168q-139 2 -235 62.5t-152 159.5t-75.5 219t-7.5 241q19 196 123.5 355.5t269.5 252.5t364 90q184 -2 307 -82t191.5 -211t90 -288.5t1.5 -314.5l-11 -80
q-20 -148 -58.5 -305t-102 -304t-159 -264.5t-230 -187.5t-315.5 -73t-301.5 76t-190.5 212t-100 295zM698 1376q-9 -73 4.5 -147t59.5 -125t134 -53q116 -3 201.5 73.5t101.5 189.5l3 24q9 77 3 164.5t-49 149.5t-145 65q-92 3 -158.5 -49t-105.5 -131.5t-49 -160.5z" />
    <glyph glyph-name="colon" unicode=":" horiz-adv-x="768" 
d="M440 1003q-100 1 -166 74.5t-68 170.5q-1 103 71.5 180.5t177.5 76.5q97 -1 164.5 -73t68.5 -168q2 -103 -70 -182.5t-178 -78.5zM261 -29q-99 1 -165.5 74.5t-67.5 170.5q-2 103 70.5 180.5t177.5 76.5q98 -1 165 -73t68 -168q2 -103 -70 -182.5t-178 -78.5z" />
    <glyph glyph-name="semicolon" unicode=";" horiz-adv-x="768" 
d="M448 1055q-100 1 -166 74.5t-68 170.5q-1 103 71.5 180.5t177.5 76.5q97 -1 164.5 -73t68.5 -168q2 -103 -70 -182.5t-178 -78.5zM492 348l-48 -291q-28 -176 -121.5 -331t-232.5 -265l-220 111q55 119 123 220.5t92 235.5l56 320h351z" />
    <glyph glyph-name="less" unicode="&#x3c;" horiz-adv-x="1536" 
d="M1290 576l-70 -403l-1090 493l64 367l1261 497l-77 -442l-784 -253z" />
    <glyph glyph-name="equal" unicode="=" horiz-adv-x="1536" 
d="M280 1376h1120l-61 -352h-1121zM168 732h1121l-62 -352h-1120z" />
    <glyph glyph-name="greater" unicode="&#x3e;" horiz-adv-x="1536" 
d="M117 592l786 255l-698 257l70 403l1090 -493l-64 -367l-1261 -497z" />
    <glyph glyph-name="question" unicode="?" horiz-adv-x="1536" 
d="M888 635l-363 -2q7 132 56.5 227.5t120 171t144 146.5t129.5 151.5t74 187.5q13 83 -15 141.5t-121 61.5q-101 3 -156.5 -67t-70.5 -161l-432 -2q10 190 104 322t245.5 199.5t334.5 64.5q166 -2 296 -63.5t199.5 -181t54.5 -296.5q-10 -124 -68.5 -216t-141 -167.5
t-166 -149.5t-146 -161.5t-78.5 -205.5zM619 -17q-98 0 -166.5 63t-70.5 162q-2 105 70 173t175 68q97 -1 164 -64.5t69 -161.5q2 -103 -68.5 -172t-172.5 -68z" />
    <glyph glyph-name="at" unicode="@" horiz-adv-x="2816" 
d="M1599 2052q257 -2 466.5 -85.5t354.5 -237.5t208.5 -367t28.5 -473q-21 -151 -67 -314t-128 -303t-210 -226.5t-313 -85.5q-81 1 -147.5 14.5t-105.5 59t-37 140.5l-7 -1q-49 -77 -132 -125t-179 -66.5t-184 -9.5q-149 16 -245 86.5t-147.5 177.5t-66 234.5t-0.5 258.5
q18 170 98.5 325.5t214.5 262.5t313 132q47 7 114.5 6.5t137 -13.5t124 -45t75.5 -88h15l28 116l321 -1l-182 -1050q-2 -30 3.5 -42t34.5 -13q92 -2 150.5 62.5t92.5 161t51 193t25 158.5q57 416 -128.5 612.5t-599.5 198.5q-213 1 -396 -77.5t-326.5 -216.5t-237 -318
t-126.5 -382q-47 -280 20.5 -495.5t249 -338.5t476.5 -125q141 0 282.5 26.5t272.5 75.5l80 -313q-76 -63 -194 -93.5t-242 -39t-218 -8.5q-404 1 -668 167.5t-375 463.5t-55 689q41 283 167 526.5t321.5 425t447.5 282t544 98.5zM1405 1102q-101 1 -176 -51t-120.5 -135
t-58.5 -175q-13 -84 -12.5 -177t42.5 -158.5t154 -69.5q126 -5 217 52.5t145.5 155t69.5 213.5q20 152 -39.5 248t-221.5 97z" />
    <glyph glyph-name="A" unicode="A" horiz-adv-x="2048" 
d="M448 0h-511l1019 2048h484l317 -2048h-490l-38 384h-610zM1106 1471l-331 -713l418 -2l-65 715h-22z" />
    <glyph glyph-name="B" unicode="B" horiz-adv-x="1736" 
d="M772 7l-791 1l354 2040h667q134 -2 261 -31.5t226 -94.5t152.5 -172t41.5 -263q-14 -167 -105 -276t-242 -170q133 -49 188 -169t44 -253q-18 -219 -131.5 -354t-288 -196.5t-376.5 -61.5zM718 1664l-87 -467l225 -2q84 0 163 20t134.5 72t70.5 146q22 131 -49 179.5
t-190 50.5zM1128 628q18 112 -28.5 177.5t-161.5 69.5l-356 1l-91 -487l298 -2q120 0 218.5 57t120.5 184z" />
    <glyph glyph-name="C" unicode="C" horiz-adv-x="1876" 
d="M1246 696l436 -62q-32 -211 -162 -360t-317 -226.5t-389 -75.5q-223 2 -364.5 95t-215.5 246t-91.5 338t7.5 372q26 195 98.5 383.5t193.5 341t290.5 242t389.5 87.5q321 -4 497.5 -187t215.5 -489l-445 -64q-10 88 -32 166.5t-75.5 129t-158.5 54.5q-132 6 -224.5 -56.5
t-152 -165t-92.5 -220t-48 -223.5q-12 -85 -19.5 -196.5t9.5 -217.5t77.5 -176.5t185.5 -73.5q155 -4 254.5 96t131.5 242z" />
    <glyph glyph-name="D" unicode="D" horiz-adv-x="1860" 
d="M677 0h-698l355 2048h648q206 -3 360.5 -87t253 -225t137 -318.5t14.5 -368.5q-28 -214 -113 -404t-222 -335.5t-322.5 -228t-412.5 -81.5zM939 1647l-221 1l-221 -1247l180 -2q194 -1 320 89.5t195.5 240t94.5 324.5q14 101 7 204.5t-44 190.5t-112.5 141.5t-198.5 57.5
z" />
    <glyph glyph-name="E" unicode="E" horiz-adv-x="1624" 
d="M1376 384l-67 -384h-1330l355 2048h1330l-67 -384h-876l-84 -447l747 -1l-67 -384h-740l-84 -447z" />
    <glyph glyph-name="F" unicode="F" horiz-adv-x="1624" 
d="M1384 1216l-67 -384h-741l-144 -832h-453l355 2048h1330l-67 -384h-876l-84 -447z" />
    <glyph glyph-name="G" unicode="G" horiz-adv-x="1904" 
d="M1778 1096l-63 -375q-34 -227 -151.5 -396t-300.5 -262t-415 -91q-223 2 -370.5 92t-228 240.5t-103 336t2.5 377.5q26 201 101.5 391t199.5 342t297.5 240.5t397.5 84.5q202 -3 343.5 -86t227 -227.5t120.5 -330.5l-427 -59q-25 124 -82.5 215.5t-201.5 98.5
q-133 6 -225.5 -57.5t-152.5 -168t-93.5 -223.5t-48.5 -225q-13 -96 -19 -208.5t15.5 -214.5t88.5 -169t199 -71q129 -3 209.5 52.5t127.5 149.5t74 206l-368 -2l60 340h786z" />
    <glyph glyph-name="H" unicode="H" horiz-adv-x="1920" 
d="M787 2048l-149 -831l716 -1l144 832h453l-355 -2048h-453l150 831l-717 1l-144 -832h-453l355 2048h453z" />
    <glyph glyph-name="I" unicode="I" horiz-adv-x="720" 
d="M787 2048l-355 -2048h-453l355 2048h453z" />
    <glyph glyph-name="J" unicode="J" horiz-adv-x="1580" 
d="M929 628l244 1420h449l-244 -1420q-27 -192 -131 -341.5t-264 -234t-358 -82.5q-297 4 -448 174.5t-144 460.5h452q-1 -60 10.5 -119t47.5 -99t109 -43q82 -4 139.5 37.5t91.5 108t46 138.5z" />
    <glyph glyph-name="K" unicode="K" horiz-adv-x="1920" 
d="M1079 0l-292 717l-286 -318l-69 -399h-453l355 2048h453l-164 -888h9l766 887h583l-864 -961l478 -1086h-516z" />
    <glyph glyph-name="L" unicode="L" horiz-adv-x="1536" 
d="M1302 384l-67 -384h-1256l355 2048h453l-294 -1663z" />
    <glyph glyph-name="M" unicode="M" horiz-adv-x="2432" 
d="M334 2048h588l206 -1382l21 -1l694 1383h605l-355 -2048h-457l240 1337h-8l-675 -1337h-306l-199 1343h-9l-239 -1343h-461z" />
    <glyph glyph-name="N" unicode="N" horiz-adv-x="1920" 
d="M1951 2048l-355 -2048h-432l-487 1261l-18 2l-227 -1263h-453l355 2048h436l483 -1261l18 -2l227 1263h453z" />
    <glyph glyph-name="O" unicode="O" horiz-adv-x="1976" 
d="M1835 1025q-26 -197 -102 -386t-201 -340.5t-298 -240.5t-393 -86q-217 3 -362 94.5t-225.5 243t-104.5 335t1 370.5q26 198 102.5 388.5t202 343.5t299.5 242.5t395 86.5q218 -3 362 -96.5t223.5 -246.5t102.5 -337.5t-2 -370.5zM1375 1006q12 84 18 192.5t-12 211
t-78.5 170.5t-181.5 72q-132 5 -224 -56t-151.5 -161.5t-93.5 -217.5t-48 -223q-12 -85 -18.5 -194t12.5 -210.5t80 -170t183 -72.5q130 -4 221 58t151 163.5t93.5 217.5t48.5 220z" />
    <glyph glyph-name="P" unicode="P" horiz-adv-x="1792" 
d="M899 723l-341 1l-126 -724h-453l355 2048l745 -1q198 -3 349.5 -86t230 -233t58.5 -354q-22 -216 -139.5 -361t-295.5 -217.5t-383 -72.5zM721 1664l-103 -559l299 -3q137 2 233 80t117 215q19 116 -32.5 189t-172.5 77z" />
    <glyph glyph-name="Q" unicode="Q" horiz-adv-x="1992" 
d="M1838 1024q-30 -220 -121.5 -437.5t-269.5 -360.5l163 -300l-319 -229l-168 320q-141 -46 -283 -44q-217 1 -361.5 93t-225 244t-104.5 335.5t1 368.5q26 199 102 389.5t202 343.5t299.5 242.5t395.5 86.5q216 -3 360.5 -96.5t225.5 -247t104.5 -338.5t-1.5 -370z
M1127 791l105 -198q60 94 95 198t51 213q12 85 18 194t-13 211.5t-80 171t-182 72.5q-132 4 -224 -57t-151.5 -161.5t-93.5 -217t-49 -223.5q-12 -87 -18 -195.5t13 -209.5t80 -168.5t184 -71.5q15 0 30 0.5t29 0.5l-103 201z" />
    <glyph glyph-name="R" unicode="R" horiz-adv-x="1756" 
d="M1058 0l-219 752h-276l-131 -752h-453l355 2048l725 -1q176 -2 330 -71.5t244.5 -202t73.5 -325.5q-38 -426 -435 -578l266 -847v-23h-480zM721 1664l-98 -531l279 -3q134 0 232.5 68.5t119.5 207.5q18 118 -37 185.5t-175 71.5z" />
    <glyph glyph-name="S" unicode="S" horiz-adv-x="1760" 
d="M1253 1438q-1 118 -59 182.5t-179 66.5q-68 2 -138 -16.5t-122.5 -62.5t-67.5 -120q-12 -58 17.5 -98.5t80 -68.5t105 -48t93.5 -37l50 -25q140 -62 260.5 -142t190 -196.5t54.5 -289.5q-18 -215 -137 -351t-297.5 -199t-376.5 -61q-214 2 -373 85t-245 237.5t-82 370.5
h448q-2 -143 61 -225t215 -84q72 -1 144 23t125.5 74t70.5 126q14 69 -14.5 118.5t-81.5 85t-114 60t-111 41.5l-36 12q-148 50 -265.5 123.5t-181 187.5t-49.5 286q13 152 89.5 262.5t194.5 182.5t256 106t273 32q295 -4 473 -172.5t176 -465.5h-447z" />
    <glyph glyph-name="T" unicode="T" horiz-adv-x="1788" 
d="M1886 2048l-67 -384h-581l-289 -1664h-449l294 1663l-588 1l67 384h1613z" />
    <glyph glyph-name="U" unicode="U" horiz-adv-x="1920" 
d="M1499 2048h453l-233 -1351q-35 -235 -162 -398.5t-319.5 -247.5t-424.5 -82q-216 2 -387.5 88.5t-261.5 248t-61 390.5l232 1352h453l-233 -1353q-20 -146 60 -232.5t225 -90.5q153 -5 275 82t151 242z" />
    <glyph glyph-name="V" unicode="V" horiz-adv-x="2048" 
d="M759 2050l173 -1472l24 -1l631 1471h509l-983 -2048h-484l-350 2047z" />
    <glyph glyph-name="W" unicode="W" horiz-adv-x="2560" 
d="M714 2050l-1 -1381h13l507 1379h395l66 -1383h15l429 1383h414l-696 -2048h-460l-66 1287h-15l-471 -1287h-461l-61 2048z" />
    <glyph glyph-name="X" unicode="X" horiz-adv-x="2048" 
d="M839 2050l222 -657q6 -19 5 -40h6q6 24 15 39l420 656h532l-722 -1044l405 -1004h-507l-221 671q-5 17 0 45l-5 -1q-9 -25 -20 -43l-434 -672h-540l737 1044l-389 1003z" />
    <glyph glyph-name="Y" unicode="Y" horiz-adv-x="2048" 
d="M776 2048l266 -869l569 869h511l-917 -1306l-129 -742h-453l140 786l-464 1261z" />
    <glyph glyph-name="Z" unicode="Z" horiz-adv-x="1792" 
d="M1547 384l-66 -384h-1509l51 292l1185 1370l-948 2l67 384h1508l-49 -292l-1186 -1370z" />
    <glyph glyph-name="bracketleft" unicode="[" horiz-adv-x="1040" 
d="M1171 2348l-54 -340h-286l-337 -2152h288l-53 -336h-686l442 2828h686z" />
    <glyph glyph-name="backslash" unicode="\" horiz-adv-x="1152" 
d="M287 2048h382l176 -2356h-382z" />
    <glyph glyph-name="bracketright" unicode="]" horiz-adv-x="1040" 
d="M314 2348h686l-442 -2828h-686l53 336h287l336 2152h-287z" />
    <glyph glyph-name="asciicircum" unicode="^" horiz-adv-x="1280" 
d="M888 1004l-120 613l-335 -613h-347l570 1000h320l236 -999z" />
    <glyph glyph-name="underscore" unicode="_" horiz-adv-x="1280" 
d="M1084 0l-60 -344h-1213l60 344h1213z" />
    <glyph glyph-name="grave" unicode="`" horiz-adv-x="1024" 
d="M783 2112l206 -431l-334 -1l-316 430z" />
    <glyph glyph-name="a" unicode="a" horiz-adv-x="1528" 
d="M798 0l25 135h-5q-65 -88 -160.5 -126.5t-203.5 -37.5q-129 2 -231.5 56.5t-159 153t-48.5 232.5q9 148 75 250t171.5 164t232.5 90t257 28h174l14 85q11 82 -18.5 133t-119.5 54q-86 3 -142 -40.5t-90 -118.5l-421 58q39 152 149 250.5t255.5 145t292.5 44.5
q157 -2 288 -64t203 -179.5t54 -288.5l-174 -1024h-418zM883 659l-129 3q-107 0 -194.5 -57.5t-104.5 -169.5q-10 -61 24 -96t94 -37q87 -3 170 49.5t103 140.5z" />
    <glyph glyph-name="b" unicode="b" horiz-adv-x="1620" 
d="M334 2048h449l-113 -583l3 1q72 39 135 65t149 25q156 -2 264 -73.5t171 -187.5t85 -253.5t6 -271.5q-17 -146 -75.5 -289t-154.5 -259.5t-227 -184.5t-294 -66q-73 1 -143 21.5t-126 69.5l-16 1l-12 -63h-456zM515 542q4 -87 50.5 -143t137.5 -60q118 -5 191.5 62.5
t111.5 169.5t51 199q8 57 10.5 128.5t-12 138t-56 111t-121.5 45.5q-115 3 -190.5 -73t-112.5 -175q-35 -93 -49 -181q-8 -54 -10.5 -111t-0.5 -111z" />
    <glyph glyph-name="c" unicode="c" horiz-adv-x="1526" 
d="M1450 1021l-402 -76q-18 93 -60 167.5t-152 78.5q-116 5 -187.5 -64.5t-108 -172t-47.5 -196.5q-7 -59 -8.5 -130.5t14.5 -136.5t59.5 -108t124.5 -45q101 -2 172 57t99 152l397 -70q-26 -166 -128 -279t-248.5 -171t-304.5 -55q-223 3 -364.5 113.5t-201.5 288.5
t-38 384q23 215 125 398t273.5 293.5t400.5 106.5q250 -4 400.5 -149t184.5 -386z" />
    <glyph glyph-name="d" unicode="d" horiz-adv-x="1620" 
d="M1317 0h-437l12 63l-2 -1q-73 -40 -140 -65.5t-153 -24.5q-156 2 -265 73t-173 187t-86.5 253.5t-6.5 271.5q17 145 75.5 288t154.5 259.5t226.5 185.5t291.5 66q74 -1 142.5 -22t125.5 -68l18 -1l112 583h449zM492 757q-8 -59 -10.5 -130.5t12.5 -136.5t57.5 -107.5
t124.5 -44.5q103 -3 179.5 58t111.5 154q20 53 34 111t23 113q6 44 8 89.5t2 89.5q-1 92 -44 163.5t-146 75.5q-117 5 -190 -64.5t-111 -172.5t-51 -198z" />
    <glyph glyph-name="e" unicode="e" horiz-adv-x="1536" 
d="M702 -28q-217 2 -367.5 107t-221 278t-48.5 381q17 161 77 309t160 264t239 182t314 64q212 -3 343.5 -109.5t185 -276t29.5 -363.5l-28 -192l-899 1q-2 -123 66 -198.5t193 -78.5q98 -3 172 41t136 115l237 -254q-57 -96 -155.5 -156t-213 -88t-219.5 -26zM829 1192
q-86 4 -145.5 -38.5t-100.5 -109t-69 -135.5l490 1q20 100 -19 189t-156 93z" />
    <glyph glyph-name="f" unicode="f" horiz-adv-x="1024" 
d="M522 0h-449l216 1215l-208 1l58 320l188 -3l6 30q52 239 216.5 378t414.5 137q54 0 109 -4.5t110 -11.5l-39 -356q-57 11 -106 12q-87 2 -157.5 -32.5t-96.5 -123.5l-9 -29l290 3l-57 -320h-275z" />
    <glyph glyph-name="g" unicode="g" horiz-adv-x="1620" 
d="M1160 1529l411 -1l-251 -1459q-31 -213 -143.5 -360.5t-285 -223.5t-382.5 -73q-151 1 -301 48t-267 145l215 295q157 -130 352 -133q165 -4 253 82.5t132 234.5l6 21l-8 -3q-123 -92 -287 -90q-154 1 -263 69.5t-174 180t-89 246t-9 269.5q17 144 75.5 284t155 253
t226 179t288.5 63q83 -1 160.5 -28t136.5 -89l16 -1zM496 777q-8 -59 -10 -129t13 -133.5t57.5 -104.5t123.5 -43q102 -3 185 55.5t122 152.5q21 52 34.5 108.5t21.5 112.5q13 88 8 174q-5 95 -54 160.5t-152 70.5q-115 4 -187.5 -62.5t-110.5 -166.5t-51 -195z" />
    <glyph glyph-name="h" unicode="h" horiz-adv-x="1580" 
d="M568 816l-140 -816h-449l355 2048h434l-130 -679l7 1q164 191 408 185q164 -4 251.5 -94.5t114.5 -226t10 -274.5l-163 -960h-449l165 965q6 50 3.5 102t-29 88t-89.5 39q-101 5 -162.5 -56.5t-93 -151.5t-43.5 -170z" />
    <glyph glyph-name="i" unicode="i" horiz-adv-x="748" 
d="M537 1619q-91 1 -162 64.5t-74 156.5q-3 100 72 169t172 68q92 -1 161.5 -64.5t72.5 -156.5q2 -100 -71 -169t-171 -68zM710 1536l-266 -1536h-449l266 1536h449z" />
    <glyph glyph-name="j" unicode="j" horiz-adv-x="916" 
d="M705 1619q-91 1 -162.5 64.5t-73.5 156.5q-3 100 72 168.5t172 68.5q92 -1 161 -64.5t72 -156.5q2 -100 -71 -168.5t-170 -68.5zM429 1536h449l-271 -1583q-36 -269 -216 -401.5t-442 -132.5l-190 1l63 360l71 -2q98 1 171 40t92 142z" />
    <glyph glyph-name="k" unicode="k" horiz-adv-x="1556" 
d="M912 0l-247 550l-172 -173l-65 -377h-449l355 2048h449l-188 -1024h13l483 512l550 -1l-668 -673l409 -862h-470z" />
    <glyph glyph-name="l" unicode="l" horiz-adv-x="716" 
d="M783 2048l-355 -2048h-449l355 2048h449z" />
    <glyph glyph-name="m" unicode="m" horiz-adv-x="2408" 
d="M1405 952l-162 -952h-434l165 961q11 87 -19 157.5t-130 74.5q-103 4 -159.5 -64t-72.5 -161l-165 -968h-449l266 1536l438 1l-41 -168l3 1q83 91 185.5 140t226.5 47q109 -2 207 -52t130 -162l12 1q87 102 200.5 158t249.5 54q166 -4 253 -93.5t113 -225t10 -277.5
l-163 -960h-449l164 961q11 83 -11 155.5t-122 76.5q-110 5 -169.5 -68t-76.5 -173z" />
    <glyph glyph-name="n" unicode="n" horiz-adv-x="1624" 
d="M567 816l-139 -816h-449l266 1536l415 1l-41 -168l7 1q168 191 424 186q167 -3 265.5 -89.5t135.5 -221.5t20 -285l-162 -960h-449l161 946q12 89 -19.5 166t-136.5 81q-102 5 -162.5 -56t-91.5 -150t-44 -171z" />
    <glyph glyph-name="o" unicode="o" horiz-adv-x="1544" 
d="M644 -24q-223 3 -357 116t-187 291.5t-33 378.5q15 153 75 296.5t159.5 256.5t235 178.5t301.5 62.5q161 -2 276 -69.5t185.5 -179.5t98 -250.5t12.5 -281.5q-20 -212 -115 -395t-259 -295t-392 -109zM660 339q87 -3 146.5 38t97 108t58 144t27.5 146q6 54 8 124
t-11.5 136t-53 110.5t-115.5 47.5q-85 4 -143.5 -37t-94.5 -108t-55.5 -143t-26.5 -144q-6 -53 -9.5 -123.5t8.5 -137.5t50 -112t114 -49z" />
    <glyph glyph-name="p" unicode="p" horiz-adv-x="1620" 
d="M-120 -576l366 2112l426 4l-13 -75l11 1q131 92 288 90q156 -2 264 -73.5t171 -187.5t85 -253.5t6 -271.5q-17 -146 -75.5 -289t-154.5 -259.5t-227 -184.5t-294 -66q-74 2 -144 22.5t-129 68.5l-9 1l-122 -639h-449zM516 542q4 -87 50.5 -143t137.5 -60q118 -5 191.5 63
t111.5 169.5t51 199.5q8 56 10.5 127.5t-12 138t-56 111t-121.5 45.5q-115 3 -190.5 -73t-112.5 -175q-35 -93 -49 -181q-8 -54 -10.5 -111t-0.5 -111z" />
    <glyph glyph-name="q" unicode="q" horiz-adv-x="1620" 
d="M1572 1536l-366 -2112h-449l130 639h-3q-62 -50 -135 -71.5t-152 -19.5q-156 2 -265 73.5t-173 187t-86.5 252.5t-6.5 272q17 145 75.5 288t154.5 259.5t226.5 185.5t291.5 66q72 -1 140.5 -21t123.5 -69l25 -1l13 74zM492 757q-8 -59 -10.5 -130t12.5 -136.5t57.5 -108
t124.5 -44.5q103 -2 179.5 58.5t111.5 154.5q20 53 34 110.5t22 113.5q7 43 9 88.5t2 89.5q-1 92 -44 163.5t-146 75.5q-117 5 -190 -64.5t-111 -172.5t-51 -198z" />
    <glyph glyph-name="r" unicode="r" horiz-adv-x="1020" 
d="M1058 1550l-52 -431q-38 6 -82 6q-114 2 -216 -58t-126 -179l-154 -888h-449l266 1536h450l-47 -199l5 1q50 87 133 153.5t189 67.5q21 1 41.5 -2t41.5 -7z" />
    <glyph glyph-name="s" unicode="s" horiz-adv-x="1384" 
d="M162 1097q9 157 102 259.5t230 152t278 48.5q166 -2 311.5 -66.5t240.5 -204.5l-325 -224q-40 55 -96 87t-126 32q-49 1 -108 -20t-74 -76q-11 -42 17 -64.5t69 -34.5t68 -22l73 -29q100 -41 183.5 -109.5t132 -162t41.5 -208.5q-9 -154 -102.5 -263t-231.5 -166
t-280 -55q-178 2 -330 80t-255 223l343 240q42 -68 98.5 -111t141.5 -44q51 0 112.5 21.5t76.5 79.5q14 49 -26 82t-95.5 53.5t-86.5 33.5l-80 32q-135 58 -223 170.5t-79 265.5z" />
    <glyph glyph-name="t" unicode="t" horiz-adv-x="1024" 
d="M1046 1536l-57 -320h-233l-127 -734q-8 -54 11.5 -93t79.5 -43l138 -2l-49 -355q-60 -10 -119 -14.5t-119 -2.5q-121 5 -215 68t-143.5 165t-37.5 223l136 787l-188 1l58 320h182l57 328h450l-62 -327z" />
    <glyph glyph-name="u" unicode="u" horiz-adv-x="1624" 
d="M987 720l139 816h449l-266 -1536h-414l41 167l-8 -1q-81 -92 -190 -142t-233 -47q-167 4 -266 91t-136 223t-20 285l162 960h449l-161 -945q-11 -89 21 -166t136 -82q102 -5 162.5 56t91 150t43.5 171z" />
    <glyph glyph-name="v" unicode="v" horiz-adv-x="1536" 
d="M1566 1536l-725 -1536h-437l-251 1535l446 1l86 -982l14 -1l402 983h465z" />
    <glyph glyph-name="w" unicode="w" horiz-adv-x="2172" 
d="M2159 1536l-631 -1536h-362l-88 855h-21l-389 -855h-365l-105 1536h427l-19 -924h16l393 924h305l66 -915l19 -1l315 916h439z" />
    <glyph glyph-name="x" unicode="x" horiz-adv-x="1536" 
d="M633 1536l143 -437l289 437h473l-526 -788l289 -748h-439l-168 434l-300 -434h-477l541 789l-269 746z" />
    <glyph glyph-name="y" unicode="y" horiz-adv-x="1536" 
d="M396 -26l38 73l-274 1488l458 1l113 -815l374 815h478l-829 -1756q-78 -175 -229.5 -278.5t-345.5 -103.5q-51 0 -98.5 7.5t-96.5 21.5l39 354l26 -4t26 -2q114 -4 192.5 48t128.5 151z" />
    <glyph glyph-name="z" unicode="z" horiz-adv-x="1512" 
d="M1264 360l-63 -360h-1221l48 280l809 894l-626 2l63 360h1178l-48 -280l-809 -894z" />
    <glyph glyph-name="braceleft" unicode="{" horiz-adv-x="1040" 
d="M726 -252l-98 -244q-220 78 -322 245t-75 399l40 277q15 110 -17.5 186t-153.5 83l29 314q124 1 192 77t86 191l41 280q69 502 564 643l65 -246q-125 -48 -178 -161.5t-71 -235.5l-40 -280q-20 -155 -100 -260t-220 -171q104 -75 148.5 -184.5t32.5 -236.5l-39 -277
q-10 -72 -12.5 -151t24.5 -146t104 -102z" />
    <glyph glyph-name="bar" unicode="|" horiz-adv-x="920" 
d="M837 2048l-380 -2432h-399l380 2432h399z" />
    <glyph glyph-name="braceright" unicode="}" horiz-adv-x="1040" 
d="M-61 -249q125 47 178 161t72 236l39 276q20 156 100 262t221 172q-102 76 -148 184t-34 234l39 281q10 72 12.5 151t-24 146t-103.5 102l99 240q220 -75 321.5 -242.5t73.5 -397.5l-40 -281q-15 -110 18.5 -184t153.5 -81l-30 -314q-123 -1 -191.5 -79t-86.5 -193
l-40 -276q-69 -497 -558 -649z" />
    <glyph glyph-name="asciitilde" unicode="~" horiz-adv-x="1792" 
d="M1332 1100l305 2q-5 -107 -37.5 -213.5t-94 -195t-152.5 -140.5t-213 -50q-109 3 -192.5 53.5t-154.5 127.5q-37 41 -81 75t-103 35q-64 1 -106 -36t-64.5 -93t-28.5 -110l-309 8q8 142 64.5 279t164.5 225.5t270 85.5q108 -3 193 -53t155 -128q36 -40 81 -74t101 -36
q64 -1 106 36.5t65.5 93t30.5 108.5z" />
    <glyph glyph-name="nbspace" unicode="&#xa0;" horiz-adv-x="778" 
 />
    <glyph glyph-name="exclamdown" unicode="&#xa1;" horiz-adv-x="768" 
d="M464 1557q97 0 165.5 -63t70.5 -162q2 -106 -69.5 -174t-175.5 -67q-97 0 -164 63.5t-69 161.5q-2 105 68 173.5t174 67.5zM374 -516h-461l299 1412h352z" />
    <glyph glyph-name="cent" unicode="&#xa2;" horiz-adv-x="1536" 
d="M1455 1021l-402 -76q-17 92 -58 166.5t-151 79.5q-117 6 -189.5 -63.5t-110.5 -172.5t-51 -197q-8 -59 -10.5 -130t12 -136.5t56.5 -109t124 -45.5q101 -2 173 57.5t101 152.5l395 -70q-22 -150 -108.5 -255.5t-212.5 -166t-269 -74.5l-65 -317h-271l68 327
q-177 44 -275 164t-131 280t-13 323q23 190 105.5 356t223 280t337.5 146l58 272h271l-58 -267q208 -35 316 -181t135 -343z" />
    <glyph glyph-name="sterling" unicode="&#xa3;" horiz-adv-x="1792" 
d="M1222 820h-400l-25 -203q-8 -79 -36.5 -138t-87.5 -113l833 6l-65 -372h-1427l65 372l116 -3q77 24 105.5 85.5t38.5 135.5l32 230h-219l63 360h208l39 295q20 186 111.5 322t239 209t334.5 70q276 -4 420.5 -162t140.5 -428l-426 1q4 88 -26.5 151.5t-129.5 67.5
q-99 3 -152 -70t-65 -161l-38 -295h414z" />
    <glyph glyph-name="currency" unicode="&#xa4;" horiz-adv-x="2048" 
d="M200 831q18 145 76.5 275.5t160.5 235.5l-163 214l206 185l151 -201q110 73 232.5 115t255.5 41q119 -1 233.5 -41t204.5 -119l234 205l171 -220l-233 -189q36 -122 55 -242.5t4 -247.5q-17 -139 -72 -264t-149 -229l160 -201l-210 -185l-136 184q-113 -81 -241 -129
t-268 -46q-124 1 -244 44.5t-211 129.5l-211 -183l-167 220l212 171q-32 119 -49 236t-2 241zM451 828q-24 -144 17 -277.5t142.5 -220.5t260.5 -91q168 -4 309.5 82t236 225.5t120.5 297.5q23 143 -17.5 276.5t-141 221t-258.5 90.5q-170 5 -312 -80t-236.5 -224.5
t-120.5 -299.5z" />
    <glyph glyph-name="yen" unicode="&#xa5;" horiz-adv-x="1532" 
d="M1301 668l-46 -260h-368l-71 -408h-450l77 407l-409 1l46 260l400 1l31 134l-408 1l45 260h333l-252 983l452 1l138 -726l391 726h479l-598 -982l280 -2l-47 -260l-365 -1l-32 -134z" />
    <glyph glyph-name="brokenbar" unicode="&#xa6;" horiz-adv-x="920" 
d="M857 2048l-166 -956h-399l166 956h399zM203 576h399l-167 -960h-398z" />
    <glyph glyph-name="section" unicode="&#xa7;" horiz-adv-x="1792" 
d="M1419 -77q-11 -147 -83.5 -248t-184 -162t-242 -87.5t-258.5 -25.5q-185 1 -338 58t-243.5 181t-89.5 327l427 -1q-4 -125 73.5 -166.5t188.5 -42.5q62 -1 129 11.5t119 48.5t69 107q13 56 -16 95t-80.5 64.5t-106 42t-93.5 28.5q-107 32 -212 76t-189 108.5t-130.5 158
t-36.5 225.5q10 137 84 230.5t193 154.5q-134 172 -118 387q11 145 84 248t185 168t242.5 95t258.5 28q286 -3 465 -147.5t176 -442.5l-431 1q3 111 -57.5 168t-171.5 60q-61 2 -128.5 -12.5t-119.5 -52.5t-68 -108q-18 -82 31.5 -126.5t125 -67.5t133.5 -40
q109 -32 215 -75.5t190 -107.5t131 -158t37 -227q-10 -138 -83 -230.5t-193 -153.5q133 -170 116 -389zM850 516q40 -13 80 -25t80 -26q50 33 84 76t47 103q13 61 -14 103t-77 70t-105.5 46.5t-98.5 32.5q-41 13 -81.5 27t-80.5 29q-98 -68 -121 -180q-18 -85 28.5 -133.5
t120 -75.5t138.5 -47z" />
    <glyph glyph-name="dieresis" unicode="&#xa8;" horiz-adv-x="1280" 
d="M258 1886q-3 82 52 136t135 55q77 1 132.5 -50.5t58.5 -128.5q4 -79 -50.5 -132.5t-131.5 -54.5q-76 -1 -134 48t-62 127zM937 1886q-3 82 52 136t135 55q77 1 132.5 -50.5t58.5 -128.5q4 -79 -50.5 -132.5t-131.5 -54.5q-76 -1 -134 48t-62 127z" />
    <glyph glyph-name="copyright" unicode="&#xa9;" horiz-adv-x="2304" 
d="M197 999q23 202 115.5 388.5t238.5 332.5t332.5 230t398.5 82q206 -2 366.5 -88.5t267 -232t152.5 -327.5t24 -375q-23 -203 -115 -390t-237.5 -334t-332.5 -231t-400 -82q-207 2 -367 89t-267 233.5t-152.5 329t-23.5 375.5zM363 998q-24 -157 6 -308t111 -273.5
t209 -196.5t300 -76q180 -3 338 67.5t284 193.5t207.5 279t107.5 326q24 157 -6 307.5t-111 272t-209.5 195t-300.5 75.5q-178 3 -336 -67.5t-284 -192.5t-208 -277.5t-108 -324.5zM1328 820l206 3q-6 -210 -138.5 -325t-339.5 -110q-147 3 -242 79.5t-137 196.5t-29 256
l20 164q18 142 83 264.5t176.5 196.5t266.5 72q202 -4 310 -120t107 -315l-211 1q6 111 -35.5 179t-161.5 71q-98 3 -165 -48.5t-105 -133t-51 -167.5l-23 -165q-9 -73 0 -152t51.5 -135t134.5 -60q126 -6 196.5 61t86.5 187z" />
    <glyph glyph-name="ordfeminine" unicode="&#xaa;" horiz-adv-x="1280" 
d="M858 964q-6 52 -4 102q-117 -115 -279 -114q-138 1 -224 82.5t-83 221.5q3 132 78.5 202.5t186.5 96.5t221 25l146 -2l18 77q13 67 -7.5 118.5t-97.5 54.5q-73 3 -131.5 -29t-72.5 -107l-236 14q3 116 68 188.5t164 106.5t202 32q169 -4 266.5 -107t82.5 -274l-70 -432
q-12 -66 -14.5 -129t13.5 -128zM622 1147q62 -1 119 26t105 62l39 185l-111 1q-80 -1 -164.5 -35.5t-103.5 -125.5q-12 -61 25 -86.5t91 -26.5z" />
    <glyph glyph-name="guillemotleft" unicode="&#xab;" horiz-adv-x="1536" 
d="M1256 161l-256 -1l-284 534l1 32l445 534h298l-432 -569zM717 161l-257 -1l-283 533l2 33l444 534h297l-431 -569z" />
    <glyph glyph-name="logicalnot" unicode="&#xac;" horiz-adv-x="1536" 
d="M1354 1108l-103 -592h-272l68 355l-851 1l41 236h1117z" />
    <glyph glyph-name="softhyphen" unicode="&#xad;" horiz-adv-x="1280" 
d="M101 700zM1155 1028l-58 -328h-996l58 328h996z" />
    <glyph glyph-name="registered" unicode="&#xae;" horiz-adv-x="2304" 
d="M197 998q23 203 115.5 389.5t238.5 332.5t332.5 230t398.5 82q206 -2 366.5 -88.5t267 -232t153 -327.5t23.5 -375q-23 -203 -115 -390t-237.5 -334t-332.5 -231.5t-400 -81.5q-207 2 -367.5 89t-267 233.5t-152 329t-23.5 374.5zM363 998q-24 -157 6 -308t111 -273.5
t209 -196.5t300 -76q180 -3 338.5 67.5t284 193t207 279t107.5 326.5q24 157 -6 307.5t-111 272t-209.5 195t-300.5 75.5q-178 3 -336 -67.5t-284 -192.5t-208 -277.5t-108 -324.5zM1169 898l-229 2l-73 -464h-205l183 1168l351 -1q110 -2 203.5 -40.5t149 -116.5t50.5 -199
q-4 -92 -56.5 -148.5t-128.5 -97.5q65 -55 83 -133.5t10 -159.5l-9 -76q-6 -46 -4 -87.5t7 -86.5l-1 -25l-201 1q-13 48 -11 98.5t8 100.5l10 77q10 85 -17.5 134.5t-119.5 53.5zM1021 1420l-53 -336l150 -1q56 0 116 15.5t106 51.5t58 100q21 103 -37.5 135.5t-148.5 34.5
h-191z" />
    <glyph glyph-name="macron" unicode="&#xaf;" horiz-adv-x="1536" 
d="M1393 2004l-38 -236h-926l37 236h927z" />
    <glyph glyph-name="degree" unicode="&#xb0;" horiz-adv-x="1024" 
d="M602 1227q-109 3 -195 60t-133.5 149t-42.5 199q6 117 69.5 217.5t165 161.5t220.5 58q111 -3 193 -63.5t125.5 -155t38.5 -200.5q-6 -116 -66.5 -214t-158.5 -156t-216 -56zM603 1471q75 -1 132.5 54.5t68.5 127.5q10 61 -21.5 113.5t-99.5 54.5q-76 1 -135 -56.5
t-71 -129.5q-9 -62 25.5 -112t100.5 -52z" />
    <glyph glyph-name="plusminus" unicode="&#xb1;" horiz-adv-x="1536" 
d="M1492 1300l-61 -388h-480l-63 -400h-376l63 400h-481l61 388h480l63 400h376l-63 -400h481zM1347 396l-62 -396h-1334l63 396h1333z" />
    <glyph glyph-name="twosuperior" unicode="&#xb2;" horiz-adv-x="1280" 
d="M1231 1156l-42 -240h-837l39 221l419 332q48 39 106.5 94.5t74.5 120.5q12 45 -11 71t-68 27q-66 0 -104.5 -43.5t-48.5 -102.5l-295 -2q2 118 62.5 205t158 134t211.5 46q107 -2 199 -38t147 -110.5t51 -192.5q-5 -104 -61.5 -180.5t-137.5 -135.5t-159 -111l-154 -93z
" />
    <glyph glyph-name="threesuperior" unicode="&#xb3;" horiz-adv-x="1280" 
d="M585 1372l35 196l100 -1q59 2 109.5 29.5t64.5 90.5q11 49 -21.5 69t-74.5 21q-43 1 -81.5 -15t-54.5 -58l-302 -1q3 114 66.5 184t160 101t198.5 29q94 -2 189 -31t158 -95.5t61 -178.5q-3 -102 -69.5 -157t-152.5 -89q79 -28 118 -92.5t39 -146.5q-2 -122 -78.5 -194.5
t-186.5 -104t-212 -29.5q-163 3 -280.5 91t-122.5 261l290 -2q2 -55 40 -79t91 -24q57 -1 109.5 28.5t65.5 89.5q13 62 -23.5 83.5t-89.5 23.5z" />
    <glyph glyph-name="acute" unicode="&#xb4;" horiz-adv-x="1024" 
d="M256 1680l332 432l487 -1l-437 -431h-382z" />
    <glyph glyph-name="mu" unicode="&#xb5;" horiz-adv-x="1632" 
d="M1005 692l145 844h433l-266 -1536h-401l18 81q-124 -114 -292 -110q-118 3 -207 80l-122 -623h-433l365 2108h434l-144 -853q-8 -67 -8.5 -147t32.5 -139t124 -62q103 -4 169 49.5t102 137t51 170.5z" />
    <glyph glyph-name="paragraph" unicode="&#xb6;" horiz-adv-x="1280" 
d="M1015 0h-306l125 716l-82 1q-189 3 -323.5 83.5t-200.5 223t-46 330.5q20 200 122 346t262.5 225.5t358.5 79.5l438 -1z" />
    <glyph glyph-name="periodcentered" unicode="&#xb7;" horiz-adv-x="768" 
d="M385 695q-99 1 -165.5 74.5t-67.5 170.5q-1 103 71.5 180.5t176.5 76.5q98 -1 165 -73t69 -168q1 -103 -70.5 -182.5t-178.5 -78.5z" />
    <glyph glyph-name="cedilla" unicode="&#xb8;" horiz-adv-x="1024" 
d="M108 16l331 2l-32 -96q84 -15 126 -78.5t41 -144.5q0 -106 -50.5 -173.5t-131 -105t-173 -53.5t-176.5 -18l11 260q55 2 98.5 27.5t55.5 83.5q10 46 -17.5 64t-69 21.5t-71.5 5.5z" />
    <glyph glyph-name="onesuperior" unicode="&#xb9;" horiz-adv-x="1024" 
d="M953 1998l-176 -1082h-290l131 726l-255 -47l43 240l514 162z" />
    <glyph glyph-name="ordmasculine" unicode="&#xba;" horiz-adv-x="1280" 
d="M267 1436l12 103q17 139 84.5 252t179 179t257.5 62q140 -3 234.5 -70t139 -178t31.5 -244l-12 -104q-17 -138 -84 -250t-177 -177t-256 -61q-138 3 -234 69t-142 176t-33 243zM517 1540l-15 -106q-9 -66 1.5 -130t49.5 -107t118 -46q125 -5 196 84.5t89 200.5l15 105
q8 65 -1 130.5t-47 110t-118 47.5q-125 5 -197.5 -86t-90.5 -203z" />
    <glyph glyph-name="guillemotright" unicode="&#xbb;" horiz-adv-x="1536" 
d="M107 160l425 567l-221 528l251 1l288 -535l-1 -27l-449 -534h-293zM651 161l425 566l-222 528l252 1l287 -534l-1 -28l-449 -534z" />
    <glyph glyph-name="onequarter" unicode="&#xbc;" horiz-adv-x="2048" 
d="M832 1994l-176 -1082h-290l131 726l-255 -47l43 240l514 162zM1665 1714l-1205 -1547l-203 119l1205 1547zM1812 460l-43 -244h-108l-38 -216h-297l46 215h-451l12 222l570 647h308l-108 -624h109zM1216 462l196 -2l57 268l-26 -35z" />
    <glyph glyph-name="onehalf" unicode="&#xbd;" horiz-adv-x="2304" 
d="M939 2006l-176 -1082h-290l131 726l-255 -47l43 240l514 162zM1742 1714l-1204 -1547l-203 119l1204 1547zM2042 240l-43 -240h-837l39 221l419 332q49 39 107.5 94.5t74.5 120.5q12 45 -11.5 71t-68.5 27q-66 0 -104.5 -43.5t-47.5 -102.5l-296 -2q2 119 62 205.5
t157.5 133.5t212.5 46q106 -2 199 -37.5t148.5 -110.5t50.5 -193q-4 -104 -61 -180.5t-138.5 -136t-159.5 -110.5l-153 -93z" />
    <glyph glyph-name="threequarters" unicode="&#xbe;" horiz-adv-x="2304" 
d="M663 1372l36 196l99 -1q59 2 109.5 29.5t64.5 90.5q11 49 -21.5 69t-74.5 21q-43 1 -81.5 -15t-54.5 -58l-301 -1q2 115 65.5 185t160.5 100.5t199 28.5q94 -1 189.5 -30.5t158.5 -96t60 -178.5q-3 -103 -69.5 -157.5t-152.5 -87.5q79 -28 118.5 -93t38.5 -147
q-2 -123 -79 -195.5t-187.5 -103.5t-213.5 -29q-163 3 -279.5 91t-121.5 261l291 -2q2 -55 40.5 -79t91.5 -24q57 -1 109.5 28.5t65.5 89.5q13 62 -24 83.5t-90 23.5zM1992 1714l-1205 -1547l-203 119l1205 1547zM2150 460l-42 -244h-109l-37 -216h-297l46 215h-451l11 222
l571 647h308l-108 -624h108zM1555 462l195 -2l58 268l-27 -35z" />
    <glyph glyph-name="questiondown" unicode="&#xbf;" horiz-adv-x="1536" 
d="M849 1529q98 -1 166.5 -64t70.5 -161q2 -106 -70 -174t-175 -67q-97 0 -164 64t-69 161q-2 104 68.5 172.5t172.5 68.5zM581 877l367 1q-8 -131 -58.5 -226.5t-121.5 -171t-144.5 -146.5t-129.5 -151.5t-73 -186.5q-14 -83 14 -141.5t121 -61.5q101 -3 156.5 66.5
t69.5 160.5l432 2q-9 -190 -103 -322t-245.5 -199.5t-333.5 -65.5q-166 3 -296 64.5t-200 181t-56 295.5q6 70 53.5 169t119.5 208.5t152 213.5t153.5 186t122.5 124z" />
    <glyph glyph-name="Agrave" unicode="&#xc0;" horiz-adv-x="2048" 
d="M0 0zM448 0h-511l1019 2048h484l317 -2048h-490l-38 384h-610zM1106 1471l-331 -713l418 -2l-65 715h-22zM1224 2536l206 -431l-334 -1l-316 430z" />
    <glyph glyph-name="Aacute" unicode="&#xc1;" horiz-adv-x="2048" 
d="M0 0zM448 0h-511l1019 2048h484l317 -2048h-490l-38 384h-610zM1106 1471l-331 -713l418 -2l-65 715h-22zM1021 2104l332 432l487 -1l-437 -431h-382z" />
    <glyph glyph-name="Acircumflex" unicode="&#xc2;" horiz-adv-x="2048" 
d="M0 0zM448 0h-511l1019 2048h484l317 -2048h-490l-38 384h-610zM1106 1471l-331 -713l418 -2l-65 715h-22zM1064 2201l-388 -8l-2 27l476 384h277l376 -386l1 -26l-354 8l-161 183z" />
    <glyph glyph-name="Atilde" unicode="&#xc3;" horiz-adv-x="2048" 
d="M0 0zM448 0h-511l1019 2048h484l317 -2048h-490l-38 384h-610zM1106 1471l-331 -713l418 -2l-65 715h-22zM1555 2544l241 -14q-3 -93 -42 -181t-111.5 -145t-175.5 -55q-67 1 -124.5 31.5t-114 60.5t-121.5 30q-58 -1 -88 -38.5t-41 -88.5l-246 10q2 92 42 180.5t113 146
t175 55.5q66 -1 123.5 -31t114.5 -59t122 -29q58 1 89.5 38t43.5 89z" />
    <glyph glyph-name="Adieresis" unicode="&#xc4;" horiz-adv-x="2048" 
d="M0 0zM448 0h-511l1019 2048h484l317 -2048h-490l-38 384h-610zM1106 1471l-331 -713l418 -2l-65 715h-22zM731 2310q-3 82 52 136t135 55q77 1 132.5 -50.5t58.5 -128.5q4 -79 -50.5 -132.5t-131.5 -54.5q-76 -1 -134 48t-62 127zM1410 2310q-3 82 52 136t135 55
q77 1 132.5 -50.5t58.5 -128.5q4 -79 -50.5 -132.5t-131.5 -54.5q-76 -1 -134 48t-62 127z" />
    <glyph glyph-name="Aring" unicode="&#xc5;" horiz-adv-x="2048" 
d="M0 0zM448 0h-511l1019 2048h484l317 -2048h-490l-38 384h-610zM1106 1471l-331 -713l418 -2l-65 715h-22zM983 2368q-1 85 43.5 150.5t116 102.5t153.5 36q114 -2 199 -78.5t86 -194.5q0 -85 -44.5 -148.5t-116 -98.5t-152.5 -34q-113 2 -199 74t-86 191zM1143 2368
q-9 -54 18 -95t85 -42q65 -1 114 44.5t60 108.5q9 54 -18 95t-85 42q-65 1 -114 -44.5t-60 -108.5z" />
    <glyph glyph-name="AE" unicode="&#xc6;" horiz-adv-x="2710" 
d="M2443 364l-63 -364h-1198l56 383l-568 1l-239 -384h-525l1356 2048h1391l-63 -364h-751l-70 -479l630 -1l-63 -360h-610l-71 -479zM889 758l395 -2l107 781z" />
    <glyph glyph-name="Ccedilla" unicode="&#xc7;" horiz-adv-x="1876" 
d="M125 0zM1246 696l436 -62q-32 -211 -162 -360t-317 -226.5t-389 -75.5q-223 2 -364.5 95t-215.5 246t-91.5 338t7.5 372q26 195 98.5 383.5t193.5 341t290.5 242t389.5 87.5q321 -4 497.5 -187t215.5 -489l-445 -64q-10 88 -32 166.5t-75.5 129t-158.5 54.5
q-132 6 -224.5 -56.5t-152 -165t-92.5 -220t-48 -223.5q-12 -85 -19.5 -196.5t9.5 -217.5t77.5 -176.5t185.5 -73.5q155 -4 254.5 96t131.5 242zM672 16l331 2l-32 -96q84 -15 126 -78.5t41 -144.5q0 -106 -50.5 -173.5t-131 -105t-173 -53.5t-176.5 -18l11 260
q55 2 98.5 27.5t55.5 83.5q10 46 -17.5 64t-69 21.5t-71.5 5.5z" />
    <glyph glyph-name="Egrave" unicode="&#xc8;" horiz-adv-x="1624" 
d="M0 0zM1376 384l-67 -384h-1330l355 2048h1330l-67 -384h-876l-84 -447l747 -1l-67 -384h-740l-84 -447zM1032 2536l206 -431l-334 -1l-316 430z" />
    <glyph glyph-name="Eacute" unicode="&#xc9;" horiz-adv-x="1624" 
d="M0 0zM1376 384l-67 -384h-1330l355 2048h1330l-67 -384h-876l-84 -447l747 -1l-67 -384h-740l-84 -447zM829 2104l332 432l487 -1l-437 -431h-382z" />
    <glyph glyph-name="Ecircumflex" unicode="&#xca;" horiz-adv-x="1624" 
d="M0 0zM1376 384l-67 -384h-1330l355 2048h1330l-67 -384h-876l-84 -447l747 -1l-67 -384h-740l-84 -447zM872 2201l-388 -8l-2 27l476 384h277l376 -386l1 -26l-354 8l-161 183z" />
    <glyph glyph-name="Edieresis" unicode="&#xcb;" horiz-adv-x="1624" 
d="M0 0zM1376 384l-67 -384h-1330l355 2048h1330l-67 -384h-876l-84 -447l747 -1l-67 -384h-740l-84 -447zM539 2310q-3 82 52 136t135 55q77 1 132.5 -50.5t58.5 -128.5q4 -79 -50.5 -132.5t-131.5 -54.5q-76 -1 -134 48t-62 127zM1218 2310q-3 82 52 136t135 55
q77 1 132.5 -50.5t58.5 -128.5q4 -79 -50.5 -132.5t-131.5 -54.5q-76 -1 -134 48t-62 127z" />
    <glyph glyph-name="Igrave" unicode="&#xcc;" horiz-adv-x="720" 
d="M0 0zM787 2048l-355 -2048h-453l355 2048h453zM560 2536l206 -431l-334 -1l-316 430z" />
    <glyph glyph-name="Iacute" unicode="&#xcd;" horiz-adv-x="720" 
d="M0 0zM787 2048l-355 -2048h-453l355 2048h453zM357 2104l332 432l487 -1l-437 -431h-382z" />
    <glyph glyph-name="Icircumflex" unicode="&#xce;" horiz-adv-x="720" 
d="M0 0zM787 2048l-355 -2048h-453l355 2048h453zM400 2201l-388 -8l-2 27l476 384h277l376 -386l1 -26l-354 8l-161 183z" />
    <glyph glyph-name="Idieresis" unicode="&#xcf;" horiz-adv-x="720" 
d="M0 0zM787 2048l-355 -2048h-453l355 2048h453zM67 2310q-3 82 52 136t135 55q77 1 132.5 -50.5t58.5 -128.5q4 -79 -50.5 -132.5t-131.5 -54.5q-76 -1 -134 48t-62 127zM746 2310q-3 82 52 136t135 55q77 1 132.5 -50.5t58.5 -128.5q4 -79 -50.5 -132.5t-131.5 -54.5
q-76 -1 -134 48t-62 127z" />
    <glyph glyph-name="Eth" unicode="&#xd0;" horiz-adv-x="1890" 
d="M707 0h-698l152 876h-81l46 264h81l157 908h648q206 -3 360.5 -87t253 -225t137 -318.5t14.5 -368.5q-28 -214 -113 -404t-222 -335.5t-322.5 -228t-412.5 -81.5zM1092 1140l-47 -264h-434l-84 -475l180 -2q194 -1 320 89.5t195.5 240t94.5 324.5q14 101 7 204.5
t-44 190.5t-112.5 141.5t-198.5 57.5l-221 1l-90 -508h434z" />
    <glyph glyph-name="Ntilde" unicode="&#xd1;" horiz-adv-x="1920" 
d="M0 0zM1951 2048l-355 -2048h-432l-487 1261l-18 2l-227 -1263h-453l355 2048h436l483 -1261l18 -2l227 1263h453zM1563 2544l241 -14q-3 -93 -42 -181t-111.5 -145t-175.5 -55q-67 1 -124.5 31.5t-114 60.5t-121.5 30q-58 -1 -88 -38.5t-41 -88.5l-246 10q2 92 42 180.5
t113 146t175 55.5q66 -1 123.5 -31t114.5 -59t122 -29q58 1 89.5 38t43.5 89z" />
    <glyph glyph-name="Ograve" unicode="&#xd2;" horiz-adv-x="1976" 
d="M125 0zM1835 1025q-26 -197 -102 -386t-201 -340.5t-298 -240.5t-393 -86q-217 3 -362 94.5t-225.5 243t-104.5 335t1 370.5q26 198 102.5 388.5t202 343.5t299.5 242.5t395 86.5q218 -3 362 -96.5t223.5 -246.5t102.5 -337.5t-2 -370.5zM1375 1006q12 84 18 192.5
t-12 211t-78.5 170.5t-181.5 72q-132 5 -224 -56t-151.5 -161.5t-93.5 -217.5t-48 -223q-12 -85 -18.5 -194t12.5 -210.5t80 -170t183 -72.5q130 -4 221 58t151 163.5t93.5 217.5t48.5 220zM1188 2536l206 -431l-334 -1l-316 430z" />
    <glyph glyph-name="Oacute" unicode="&#xd3;" horiz-adv-x="1976" 
d="M125 0zM1835 1025q-26 -197 -102 -386t-201 -340.5t-298 -240.5t-393 -86q-217 3 -362 94.5t-225.5 243t-104.5 335t1 370.5q26 198 102.5 388.5t202 343.5t299.5 242.5t395 86.5q218 -3 362 -96.5t223.5 -246.5t102.5 -337.5t-2 -370.5zM1375 1006q12 84 18 192.5
t-12 211t-78.5 170.5t-181.5 72q-132 5 -224 -56t-151.5 -161.5t-93.5 -217.5t-48 -223q-12 -85 -18.5 -194t12.5 -210.5t80 -170t183 -72.5q130 -4 221 58t151 163.5t93.5 217.5t48.5 220zM985 2104l332 432l487 -1l-437 -431h-382z" />
    <glyph glyph-name="Ocircumflex" unicode="&#xd4;" horiz-adv-x="1976" 
d="M125 0zM1835 1025q-26 -197 -102 -386t-201 -340.5t-298 -240.5t-393 -86q-217 3 -362 94.5t-225.5 243t-104.5 335t1 370.5q26 198 102.5 388.5t202 343.5t299.5 242.5t395 86.5q218 -3 362 -96.5t223.5 -246.5t102.5 -337.5t-2 -370.5zM1375 1006q12 84 18 192.5
t-12 211t-78.5 170.5t-181.5 72q-132 5 -224 -56t-151.5 -161.5t-93.5 -217.5t-48 -223q-12 -85 -18.5 -194t12.5 -210.5t80 -170t183 -72.5q130 -4 221 58t151 163.5t93.5 217.5t48.5 220zM1028 2201l-388 -8l-2 27l476 384h277l376 -386l1 -26l-354 8l-161 183z" />
    <glyph glyph-name="Otilde" unicode="&#xd5;" horiz-adv-x="1976" 
d="M125 0zM1835 1025q-26 -197 -102 -386t-201 -340.5t-298 -240.5t-393 -86q-217 3 -362 94.5t-225.5 243t-104.5 335t1 370.5q26 198 102.5 388.5t202 343.5t299.5 242.5t395 86.5q218 -3 362 -96.5t223.5 -246.5t102.5 -337.5t-2 -370.5zM1375 1006q12 84 18 192.5
t-12 211t-78.5 170.5t-181.5 72q-132 5 -224 -56t-151.5 -161.5t-93.5 -217.5t-48 -223q-12 -85 -18.5 -194t12.5 -210.5t80 -170t183 -72.5q130 -4 221 58t151 163.5t93.5 217.5t48.5 220zM1519 2544l241 -14q-3 -93 -42 -181t-111.5 -145t-175.5 -55q-67 1 -124.5 31.5
t-114 60.5t-121.5 30q-58 -1 -88 -38.5t-41 -88.5l-246 10q2 92 42 180.5t113 146t175 55.5q66 -1 123.5 -31t114.5 -59t122 -29q58 1 89.5 38t43.5 89z" />
    <glyph glyph-name="Odieresis" unicode="&#xd6;" horiz-adv-x="1976" 
d="M125 0zM1835 1025q-26 -197 -102 -386t-201 -340.5t-298 -240.5t-393 -86q-217 3 -362 94.5t-225.5 243t-104.5 335t1 370.5q26 198 102.5 388.5t202 343.5t299.5 242.5t395 86.5q218 -3 362 -96.5t223.5 -246.5t102.5 -337.5t-2 -370.5zM1375 1006q12 84 18 192.5
t-12 211t-78.5 170.5t-181.5 72q-132 5 -224 -56t-151.5 -161.5t-93.5 -217.5t-48 -223q-12 -85 -18.5 -194t12.5 -210.5t80 -170t183 -72.5q130 -4 221 58t151 163.5t93.5 217.5t48.5 220zM695 2310q-3 82 52 136t135 55q77 1 132.5 -50.5t58.5 -128.5q4 -79 -50.5 -132.5
t-131.5 -54.5q-76 -1 -134 48t-62 127zM1374 2310q-3 82 52 136t135 55q77 1 132.5 -50.5t58.5 -128.5q4 -79 -50.5 -132.5t-131.5 -54.5q-76 -1 -134 48t-62 127z" />
    <glyph glyph-name="multiply" unicode="&#xd7;" horiz-adv-x="1536" 
d="M270 271l-220 271l477 418l-334 422l276 234l323 -414l467 414l224 -269l-480 -417l335 -423l-277 -235l-323 414z" />
    <glyph glyph-name="Oslash" unicode="&#xd8;" horiz-adv-x="1976" 
d="M1833 1025q-26 -198 -102 -387t-200 -340t-297 -240t-394 -87q-95 1 -187 22.5t-176 65.5l-113 -147l-300 1l230 289q-111 193 -141.5 392t-0.5 420q27 199 102.5 389.5t200.5 343t298.5 242t395.5 87.5q110 -1 216 -29.5t196 -91.5l139 177l295 -1l-264 -337
q82 -189 106 -376t-4 -393zM606 996q-15 -98 -24.5 -197t-6.5 -199l731 983q-33 39 -83.5 54t-100.5 17q-133 3 -224.5 -58t-150 -161t-92 -216t-49.5 -223zM1373 1005q13 84 23 169t15 170l-707 -954q33 -24 74.5 -33t82.5 -10q131 -3 221.5 59t149 162.5t92 216
t49.5 220.5z" />
    <glyph glyph-name="Ugrave" unicode="&#xd9;" horiz-adv-x="1920" 
d="M74 0zM1499 2048h453l-233 -1351q-35 -235 -162 -398.5t-319.5 -247.5t-424.5 -82q-216 2 -387.5 88.5t-261.5 248t-61 390.5l232 1352h453l-233 -1353q-20 -146 60 -232.5t225 -90.5q153 -5 275 82t151 242zM1160 2536l206 -431l-334 -1l-316 430z" />
    <glyph glyph-name="Uacute" unicode="&#xda;" horiz-adv-x="1920" 
d="M74 0zM1499 2048h453l-233 -1351q-35 -235 -162 -398.5t-319.5 -247.5t-424.5 -82q-216 2 -387.5 88.5t-261.5 248t-61 390.5l232 1352h453l-233 -1353q-20 -146 60 -232.5t225 -90.5q153 -5 275 82t151 242zM957 2104l332 432l487 -1l-437 -431h-382z" />
    <glyph glyph-name="Ucircumflex" unicode="&#xdb;" horiz-adv-x="1920" 
d="M74 0zM1499 2048h453l-233 -1351q-35 -235 -162 -398.5t-319.5 -247.5t-424.5 -82q-216 2 -387.5 88.5t-261.5 248t-61 390.5l232 1352h453l-233 -1353q-20 -146 60 -232.5t225 -90.5q153 -5 275 82t151 242zM1000 2201l-388 -8l-2 27l476 384h277l376 -386l1 -26l-354 8
l-161 183z" />
    <glyph glyph-name="Udieresis" unicode="&#xdc;" horiz-adv-x="1920" 
d="M74 0zM1499 2048h453l-233 -1351q-35 -235 -162 -398.5t-319.5 -247.5t-424.5 -82q-216 2 -387.5 88.5t-261.5 248t-61 390.5l232 1352h453l-233 -1353q-20 -146 60 -232.5t225 -90.5q153 -5 275 82t151 242zM667 2310q-3 82 52 136t135 55q77 1 132.5 -50.5t58.5 -128.5
q4 -79 -50.5 -132.5t-131.5 -54.5q-76 -1 -134 48t-62 127zM1346 2310q-3 82 52 136t135 55q77 1 132.5 -50.5t58.5 -128.5q4 -79 -50.5 -132.5t-131.5 -54.5q-76 -1 -134 48t-62 127z" />
    <glyph glyph-name="Yacute" unicode="&#xdd;" horiz-adv-x="2048" 
d="M299 0zM776 2048l266 -869l569 869h511l-917 -1306l-129 -742h-453l140 786l-464 1261zM1021 2104l332 432l487 -1l-437 -431h-382z" />
    <glyph glyph-name="Thorn" unicode="&#xde;" horiz-adv-x="1792" 
d="M334 2048h454l-69 -367l234 -2q188 -2 343.5 -73.5t242.5 -209.5t68 -341q-21 -216 -141.5 -358t-301 -212t-380.5 -70l-280 1l-72 -416h-453zM941 1323l-279 1l-100 -551l234 -3q136 1 244.5 71t132.5 212q21 125 -44 195.5t-188 74.5z" />
    <glyph glyph-name="germandbls" unicode="&#xdf;" horiz-adv-x="1768" 
d="M670 1504l-257 -1504h-434l260 1512q44 305 246.5 473t511.5 163q151 -3 272 -65.5t187.5 -177.5t54.5 -273q-7 -98 -51 -174.5t-92 -151t-67 -166.5q-15 -75 24.5 -148.5t98 -148.5t103 -155.5t39.5 -170.5q-12 -188 -111.5 -309.5t-252.5 -180t-327 -56.5
q-92 1 -187 17t-180 54l113 351q59 -35 131 -49t141 -14q87 1 157.5 46.5t89.5 135.5q16 80 -24.5 150t-100.5 139t-106 145t-40 169q6 98 50.5 175.5t92 153.5t61.5 170q12 75 -27.5 126t-116.5 55q-86 4 -139 -38.5t-81 -111t-39 -141.5z" />
    <glyph glyph-name="agrave" unicode="&#xe0;" horiz-adv-x="1528" 
d="M7 0zM798 0l25 135h-5q-65 -88 -160.5 -126.5t-203.5 -37.5q-129 2 -231.5 56.5t-159 153t-48.5 232.5q9 148 75 250t171.5 164t232.5 90t257 28h174l14 85q11 82 -18.5 133t-119.5 54q-86 3 -142 -40.5t-90 -118.5l-421 58q39 152 149 250.5t255.5 145t292.5 44.5
q157 -2 288 -64t203 -179.5t54 -288.5l-174 -1024h-418zM883 659l-129 3q-107 0 -194.5 -57.5t-104.5 -169.5q-10 -61 24 -96t94 -37q87 -3 170 49.5t103 140.5zM891 2112l206 -431l-334 -1l-316 430z" />
    <glyph glyph-name="aacute" unicode="&#xe1;" horiz-adv-x="1528" 
d="M7 0zM798 0l25 135h-5q-65 -88 -160.5 -126.5t-203.5 -37.5q-129 2 -231.5 56.5t-159 153t-48.5 232.5q9 148 75 250t171.5 164t232.5 90t257 28h174l14 85q11 82 -18.5 133t-119.5 54q-86 3 -142 -40.5t-90 -118.5l-421 58q39 152 149 250.5t255.5 145t292.5 44.5
q157 -2 288 -64t203 -179.5t54 -288.5l-174 -1024h-418zM883 659l-129 3q-107 0 -194.5 -57.5t-104.5 -169.5q-10 -61 24 -96t94 -37q87 -3 170 49.5t103 140.5zM688 1680l332 432l487 -1l-437 -431h-382z" />
    <glyph glyph-name="acircumflex" unicode="&#xe2;" horiz-adv-x="1528" 
d="M7 0zM798 0l25 135h-5q-65 -88 -160.5 -126.5t-203.5 -37.5q-129 2 -231.5 56.5t-159 153t-48.5 232.5q9 148 75 250t171.5 164t232.5 90t257 28h174l14 85q11 82 -18.5 133t-119.5 54q-86 3 -142 -40.5t-90 -118.5l-421 58q39 152 149 250.5t255.5 145t292.5 44.5
q157 -2 288 -64t203 -179.5t54 -288.5l-174 -1024h-418zM883 659l-129 3q-107 0 -194.5 -57.5t-104.5 -169.5q-10 -61 24 -96t94 -37q87 -3 170 49.5t103 140.5zM731 1777l-388 -8l-2 27l476 384h277l376 -386l1 -26l-354 8l-161 183z" />
    <glyph glyph-name="atilde" unicode="&#xe3;" horiz-adv-x="1528" 
d="M7 0zM798 0l25 135h-5q-65 -88 -160.5 -126.5t-203.5 -37.5q-129 2 -231.5 56.5t-159 153t-48.5 232.5q9 148 75 250t171.5 164t232.5 90t257 28h174l14 85q11 82 -18.5 133t-119.5 54q-86 3 -142 -40.5t-90 -118.5l-421 58q39 152 149 250.5t255.5 145t292.5 44.5
q157 -2 288 -64t203 -179.5t54 -288.5l-174 -1024h-418zM883 659l-129 3q-107 0 -194.5 -57.5t-104.5 -169.5q-10 -61 24 -96t94 -37q87 -3 170 49.5t103 140.5zM1222 2120l241 -14q-3 -93 -42 -181t-111.5 -145t-175.5 -55q-67 1 -124.5 31.5t-114 60.5t-121.5 30
q-58 -1 -88 -38.5t-41 -88.5l-246 10q2 92 42 180.5t113 146t175 55.5q66 -1 123.5 -31t114.5 -59t122 -29q58 1 89.5 38t43.5 89z" />
    <glyph glyph-name="adieresis" unicode="&#xe4;" horiz-adv-x="1528" 
d="M7 0zM798 0l25 135h-5q-65 -88 -160.5 -126.5t-203.5 -37.5q-129 2 -231.5 56.5t-159 153t-48.5 232.5q9 148 75 250t171.5 164t232.5 90t257 28h174l14 85q11 82 -18.5 133t-119.5 54q-86 3 -142 -40.5t-90 -118.5l-421 58q39 152 149 250.5t255.5 145t292.5 44.5
q157 -2 288 -64t203 -179.5t54 -288.5l-174 -1024h-418zM883 659l-129 3q-107 0 -194.5 -57.5t-104.5 -169.5q-10 -61 24 -96t94 -37q87 -3 170 49.5t103 140.5zM398 1886q-3 82 52 136t135 55q77 1 132.5 -50.5t58.5 -128.5q4 -79 -50.5 -132.5t-131.5 -54.5
q-76 -1 -134 48t-62 127zM1077 1886q-3 82 52 136t135 55q77 1 132.5 -50.5t58.5 -128.5q4 -79 -50.5 -132.5t-131.5 -54.5q-76 -1 -134 48t-62 127z" />
    <glyph glyph-name="aring" unicode="&#xe5;" horiz-adv-x="1528" 
d="M7 0zM798 0l25 135h-5q-65 -88 -160.5 -126.5t-203.5 -37.5q-129 2 -231.5 56.5t-159 153t-48.5 232.5q9 148 75 250t171.5 164t232.5 90t257 28h174l14 85q11 82 -18.5 133t-119.5 54q-86 3 -142 -40.5t-90 -118.5l-421 58q39 152 149 250.5t255.5 145t292.5 44.5
q157 -2 288 -64t203 -179.5t54 -288.5l-174 -1024h-418zM883 659l-129 3q-107 0 -194.5 -57.5t-104.5 -169.5q-10 -61 24 -96t94 -37q87 -3 170 49.5t103 140.5zM650 1944q-1 85 43.5 150.5t116 102.5t153.5 36q114 -2 199 -78.5t86 -194.5q0 -85 -44.5 -148.5t-116 -98.5
t-152.5 -34q-113 2 -199 74t-86 191zM810 1944q-9 -54 18 -95t85 -42q65 -1 114 44.5t60 108.5q9 54 -18 95t-85 42q-65 1 -114 -44.5t-60 -108.5z" />
    <glyph glyph-name="ae" unicode="&#xe6;" horiz-adv-x="2420" 
d="M1547 -28q-137 1 -274.5 51t-223.5 163q-123 -100 -267.5 -158.5t-305.5 -55.5q-125 2 -231.5 56.5t-168 153t-53.5 230.5q9 151 74.5 253t170 163.5t231.5 89t260 27.5h174l14 84q11 83 -19 133.5t-119 54.5q-86 3 -142 -40.5t-90 -118.5l-421 57q40 153 149.5 251.5
t255 145t292.5 44.5q111 -1 225.5 -31t197.5 -110q205 144 445 140q212 -3 342 -109t181 -275.5t25 -362.5l-31 -192l-898 2q-5 -123 61 -198.5t191 -79.5q98 -3 173 41t139 114l233 -253q-56 -97 -155.5 -157t-215 -87.5t-219.5 -25.5zM1694 1193q-87 4 -148 -38.5
t-103 -109.5t-72 -136l490 1q15 66 4.5 129.5t-52 106.5t-119.5 47zM891 659l-130 3q-106 0 -193.5 -57.5t-105.5 -169.5q-10 -62 24 -96.5t94 -36.5q87 -3 170 49.5t104 140.5z" />
    <glyph glyph-name="ccedilla" unicode="&#xe7;" horiz-adv-x="1526" 
d="M44 0zM1450 1021l-402 -76q-18 93 -60 167.5t-152 78.5q-116 5 -187.5 -64.5t-108 -172t-47.5 -196.5q-7 -59 -8.5 -130.5t14.5 -136.5t59.5 -108t124.5 -45q101 -2 172 57t99 152l397 -70q-26 -166 -128 -279t-248.5 -171t-304.5 -55q-223 3 -364.5 113.5t-201.5 288.5
t-38 384q23 215 125 398t273.5 293.5t400.5 106.5q250 -4 400.5 -149t184.5 -386zM490 16l331 2l-32 -96q84 -15 126 -78.5t41 -144.5q0 -106 -50.5 -173.5t-131 -105t-173 -53.5t-176.5 -18l11 260q55 2 98.5 27.5t55.5 83.5q10 46 -17.5 64t-69 21.5t-71.5 5.5z" />
    <glyph glyph-name="egrave" unicode="&#xe8;" horiz-adv-x="1536" 
d="M43 0zM702 -28q-217 2 -367.5 107t-221 278t-48.5 381q17 161 77 309t160 264t239 182t314 64q212 -3 343.5 -109.5t185 -276t29.5 -363.5l-28 -192l-899 1q-2 -123 66 -198.5t193 -78.5q98 -3 172 41t136 115l237 -254q-57 -96 -155.5 -156t-213 -88t-219.5 -26z
M829 1192q-86 4 -145.5 -38.5t-100.5 -109t-69 -135.5l490 1q20 100 -19 189t-156 93zM899 2112l206 -431l-334 -1l-316 430z" />
    <glyph glyph-name="eacute" unicode="&#xe9;" horiz-adv-x="1536" 
d="M43 0zM702 -28q-217 2 -367.5 107t-221 278t-48.5 381q17 161 77 309t160 264t239 182t314 64q212 -3 343.5 -109.5t185 -276t29.5 -363.5l-28 -192l-899 1q-2 -123 66 -198.5t193 -78.5q98 -3 172 41t136 115l237 -254q-57 -96 -155.5 -156t-213 -88t-219.5 -26z
M829 1192q-86 4 -145.5 -38.5t-100.5 -109t-69 -135.5l490 1q20 100 -19 189t-156 93zM696 1680l332 432l487 -1l-437 -431h-382z" />
    <glyph glyph-name="ecircumflex" unicode="&#xea;" horiz-adv-x="1536" 
d="M43 0zM702 -28q-217 2 -367.5 107t-221 278t-48.5 381q17 161 77 309t160 264t239 182t314 64q212 -3 343.5 -109.5t185 -276t29.5 -363.5l-28 -192l-899 1q-2 -123 66 -198.5t193 -78.5q98 -3 172 41t136 115l237 -254q-57 -96 -155.5 -156t-213 -88t-219.5 -26z
M829 1192q-86 4 -145.5 -38.5t-100.5 -109t-69 -135.5l490 1q20 100 -19 189t-156 93zM739 1777l-388 -8l-2 27l476 384h277l376 -386l1 -26l-354 8l-161 183z" />
    <glyph glyph-name="edieresis" unicode="&#xeb;" horiz-adv-x="1536" 
d="M43 0zM702 -28q-217 2 -367.5 107t-221 278t-48.5 381q17 161 77 309t160 264t239 182t314 64q212 -3 343.5 -109.5t185 -276t29.5 -363.5l-28 -192l-899 1q-2 -123 66 -198.5t193 -78.5q98 -3 172 41t136 115l237 -254q-57 -96 -155.5 -156t-213 -88t-219.5 -26z
M829 1192q-86 4 -145.5 -38.5t-100.5 -109t-69 -135.5l490 1q20 100 -19 189t-156 93zM406 1886q-3 82 52 136t135 55q77 1 132.5 -50.5t58.5 -128.5q4 -79 -50.5 -132.5t-131.5 -54.5q-76 -1 -134 48t-62 127zM1085 1886q-3 82 52 136t135 55q77 1 132.5 -50.5t58.5 -128.5
q4 -79 -50.5 -132.5t-131.5 -54.5q-76 -1 -134 48t-62 127z" />
    <glyph glyph-name="igrave" unicode="&#xec;" horiz-adv-x="748" 
d="M0 0zM710 1536l-266 -1536h-449l266 1536h449zM486 2080l206 -431l-334 -1l-316 430z" />
    <glyph glyph-name="iacute" unicode="&#xed;" horiz-adv-x="748" 
d="M0 0zM710 1536l-266 -1536h-449l266 1536h449zM283 1648l332 432l487 -1l-437 -431h-382z" />
    <glyph glyph-name="icircumflex" unicode="&#xee;" horiz-adv-x="748" 
d="M0 0zM710 1536l-266 -1536h-449l266 1536h449zM326 1745l-388 -8l-2 27l476 384h277l376 -386l1 -26l-354 8l-161 183z" />
    <glyph glyph-name="idieresis" unicode="&#xef;" horiz-adv-x="748" 
d="M0 0zM710 1536l-266 -1536h-449l266 1536h449zM-7 1854q-3 82 52 136t135 55q77 1 132.5 -50.5t58.5 -128.5q4 -79 -50.5 -132.5t-131.5 -54.5q-76 -1 -134 48t-62 127zM672 1854q-3 82 52 136t135 55q77 1 132.5 -50.5t58.5 -128.5q4 -79 -50.5 -132.5t-131.5 -54.5
q-76 -1 -134 48t-62 127z" />
    <glyph glyph-name="eth" unicode="&#xf0;" horiz-adv-x="1792" 
d="M562 1837l168 336q137 -34 269.5 -92.5t240.5 -151.5l250 141l94 -175l-196 -102q125 -211 176.5 -426.5t16.5 -462.5l-13 -88q-24 -160 -90.5 -312t-173.5 -273t-250.5 -191.5t-320.5 -67.5q-187 2 -327.5 90.5t-212.5 238t-53 335.5q20 191 107 348t235.5 248.5
t351.5 88.5q164 -3 312 -93q0 96 -34 180t-88 162l-273 -157l-92 181l205 109q-63 53 -143.5 83.5t-158.5 50.5zM573 636q-9 -71 4 -140t57.5 -115.5t128.5 -50.5q115 -4 189 64.5t115.5 170t58.5 195.5l29 142q-39 54 -108.5 72.5t-131.5 19.5q-105 2 -176.5 -48.5
t-112 -133t-53.5 -176.5z" />
    <glyph glyph-name="ntilde" unicode="&#xf1;" horiz-adv-x="1624" 
d="M0 0zM567 816l-139 -816h-449l266 1536l415 1l-41 -168l7 1q168 191 424 186q167 -3 265.5 -89.5t135.5 -221.5t20 -285l-162 -960h-449l161 946q12 89 -19.5 166t-136.5 81q-102 5 -162.5 -56t-91.5 -150t-44 -171zM1226 2120l241 -14q-3 -93 -42 -181t-111.5 -145
t-175.5 -55q-67 1 -124.5 31.5t-114 60.5t-121.5 30q-58 -1 -88 -38.5t-41 -88.5l-246 10q2 92 42 180.5t113 146t175 55.5q66 -1 123.5 -31t114.5 -59t122 -29q58 1 89.5 38t43.5 89z" />
    <glyph glyph-name="ograve" unicode="&#xf2;" horiz-adv-x="1544" 
d="M47 0zM644 -24q-223 3 -357 116t-187 291.5t-33 378.5q15 153 75 296.5t159.5 256.5t235 178.5t301.5 62.5q161 -2 276 -69.5t185.5 -179.5t98 -250.5t12.5 -281.5q-20 -212 -115 -395t-259 -295t-392 -109zM660 339q87 -3 146.5 38t97 108t58 144t27.5 146q6 54 8 124
t-11.5 136t-53 110.5t-115.5 47.5q-85 4 -143.5 -37t-94.5 -108t-55.5 -143t-26.5 -144q-6 -53 -9.5 -123.5t8.5 -137.5t50 -112t114 -49zM883 2112l206 -431l-334 -1l-316 430z" />
    <glyph glyph-name="oacute" unicode="&#xf3;" horiz-adv-x="1544" 
d="M47 0zM644 -24q-223 3 -357 116t-187 291.5t-33 378.5q15 153 75 296.5t159.5 256.5t235 178.5t301.5 62.5q161 -2 276 -69.5t185.5 -179.5t98 -250.5t12.5 -281.5q-20 -212 -115 -395t-259 -295t-392 -109zM660 339q87 -3 146.5 38t97 108t58 144t27.5 146q6 54 8 124
t-11.5 136t-53 110.5t-115.5 47.5q-85 4 -143.5 -37t-94.5 -108t-55.5 -143t-26.5 -144q-6 -53 -9.5 -123.5t8.5 -137.5t50 -112t114 -49zM680 1680l332 432l487 -1l-437 -431h-382z" />
    <glyph glyph-name="ocircumflex" unicode="&#xf4;" horiz-adv-x="1544" 
d="M47 0zM644 -24q-223 3 -357 116t-187 291.5t-33 378.5q15 153 75 296.5t159.5 256.5t235 178.5t301.5 62.5q161 -2 276 -69.5t185.5 -179.5t98 -250.5t12.5 -281.5q-20 -212 -115 -395t-259 -295t-392 -109zM660 339q87 -3 146.5 38t97 108t58 144t27.5 146q6 54 8 124
t-11.5 136t-53 110.5t-115.5 47.5q-85 4 -143.5 -37t-94.5 -108t-55.5 -143t-26.5 -144q-6 -53 -9.5 -123.5t8.5 -137.5t50 -112t114 -49zM723 1777l-388 -8l-2 27l476 384h277l376 -386l1 -26l-354 8l-161 183z" />
    <glyph glyph-name="otilde" unicode="&#xf5;" horiz-adv-x="1544" 
d="M47 0zM644 -24q-223 3 -357 116t-187 291.5t-33 378.5q15 153 75 296.5t159.5 256.5t235 178.5t301.5 62.5q161 -2 276 -69.5t185.5 -179.5t98 -250.5t12.5 -281.5q-20 -212 -115 -395t-259 -295t-392 -109zM660 339q87 -3 146.5 38t97 108t58 144t27.5 146q6 54 8 124
t-11.5 136t-53 110.5t-115.5 47.5q-85 4 -143.5 -37t-94.5 -108t-55.5 -143t-26.5 -144q-6 -53 -9.5 -123.5t8.5 -137.5t50 -112t114 -49zM1213 2120l241 -14q-3 -93 -42 -181t-111.5 -145t-175.5 -55q-67 1 -124.5 31.5t-114 60.5t-121.5 30q-58 -1 -88 -38.5t-41 -88.5
l-246 10q2 92 42 180.5t113 146t175 55.5q66 -1 123.5 -31t114.5 -59t122 -29q58 1 89.5 38t43.5 89z" />
    <glyph glyph-name="odieresis" unicode="&#xf6;" horiz-adv-x="1544" 
d="M47 0zM644 -24q-223 3 -357 116t-187 291.5t-33 378.5q15 153 75 296.5t159.5 256.5t235 178.5t301.5 62.5q161 -2 276 -69.5t185.5 -179.5t98 -250.5t12.5 -281.5q-20 -212 -115 -395t-259 -295t-392 -109zM660 339q87 -3 146.5 38t97 108t58 144t27.5 146q6 54 8 124
t-11.5 136t-53 110.5t-115.5 47.5q-85 4 -143.5 -37t-94.5 -108t-55.5 -143t-26.5 -144q-6 -53 -9.5 -123.5t8.5 -137.5t50 -112t114 -49zM390 1886q-3 82 52 136t135 55q77 1 132.5 -50.5t58.5 -128.5q4 -79 -50.5 -132.5t-131.5 -54.5q-76 -1 -134 48t-62 127zM1069 1886
q-3 82 52 136t135 55q77 1 132.5 -50.5t58.5 -128.5q4 -79 -50.5 -132.5t-131.5 -54.5q-76 -1 -134 48t-62 127z" />
    <glyph glyph-name="divide" unicode="&#xf7;" horiz-adv-x="1792" 
d="M743 1485q-2 105 70.5 170.5t174.5 65.5q97 -1 166 -61.5t71 -159.5q3 -106 -69.5 -170t-174.5 -63q-96 0 -165.5 59.5t-72.5 158.5zM1614 1112l-58 -336h-1388l58 336h1388zM551 373q-3 105 69.5 170.5t174.5 65.5q97 -1 166 -61.5t72 -159.5q2 -106 -70.5 -170
t-174.5 -63q-96 0 -165.5 59.5t-71.5 158.5z" />
    <glyph glyph-name="oslash" unicode="&#xf8;" horiz-adv-x="1544" 
d="M632 -25q-126 1 -241 44l-128 -187l-254 1l204 290q-105 144 -135 303t-10 334q18 155 79 298.5t162 257t237 178.5t304 63q120 -2 234 -47l136 198l254 -1l-214 -306q101 -142 135 -297.5t14 -328.5q-24 -212 -120 -395.5t-261.5 -295.5t-395.5 -109zM496 763
q-10 -57 -17.5 -114t-10.5 -114l427 650q-29 10 -64 11q-116 3 -184 -67t-102.5 -172t-48.5 -194zM647 337q117 -4 187 66.5t106 173t51 196.5q10 57 16.5 115t7.5 116l-432 -657q28 -10 64 -10z" />
    <glyph glyph-name="ugrave" unicode="&#xf9;" horiz-adv-x="1624" 
d="M66 0zM987 720l139 816h449l-266 -1536h-414l41 167l-8 -1q-81 -92 -190 -142t-233 -47q-167 4 -266 91t-136 223t-20 285l162 960h449l-161 -945q-11 -89 21 -166t136 -82q102 -5 162.5 56t91 150t43.5 171zM915 2112l206 -431l-334 -1l-316 430z" />
    <glyph glyph-name="uacute" unicode="&#xfa;" horiz-adv-x="1624" 
d="M66 0zM987 720l139 816h449l-266 -1536h-414l41 167l-8 -1q-81 -92 -190 -142t-233 -47q-167 4 -266 91t-136 223t-20 285l162 960h449l-161 -945q-11 -89 21 -166t136 -82q102 -5 162.5 56t91 150t43.5 171zM712 1680l332 432l487 -1l-437 -431h-382z" />
    <glyph glyph-name="ucircumflex" unicode="&#xfb;" horiz-adv-x="1624" 
d="M66 0zM987 720l139 816h449l-266 -1536h-414l41 167l-8 -1q-81 -92 -190 -142t-233 -47q-167 4 -266 91t-136 223t-20 285l162 960h449l-161 -945q-11 -89 21 -166t136 -82q102 -5 162.5 56t91 150t43.5 171zM755 1777l-388 -8l-2 27l476 384h277l376 -386l1 -26l-354 8
l-161 183z" />
    <glyph glyph-name="udieresis" unicode="&#xfc;" horiz-adv-x="1624" 
d="M66 0zM987 720l139 816h449l-266 -1536h-414l41 167l-8 -1q-81 -92 -190 -142t-233 -47q-167 4 -266 91t-136 223t-20 285l162 960h449l-161 -945q-11 -89 21 -166t136 -82q102 -5 162.5 56t91 150t43.5 171zM422 1886q-3 82 52 136t135 55q77 1 132.5 -50.5t58.5 -128.5
q4 -79 -50.5 -132.5t-131.5 -54.5q-76 -1 -134 48t-62 127zM1101 1886q-3 82 52 136t135 55q77 1 132.5 -50.5t58.5 -128.5q4 -79 -50.5 -132.5t-131.5 -54.5q-76 -1 -134 48t-62 127z" />
    <glyph glyph-name="yacute" unicode="&#xfd;" horiz-adv-x="1536" 
d="M0 0zM396 -26l38 73l-274 1488l458 1l113 -815l374 815h478l-829 -1756q-78 -175 -229.5 -278.5t-345.5 -103.5q-51 0 -98.5 7.5t-96.5 21.5l39 354l26 -4t26 -2q114 -4 192.5 48t128.5 151zM692 1680l332 432l487 -1l-437 -431h-382z" />
    <glyph glyph-name="thorn" unicode="&#xfe;" horiz-adv-x="1620" 
d="M335 2048h449l-113 -583l3 1q72 39 135 65t149 25q156 -2 264 -73.5t171 -187.5t85 -253.5t6 -271.5q-17 -146 -75.5 -289t-154.5 -259.5t-227 -185t-294 -65.5q-74 2 -144 22.5t-129 68.5l-9 1l-122 -639h-449zM516 542q4 -87 50.5 -143t137.5 -60q118 -5 191.5 62.5
t111.5 169.5t51 199q8 57 10.5 128.5t-12 138t-56 111t-121.5 45.5q-115 3 -190.5 -73t-112.5 -175q-35 -93 -49 -181q-8 -54 -10.5 -111t-0.5 -111z" />
    <glyph glyph-name="ydieresis" unicode="&#xff;" horiz-adv-x="1536" 
d="M0 0zM396 -26l38 73l-274 1488l458 1l113 -815l374 815h478l-829 -1756q-78 -175 -229.5 -278.5t-345.5 -103.5q-51 0 -98.5 7.5t-96.5 21.5l39 354l26 -4t26 -2q114 -4 192.5 48t128.5 151zM402 1886q-3 82 52 136t135 55q77 1 132.5 -50.5t58.5 -128.5
q4 -79 -50.5 -132.5t-131.5 -54.5q-76 -1 -134 48t-62 127zM1081 1886q-3 82 52 136t135 55q77 1 132.5 -50.5t58.5 -128.5q4 -79 -50.5 -132.5t-131.5 -54.5q-76 -1 -134 48t-62 127z" />
    <glyph glyph-name="Amacron" unicode="&#x100;" horiz-adv-x="2048" 
d="M0 0zM448 0h-511l1019 2048h484l317 -2048h-490l-38 384h-610zM1106 1471l-331 -713l418 -2l-65 715h-22zM1737 2420l-38 -236h-926l37 236h927z" />
    <glyph glyph-name="amacron" unicode="&#x101;" horiz-adv-x="1528" 
d="M7 0zM798 0l25 135h-5q-65 -88 -160.5 -126.5t-203.5 -37.5q-129 2 -231.5 56.5t-159 153t-48.5 232.5q9 148 75 250t171.5 164t232.5 90t257 28h174l14 85q11 82 -18.5 133t-119.5 54q-86 3 -142 -40.5t-90 -118.5l-421 58q39 152 149 250.5t255.5 145t292.5 44.5
q157 -2 288 -64t203 -179.5t54 -288.5l-174 -1024h-418zM883 659l-129 3q-107 0 -194.5 -57.5t-104.5 -169.5q-10 -61 24 -96t94 -37q87 -3 170 49.5t103 140.5zM1404 1996l-38 -236h-926l37 236h927z" />
    <glyph glyph-name="Abreve" unicode="&#x102;" horiz-adv-x="2048" 
d="M0 0zM448 0h-511l1019 2048h484l317 -2048h-490l-38 384h-610zM1106 1471l-331 -713l418 -2l-65 715h-22zM1470 2541l298 2q-1 -141 -74.5 -237t-190.5 -144.5t-248 -45.5q-194 3 -319.5 115.5t-129.5 310.5l295 -1q-1 -79 35 -127t121 -51q86 -2 144.5 45t68.5 133z" />
    <glyph glyph-name="abreve" unicode="&#x103;" horiz-adv-x="1528" 
d="M7 0zM798 0l25 135h-5q-65 -88 -160.5 -126.5t-203.5 -37.5q-129 2 -231.5 56.5t-159 153t-48.5 232.5q9 148 75 250t171.5 164t232.5 90t257 28h174l14 85q11 82 -18.5 133t-119.5 54q-86 3 -142 -40.5t-90 -118.5l-421 58q39 152 149 250.5t255.5 145t292.5 44.5
q157 -2 288 -64t203 -179.5t54 -288.5l-174 -1024h-418zM883 659l-129 3q-107 0 -194.5 -57.5t-104.5 -169.5q-10 -61 24 -96t94 -37q87 -3 170 49.5t103 140.5zM1137 2117l298 2q-1 -141 -74.5 -237t-190.5 -144.5t-248 -45.5q-194 3 -319.5 115.5t-129.5 310.5l295 -1
q-1 -79 35 -127t121 -51q86 -2 144.5 45t68.5 133z" />
    <glyph glyph-name="Aogonek" unicode="&#x104;" horiz-adv-x="2048" 
d="M448 0h-511l1019 2048h484l317 -2048h-89l15 -6q-66 -36 -142 -87t-89 -135q-12 -76 57 -78q25 0 48.5 8t46.5 17l39 -235q-46 -30 -102 -43t-111 -12q-128 1 -214.5 76.5t-84.5 207.5q2 95 48 165.5t115 121.5h-27l-38 384h-610zM1106 1471l-331 -713l418 -2l-65 715
h-22z" />
    <glyph glyph-name="aogonek" unicode="&#x105;" horiz-adv-x="1528" 
d="M798 0l25 135h-5q-65 -88 -160.5 -126.5t-203.5 -37.5q-129 2 -231.5 56.5t-159 153t-48.5 232.5q9 148 75 250t171.5 164t232.5 90t257 28h174l14 85q11 82 -18.5 133t-119.5 54q-86 3 -142 -40.5t-90 -118.5l-421 58q39 152 149 250.5t255.5 145t292.5 44.5
q157 -2 288 -64t203 -179.5t54 -288.5l-174 -1024h-5l15 -6q-66 -36 -142 -87t-89 -135q-12 -76 57 -78q25 0 48.5 8t46.5 17l39 -235q-46 -30 -102 -43t-111 -12q-128 1 -214.5 76.5t-84.5 207.5q2 95 48 165.5t115 121.5h-39zM883 659l-129 3q-107 0 -194.5 -57.5
t-104.5 -169.5q-10 -61 24 -96t94 -37q87 -3 170 49.5t103 140.5z" />
    <glyph glyph-name="Cacute" unicode="&#x106;" horiz-adv-x="1876" 
d="M125 0zM1246 696l436 -62q-32 -211 -162 -360t-317 -226.5t-389 -75.5q-223 2 -364.5 95t-215.5 246t-91.5 338t7.5 372q26 195 98.5 383.5t193.5 341t290.5 242t389.5 87.5q321 -4 497.5 -187t215.5 -489l-445 -64q-10 88 -32 166.5t-75.5 129t-158.5 54.5
q-132 6 -224.5 -56.5t-152 -165t-92.5 -220t-48 -223.5q-12 -85 -19.5 -196.5t9.5 -217.5t77.5 -176.5t185.5 -73.5q155 -4 254.5 96t131.5 242zM1001 2104l332 432l487 -1l-437 -431h-382z" />
    <glyph glyph-name="cacute" unicode="&#x107;" horiz-adv-x="1526" 
d="M44 0zM1450 1021l-402 -76q-18 93 -60 167.5t-152 78.5q-116 5 -187.5 -64.5t-108 -172t-47.5 -196.5q-7 -59 -8.5 -130.5t14.5 -136.5t59.5 -108t124.5 -45q101 -2 172 57t99 152l397 -70q-26 -166 -128 -279t-248.5 -171t-304.5 -55q-223 3 -364.5 113.5t-201.5 288.5
t-38 384q23 215 125 398t273.5 293.5t400.5 106.5q250 -4 400.5 -149t184.5 -386zM676 1680l332 432l487 -1l-437 -431h-382z" />
    <glyph glyph-name="Ccircumflex" unicode="&#x108;" horiz-adv-x="1876" 
d="M125 0zM1246 696l436 -62q-32 -211 -162 -360t-317 -226.5t-389 -75.5q-223 2 -364.5 95t-215.5 246t-91.5 338t7.5 372q26 195 98.5 383.5t193.5 341t290.5 242t389.5 87.5q321 -4 497.5 -187t215.5 -489l-445 -64q-10 88 -32 166.5t-75.5 129t-158.5 54.5
q-132 6 -224.5 -56.5t-152 -165t-92.5 -220t-48 -223.5q-12 -85 -19.5 -196.5t9.5 -217.5t77.5 -176.5t185.5 -73.5q155 -4 254.5 96t131.5 242zM1044 2201l-388 -8l-2 27l476 384h277l376 -386l1 -26l-354 8l-161 183z" />
    <glyph glyph-name="ccircumflex" unicode="&#x109;" horiz-adv-x="1526" 
d="M44 0zM1450 1021l-402 -76q-18 93 -60 167.5t-152 78.5q-116 5 -187.5 -64.5t-108 -172t-47.5 -196.5q-7 -59 -8.5 -130.5t14.5 -136.5t59.5 -108t124.5 -45q101 -2 172 57t99 152l397 -70q-26 -166 -128 -279t-248.5 -171t-304.5 -55q-223 3 -364.5 113.5t-201.5 288.5
t-38 384q23 215 125 398t273.5 293.5t400.5 106.5q250 -4 400.5 -149t184.5 -386zM719 1777l-388 -8l-2 27l476 384h277l376 -386l1 -26l-354 8l-161 183z" />
    <glyph glyph-name="Cdotaccent" unicode="&#x10a;" horiz-adv-x="1876" 
d="M125 0zM1246 696l436 -62q-32 -211 -162 -360t-317 -226.5t-389 -75.5q-223 2 -364.5 95t-215.5 246t-91.5 338t7.5 372q26 195 98.5 383.5t193.5 341t290.5 242t389.5 87.5q321 -4 497.5 -187t215.5 -489l-445 -64q-10 88 -32 166.5t-75.5 129t-158.5 54.5
q-132 6 -224.5 -56.5t-152 -165t-92.5 -220t-48 -223.5q-12 -85 -19.5 -196.5t9.5 -217.5t77.5 -176.5t185.5 -73.5q155 -4 254.5 96t131.5 242zM1044 2345q-4 93 59 150.5t153 57.5q85 1 148.5 -52t66.5 -142q4 -93 -59 -150.5t-153 -57.5q-86 -1 -149 52t-66 142z" />
    <glyph glyph-name="cdotaccent" unicode="&#x10b;" horiz-adv-x="1526" 
d="M44 0zM1450 1021l-402 -76q-18 93 -60 167.5t-152 78.5q-116 5 -187.5 -64.5t-108 -172t-47.5 -196.5q-7 -59 -8.5 -130.5t14.5 -136.5t59.5 -108t124.5 -45q101 -2 172 57t99 152l397 -70q-26 -166 -128 -279t-248.5 -171t-304.5 -55q-223 3 -364.5 113.5t-201.5 288.5
t-38 384q23 215 125 398t273.5 293.5t400.5 106.5q250 -4 400.5 -149t184.5 -386zM718 1921q-4 93 59 150.5t153 57.5q85 1 148.5 -52t66.5 -142q4 -93 -59 -150.5t-153 -57.5q-86 -1 -149 52t-66 142z" />
    <glyph glyph-name="Ccaron" unicode="&#x10c;" horiz-adv-x="1876" 
d="M125 0zM1246 696l436 -62q-32 -211 -162 -360t-317 -226.5t-389 -75.5q-223 2 -364.5 95t-215.5 246t-91.5 338t7.5 372q26 195 98.5 383.5t193.5 341t290.5 242t389.5 87.5q321 -4 497.5 -187t215.5 -489l-445 -64q-10 88 -32 166.5t-75.5 129t-158.5 54.5
q-132 6 -224.5 -56.5t-152 -165t-92.5 -220t-48 -223.5q-12 -85 -19.5 -196.5t9.5 -217.5t77.5 -176.5t185.5 -73.5q155 -4 254.5 96t131.5 242zM1062 2536l165 -183l225 182l380 8l2 -27l-472 -384h-276l-381 386l-1 26z" />
    <glyph glyph-name="ccaron" unicode="&#x10d;" horiz-adv-x="1526" 
d="M44 0zM1450 1021l-402 -76q-18 93 -60 167.5t-152 78.5q-116 5 -187.5 -64.5t-108 -172t-47.5 -196.5q-7 -59 -8.5 -130.5t14.5 -136.5t59.5 -108t124.5 -45q101 -2 172 57t99 152l397 -70q-26 -166 -128 -279t-248.5 -171t-304.5 -55q-223 3 -364.5 113.5t-201.5 288.5
t-38 384q23 215 125 398t273.5 293.5t400.5 106.5q250 -4 400.5 -149t184.5 -386zM737 2112l165 -183l225 182l380 8l2 -27l-472 -384h-276l-381 386l-1 26z" />
    <glyph glyph-name="Dcaron" unicode="&#x10e;" horiz-adv-x="1860" 
d="M0 0zM677 0h-698l355 2048h648q206 -3 360.5 -87t253 -225t137 -318.5t14.5 -368.5q-28 -214 -113 -404t-222 -335.5t-322.5 -228t-412.5 -81.5zM939 1647l-221 1l-221 -1247l180 -2q194 -1 320 89.5t195.5 240t94.5 324.5q14 101 7 204.5t-44 190.5t-112.5 141.5
t-198.5 57.5zM826 2536l165 -183l225 182l380 8l2 -27l-472 -384h-276l-381 386l-1 26z" />
    <glyph glyph-name="dcaron" unicode="&#x10f;" horiz-adv-x="1770" 
d="M50 0zM1317 0h-437l12 63l-2 -1q-73 -40 -140 -65.5t-153 -24.5q-156 2 -265 73t-173 187t-86.5 253.5t-6.5 271.5q17 145 75.5 288t154.5 259.5t226.5 185.5t291.5 66q74 -1 142.5 -22t125.5 -68l18 -1l112 583h449zM492 757q-8 -59 -10.5 -130.5t12.5 -136.5
t57.5 -107.5t124.5 -44.5q103 -3 179.5 58t111.5 154q20 53 34 111t23 113q6 44 8 89.5t2 89.5q-1 92 -44 163.5t-146 75.5q-117 5 -190 -64.5t-111 -172.5t-51 -198zM2257 2112l-39 -227q-25 -160 -85.5 -303.5t-179.5 -256.5l-220 112q50 107 98.5 203t68.5 216l44 256
h313z" />
    <glyph glyph-name="Dcroat" unicode="&#x110;" horiz-adv-x="1890" 
d="M707 0h-698l152 876h-81l46 264h81l157 908h648q206 -3 360.5 -87t253 -225t137 -318.5t14.5 -368.5q-28 -214 -113 -404t-222 -335.5t-322.5 -228t-412.5 -81.5zM1092 1140l-47 -264h-434l-84 -475l180 -2q194 -1 320 89.5t195.5 240t94.5 324.5q14 101 7 204.5
t-44 190.5t-112.5 141.5t-198.5 57.5l-221 1l-90 -508h434z" />
    <glyph glyph-name="dcroat" unicode="&#x111;" horiz-adv-x="1680" 
d="M1317 0h-437l12 63l-2 -1q-73 -40 -140 -65.5t-153 -24.5q-156 2 -265 73t-173 187t-86.5 253.5t-6.5 271.5q17 145 75 288t154.5 259.5t227 185.5t291.5 66q73 -1 141 -21.5t125 -67.5h17l45 153h-339l47 264h333l29 164l452 -1l-35 -162l188 -1l-49 -264h-181zM492 757
q-8 -59 -10.5 -130.5t12.5 -136.5t57.5 -107.5t124.5 -44.5q103 -3 179.5 58t111.5 154q20 53 34 110.5t23 113.5q6 44 8 89t2 90q-1 92 -44 163.5t-146 75.5q-117 5 -190 -64.5t-111 -172.5t-51 -198z" />
    <glyph glyph-name="Emacron" unicode="&#x112;" horiz-adv-x="1624" 
d="M0 0zM1376 384l-67 -384h-1330l355 2048h1330l-67 -384h-876l-84 -447l747 -1l-67 -384h-740l-84 -447zM1545 2420l-38 -236h-926l37 236h927z" />
    <glyph glyph-name="emacron" unicode="&#x113;" horiz-adv-x="1536" 
d="M43 0zM702 -28q-217 2 -367.5 107t-221 278t-48.5 381q17 161 77 309t160 264t239 182t314 64q212 -3 343.5 -109.5t185 -276t29.5 -363.5l-28 -192l-899 1q-2 -123 66 -198.5t193 -78.5q98 -3 172 41t136 115l237 -254q-57 -96 -155.5 -156t-213 -88t-219.5 -26z
M829 1192q-86 4 -145.5 -38.5t-100.5 -109t-69 -135.5l490 1q20 100 -19 189t-156 93zM1412 1996l-38 -236h-926l37 236h927z" />
    <glyph glyph-name="Ebreve" unicode="&#x114;" horiz-adv-x="1624" 
d="M0 0zM1376 384l-67 -384h-1330l355 2048h1330l-67 -384h-876l-84 -447l747 -1l-67 -384h-740l-84 -447zM1278 2541l298 2q-1 -141 -74.5 -237t-190.5 -144.5t-248 -45.5q-194 3 -319.5 115.5t-129.5 310.5l295 -1q-1 -79 35 -127t121 -51q86 -2 144.5 45t68.5 133z" />
    <glyph glyph-name="ebreve" unicode="&#x115;" horiz-adv-x="1536" 
d="M43 0zM702 -28q-217 2 -367.5 107t-221 278t-48.5 381q17 161 77 309t160 264t239 182t314 64q212 -3 343.5 -109.5t185 -276t29.5 -363.5l-28 -192l-899 1q-2 -123 66 -198.5t193 -78.5q98 -3 172 41t136 115l237 -254q-57 -96 -155.5 -156t-213 -88t-219.5 -26z
M829 1192q-86 4 -145.5 -38.5t-100.5 -109t-69 -135.5l490 1q20 100 -19 189t-156 93zM1145 2117l298 2q-1 -141 -74.5 -237t-190.5 -144.5t-248 -45.5q-194 3 -319.5 115.5t-129.5 310.5l295 -1q-1 -79 35 -127t121 -51q86 -2 144.5 45t68.5 133z" />
    <glyph glyph-name="Edotaccent" unicode="&#x116;" horiz-adv-x="1624" 
d="M0 0zM1376 384l-67 -384h-1330l355 2048h1330l-67 -384h-876l-84 -447l747 -1l-67 -384h-740l-84 -447zM872 2345q-4 93 59 150.5t153 57.5q85 1 148.5 -52t66.5 -142q4 -93 -59 -150.5t-153 -57.5q-86 -1 -149 52t-66 142z" />
    <glyph glyph-name="edotaccent" unicode="&#x117;" horiz-adv-x="1536" 
d="M43 0zM702 -28q-217 2 -367.5 107t-221 278t-48.5 381q17 161 77 309t160 264t239 182t314 64q212 -3 343.5 -109.5t185 -276t29.5 -363.5l-28 -192l-899 1q-2 -123 66 -198.5t193 -78.5q98 -3 172 41t136 115l237 -254q-57 -96 -155.5 -156t-213 -88t-219.5 -26z
M829 1192q-86 4 -145.5 -38.5t-100.5 -109t-69 -135.5l490 1q20 100 -19 189t-156 93zM738 1921q-4 93 59 150.5t153 57.5q85 1 148.5 -52t66.5 -142q4 -93 -59 -150.5t-153 -57.5q-86 -1 -149 52t-66 142z" />
    <glyph glyph-name="Eogonek" unicode="&#x118;" horiz-adv-x="1624" 
d="M1376 384l-67 -384h-154l15 -6q-66 -36 -142 -87t-89 -135q-12 -76 57 -78q25 0 48.5 8t46.5 17l39 -235q-46 -30 -102 -43t-111 -12q-128 1 -214.5 76.5t-84.5 207.5q2 95 48 165.5t115 121.5h-802l355 2048h1330l-67 -384h-876l-84 -447l747 -1l-67 -384h-740l-84 -447
z" />
    <glyph glyph-name="eogonek" unicode="&#x119;" horiz-adv-x="1536" 
d="M1008 -468q-46 -30 -102 -43t-111 -12q-127 1 -213.5 76.5t-84.5 207.5q1 67 25 122t64 99q-181 29 -304.5 137.5t-180 269t-36.5 349.5q17 161 77 309t160 264t239 182t314 64q212 -3 343.5 -109.5t185 -276t29.5 -363.5l-28 -192l-899 1q-2 -123 66 -198.5t193 -78.5
q98 -3 172 41t136 115l237 -254q-42 -71 -108.5 -122t-144.5 -84q-65 -36 -136 -86t-84 -130q-12 -76 58 -78q24 0 48 8t47 17zM829 1192q-86 4 -145.5 -38.5t-100.5 -109t-69 -135.5l490 1q20 100 -19 189t-156 93z" />
    <glyph glyph-name="Ecaron" unicode="&#x11a;" horiz-adv-x="1624" 
d="M0 0zM1376 384l-67 -384h-1330l355 2048h1330l-67 -384h-876l-84 -447l747 -1l-67 -384h-740l-84 -447zM890 2536l165 -183l225 182l380 8l2 -27l-472 -384h-276l-381 386l-1 26z" />
    <glyph glyph-name="ecaron" unicode="&#x11b;" horiz-adv-x="1536" 
d="M43 0zM702 -28q-217 2 -367.5 107t-221 278t-48.5 381q17 161 77 309t160 264t239 182t314 64q212 -3 343.5 -109.5t185 -276t29.5 -363.5l-28 -192l-899 1q-2 -123 66 -198.5t193 -78.5q98 -3 172 41t136 115l237 -254q-57 -96 -155.5 -156t-213 -88t-219.5 -26z
M829 1192q-86 4 -145.5 -38.5t-100.5 -109t-69 -135.5l490 1q20 100 -19 189t-156 93zM757 2112l165 -183l225 182l380 8l2 -27l-472 -384h-276l-381 386l-1 26z" />
    <glyph glyph-name="Gcircumflex" unicode="&#x11c;" horiz-adv-x="1904" 
d="M124 0zM1778 1096l-63 -375q-34 -227 -151.5 -396t-300.5 -262t-415 -91q-223 2 -370.5 92t-228 240.5t-103 336t2.5 377.5q26 201 101.5 391t199.5 342t297.5 240.5t397.5 84.5q202 -3 343.5 -86t227 -227.5t120.5 -330.5l-427 -59q-25 124 -82.5 215.5t-201.5 98.5
q-133 6 -225.5 -57.5t-152.5 -168t-93.5 -223.5t-48.5 -225q-13 -96 -19 -208.5t15.5 -214.5t88.5 -169t199 -71q129 -3 209.5 52.5t127.5 149.5t74 206l-368 -2l60 340h786zM1068 2201l-388 -8l-2 27l476 384h277l376 -386l1 -26l-354 8l-161 183z" />
    <glyph glyph-name="gcircumflex" unicode="&#x11d;" horiz-adv-x="1620" 
d="M0 0zM1160 1529l411 -1l-251 -1459q-31 -213 -143.5 -360.5t-285 -223.5t-382.5 -73q-151 1 -301 48t-267 145l215 295q157 -130 352 -133q165 -4 253 82.5t132 234.5l6 21l-8 -3q-123 -92 -287 -90q-154 1 -263 69.5t-174 180t-89 246t-9 269.5q17 144 75.5 284t155 253
t226 179t288.5 63q83 -1 160.5 -28t136.5 -89l16 -1zM496 777q-8 -59 -10 -129t13 -133.5t57.5 -104.5t123.5 -43q102 -3 185 55.5t122 152.5q21 52 34.5 108.5t21.5 112.5q13 88 8 174q-5 95 -54 160.5t-152 70.5q-115 4 -187.5 -62.5t-110.5 -166.5t-51 -195zM727 1777
l-388 -8l-2 27l476 384h277l376 -386l1 -26l-354 8l-161 183z" />
    <glyph glyph-name="Gbreve" unicode="&#x11e;" horiz-adv-x="1904" 
d="M124 0zM1778 1096l-63 -375q-34 -227 -151.5 -396t-300.5 -262t-415 -91q-223 2 -370.5 92t-228 240.5t-103 336t2.5 377.5q26 201 101.5 391t199.5 342t297.5 240.5t397.5 84.5q202 -3 343.5 -86t227 -227.5t120.5 -330.5l-427 -59q-25 124 -82.5 215.5t-201.5 98.5
q-133 6 -225.5 -57.5t-152.5 -168t-93.5 -223.5t-48.5 -225q-13 -96 -19 -208.5t15.5 -214.5t88.5 -169t199 -71q129 -3 209.5 52.5t127.5 149.5t74 206l-368 -2l60 340h786zM1474 2541l298 2q-1 -141 -74.5 -237t-190.5 -144.5t-248 -45.5q-194 3 -319.5 115.5
t-129.5 310.5l295 -1q-1 -79 35 -127t121 -51q86 -2 144.5 45t68.5 133z" />
    <glyph glyph-name="gbreve" unicode="&#x11f;" horiz-adv-x="1620" 
d="M0 0zM1160 1529l411 -1l-251 -1459q-31 -213 -143.5 -360.5t-285 -223.5t-382.5 -73q-151 1 -301 48t-267 145l215 295q157 -130 352 -133q165 -4 253 82.5t132 234.5l6 21l-8 -3q-123 -92 -287 -90q-154 1 -263 69.5t-174 180t-89 246t-9 269.5q17 144 75.5 284t155 253
t226 179t288.5 63q83 -1 160.5 -28t136.5 -89l16 -1zM496 777q-8 -59 -10 -129t13 -133.5t57.5 -104.5t123.5 -43q102 -3 185 55.5t122 152.5q21 52 34.5 108.5t21.5 112.5q13 88 8 174q-5 95 -54 160.5t-152 70.5q-115 4 -187.5 -62.5t-110.5 -166.5t-51 -195zM1133 2117
l298 2q-1 -141 -74.5 -237t-190.5 -144.5t-248 -45.5q-194 3 -319.5 115.5t-129.5 310.5l295 -1q-1 -79 35 -127t121 -51q86 -2 144.5 45t68.5 133z" />
    <glyph glyph-name="Gdotaccent" unicode="&#x120;" horiz-adv-x="1904" 
d="M124 0zM1778 1096l-63 -375q-34 -227 -151.5 -396t-300.5 -262t-415 -91q-223 2 -370.5 92t-228 240.5t-103 336t2.5 377.5q26 201 101.5 391t199.5 342t297.5 240.5t397.5 84.5q202 -3 343.5 -86t227 -227.5t120.5 -330.5l-427 -59q-25 124 -82.5 215.5t-201.5 98.5
q-133 6 -225.5 -57.5t-152.5 -168t-93.5 -223.5t-48.5 -225q-13 -96 -19 -208.5t15.5 -214.5t88.5 -169t199 -71q129 -3 209.5 52.5t127.5 149.5t74 206l-368 -2l60 340h786zM1068 2345q-4 93 59 150.5t153 57.5q85 1 148.5 -52t66.5 -142q4 -93 -59 -150.5t-153 -57.5
q-86 -1 -149 52t-66 142z" />
    <glyph glyph-name="gdotaccent" unicode="&#x121;" horiz-adv-x="1620" 
d="M0 0zM1160 1529l411 -1l-251 -1459q-31 -213 -143.5 -360.5t-285 -223.5t-382.5 -73q-151 1 -301 48t-267 145l215 295q157 -130 352 -133q165 -4 253 82.5t132 234.5l6 21l-8 -3q-123 -92 -287 -90q-154 1 -263 69.5t-174 180t-89 246t-9 269.5q17 144 75.5 284t155 253
t226 179t288.5 63q83 -1 160.5 -28t136.5 -89l16 -1zM496 777q-8 -59 -10 -129t13 -133.5t57.5 -104.5t123.5 -43q102 -3 185 55.5t122 152.5q21 52 34.5 108.5t21.5 112.5q13 88 8 174q-5 95 -54 160.5t-152 70.5q-115 4 -187.5 -62.5t-110.5 -166.5t-51 -195zM727 1921
q-4 93 59 150.5t153 57.5q85 1 148.5 -52t66.5 -142q4 -93 -59 -150.5t-153 -57.5q-86 -1 -149 52t-66 142z" />
    <glyph glyph-name="Gcommaaccent" unicode="&#x122;" horiz-adv-x="1904" 
d="M124 0zM1778 1096l-63 -375q-34 -227 -151.5 -396t-300.5 -262t-415 -91q-223 2 -370.5 92t-228 240.5t-103 336t2.5 377.5q26 201 101.5 391t199.5 342t297.5 240.5t397.5 84.5q202 -3 343.5 -86t227 -227.5t120.5 -330.5l-427 -59q-25 124 -82.5 215.5t-201.5 98.5
q-133 6 -225.5 -57.5t-152.5 -168t-93.5 -223.5t-48.5 -225q-13 -96 -19 -208.5t15.5 -214.5t88.5 -169t199 -71q129 -3 209.5 52.5t127.5 149.5t74 206l-368 -2l60 340h786zM1044 -116l-39 -227q-25 -160 -85.5 -303.5t-179.5 -256.5l-220 112q50 107 98.5 203t68.5 216
l44 256h313z" />
    <glyph glyph-name="gcommaaccent" unicode="&#x123;" horiz-adv-x="1620" 
d="M0 0zM1160 1529l411 -1l-251 -1459q-31 -213 -143.5 -360.5t-285 -223.5t-382.5 -73q-151 1 -301 48t-267 145l215 295q157 -130 352 -133q165 -4 253 82.5t132 234.5l6 21l-8 -3q-123 -92 -287 -90q-154 1 -263 69.5t-174 180t-89 246t-9 269.5q17 144 75.5 284t155 253
t226 179t288.5 63q83 -1 160.5 -28t136.5 -89l16 -1zM496 777q-8 -59 -10 -129t13 -133.5t57.5 -104.5t123.5 -43q102 -3 185 55.5t122 152.5q21 52 34.5 108.5t21.5 112.5q13 88 8 174q-5 95 -54 160.5t-152 70.5q-115 4 -187.5 -62.5t-110.5 -166.5t-51 -195zM747 1736
l30 191q19 133 74 257.5t174 199.5l218 -105q-48 -90 -88 -178t-60 -189l-35 -176h-313z" />
    <glyph glyph-name="Hcircumflex" unicode="&#x124;" horiz-adv-x="1920" 
d="M0 0zM787 2048l-149 -831l716 -1l144 832h453l-355 -2048h-453l150 831l-717 1l-144 -832h-453l355 2048h453zM1072 2201l-388 -8l-2 27l476 384h277l376 -386l1 -26l-354 8l-161 183z" />
    <glyph glyph-name="hcircumflex" unicode="&#x125;" horiz-adv-x="1580" 
d="M0 0zM568 816l-140 -816h-449l355 2048h434l-130 -679l7 1q164 191 408 185q164 -4 251.5 -94.5t114.5 -226t10 -274.5l-163 -960h-449l165 965q6 50 3.5 102t-29 88t-89.5 39q-101 5 -162.5 -56.5t-93 -151.5t-43.5 -170zM795 2329l-388 -8l-2 27l476 384h277l376 -386
l1 -26l-354 8l-161 183z" />
    <glyph glyph-name="Hbar" unicode="&#x126;" horiz-adv-x="1920" 
d="M789 2048l-66 -339l716 -1l59 340h455l-66 -339l155 -1l-47 -248h-146l-253 -1460h-453l150 831l-717 1l-144 -832h-453l258 1459l-155 1l47 248h146l59 340h455zM637 1217h714l51 242h-714z" />
    <glyph glyph-name="hbar" unicode="&#x127;" horiz-adv-x="1610" 
d="M598 816l-140 -816h-449l289 1668h-213l46 264h213l20 116h434l-22 -116h320l-46 -264h-325l-57 -299l7 1q164 191 408 185q164 -4 251.5 -94.5t114.5 -226t10 -274.5l-163 -960h-449l165 965q6 50 3.5 102t-29 88t-89.5 39q-101 5 -162.5 -56.5t-93 -151.5t-43.5 -170z
" />
    <glyph glyph-name="Itilde" unicode="&#x128;" horiz-adv-x="720" 
d="M0 0zM787 2048l-355 -2048h-453l355 2048h453zM891 2544l241 -14q-3 -93 -42 -181t-111.5 -145t-175.5 -55q-67 1 -124.5 31.5t-114 60.5t-121.5 30q-58 -1 -88 -38.5t-41 -88.5l-246 10q2 92 42 180.5t113 146t175 55.5q66 -1 123.5 -31t114.5 -59t122 -29q58 1 89.5 38
t43.5 89z" />
    <glyph glyph-name="itilde" unicode="&#x129;" horiz-adv-x="748" 
d="M0 0zM710 1536l-266 -1536h-449l266 1536h449zM816 2088l241 -14q-3 -93 -42 -181t-111.5 -145t-175.5 -55q-67 1 -124.5 31.5t-114 60.5t-121.5 30q-58 -1 -88 -38.5t-41 -88.5l-246 10q2 92 42 180.5t113 146t175 55.5q66 -1 123.5 -31t114.5 -59t122 -29q58 1 89.5 38
t43.5 89z" />
    <glyph glyph-name="Imacron" unicode="&#x12a;" horiz-adv-x="720" 
d="M0 0zM787 2048l-355 -2048h-453l355 2048h453zM1073 2420l-38 -236h-926l37 236h927z" />
    <glyph glyph-name="imacron" unicode="&#x12b;" horiz-adv-x="748" 
d="M0 0zM710 1536l-266 -1536h-449l266 1536h449zM998 1964l-38 -236h-926l37 236h927z" />
    <glyph glyph-name="Ibreve" unicode="&#x12c;" horiz-adv-x="720" 
d="M0 0zM787 2048l-355 -2048h-453l355 2048h453zM806 2541l298 2q-1 -141 -74.5 -237t-190.5 -144.5t-248 -45.5q-194 3 -319.5 115.5t-129.5 310.5l295 -1q-1 -79 35 -127t121 -51q86 -2 144.5 45t68.5 133z" />
    <glyph glyph-name="ibreve" unicode="&#x12d;" horiz-adv-x="748" 
d="M0 0zM710 1536l-266 -1536h-449l266 1536h449zM732 2085l298 2q-1 -141 -74.5 -237t-190.5 -144.5t-248 -45.5q-194 3 -319.5 115.5t-129.5 310.5l295 -1q-1 -79 35 -127t121 -51q86 -2 144.5 45t68.5 133z" />
    <glyph glyph-name="Iogonek" unicode="&#x12e;" horiz-adv-x="720" 
d="M0 0zM787 2048l-355 -2048h-453l355 2048h453zM92 84l243 -90q-66 -36 -142 -87t-89 -135q-12 -76 57 -78q25 0 48.5 8t46.5 17l39 -235q-46 -30 -102 -43t-111 -12q-128 1 -214.5 76.5t-84.5 207.5q3 141 97.5 229t211.5 142z" />
    <glyph glyph-name="iogonek" unicode="&#x12f;" horiz-adv-x="748" 
d="M0 0zM537 1619q-91 1 -162 64.5t-74 156.5q-3 100 72 169t172 68q92 -1 161.5 -64.5t72.5 -156.5q2 -100 -71 -169t-171 -68zM710 1536l-266 -1536h-449l266 1536h449zM120 84l243 -90q-66 -36 -142 -87t-89 -135q-12 -76 57 -78q25 0 48.5 8t46.5 17l39 -235
q-46 -30 -102 -43t-111 -12q-128 1 -214.5 76.5t-84.5 207.5q3 141 97.5 229t211.5 142z" />
    <glyph glyph-name="Idotaccent" unicode="&#x130;" horiz-adv-x="720" 
d="M0 0zM787 2048l-355 -2048h-453l355 2048h453zM400 2345q-4 93 59 150.5t153 57.5q85 1 148.5 -52t66.5 -142q4 -93 -59 -150.5t-153 -57.5q-86 -1 -149 52t-66 142z" />
    <glyph glyph-name="dotlessi" unicode="&#x131;" horiz-adv-x="748" 
d="M710 1536l-266 -1536h-449l266 1536h449z" />
    <glyph glyph-name="IJ" unicode="&#x132;" horiz-adv-x="2556" 
d="M235 0zM1043 2048l-355 -2048h-453l355 2048h453zM1905 628l244 1420h449l-244 -1420q-27 -192 -131 -341.5t-264 -234t-358 -82.5q-297 4 -448 174.5t-144 460.5h452q-1 -60 10.5 -119t47.5 -99t109 -43q82 -4 139.5 37.5t91.5 108t46 138.5z" />
    <glyph glyph-name="ij" unicode="&#x133;" horiz-adv-x="1920" 
d="M251 0zM793 1619q-91 1 -162 64.5t-74 156.5q-3 100 72 169t172 68q92 -1 161.5 -64.5t72.5 -156.5q2 -100 -71 -169t-171 -68zM966 1536l-266 -1536h-449l266 1536h449zM1709 1619q-91 1 -162.5 64.5t-73.5 156.5q-3 100 72 168.5t172 68.5q92 -1 161 -64.5t72 -156.5
q2 -100 -71 -168.5t-170 -68.5zM1433 1536h449l-271 -1583q-36 -269 -216 -401.5t-442 -132.5l-190 1l63 360l71 -2q98 1 171 40t92 142z" />
    <glyph glyph-name="Jcircumflex" unicode="&#x134;" horiz-adv-x="1580" 
d="M26 0zM929 628l244 1420h449l-244 -1420q-27 -192 -131 -341.5t-264 -234t-358 -82.5q-297 4 -448 174.5t-144 460.5h452q-1 -60 10.5 -119t47.5 -99t109 -43q82 -4 139.5 37.5t91.5 108t46 138.5zM1252 2201l-388 -8l-2 27l476 384h277l376 -386l1 -26l-354 8l-161 183z
" />
    <glyph glyph-name="jcircumflex" unicode="&#x135;" horiz-adv-x="916" 
d="M0 0zM429 1536h449l-271 -1583q-37 -268 -216.5 -401t-441.5 -133l-190 1l63 360l71 -2q97 1 170 40.5t93 141.5zM506 1745l-388 -8l-2 27l476 384h277l376 -386l1 -26l-354 8l-161 183z" />
    <glyph glyph-name="Kcommaaccent" unicode="&#x136;" horiz-adv-x="1920" 
d="M0 0zM1079 0l-292 717l-286 -318l-69 -399h-453l355 2048h453l-164 -888h9l766 887h583l-864 -961l478 -1086h-516zM925 -44l-39 -227q-25 -160 -85.5 -303.5t-179.5 -256.5l-220 112q50 107 98.5 203t68.5 216l44 256h313z" />
    <glyph glyph-name="kcommaaccent" unicode="&#x137;" horiz-adv-x="1556" 
d="M0 0zM912 0l-247 550l-172 -173l-65 -377h-449l355 2048h449l-188 -1024h13l483 512l550 -1l-668 -673l409 -862h-470zM756 -116l-39 -227q-25 -160 -85.5 -303.5t-179.5 -256.5l-220 112q50 107 98.5 203t68.5 216l44 256h313z" />
    <glyph glyph-name="kgreenlandic" unicode="&#x138;" horiz-adv-x="1792" 
d="M905 0l-199 520h-175l-90 -520h-434l258 1488h434l-94 -536h105l415 536l577 -1l-617 -726l360 -761h-540z" />
    <glyph glyph-name="Lacute" unicode="&#x139;" horiz-adv-x="1536" 
d="M0 0zM1302 384l-67 -384h-1256l355 2048h453l-294 -1663zM353 2104l332 432l487 -1l-437 -431h-382z" />
    <glyph glyph-name="lacute" unicode="&#x13a;" horiz-adv-x="716" 
d="M0 0zM783 2048l-355 -2048h-449l355 2048h449zM376 2212l332 432l487 -1l-437 -431h-382z" />
    <glyph glyph-name="Lcommaaccent" unicode="&#x13b;" horiz-adv-x="1536" 
d="M0 0zM1302 384l-67 -384h-1256l355 2048h453l-294 -1663zM759 -100l-39 -227q-25 -160 -85.5 -303.5t-179.5 -256.5l-220 112q50 107 98.5 203t68.5 216l44 256h313z" />
    <glyph glyph-name="lcommaaccent" unicode="&#x13c;" horiz-adv-x="716" 
d="M0 0zM783 2048l-355 -2048h-449l355 2048h449zM348 -116l-39 -227q-25 -160 -85.5 -303.5t-179.5 -256.5l-220 112q50 107 98.5 203t68.5 216l44 256h313z" />
    <glyph glyph-name="Lcaron" unicode="&#x13d;" horiz-adv-x="1536" 
d="M0 0zM1302 384l-67 -384h-1256l355 2048h453l-294 -1663zM1439 2004l-39 -227q-25 -160 -85.5 -303.5t-179.5 -256.5l-220 112q50 107 98.5 203t68.5 216l44 256h313z" />
    <glyph glyph-name="lcaron" unicode="&#x13e;" horiz-adv-x="866" 
d="M0 0zM783 2048l-355 -2048h-449l355 2048h449zM1309 2112l-39 -227q-25 -160 -85.5 -303.5t-179.5 -256.5l-220 112q50 107 98.5 203t68.5 216l44 256h313z" />
    <glyph glyph-name="Ldot" unicode="&#x13f;" horiz-adv-x="1536" 
d="M0 0zM1302 384l-67 -384h-1256l355 2048h453l-294 -1663zM825 1149q-4 93 59 150.5t153 57.5q85 1 148.5 -52t66.5 -142q4 -93 -59 -150.5t-153 -57.5q-86 -1 -149 52t-66 142z" />
    <glyph glyph-name="ldot" unicode="&#x140;" horiz-adv-x="936" 
d="M0 0zM783 2048l-355 -2048h-449l355 2048h449zM749 1053q-4 93 59 150.5t153 57.5q85 1 148.5 -52t66.5 -142q4 -93 -59 -150.5t-153 -57.5q-86 -1 -149 52t-66 142z" />
    <glyph glyph-name="L_slash" unicode="&#x141;" horiz-adv-x="1792" 
d="M1470 384l-67 -384h-1256l153 880l-221 -59l46 258l219 60l158 909h453l-140 -777l255 68l-47 -261l-248 -68l-114 -625z" />
    <glyph glyph-name="lslash" unicode="&#x142;" horiz-adv-x="716" 
d="M832 1352l-49 -263l-176 -56l-179 -1033h-449l157 884l-190 -56l49 263l183 58l156 899h449l-134 -750z" />
    <glyph glyph-name="Nacute" unicode="&#x143;" horiz-adv-x="1920" 
d="M0 0zM1951 2048l-355 -2048h-432l-487 1261l-18 2l-227 -1263h-453l355 2048h436l483 -1261l18 -2l227 1263h453zM1029 2104l332 432l487 -1l-437 -431h-382z" />
    <glyph glyph-name="nacute" unicode="&#x144;" horiz-adv-x="1624" 
d="M0 0zM567 816l-139 -816h-449l266 1536l415 1l-41 -168l7 1q168 191 424 186q167 -3 265.5 -89.5t135.5 -221.5t20 -285l-162 -960h-449l161 946q12 89 -19.5 166t-136.5 81q-102 5 -162.5 -56t-91.5 -150t-44 -171zM692 1680l332 432l487 -1l-437 -431h-382z" />
    <glyph glyph-name="Ncommaaccent" unicode="&#x145;" horiz-adv-x="1920" 
d="M0 0zM1951 2048l-355 -2048h-432l-487 1261l-18 2l-227 -1263h-453l355 2048h436l483 -1261l18 -2l227 1263h453zM1020 -116l-39 -227q-25 -160 -85.5 -303.5t-179.5 -256.5l-220 112q50 107 98.5 203t68.5 216l44 256h313z" />
    <glyph glyph-name="ncommaaccent" unicode="&#x146;" horiz-adv-x="1624" 
d="M0 0zM567 816l-139 -816h-449l266 1536l415 1l-41 -168l7 1q168 191 424 186q167 -3 265.5 -89.5t135.5 -221.5t20 -285l-162 -960h-449l161 946q12 89 -19.5 166t-136.5 81q-102 5 -162.5 -56t-91.5 -150t-44 -171zM804 -116l-39 -227q-25 -160 -85.5 -303.5
t-179.5 -256.5l-220 112q50 107 98.5 203t68.5 216l44 256h313z" />
    <glyph glyph-name="Ncaron" unicode="&#x147;" horiz-adv-x="1920" 
d="M0 0zM1951 2048l-355 -2048h-432l-487 1261l-18 2l-227 -1263h-453l355 2048h436l483 -1261l18 -2l227 1263h453zM1090 2536l165 -183l225 182l380 8l2 -27l-472 -384h-276l-381 386l-1 26z" />
    <glyph glyph-name="ncaron" unicode="&#x148;" horiz-adv-x="1624" 
d="M0 0zM567 816l-139 -816h-449l266 1536l415 1l-41 -168l7 1q168 191 424 186q167 -3 265.5 -89.5t135.5 -221.5t20 -285l-162 -960h-449l161 946q12 89 -19.5 166t-136.5 81q-102 5 -162.5 -56t-91.5 -150t-44 -171zM753 2112l165 -183l225 182l380 8l2 -27l-472 -384
h-276l-381 386l-1 26z" />
    <glyph glyph-name="napostrophe" unicode="&#x149;" horiz-adv-x="1624" 
d="M0 0zM567 816l-139 -816h-449l266 1536l415 1l-41 -168l7 1q168 191 424 186q167 -3 265.5 -89.5t135.5 -221.5t20 -285l-162 -960h-449l161 946q12 89 -19.5 166t-136.5 81q-102 5 -162.5 -56t-91.5 -150t-44 -171zM424 2108l-39 -227q-25 -160 -85.5 -303.5
t-179.5 -256.5l-220 112q50 107 98.5 203t68.5 216l44 256h313z" />
    <glyph glyph-name="Eng" unicode="&#x14a;" horiz-adv-x="1920" 
d="M1951 2048l-357 -2079q-38 -279 -229 -431.5t-467 -151.5q-54 0 -108 3t-108 10l40 375q29 -2 58.5 -4.5t59.5 -3.5q121 -2 198.5 57t117.5 169l3 8l-482 1261l-18 2l-227 -1263h-453l355 2048h436l483 -1261l18 -2l227 1263h453z" />
    <glyph glyph-name="eng" unicode="&#x14b;" horiz-adv-x="1624" 
d="M568 816l-140 -816h-449l266 1536l415 1l-41 -168l7 1q168 190 423 186q168 -3 266.5 -89.5t135.5 -221.5t20 -285l-163 -980q-35 -258 -196.5 -420t-430.5 -162q-115 0 -238 21l76 373q32 -8 64 -14t65 -6q95 -2 145 60t65 148l163 965q12 89 -19.5 166.5t-135.5 82.5
q-102 4 -163 -57t-92 -150t-43 -171z" />
    <glyph glyph-name="Omacron" unicode="&#x14c;" horiz-adv-x="1976" 
d="M125 0zM1835 1025q-26 -197 -102 -386t-201 -340.5t-298 -240.5t-393 -86q-217 3 -362 94.5t-225.5 243t-104.5 335t1 370.5q26 198 102.5 388.5t202 343.5t299.5 242.5t395 86.5q218 -3 362 -96.5t223.5 -246.5t102.5 -337.5t-2 -370.5zM1375 1006q12 84 18 192.5
t-12 211t-78.5 170.5t-181.5 72q-132 5 -224 -56t-151.5 -161.5t-93.5 -217.5t-48 -223q-12 -85 -18.5 -194t12.5 -210.5t80 -170t183 -72.5q130 -4 221 58t151 163.5t93.5 217.5t48.5 220zM1701 2420l-38 -236h-926l37 236h927z" />
    <glyph glyph-name="omacron" unicode="&#x14d;" horiz-adv-x="1544" 
d="M47 0zM644 -24q-223 3 -357 116t-187 291.5t-33 378.5q15 153 75 296.5t159.5 256.5t235 178.5t301.5 62.5q161 -2 276 -69.5t185.5 -179.5t98 -250.5t12.5 -281.5q-20 -212 -115 -395t-259 -295t-392 -109zM660 339q87 -3 146.5 38t97 108t58 144t27.5 146q6 54 8 124
t-11.5 136t-53 110.5t-115.5 47.5q-85 4 -143.5 -37t-94.5 -108t-55.5 -143t-26.5 -144q-6 -53 -9.5 -123.5t8.5 -137.5t50 -112t114 -49zM1396 1996l-38 -236h-926l37 236h927z" />
    <glyph glyph-name="Obreve" unicode="&#x14e;" horiz-adv-x="1976" 
d="M125 0zM1835 1025q-26 -197 -102 -386t-201 -340.5t-298 -240.5t-393 -86q-217 3 -362 94.5t-225.5 243t-104.5 335t1 370.5q26 198 102.5 388.5t202 343.5t299.5 242.5t395 86.5q218 -3 362 -96.5t223.5 -246.5t102.5 -337.5t-2 -370.5zM1375 1006q12 84 18 192.5
t-12 211t-78.5 170.5t-181.5 72q-132 5 -224 -56t-151.5 -161.5t-93.5 -217.5t-48 -223q-12 -85 -18.5 -194t12.5 -210.5t80 -170t183 -72.5q130 -4 221 58t151 163.5t93.5 217.5t48.5 220zM1434 2541l298 2q-1 -141 -74.5 -237t-190.5 -144.5t-248 -45.5
q-194 3 -319.5 115.5t-129.5 310.5l295 -1q-1 -79 35 -127t121 -51q86 -2 144.5 45t68.5 133z" />
    <glyph glyph-name="obreve" unicode="&#x14f;" horiz-adv-x="1544" 
d="M47 0zM644 -24q-223 3 -357 116t-187 291.5t-33 378.5q15 153 75 296.5t159.5 256.5t235 178.5t301.5 62.5q161 -2 276 -69.5t185.5 -179.5t98 -250.5t12.5 -281.5q-20 -212 -115 -395t-259 -295t-392 -109zM660 339q87 -3 146.5 38t97 108t58 144t27.5 146q6 54 8 124
t-11.5 136t-53 110.5t-115.5 47.5q-85 4 -143.5 -37t-94.5 -108t-55.5 -143t-26.5 -144q-6 -53 -9.5 -123.5t8.5 -137.5t50 -112t114 -49zM1129 2117l298 2q-1 -141 -74.5 -237t-190.5 -144.5t-248 -45.5q-194 3 -319.5 115.5t-129.5 310.5l295 -1q-1 -79 35 -127t121 -51
q86 -2 144.5 45t68.5 133z" />
    <glyph glyph-name="Ohungarumlaut" unicode="&#x150;" horiz-adv-x="1976" 
d="M125 0zM1835 1025q-26 -197 -102 -386t-201 -340.5t-298 -240.5t-393 -86q-217 3 -362 94.5t-225.5 243t-104.5 335t1 370.5q26 198 102.5 388.5t202 343.5t299.5 242.5t395 86.5q218 -3 362 -96.5t223.5 -246.5t102.5 -337.5t-2 -370.5zM1375 1006q12 84 18 192.5
t-12 211t-78.5 170.5t-181.5 72q-132 5 -224 -56t-151.5 -161.5t-93.5 -217.5t-48 -223q-12 -85 -18.5 -194t12.5 -210.5t80 -170t183 -72.5q130 -4 221 58t151 163.5t93.5 217.5t48.5 220zM752 2124l332 412l391 -1l-385 -411h-338zM1255 2124l370 412l395 -1l-425 -411
h-340z" />
    <glyph glyph-name="ohungarumlaut" unicode="&#x151;" horiz-adv-x="1544" 
d="M47 0zM644 -24q-223 3 -357 116t-187 291.5t-33 378.5q15 153 75 296.5t159.5 256.5t235 178.5t301.5 62.5q161 -2 276 -69.5t185.5 -179.5t98 -250.5t12.5 -281.5q-20 -212 -115 -395t-259 -295t-392 -109zM660 339q87 -3 146.5 38t97 108t58 144t27.5 146q6 54 8 124
t-11.5 136t-53 110.5t-115.5 47.5q-85 4 -143.5 -37t-94.5 -108t-55.5 -143t-26.5 -144q-6 -53 -9.5 -123.5t8.5 -137.5t50 -112t114 -49zM447 1700l332 412l391 -1l-385 -411h-338zM950 1700l370 412l395 -1l-425 -411h-340z" />
    <glyph glyph-name="OE" unicode="&#x152;" horiz-adv-x="2816" 
d="M1150 2048h1582l-67 -384h-876l-84 -447l747 -1l-67 -384h-740l-84 -447l883 -1l-67 -384h-1532q-231 4 -403.5 110.5t-257.5 289.5t-53 416l69 420q37 243 168.5 426t333.5 284.5t448 101.5zM857 361l252 -1l235 1327l-207 2q-212 2 -340.5 -124t-162.5 -329l-69 -421
q-17 -115 2.5 -217.5t88.5 -168t201 -68.5z" />
    <glyph glyph-name="oe" unicode="&#x153;" horiz-adv-x="2484" 
d="M631 -24q-166 2 -282 68t-184 177t-92 250.5t-8 288.5q17 155 78.5 298.5t163 256.5t238 178.5t303.5 62.5q120 -2 236 -48.5t193 -141.5q109 94 235.5 143t271.5 47q212 -3 342 -109.5t180.5 -276t24.5 -362.5l-30 -192l-899 2q-5 -123 61 -199t191 -79q98 -3 173 41
t139 114l233 -253q-56 -97 -155.5 -157t-215 -87.5t-219.5 -25.5q-131 1 -261.5 45.5t-218.5 146.5q-106 -92 -231 -141t-267 -47zM651 338q96 -4 163 49.5t107 136.5t54 166q2 13 3 26.5t3 27.5q3 21 7 42t7 42q9 68 3 152t-45.5 146t-128.5 67q-86 4 -145 -36.5
t-96.5 -107.5t-57.5 -143.5t-29 -144.5q-6 -53 -10.5 -123t5.5 -137.5t47 -113t113 -49.5zM1756 1192q-87 4 -148 -38t-103 -109t-72 -136l490 1q15 66 4.5 129.5t-52 106.5t-119.5 46z" />
    <glyph glyph-name="Racute" unicode="&#x154;" horiz-adv-x="1756" 
d="M0 0zM1058 0l-219 752h-276l-131 -752h-453l355 2048l725 -1q176 -2 330 -71.5t244.5 -202t73.5 -325.5q-38 -426 -435 -578l266 -847v-23h-480zM721 1664l-98 -531l279 -3q134 0 232.5 68.5t119.5 207.5q18 118 -37 185.5t-175 71.5zM881 2104l332 432l487 -1l-437 -431
h-382z" />
    <glyph glyph-name="racute" unicode="&#x155;" horiz-adv-x="1020" 
d="M0 0zM1058 1550l-52 -431q-38 6 -82 6q-114 2 -216 -58t-126 -179l-154 -888h-449l266 1536h450l-47 -199l5 1q50 87 133 153.5t189 67.5q21 1 41.5 -2t41.5 -7zM528 1680l332 432l487 -1l-437 -431h-382z" />
    <glyph glyph-name="Rcommaaccent" unicode="&#x156;" horiz-adv-x="1756" 
d="M0 0zM1058 0l-219 752h-276l-131 -752h-453l355 2048l725 -1q176 -2 330 -71.5t244.5 -202t73.5 -325.5q-38 -426 -435 -578l266 -847v-23h-480zM721 1664l-98 -531l279 -3q134 0 232.5 68.5t119.5 207.5q18 118 -37 185.5t-175 71.5zM899 -100l-39 -227
q-25 -160 -85.5 -303.5t-179.5 -256.5l-220 112q50 107 98.5 203t68.5 216l44 256h313z" />
    <glyph glyph-name="rcommaaccent" unicode="&#x157;" horiz-adv-x="1020" 
d="M0 0zM1058 1550l-52 -431q-38 6 -82 6q-114 2 -216 -58t-126 -179l-154 -888h-449l266 1536h450l-47 -199l5 1q50 87 133 153.5t189 67.5q21 1 41.5 -2t41.5 -7zM348 -116l-39 -227q-25 -160 -85.5 -303.5t-179.5 -256.5l-220 112q50 107 98.5 203t68.5 216l44 256h313z
" />
    <glyph glyph-name="Rcaron" unicode="&#x158;" horiz-adv-x="1756" 
d="M0 0zM1058 0l-219 752h-276l-131 -752h-453l355 2048l725 -1q176 -2 330 -71.5t244.5 -202t73.5 -325.5q-38 -426 -435 -578l266 -847v-23h-480zM721 1664l-98 -531l279 -3q134 0 232.5 68.5t119.5 207.5q18 118 -37 185.5t-175 71.5zM942 2536l165 -183l225 182l380 8
l2 -27l-472 -384h-276l-381 386l-1 26z" />
    <glyph glyph-name="rcaron" unicode="&#x159;" horiz-adv-x="1020" 
d="M0 0zM1058 1550l-52 -431q-38 6 -82 6q-114 2 -216 -58t-126 -179l-154 -888h-449l266 1536h450l-47 -199l5 1q50 87 133 153.5t189 67.5q21 1 41.5 -2t41.5 -7zM589 2112l165 -183l225 182l380 8l2 -27l-472 -384h-276l-381 386l-1 26z" />
    <glyph glyph-name="Sacute" unicode="&#x15a;" horiz-adv-x="1760" 
d="M23 0zM1253 1438q-1 118 -59 182.5t-179 66.5q-68 2 -138 -16.5t-122.5 -62.5t-67.5 -120q-12 -58 17.5 -98.5t80 -68.5t105 -48t93.5 -37l50 -25q140 -62 260.5 -142t190 -196.5t54.5 -289.5q-18 -215 -137 -351t-297.5 -199t-376.5 -61q-214 2 -373 85t-245 237.5
t-82 370.5h448q-2 -143 61 -225t215 -84q72 -1 144 23t125.5 74t70.5 126q14 69 -14.5 118.5t-81.5 85t-114 60t-111 41.5l-36 12q-148 50 -265.5 123.5t-181 187.5t-49.5 286q13 152 89.5 262.5t194.5 182.5t256 106t273 32q295 -4 473 -172.5t176 -465.5h-447zM893 2104
l332 432l487 -1l-437 -431h-382z" />
    <glyph glyph-name="sacute" unicode="&#x15b;" horiz-adv-x="1384" 
d="M0 0zM162 1097q9 157 102 259.5t230 152t278 48.5q166 -2 311.5 -66.5t240.5 -204.5l-325 -224q-40 55 -96 87t-126 32q-49 1 -108 -20t-74 -76q-11 -42 17 -64.5t69 -34.5t68 -22l73 -29q100 -41 183.5 -109.5t132 -162t41.5 -208.5q-9 -154 -102.5 -263t-231.5 -166
t-280 -55q-178 2 -330 80t-255 223l343 240q42 -68 98.5 -111t141.5 -44q51 0 112.5 21.5t76.5 79.5q14 49 -26 82t-95.5 53.5t-86.5 33.5l-80 32q-135 58 -223 170.5t-79 265.5zM672 1680l332 432l487 -1l-437 -431h-382z" />
    <glyph glyph-name="Scircumflex" unicode="&#x15c;" horiz-adv-x="1760" 
d="M23 0zM1253 1438q-1 118 -59 182.5t-179 66.5q-68 2 -138 -16.5t-122.5 -62.5t-67.5 -120q-12 -58 17.5 -98.5t80 -68.5t105 -48t93.5 -37l50 -25q140 -62 260.5 -142t190 -196.5t54.5 -289.5q-18 -215 -137 -351t-297.5 -199t-376.5 -61q-214 2 -373 85t-245 237.5
t-82 370.5h448q-2 -143 61 -225t215 -84q72 -1 144 23t125.5 74t70.5 126q14 69 -14.5 118.5t-81.5 85t-114 60t-111 41.5l-36 12q-148 50 -265.5 123.5t-181 187.5t-49.5 286q13 152 89.5 262.5t194.5 182.5t256 106t273 32q295 -4 473 -172.5t176 -465.5h-447zM936 2201
l-388 -8l-2 27l476 384h277l376 -386l1 -26l-354 8l-161 183z" />
    <glyph glyph-name="scircumflex" unicode="&#x15d;" horiz-adv-x="1384" 
d="M0 0zM162 1097q9 157 102 259.5t230 152t278 48.5q166 -2 311.5 -66.5t240.5 -204.5l-325 -224q-40 55 -96 87t-126 32q-49 1 -108 -20t-74 -76q-11 -42 17 -64.5t69 -34.5t68 -22l73 -29q100 -41 183.5 -109.5t132 -162t41.5 -208.5q-9 -154 -102.5 -263t-231.5 -166
t-280 -55q-178 2 -330 80t-255 223l343 240q42 -68 98.5 -111t141.5 -44q51 0 112.5 21.5t76.5 79.5q14 49 -26 82t-95.5 53.5t-86.5 33.5l-80 32q-135 58 -223 170.5t-79 265.5zM715 1777l-388 -8l-2 27l476 384h277l376 -386l1 -26l-354 8l-161 183z" />
    <glyph glyph-name="Scedilla" unicode="&#x15e;" horiz-adv-x="1760" 
d="M23 0zM1253 1438q-1 118 -59 182.5t-179 66.5q-68 2 -138 -16.5t-122.5 -62.5t-67.5 -120q-12 -58 17.5 -98.5t80 -68.5t105 -48t93.5 -37l50 -25q140 -62 260.5 -142t190 -196.5t54.5 -289.5q-18 -215 -137 -351t-297.5 -199t-376.5 -61q-214 2 -373 85t-245 237.5
t-82 370.5h448q-2 -143 61 -225t215 -84q72 -1 144 23t125.5 74t70.5 126q14 69 -14.5 118.5t-81.5 85t-114 60t-111 41.5l-36 12q-148 50 -265.5 123.5t-181 187.5t-49.5 286q13 152 89.5 262.5t194.5 182.5t256 106t273 32q295 -4 473 -172.5t176 -465.5h-447zM568 16
l331 2l-32 -96q84 -15 126 -78.5t41 -144.5q0 -106 -50.5 -173.5t-131 -105t-173 -53.5t-176.5 -18l11 260q55 2 98.5 27.5t55.5 83.5q10 46 -17.5 64t-69 21.5t-71.5 5.5z" />
    <glyph glyph-name="scedilla" unicode="&#x15f;" horiz-adv-x="1384" 
d="M0 0zM162 1097q9 157 102 259.5t230 152t278 48.5q166 -2 311.5 -66.5t240.5 -204.5l-325 -224q-40 55 -96 87t-126 32q-49 1 -108 -20t-74 -76q-11 -42 17 -64.5t69 -34.5t68 -22l73 -29q100 -41 183.5 -109.5t132 -162t41.5 -208.5q-9 -154 -102.5 -263t-231.5 -166
t-280 -55q-178 2 -330 80t-255 223l343 240q42 -68 98.5 -111t141.5 -44q51 0 112.5 21.5t76.5 79.5q14 49 -26 82t-95.5 53.5t-86.5 33.5l-80 32q-135 58 -223 170.5t-79 265.5zM390 16l331 2l-32 -96q84 -15 126 -78.5t41 -144.5q0 -106 -50.5 -173.5t-131 -105
t-173 -53.5t-176.5 -18l11 260q55 2 98.5 27.5t55.5 83.5q10 46 -17.5 64t-69 21.5t-71.5 5.5z" />
    <glyph glyph-name="Scaron" unicode="&#x160;" horiz-adv-x="1760" 
d="M23 0zM1253 1438q-1 118 -59 182.5t-179 66.5q-68 2 -138 -16.5t-122.5 -62.5t-67.5 -120q-12 -58 17.5 -98.5t80 -68.5t105 -48t93.5 -37l50 -25q140 -62 260.5 -142t190 -196.5t54.5 -289.5q-18 -215 -137 -351t-297.5 -199t-376.5 -61q-214 2 -373 85t-245 237.5
t-82 370.5h448q-2 -143 61 -225t215 -84q72 -1 144 23t125.5 74t70.5 126q14 69 -14.5 118.5t-81.5 85t-114 60t-111 41.5l-36 12q-148 50 -265.5 123.5t-181 187.5t-49.5 286q13 152 89.5 262.5t194.5 182.5t256 106t273 32q295 -4 473 -172.5t176 -465.5h-447zM954 2536
l165 -183l225 182l380 8l2 -27l-472 -384h-276l-381 386l-1 26z" />
    <glyph glyph-name="scaron" unicode="&#x161;" horiz-adv-x="1384" 
d="M0 0zM162 1097q9 157 102 259.5t230 152t278 48.5q166 -2 311.5 -66.5t240.5 -204.5l-325 -224q-40 55 -96 87t-126 32q-49 1 -108 -20t-74 -76q-11 -42 17 -64.5t69 -34.5t68 -22l73 -29q100 -41 183.5 -109.5t132 -162t41.5 -208.5q-9 -154 -102.5 -263t-231.5 -166
t-280 -55q-178 2 -330 80t-255 223l343 240q42 -68 98.5 -111t141.5 -44q51 0 112.5 21.5t76.5 79.5q14 49 -26 82t-95.5 53.5t-86.5 33.5l-80 32q-135 58 -223 170.5t-79 265.5zM733 2112l165 -183l225 182l380 8l2 -27l-472 -384h-276l-381 386l-1 26z" />
    <glyph glyph-name="Tcommaaccent" unicode="&#x162;" horiz-adv-x="1788" 
d="M206 0zM1886 2048l-67 -384h-581l-289 -1664h-449l294 1663l-588 1l67 384h1613zM559 32l331 2l-32 -96q84 -15 126 -78.5t41 -144.5q0 -106 -50.5 -173.5t-131 -105t-173 -53.5t-176.5 -18l11 260q55 2 98.5 27.5t55.5 83.5q10 46 -17.5 64t-69 21.5t-71.5 5.5z" />
    <glyph glyph-name="tcommaaccent" unicode="&#x163;" horiz-adv-x="1024" 
d="M123 0zM1046 1536l-57 -320h-233l-127 -734q-8 -54 11.5 -93t79.5 -43l138 -2l-49 -355q-60 -10 -119 -14.5t-119 -2.5q-121 5 -215 68t-143.5 165t-37.5 223l136 787l-188 1l58 320h182l57 328h450l-62 -327zM300 16l331 2l-32 -96q84 -15 126 -78.5t41 -144.5
q0 -106 -50.5 -173.5t-131 -105t-173 -53.5t-176.5 -18l11 260q55 2 98.5 27.5t55.5 83.5q10 46 -17.5 64t-69 21.5t-71.5 5.5z" />
    <glyph glyph-name="Tcaron" unicode="&#x164;" horiz-adv-x="1788" 
d="M206 0zM1886 2048l-67 -384h-581l-289 -1664h-449l294 1663l-588 1l67 384h1613zM942 2536l165 -183l225 182l380 8l2 -27l-472 -384h-276l-381 386l-1 26z" />
    <glyph glyph-name="tcaron" unicode="&#x165;" horiz-adv-x="1064" 
d="M123 0zM1046 1536l-57 -320h-233l-127 -734q-8 -54 11.5 -93t79.5 -43l138 -2l-49 -355q-60 -10 -119 -14.5t-119 -2.5q-121 5 -215 68t-143.5 165t-37.5 223l136 787l-188 1l58 320h182l57 328h450l-62 -327zM1501 2296l-39 -227q-25 -160 -85.5 -303.5t-179.5 -256.5
l-220 112q50 107 98.5 203t68.5 216l44 256h313z" />
    <glyph glyph-name="Tbar" unicode="&#x166;" horiz-adv-x="1788" 
d="M1391 1260l-46 -264h-223l-173 -996h-449l176 996h-296l46 264h297l71 403l-588 1l67 384h1613l-67 -384h-581l-70 -404h223z" />
    <glyph glyph-name="tbar" unicode="&#x167;" horiz-adv-x="1024" 
d="M979 964l-46 -264h-267l-38 -218q-8 -54 11.5 -93t79.5 -43l138 -2l-49 -355q-60 -10 -119 -14.5t-119 -2.5q-121 5 -215 68t-143.5 165t-37.5 223l47 272h-253l46 264h253l43 251l-188 1l58 320h182l57 328h450l-62 -327l238 -1l-57 -320h-233l-43 -252h267z" />
    <glyph glyph-name="Utilde" unicode="&#x168;" horiz-adv-x="1920" 
d="M74 0zM1499 2048h453l-233 -1351q-35 -235 -162 -398.5t-319.5 -247.5t-424.5 -82q-216 2 -387.5 88.5t-261.5 248t-61 390.5l232 1352h453l-233 -1353q-20 -146 60 -232.5t225 -90.5q153 -5 275 82t151 242zM1491 2544l241 -14q-3 -93 -42 -181t-111.5 -145t-175.5 -55
q-67 1 -124.5 31.5t-114 60.5t-121.5 30q-58 -1 -88 -38.5t-41 -88.5l-246 10q2 92 42 180.5t113 146t175 55.5q66 -1 123.5 -31t114.5 -59t122 -29q58 1 89.5 38t43.5 89z" />
    <glyph glyph-name="utilde" unicode="&#x169;" horiz-adv-x="1624" 
d="M66 0zM987 720l139 816h449l-266 -1536h-414l41 167l-8 -1q-81 -92 -190 -142t-233 -47q-167 4 -266 91t-136 223t-20 285l162 960h449l-161 -945q-11 -89 21 -166t136 -82q102 -5 162.5 56t91 150t43.5 171zM1246 2120l241 -14q-3 -93 -42 -181t-111.5 -145t-175.5 -55
q-67 1 -124.5 31.5t-114 60.5t-121.5 30q-58 -1 -88 -38.5t-41 -88.5l-246 10q2 92 42 180.5t113 146t175 55.5q66 -1 123.5 -31t114.5 -59t122 -29q58 1 89.5 38t43.5 89z" />
    <glyph glyph-name="Umacron" unicode="&#x16a;" horiz-adv-x="1920" 
d="M74 0zM1499 2048h453l-233 -1351q-35 -235 -162 -398.5t-319.5 -247.5t-424.5 -82q-216 2 -387.5 88.5t-261.5 248t-61 390.5l232 1352h453l-233 -1353q-20 -146 60 -232.5t225 -90.5q153 -5 275 82t151 242zM1673 2420l-38 -236h-926l37 236h927z" />
    <glyph glyph-name="umacron" unicode="&#x16b;" horiz-adv-x="1624" 
d="M66 0zM987 720l139 816h449l-266 -1536h-414l41 167l-8 -1q-81 -92 -190 -142t-233 -47q-167 4 -266 91t-136 223t-20 285l162 960h449l-161 -945q-11 -89 21 -166t136 -82q102 -5 162.5 56t91 150t43.5 171zM1428 1996l-38 -236h-926l37 236h927z" />
    <glyph glyph-name="Ubreve" unicode="&#x16c;" horiz-adv-x="1920" 
d="M74 0zM1499 2048h453l-233 -1351q-35 -235 -162 -398.5t-319.5 -247.5t-424.5 -82q-216 2 -387.5 88.5t-261.5 248t-61 390.5l232 1352h453l-233 -1353q-20 -146 60 -232.5t225 -90.5q153 -5 275 82t151 242zM1406 2541l298 2q-1 -141 -74.5 -237t-190.5 -144.5
t-248 -45.5q-194 3 -319.5 115.5t-129.5 310.5l295 -1q-1 -79 35 -127t121 -51q86 -2 144.5 45t68.5 133z" />
    <glyph glyph-name="ubreve" unicode="&#x16d;" horiz-adv-x="1624" 
d="M66 0zM987 720l139 816h449l-266 -1536h-414l41 167l-8 -1q-81 -92 -190 -142t-233 -47q-167 4 -266 91t-136 223t-20 285l162 960h449l-161 -945q-11 -89 21 -166t136 -82q102 -5 162.5 56t91 150t43.5 171zM1161 2117l298 2q-1 -141 -74.5 -237t-190.5 -144.5
t-248 -45.5q-194 3 -319.5 115.5t-129.5 310.5l295 -1q-1 -79 35 -127t121 -51q86 -2 144.5 45t68.5 133z" />
    <glyph glyph-name="Uring" unicode="&#x16e;" horiz-adv-x="1920" 
d="M74 0zM1499 2048h453l-233 -1351q-35 -235 -162 -398.5t-319.5 -247.5t-424.5 -82q-216 2 -387.5 88.5t-261.5 248t-61 390.5l232 1352h453l-233 -1353q-20 -146 60 -232.5t225 -90.5q153 -5 275 82t151 242zM919 2368q-1 85 43.5 150.5t116 102.5t153.5 36
q114 -2 199 -78.5t86 -194.5q0 -85 -44.5 -148.5t-116 -98.5t-152.5 -34q-113 2 -199 74t-86 191zM1079 2368q-9 -54 18 -95t85 -42q65 -1 114 44.5t60 108.5q9 54 -18 95t-85 42q-65 1 -114 -44.5t-60 -108.5z" />
    <glyph glyph-name="uring" unicode="&#x16f;" horiz-adv-x="1624" 
d="M66 0zM987 720l139 816h449l-266 -1536h-414l41 167l-8 -1q-81 -92 -190 -142t-233 -47q-167 4 -266 91t-136 223t-20 285l162 960h449l-161 -945q-11 -89 21 -166t136 -82q102 -5 162.5 56t91 150t43.5 171zM674 1944q-1 85 43.5 150.5t116 102.5t153.5 36
q114 -2 199 -78.5t86 -194.5q0 -85 -44.5 -148.5t-116 -98.5t-152.5 -34q-113 2 -199 74t-86 191zM834 1944q-9 -54 18 -95t85 -42q65 -1 114 44.5t60 108.5q9 54 -18 95t-85 42q-65 1 -114 -44.5t-60 -108.5z" />
    <glyph glyph-name="Uhungarumlaut" unicode="&#x170;" horiz-adv-x="1920" 
d="M74 0zM1499 2048h453l-233 -1351q-35 -235 -162 -398.5t-319.5 -247.5t-424.5 -82q-216 2 -387.5 88.5t-261.5 248t-61 390.5l232 1352h453l-233 -1353q-20 -146 60 -232.5t225 -90.5q153 -5 275 82t151 242zM724 2124l332 412l391 -1l-385 -411h-338zM1227 2124l370 412
l395 -1l-425 -411h-340z" />
    <glyph glyph-name="uhungarumlaut" unicode="&#x171;" horiz-adv-x="1624" 
d="M66 0zM987 720l139 816h449l-266 -1536h-414l41 167l-8 -1q-81 -92 -190 -142t-233 -47q-167 4 -266 91t-136 223t-20 285l162 960h449l-161 -945q-11 -89 21 -166t136 -82q102 -5 162.5 56t91 150t43.5 171zM479 1700l332 412l391 -1l-385 -411h-338zM982 1700l370 412
l395 -1l-425 -411h-340z" />
    <glyph glyph-name="Uogonek" unicode="&#x172;" horiz-adv-x="1920" 
d="M1498 2048h453l-233 -1351q-41 -275 -207.5 -452t-409.5 -241q-30 -26 -52 -57.5t-28 -70.5q-12 -76 57 -78q25 0 48.5 8t46.5 17l39 -235q-46 -30 -102 -43t-111 -12q-128 1 -214.5 76.5t-84.5 207.5q2 84 42 155q-199 16 -354 105.5t-234 245.5t-52 373l232 1352h453
l-233 -1353q-20 -146 60 -232.5t225 -90.5q153 -5 275 82t151 242z" />
    <glyph glyph-name="uogonek" unicode="&#x173;" horiz-adv-x="1624" 
d="M987 720l139 816h449l-266 -1536h-90l15 -6q-66 -36 -142 -87t-89 -135q-12 -76 57 -78q25 0 48.5 8t46.5 17l39 -235q-46 -30 -102 -43t-111 -12q-128 1 -214.5 76.5t-84.5 207.5q2 114 67 193t155 133l32 128l-8 -1q-81 -92 -190 -142t-233 -47q-167 4 -266 91
t-136 223t-20 285l162 960h449l-161 -945q-11 -89 21 -166t136 -82q102 -5 162.5 56t91 150t43.5 171z" />
    <glyph glyph-name="Wcircumflex" unicode="&#x174;" horiz-adv-x="2560" 
d="M322 0zM714 2050l-1 -1381h13l507 1379h395l66 -1383h15l429 1383h414l-696 -2048h-460l-66 1287h-15l-471 -1287h-461l-61 2048zM1305 2201l-388 -8l-2 27l476 384h277l376 -386l1 -26l-354 8l-161 183z" />
    <glyph glyph-name="wcircumflex" unicode="&#x175;" horiz-adv-x="2172" 
d="M198 0zM2159 1536l-631 -1536h-362l-88 855h-21l-389 -855h-365l-105 1536h427l-19 -924h16l393 924h305l66 -915l19 -1l315 916h439zM1115 1777l-388 -8l-2 27l476 384h277l376 -386l1 -26l-354 8l-161 183z" />
    <glyph glyph-name="Ycircumflex" unicode="&#x176;" horiz-adv-x="2048" 
d="M299 0zM776 2048l266 -869l569 869h511l-917 -1306l-129 -742h-453l140 786l-464 1261zM1064 2201l-388 -8l-2 27l476 384h277l376 -386l1 -26l-354 8l-161 183z" />
    <glyph glyph-name="ycircumflex" unicode="&#x177;" horiz-adv-x="1536" 
d="M0 0zM396 -26l38 73l-274 1488l458 1l113 -815l374 815h478l-829 -1756q-78 -175 -229.5 -278.5t-345.5 -103.5q-51 0 -98.5 7.5t-96.5 21.5l39 354l26 -4t26 -2q114 -4 192.5 48t128.5 151zM735 1777l-388 -8l-2 27l476 384h277l376 -386l1 -26l-354 8l-161 183z" />
    <glyph glyph-name="Ydieresis" unicode="&#x178;" horiz-adv-x="2048" 
d="M299 0zM776 2048l266 -869l569 869h511l-917 -1306l-129 -742h-453l140 786l-464 1261zM731 2310q-3 82 52 136t135 55q77 1 132.5 -50.5t58.5 -128.5q4 -79 -50.5 -132.5t-131.5 -54.5q-76 -1 -134 48t-62 127zM1410 2310q-3 82 52 136t135 55q77 1 132.5 -50.5
t58.5 -128.5q4 -79 -50.5 -132.5t-131.5 -54.5q-76 -1 -134 48t-62 127z" />
    <glyph glyph-name="Zacute" unicode="&#x179;" horiz-adv-x="1792" 
d="M0 0zM1547 384l-66 -384h-1509l51 292l1185 1370l-948 2l67 384h1508l-49 -292l-1186 -1370zM897 2104l332 432l487 -1l-437 -431h-382z" />
    <glyph glyph-name="zacute" unicode="&#x17a;" horiz-adv-x="1512" 
d="M0 0zM1264 360l-63 -360h-1221l48 280l809 894l-626 2l63 360h1178l-48 -280l-809 -894zM680 1680l332 432l487 -1l-437 -431h-382z" />
    <glyph glyph-name="Zdotaccent" unicode="&#x17b;" horiz-adv-x="1792" 
d="M0 0zM1547 384l-66 -384h-1509l51 292l1185 1370l-948 2l67 384h1508l-49 -292l-1186 -1370zM940 2345q-4 93 59 150.5t153 57.5q85 1 148.5 -52t66.5 -142q4 -93 -59 -150.5t-153 -57.5q-86 -1 -149 52t-66 142z" />
    <glyph glyph-name="zdotaccent" unicode="&#x17c;" horiz-adv-x="1512" 
d="M0 0zM1264 360l-63 -360h-1221l48 280l809 894l-626 2l63 360h1178l-48 -280l-809 -894zM723 1921q-4 93 59 150.5t153 57.5q85 1 148.5 -52t66.5 -142q4 -93 -59 -150.5t-153 -57.5q-86 -1 -149 52t-66 142z" />
    <glyph glyph-name="Zcaron" unicode="&#x17d;" horiz-adv-x="1792" 
d="M0 0zM1547 384l-66 -384h-1509l51 292l1185 1370l-948 2l67 384h1508l-49 -292l-1186 -1370zM958 2536l165 -183l225 182l380 8l2 -27l-472 -384h-276l-381 386l-1 26z" />
    <glyph glyph-name="zcaron" unicode="&#x17e;" horiz-adv-x="1512" 
d="M0 0zM1264 360l-63 -360h-1221l48 280l809 894l-626 2l63 360h1178l-48 -280l-809 -894zM741 2112l165 -183l225 182l380 8l2 -27l-472 -384h-276l-381 386l-1 26z" />
    <glyph glyph-name="longs" unicode="&#x17f;" horiz-adv-x="768" 
d="M274 0h-434l276 1606q37 258 202.5 398.5t426.5 138.5q58 -1 116 -10t115 -20l-67 -342q-65 16 -127 16q-90 1 -151.5 -44.5t-78.5 -134.5z" />
    <glyph glyph-name="bbar" unicode="&#x180;" horiz-adv-x="1792" 
d="M505 2048l452 -1l-29 -122l262 -1l-48 -264l-255 1l-46 -196l2 1q73 38 135.5 64.5t148.5 25.5q157 -2 265 -73.5t171 -187.5t84.5 -253.5t6.5 -271.5q-17 -147 -75.5 -290t-154.5 -259t-227 -184.5t-294 -65.5q-73 1 -143.5 21.5t-125.5 69.5l-17 1l-11 -63h-456
l291 1659l-265 1l48 264h259zM686 541q3 -86 50 -142t137 -60q119 -5 192 62.5t111.5 169.5t51.5 199q8 57 10.5 128.5t-12 138t-56 111t-122.5 45.5q-114 3 -190 -73t-113 -175q-35 -93 -48 -181q-9 -54 -11 -111t0 -112z" />
    <glyph glyph-name="Bhook" unicode="&#x181;" horiz-adv-x="2268" 
d="M1283 7l-790 1l295 1664h-31q-116 -3 -176.5 -79t-79.5 -181l-21 -128h-402l33 212q37 268 220.5 410.5t448.5 142.5l733 -2q134 -1 261 -31t226.5 -94.5t152.5 -171.5t41 -263q-14 -167 -105 -276t-242 -170q133 -49 188 -168.5t44 -253.5q-18 -219 -131.5 -353.5
t-288 -196.5t-376.5 -62zM1229 1664l-87 -467l225 -2q84 0 163 20t135 71.5t71 145.5q21 131 -50 180t-190 51zM1639 628q18 111 -28.5 177t-161.5 70l-356 1l-91 -487l298 -2q119 0 218 56.5t121 184.5z" />
    <glyph glyph-name="Btopbar" unicode="&#x182;" horiz-adv-x="1792" 
d="M1703 2048l-67 -384h-848l-68 -351l149 -1q192 -4 354 -77t253.5 -215t71.5 -351q-21 -220 -147.5 -369.5t-314.5 -225t-394 -74.5h-740l355 2048h1396zM856 943l-194 1l-105 -571l151 -2q141 0 254 80.5t137 225.5q21 126 -51.5 194t-191.5 72z" />
    <glyph glyph-name="btopbar" unicode="&#x183;" horiz-adv-x="1792" 
d="M334 2048h1148l-67 -380h-697l-48 -203l3 1q72 38 135 64.5t149 25.5q157 -2 265 -73.5t171 -187.5t84.5 -253.5t5.5 -271.5q-17 -147 -75.5 -290t-154.5 -259t-227 -184.5t-294 -65.5q-73 1 -143.5 21.5t-125.5 69.5l-16 1l-12 -63h-456zM515 541q3 -87 50 -143t137 -59
q119 -5 192.5 62.5t111.5 169.5t51 199q8 57 10.5 128.5t-12 138t-56 111t-121.5 45.5q-115 3 -191 -73t-113 -175q-35 -93 -48 -181q-8 -54 -10.5 -111t-0.5 -112z" />
    <glyph glyph-name="Tonesix" unicode="&#x184;" horiz-adv-x="2048" 
d="M1804 670q-21 -220 -147.5 -369.5t-314.5 -225.5t-394 -75h-740l243 1375l-196 198l39 220l244 183l11 74l467 -2l-128 -735l238 -2q191 -3 352.5 -76t253.5 -214.5t72 -350.5zM724 374l240 -4q142 0 254.5 81t136.5 226q21 125 -51.5 193.5t-191.5 72.5l-287 1z" />
    <glyph glyph-name="tonesix" unicode="&#x185;" horiz-adv-x="1792" 
d="M535 2112l74 3l-13 -71l385 4l-113 -583l3 1q72 39 135 65t149 25q156 -2 264 -73.5t171 -187.5t85 -253.5t6 -271.5q-17 -146 -75.5 -289.5t-154.5 -259.5t-227 -184.5t-294 -65.5q-73 1 -143.5 21.5t-125.5 69.5l-16 1l-12 -63h-456l259 1466l-213 215l39 219zM713 541
q3 -86 50 -142t137 -60q119 -5 192.5 62.5t111.5 169.5t51 199q8 57 10.5 128.5t-12 138t-56 111t-122.5 45.5q-114 3 -189.5 -73t-113.5 -175q-35 -93 -48 -181q-8 -54 -10.5 -111t-0.5 -112z" />
    <glyph glyph-name="Oopen" unicode="&#x186;" horiz-adv-x="1876" 
d="M500 699q11 -86 33.5 -161.5t75.5 -124t155 -52.5q133 -6 225.5 57.5t152 167.5t93 223t48.5 225q12 85 19 195.5t-10.5 214.5t-78.5 173.5t-185 72.5q-160 4 -260 -99.5t-132 -250.5l-429 62q34 213 163.5 365t316 232t392.5 78q217 -3 357 -97t214.5 -246.5t94 -335.5
t-4.5 -365q-27 -199 -99 -389.5t-192 -343t-290.5 -242t-395.5 -86.5q-312 4 -495.5 182t-220.5 481z" />
    <glyph glyph-name="Chook" unicode="&#x187;" horiz-adv-x="2152" 
d="M1246 696l436 -62q-32 -211 -162 -360t-317.5 -226.5t-389.5 -75.5q-222 2 -363.5 95t-215.5 246t-91.5 338t7.5 371q26 196 98.5 384.5t193 341t290.5 242t390 87.5q130 -2 262.5 -37t231.5 -125q193 226 498 226q55 0 110 -2.5t110 -9.5l-40 -375q-29 2 -59 5t-59 3
q-126 4 -220 -68.5t-118 -197.5l-15 -95l-433 -64q-10 88 -32 166.5t-75.5 129t-158.5 55.5q-132 5 -224.5 -57t-152 -165t-93 -221t-47.5 -223q-12 -85 -19.5 -196.5t9.5 -217.5t77.5 -176.5t185.5 -73.5q155 -4 254.5 95.5t131.5 242.5z" />
    <glyph glyph-name="chook" unicode="&#x188;" horiz-adv-x="1792" 
d="M1358 917l-295 1l5 36l-43 -9q-17 93 -57.5 167.5t-149.5 79.5q-117 5 -190 -64.5t-111 -172.5t-51 -198q-8 -58 -10.5 -129t12 -136.5t56.5 -108.5t124 -45q101 -3 173 56.5t100 152.5l397 -70q-26 -166 -129.5 -279.5t-251 -171t-305.5 -54.5q-223 3 -363 114
t-197.5 288.5t-32.5 382.5q25 216 130 399t278 293.5t403 107.5q87 -1 173 -20.5t161 -64.5q162 211 424 210q48 -1 94.5 -8t93.5 -17l-28 -299l-48 10t-49 6q-91 4 -165 -35t-111 -123q22 -98 32 -194l-58 -8z" />
    <glyph glyph-name="Dbar1" unicode="&#x189;" horiz-adv-x="2048" 
d="M856 0h-698l161 895l-251 1l48 264h243l155 888h647q207 -3 361 -87t252.5 -225t137.5 -318.5t14 -368.5q-28 -214 -112.5 -404t-222 -335.5t-322.5 -228t-413 -81.5zM1081 1160l-47 -264h-267l-91 -495l180 -2q194 -1 320 89.5t196 240t95 324.5q14 101 7 204.5
t-44 190.5t-112.5 141.5t-199.5 57.5l-220 1l-91 -487z" />
    <glyph glyph-name="Dhook" unicode="&#x18a;" horiz-adv-x="2392" 
d="M1193 0h-698l294 1652h-36q-111 -2 -172.5 -69t-79.5 -171l-21 -128h-402l33 212q37 268 220.5 410.5t448.5 142.5l718 -1q206 -4 360.5 -87.5t252.5 -224.5t137 -318.5t14 -368.5q-27 -214 -112 -404t-222 -335.5t-322 -228t-413 -81.5zM1455 1647l-221 1l-221 -1247
l180 -2q193 -1 319.5 89.5t196.5 239.5t94 324q14 101 7.5 204.5t-44 191t-113 142t-198.5 57.5z" />
    <glyph glyph-name="Dtopbar" unicode="&#x18b;" horiz-adv-x="1792" 
d="M1469 0h-690q-193 4 -354.5 80.5t-252 221t-69.5 354.5q21 221 147.5 366.5t314 217.5t391.5 72h290l69 355l-860 1l66 380h1303zM1084 372l105 571l-249 3q-135 0 -249 -71.5t-137 -214.5q-22 -126 46 -203.5t194 -83.5z" />
    <glyph glyph-name="dtopbar" unicode="&#x18c;" horiz-adv-x="1536" 
d="M1324 0h-437l12 63l-3 -1q-72 -40 -139 -65.5t-153 -24.5q-157 2 -265.5 73t-172.5 186.5t-86.5 253t-6.5 272.5q17 145 75 288t154 259.5t226.5 185.5t292.5 66q73 -1 141 -21.5t125 -67.5l17 -1l54 201l-739 1l67 380h1182zM499 757q-8 -59 -10.5 -130.5t12.5 -136.5
t57.5 -108t124.5 -45q103 -2 179.5 59t111.5 154q20 53 34 110.5t22 113.5q7 44 9 89t2 90q-1 92 -44 163.5t-146 75.5q-117 5 -190 -64.5t-111 -173t-51 -197.5z" />
    <glyph glyph-name="deltaturn" unicode="&#x18d;" horiz-adv-x="1792" 
d="M1169 -516h-1089l62 356l535 -1q-37 49 -87 88.5t-94 81.5q-153 151 -253 336t-76 408l3 29q26 210 130.5 377.5t273.5 264t388 92.5q198 -3 340.5 -89t213 -236.5t49.5 -348.5l-3 -28q-14 -120 -63 -239.5t-129 -220.5t-187.5 -166t-238.5 -75h-65q65 -108 152 -208
t171 -194zM1118 762l4 29q10 78 6 162.5t-45.5 144.5t-143.5 63q-109 4 -179.5 -52.5t-109 -145t-52.5 -181.5l-4 -28q-14 -109 7 -222.5t112 -185.5q31 -9 58 -10q116 -4 187.5 63.5t108.5 167.5t51 195z" />
    <glyph glyph-name="Eturn" unicode="&#x18e;" horiz-adv-x="1624" 
d="M267 1664l67 384h1330l-355 -2048h-1330l67 384h876l84 447l-747 1l67 384h740l84 447z" />
    <glyph glyph-name="Schwa" unicode="&#x18f;" horiz-adv-x="2048" 
d="M874 -29q-276 3 -446 134t-235.5 346t-29.5 469l41 244l1235 -2q42 217 -73.5 335.5t-328.5 121.5q-140 3 -278.5 -18t-273.5 -60l-29 393q81 48 194.5 68.5t230 24.5t206.5 4q270 -1 464 -117t285 -322t52 -476l-37 -236q-29 -184 -111.5 -349t-210 -291.5
t-293.5 -198.5t-362 -70zM901 379q128 -3 221.5 54.5t158.5 152t109 201.5l-792 -1l-10 -44q-38 -172 53.5 -265.5t259.5 -97.5z" />
    <glyph glyph-name="Epsilon1" unicode="&#x190;" horiz-adv-x="1792" 
d="M905 1201l267 -1l-62 -356l-218 1q-144 1 -242.5 -65t-119.5 -217q-12 -83 22 -131t96.5 -68t135.5 -22q71 -1 142.5 19.5t122.5 68t62 127.5l449 1q-5 -153 -78.5 -264.5t-190.5 -183t-255.5 -105.5t-272.5 -33q-137 1 -266 33t-229.5 101t-154 179t-41.5 268
q15 191 129 306.5t288 173.5q-109 75 -172.5 178.5t-54.5 240.5q10 156 84 267.5t190 181t254 101.5t277 30q175 -2 320.5 -68.5t233.5 -194t89 -311.5l-446 1q3 106 -58 150.5t-162 46.5q-73 2 -146 -18.5t-126 -68t-67 -128.5q-20 -116 32.5 -176t167.5 -64z" />
    <glyph glyph-name="Fhook" unicode="&#x191;" horiz-adv-x="1624" 
d="M1384 1216l-67 -384h-740l-155 -912q-34 -257 -188.5 -378.5t-406.5 -120.5q-53 0 -107 1.5t-107 7.5l38 355q35 -6 75 -6q78 -2 149 27t90 114l369 2128h1330l-67 -384h-876l-84 -447z" />
    <glyph glyph-name="florin" unicode="&#x192;" horiz-adv-x="1280" 
d="M1191 1488l-51 -320h-282l-188 -1216q-30 -243 -173 -399.5t-401 -155.5q-55 0 -110 6t-109 16l53 354q60 -20 118 -21q95 -1 135.5 57.5t52.5 142.5l188 1216h-210l50 320h210l16 120q32 257 198.5 396.5t424.5 137.5q59 0 117 -9t116 -20l-64 -341q-67 15 -132 15
q-88 0 -148.5 -45.5t-76.5 -133.5l-18 -120h284z" />
    <glyph glyph-name="Ghook" unicode="&#x193;" horiz-adv-x="2224" 
d="M1778 1096l-63 -375q-34 -227 -151.5 -396t-301 -262t-414.5 -91q-224 1 -371 91.5t-227.5 241t-103 335.5t2.5 378q26 201 101 391t199.5 341.5t298 240t397.5 85.5q112 -2 222.5 -30.5t202.5 -96.5q93 167 234 256.5t336 87.5q55 0 109.5 -7t108.5 -17l-39 -371l-58 10
t-59 6q-110 4 -206 -39t-120 -163l-47 -279l-420 -60q-25 124 -83 215.5t-201 98.5q-133 6 -225.5 -57.5t-152.5 -168t-93.5 -224t-48.5 -224.5q-13 -96 -19 -208.5t15.5 -214.5t88.5 -169t199 -71q129 -4 209.5 52t127.5 150t74 206l-368 -2l60 340h786z" />
    <glyph glyph-name="Gamma1" unicode="&#x194;" horiz-adv-x="2048" 
d="M307 2003l510 1l211 -931l532 931h539l-938 -1473q21 -116 61 -236.5t71 -243t25 -241.5q-8 -148 -88.5 -239.5t-202.5 -132.5t-254 -39q-120 2 -231.5 43.5t-180 128t-59.5 224.5q5 89 53 189.5t117 201.5t139 191.5t118 159.5zM769 -193q-4 -27 -2 -60t40 -34
q45 -1 65.5 34t26.5 73q10 59 0 120t-20 119q-33 -58 -66 -121.5t-44 -130.5z" />
    <glyph glyph-name="hv" unicode="&#x195;" horiz-adv-x="2428" 
d="M568 816l-140 -816h-449l355 2048h434l-130 -679l7 1q79 92 183.5 140t226.5 46q123 -3 202 -56.5t121 -140t53 -191t-2 -208.5l-57 -365q-7 -54 -2 -109.5t34.5 -94t97.5 -41.5q110 -5 169 72t75 174l160 940h449l-161 -940q-27 -186 -125 -328t-251 -220.5t-344 -75.5
q-180 2 -312 83t-197 221t-42 320l58 369q7 50 4.5 101.5t-28.5 88t-89 39.5q-102 5 -163 -56.5t-93 -151.5t-44 -170z" />
    <glyph glyph-name="Iota1" unicode="&#x196;" horiz-adv-x="1024" 
d="M764 2112l-277 -1611q-22 -161 132 -166q35 -2 69.5 2t69.5 9l-3 -350q-51 -11 -103 -18.5t-104 -6.5q-160 1 -278 66t-176 184t-39 283l276 1608h433z" />
    <glyph glyph-name="Istroke" unicode="&#x197;" horiz-adv-x="1280" 
d="M1162 1160l-47 -264h-268l-155 -896h-453l161 895l-251 1l47 264h244l154 888h453l-159 -887z" />
    <glyph glyph-name="Khook" unicode="&#x198;" horiz-adv-x="1920" 
d="M1079 0l-293 716l-285 -316l-69 -400h-453l355 2048h453l-164 -888h9l519 603l72 89q153 189 363 212t417 -83l-172 -332q-92 52 -161.5 15.5t-132.5 -107.5l-421 -470l479 -1087h-516z" />
    <glyph glyph-name="khook" unicode="&#x199;" horiz-adv-x="1556" 
d="M913 0l-249 548l-171 -171l-65 -377h-449l269 1580q30 255 186 377.5t404 120.5q60 0 119.5 -5t119.5 -11l-37 -351q-54 10 -99 11q-78 2 -149 -27.5t-90 -114.5l-107 -556h13l483 512l550 -1l-669 -675l410 -860h-469z" />
    <glyph glyph-name="lbar" unicode="&#x19a;" horiz-adv-x="1280" 
d="M1183 1272l-48 -264h-236l-175 -1008h-449l179 1007l-285 1l48 264h278l135 776h449l-138 -775z" />
    <glyph glyph-name="lambdabar" unicode="&#x19b;" horiz-adv-x="1792" 
d="M1211 1879l-34 -279l-41 -11l230 -1098q12 -45 33 -97t76 -58l52 -1l-37 -357q-37 -5 -74.5 -5.5t-73.5 0.5q-151 5 -250.5 89t-133.5 230l-100 567l-415 -859h-480l765 1451l-391 -119l53 295l281 82q-16 41 -50 54.5t-76 14.5q-23 1 -45.5 -1t-45.5 -3l22 337
q57 16 117 22t119 5q120 -2 216 -60t128 -179l15 -64z" />
    <glyph glyph-name="mcapturn" unicode="&#x19c;" horiz-adv-x="2560" 
d="M1787 0l21 167q-165 -199 -418 -195q-123 2 -233 56t-148 181q-91 -112 -208.5 -177t-265.5 -63q-183 2 -276.5 88t-119 224.5t-6.5 298.5l244 1424h430l-245 -1425q-7 -56 -2.5 -111.5t34.5 -94t99 -40.5q83 -4 150.5 30.5t120.5 95.5q5 31 9.5 61t9.5 60l248 1424h429
l-244 -1426q-7 -55 -3 -110.5t33.5 -93.5t98.5 -41q80 -3 146 28t119 89l274 1554h434l-348 -2004h-383z" />
    <glyph glyph-name="Nhook" unicode="&#x19d;" horiz-adv-x="1920" 
d="M1951 2048l-355 -2048h-432l-487 1261l-18 2l-237 -1343q-34 -257 -189 -378.5t-407 -120.5q-53 1 -106.5 2.5t-106.5 6.5l38 355q36 -6 76 -6q78 -2 148.5 27t89.5 114l369 2128h436l483 -1261l18 -2l227 1263h453z" />
    <glyph glyph-name="nlegrightlong" unicode="&#x19e;" horiz-adv-x="1624" 
d="M0 0zM568 816l-140 -816h-449l266 1536l415 1l-41 -168l7 1q168 191 424 186q167 -4 265.5 -90t135.5 -221t20 -285l-262 -1536h-449l261 1522q12 89 -19.5 166t-136.5 81q-102 5 -162.5 -56t-91.5 -150t-43 -171z" />
    <glyph glyph-name="Obar" unicode="&#x19f;" horiz-adv-x="1976" 
d="M125 0zM1835 1025q-26 -197 -102 -386t-201 -340.5t-298 -240.5t-393 -86q-217 3 -362 94.5t-225.5 243t-104.5 335t1 369.5q26 199 102.5 389.5t202 343.5t299.5 242.5t395 86.5q218 -3 362 -96.5t223.5 -246.5t102.5 -337.5t-2 -370.5zM1121 1653q-139 4 -231 -64
t-152.5 -175t-103.5 -219q132 33 258 16t252.5 -42.5t258.5 -15.5q7 78 0 164t-36.5 161t-89 123t-156.5 52zM861 348q144 -5 238 71.5t153.5 192.5t100.5 231q-129 -26 -256.5 -5.5t-257 44.5t-261.5 7q-9 -81 -4.5 -173.5t33 -175t89.5 -136t165 -56.5z" />
    <glyph glyph-name="Ohorn" unicode="&#x1a0;" horiz-adv-x="2036" 
d="M1833 1025q-27 -198 -102.5 -386.5t-199.5 -340.5t-296.5 -240.5t-393.5 -85.5q-217 2 -362 94t-225.5 243.5t-104.5 335t1 369.5q26 199 102.5 389.5t202 343.5t299.5 242.5t395 86.5q178 -2 336.5 -79.5t251.5 -232.5q107 55 142 160.5t45 216.5h268
q-8 -125 -43.5 -242t-110.5 -206.5t-202 -134.5q11 -135 13 -266.5t-16 -266.5zM1375 1006q12 84 18 192.5t-12 211t-78.5 170.5t-181.5 72q-132 5 -224 -56t-152 -161.5t-93.5 -217.5t-48.5 -223q-12 -86 -18 -194.5t13 -210.5t80 -170t183 -72q130 -4 221 58t151 163
t93.5 217.5t48.5 220.5z" />
    <glyph glyph-name="ohorn" unicode="&#x1a1;" horiz-adv-x="1660" 
d="M633 -24q-167 2 -283 68t-184 177.5t-92 250.5t-7 289q17 154 78.5 297.5t162.5 257t237.5 178.5t303.5 62q148 -3 278.5 -71t207.5 -196q86 58 117 145.5t41 186.5l245 1q-9 -170 -82.5 -305t-240.5 -195q5 -88 4.5 -174.5t-11.5 -173.5q-26 -212 -121 -395t-259 -295
t-395 -108zM652 339q87 -4 147.5 36.5t99.5 108t60.5 145t29.5 146.5q7 54 10 123.5t-9 135.5t-50.5 110.5t-114.5 48.5q-86 4 -145 -36.5t-96.5 -107.5t-58 -144t-28.5 -145q-6 -52 -10.5 -122t5.5 -137t47 -112.5t113 -49.5z" />
    <glyph glyph-name="OI" unicode="&#x1a2;" horiz-adv-x="2560" 
d="M2565 2004l-446 -2576h-430l355 2020l-221 -95l-180 -1102q-86 -109 -222.5 -170t-287.5 -85.5t-279 -23.5q-209 2 -355.5 82t-233.5 217t-116.5 310.5t-2.5 362.5l17 115q30 199 108.5 375.5t204.5 312t297 212t385 73.5q111 -1 230 -19.5t229 -63.5t192 -127l410 182
h346zM1168 1662q-177 4 -289 -83t-173.5 -226t-85.5 -293l-17 -117q-13 -93 -14 -196t25 -193.5t93 -148t190 -59.5q176 -3 326 86l213 1143q-47 56 -124 71t-144 16z" />
    <glyph glyph-name="oi" unicode="&#x1a3;" horiz-adv-x="2048" 
d="M2022 1488l-357 -2060h-434l271 1558l-135 -49l-102 -641q-100 -170 -267.5 -249t-360.5 -75q-219 4 -352.5 108.5t-186.5 274.5t-29 371l4 33q27 208 125.5 382t263 276.5t388.5 98.5q124 -2 243.5 -52t197.5 -149l419 173h312zM648 333q103 -4 186 62l130 684
q-22 43 -60 62t-86 21q-112 4 -176.5 -60t-95.5 -159t-44 -185l-4 -32q-7 -53 -12.5 -119t4 -127.5t45.5 -102.5t113 -44z" />
    <glyph glyph-name="Phook" unicode="&#x1a4;" horiz-adv-x="2320" 
d="M1411 723l-341 1l-126 -724h-453l299 1673h-33q-115 -3 -176 -79.5t-80 -181.5l-21 -128h-402l33 212q37 268 220.5 410.5t448.5 142.5l811 -2q198 -4 349.5 -86.5t230.5 -232t58 -353.5q-22 -217 -139 -362t-295.5 -217.5t-383.5 -72.5zM1233 1664l-103 -559l299 -3
q137 2 233.5 79.5t117.5 215.5q18 116 -33.5 189t-172.5 77z" />
    <glyph glyph-name="phook" unicode="&#x1a5;" horiz-adv-x="1620" 
d="M-109 -578l345 2115v-1q38 237 184 328.5t373 88.5q60 -1 119 -8.5t118 -19.5l-32 -323q-60 27 -135 29q-56 1 -106.5 -24.5t-74.5 -78.5l-18 -63l9 1q123 92 284 90q156 -2 264 -73.5t171 -187.5t85 -253.5t6 -271.5q-17 -146 -75.5 -289t-154.5 -259.5t-227 -184.5
t-294 -66q-74 2 -144 22.5t-129 68.5l-9 1l-122 -639zM515 542q4 -87 50.5 -143t137.5 -60q118 -5 191.5 63t111.5 169.5t51 198.5q8 57 10.5 128.5t-12 138.5t-56 111t-121.5 45q-115 3 -190.5 -73t-113.5 -175q-35 -93 -48 -181q-8 -54 -10.5 -111t-0.5 -111z" />
    <glyph glyph-name="YR" unicode="&#x1a6;" horiz-adv-x="2048" 
d="M1192 -480l-377 1188h-283l-123 -708h-453l341 2003l5 -1l29 143l453 -2l-33 -138l281 -1q185 -3 339.5 -68t241.5 -197t68 -335q-40 -430 -438 -577l425 -1284v-27zM691 1628l-100 -547l283 -3q135 0 233 73t120 211q18 117 -35.5 189t-174.5 76z" />
    <glyph glyph-name="Tonetwo" unicode="&#x1a7;" horiz-adv-x="1792" 
d="M511 524q-18 -103 51.5 -144.5t158.5 -44.5q161 -5 279 69t137 244l451 2q-7 -171 -87.5 -299t-209 -212.5t-282 -126.5t-307.5 -40q-171 2 -323.5 60.5t-242.5 181t-74 315.5q12 149 81 258t175 186.5t232 131t252 91.5q70 21 164.5 52.5t172 85t95.5 138.5
q15 71 -20 113t-94 61t-115 20q-127 3 -224 -62t-112 -197l-443 -1q5 155 75 273t184 197t252.5 118.5t279.5 37.5q124 -1 246.5 -34.5t221.5 -101.5t154 -172.5t45 -247.5q-11 -146 -83 -252t-181.5 -181.5t-236 -128t-247.5 -90.5q-79 -25 -171.5 -58t-164.5 -89t-89 -153
z" />
    <glyph glyph-name="tonetwo" unicode="&#x1a8;" horiz-adv-x="1536" 
d="M464 412q-16 -75 39.5 -103.5t116.5 -30.5q101 -3 179.5 45.5t96.5 152.5l407 3q-1 -127 -65 -223t-167 -159.5t-221.5 -95t-227.5 -30.5q-102 2 -205 28.5t-188.5 81t-135.5 139.5t-44 204q6 126 62.5 210.5t145.5 138.5t194.5 85.5t210.5 49.5q51 9 115.5 24.5
t117 48.5t64.5 95q14 69 -31 103t-106 36q-93 3 -153 -44.5t-73 -138.5l-433 -2q2 130 64 223t161.5 151.5t216 86t228.5 25.5q136 -2 262.5 -54.5t205 -155t69.5 -254.5q-8 -151 -97 -243.5t-217 -143.5t-254 -78q-51 -10 -125.5 -26t-136.5 -50t-76 -99z" />
    <glyph glyph-name="Esh" unicode="&#x1a9;" horiz-adv-x="1792" 
d="M1255 1038v-22l-536 -634l766 -2l-67 -380h-1382l36 232l718 809l-434 816l34 191h1364l-67 -384h-755z" />
    <glyph glyph-name="eshlooprev" unicode="&#x1aa;" horiz-adv-x="1792" 
d="M285 1584q13 160 102.5 296.5t229.5 218.5t304 78q154 -4 271 -87t177 -215.5t43 -282.5l-274 -1614q-11 -78 10 -144.5t114 -70.5q33 -1 66 2.5t66 8.5l-36 -357q-49 -10 -98 -13.5t-99 -2.5q-168 4 -275.5 82t-153 208t-26.5 289l191 1053q-61 -19 -126 -19
q-153 0 -267 81.5t-173 212t-46 276.5zM804 1387q95 -3 157 63t75 154q10 76 -22.5 135t-115.5 61q-96 3 -160.5 -59t-78.5 -154q-11 -81 23.5 -139.5t121.5 -60.5z" />
    <glyph glyph-name="tpalatalhook" unicode="&#x1ab;" horiz-adv-x="1024" 
d="M1041 1536l-57 -320h-232l-128 -734q-8 -54 12 -93t79 -43l138 -3l-71 -423q-29 -216 -158.5 -355.5t-357.5 -138.5q-49 0 -97 6t-96 15l28 299q25 -5 50.5 -8t50.5 -4q99 -3 178 40.5t107 144.5l16 60q-107 17 -185 84t-117.5 163.5t-30.5 201.5l136 787l-188 1l58 320
h182l57 328h450l-62 -327z" />
    <glyph glyph-name="Thook" unicode="&#x1ac;" horiz-adv-x="2136" 
d="M2223 2048l-67 -384h-582l-288 -1664h-453l293 1663l-388 3q-117 -1 -179.5 -73.5t-80.5 -180.5l-22 -128h-370l33 211q35 262 203.5 409.5t434.5 145.5z" />
    <glyph glyph-name="thook" unicode="&#x1ad;" horiz-adv-x="1280" 
d="M1122 1488l-56 -320h-240l-118 -685q-10 -70 9.5 -105.5t93.5 -38.5q30 -1 60 1.5t60 5.5l-34 -337q-57 -22 -118 -29.5t-122 -6.5q-208 4 -306.5 127.5t-78.5 327.5l129 739l-201 1l58 320h194l28 192q33 262 190 381t412 116q122 -1 237 -24l-28 -299q-49 15 -98 16
q-97 3 -178 -42.5t-101 -147.5l-33 -192h241z" />
    <glyph glyph-name="Trthook" unicode="&#x1ae;" horiz-adv-x="1788" 
d="M1882 2048l-67 -384h-581l-304 -1746q-10 -77 35.5 -105.5t114.5 -31.5l107 -1l-62 -356h-178q-231 4 -358 129t-102 367l303 1743l-588 1l67 384h1613z" />
    <glyph glyph-name="Uhorn" unicode="&#x1af;" horiz-adv-x="2048" 
d="M1328 2048h454l-74 -355q97 32 148.5 96t73 147.5t28.5 176.5l267 1q-10 -172 -66.5 -312t-171 -229t-296.5 -108l-142 -769q-35 -235 -162 -398t-320 -247t-425 -82q-216 3 -387.5 88.5t-261.5 247t-60 391.5l231 1352h453l-233 -1353q-20 -146 60 -233.5t225 -92.5
q154 -4 276 84t150 243z" />
    <glyph glyph-name="uhorn" unicode="&#x1b0;" horiz-adv-x="1852" 
d="M988 720l139 816h449l-51 -225q88 54 118.5 135.5t40.5 178.5l240 1q-10 -206 -106 -345t-307 -177l-201 -1104h-414l41 167l-8 -1q-170 -193 -423 -187q-168 4 -267 90t-136 221t-19 286l162 960h449l-161 -945q-12 -90 21 -167t138 -82q101 -5 161.5 56.5t90.5 151
t43 170.5z" />
    <glyph glyph-name="Upsilon2" unicode="&#x1b1;" horiz-adv-x="1792" 
d="M613 908l-15 -106q-7 -58 -10.5 -133.5t10 -148t55.5 -121t125 -52.5q90 -4 153.5 39t105.5 114t66 151.5t35 152.5l15 104q9 66 24.5 167t18 209.5t-23 199.5t-97.5 136l60 384h693l-66 -376h-295q103 -173 163.5 -342t32.5 -378l-14 -100q-34 -228 -154.5 -420
t-310.5 -306.5t-433 -111.5q-233 4 -390.5 121.5t-228 307.5t-41.5 409l14 100q33 223 148.5 411.5t302.5 314.5l-298 -6l66 376h681l-59 -384q-115 -78 -181 -195.5t-99.5 -252.5t-52.5 -264z" />
    <glyph glyph-name="Vcursive" unicode="&#x1b2;" horiz-adv-x="1792" 
d="M751 -31q-214 3 -373 93.5t-237 253t-50 380.5l224 1308h449l-224 -1309q-20 -142 26.5 -244.5t207.5 -107.5q167 -5 262 95.5t121 257.5l126 753q11 82 -2.5 137.5t-108.5 58.5q-34 1 -67 -2.5t-66 -8.5l40 373q48 12 97.5 16.5t99.5 3.5q169 -3 277.5 -80.5t155 -207.5
t26.5 -291l-125 -752q-35 -224 -151.5 -388.5t-297.5 -252.5t-410 -86z" />
    <glyph glyph-name="Yhook" unicode="&#x1b3;" horiz-adv-x="2048" 
d="M776 2048l266 -869l294 447l94 151q132 215 333 269t431 -19l-121 -350q-105 35 -178.5 -6t-131.5 -130l-35 -56l-523 -743l-129 -742h-453l140 786l-464 1261z" />
    <glyph glyph-name="yhook" unicode="&#x1b4;" horiz-adv-x="1620" 
d="M395 -25l37 75l-273 1485l458 1l113 -816l298 649l64 144q114 260 380 347q92 30 181.5 29.5t183.5 -11.5l-62 -362q-28 7 -52 9.5t-52 -6.5q-71 -20 -113.5 -71.5t-72.5 -115.5l-30 -60l-702 -1492q-77 -174 -229.5 -278.5t-344.5 -104.5q-51 1 -98.5 8.5t-96.5 21.5
l38 354l26 -4t26 -2q114 -4 193 48t128 152z" />
    <glyph glyph-name="Zbar" unicode="&#x1b5;" horiz-adv-x="1792" 
d="M1547 384l-66 -384h-1509l51 293l527 601l-167 2l51 264h328l446 502l-948 2l67 384l1507 1l-46 -294l-524 -593l140 -2l-53 -264h-299l-452 -510z" />
    <glyph glyph-name="zbar" unicode="&#x1b6;" horiz-adv-x="1512" 
d="M1264 360l-63 -360h-1221l48 280l345 370l-157 2l52 264l322 1l247 256l-626 3l63 360h1178l-48 -281l-313 -337l146 -2l-52 -264l-315 -1l-275 -289z" />
    <glyph glyph-name="Ezh" unicode="&#x1b7;" horiz-adv-x="2048" 
d="M51 106l448 -1q1 -152 62.5 -241t224.5 -94q157 -4 256 70t151.5 196t70.5 260q11 86 13.5 176.5t-18.5 168t-79.5 126.5t-169.5 52l-399 1l46 267l566 539l-903 2l66 376h1485l-46 -263l-602 -589q154 -25 256.5 -111t159.5 -209.5t73.5 -264.5t-0.5 -275
q-33 -253 -156.5 -456t-324.5 -320.5t-467 -114.5q-329 4 -514.5 194t-198.5 511z" />
    <glyph glyph-name="Ezhreversed" unicode="&#x1b8;" horiz-adv-x="2048" 
d="M1216 104l442 4q-12 -170 -90.5 -302t-203 -223t-276.5 -137.5t-310 -44.5q-257 3 -421 122t-232 318t-38 440q29 226 129.5 413t268.5 310t400 158l-388 618l39 224h1473l-65 -376h-908l385 -580l-40 -228l-357 1q-161 1 -261.5 -73.5t-153.5 -198t-71 -267.5
q-11 -86 -12 -175t22 -164.5t82.5 -122.5t169.5 -50q168 -5 277.5 81t138.5 253z" />
    <glyph glyph-name="ezhreversed" unicode="&#x1b9;" horiz-adv-x="1792" 
d="M308 1488h1310l-62 -356h-836l377 -462l-44 -250l-152 1q-184 1 -298 -94t-140 -280q-16 -114 54.5 -174t177.5 -63q108 -3 199 57t106 174l433 1q-6 -148 -74 -259t-177 -184t-241 -108.5t-266 -34.5q-176 2 -331 66t-245.5 192.5t-72.5 324.5q23 267 183 435t420 216
l-374 521z" />
    <glyph glyph-name="ezhtail" unicode="&#x1ba;" horiz-adv-x="1536" 
d="M365 -165q-16 -74 40.5 -101t115.5 -29q102 -3 179.5 46t96.5 153l407 3q-1 -128 -65.5 -223.5t-167 -159t-221.5 -95t-228 -29.5q-102 1 -205.5 27.5t-189 81.5t-135.5 140.5t-43 204.5q8 158 96.5 253t219 145.5t265.5 76.5q54 10 126.5 24.5t132 48t73.5 101.5
q15 67 -26.5 100t-101.5 36h-358l42 274l301 217l-481 2l62 356h1175l-46 -265l-427 -325q125 -56 199 -167t66 -250q-8 -150 -96 -243t-215 -145t-253 -78q-50 -10 -125 -27.5t-137.5 -52.5t-75.5 -100z" />
    <glyph glyph-name="twostroke" unicode="&#x1bb;" horiz-adv-x="1664" 
d="M1416 384l-67 -384h-1369l61 354l635 540l-143 2l53 264l353 -1q55 61 104 134t63 156q17 97 -14.5 179.5t-144.5 86.5q-91 3 -156 -46t-102.5 -125t-46.5 -156l-432 -2q6 149 71 275.5t173 220.5t243 145t280 50q179 -2 316 -70.5t207 -198.5t50 -318
q-10 -96 -47.5 -178t-94.5 -158l143 5l-47 -263l-289 1q-60 -58 -121 -116.5t-122 -116.5l-245 -222q-24 -18 -50 -28.5t-55 -19.5l1 -32q40 18 84 20z" />
    <glyph glyph-name="Tonefive" unicode="&#x1bc;" horiz-adv-x="1792" 
d="M725 918l-352 93l187 632l-312 1l63 360h330l13 44h1142l-67 -384h-768l-141 -443v0q55 70 138.5 95.5t168.5 24.5q141 -2 240 -63t159 -161.5t81.5 -222.5t8.5 -245q-21 -199 -125.5 -353.5t-269 -241.5t-364.5 -83q-175 4 -313 79.5t-217 209t-79 310.5h430
q4 -96 48 -165.5t150 -73.5q100 -3 165.5 49.5t101.5 135.5t47 169q12 81 -2 157.5t-63.5 126t-145.5 51.5q-73 1 -139 -24t-115 -78z" />
    <glyph glyph-name="tonefive" unicode="&#x1bd;" horiz-adv-x="1792" 
d="M711 633l-417 16l157 490l-226 1l63 348h1287l-61 -348h-666l-94 -237q59 42 138 55t150 13q220 -2 351 -131.5t113 -354.5q-16 -186 -119.5 -298.5t-258 -163t-322.5 -48.5q-152 2 -291.5 49t-229.5 150.5t-92 275.5l426 20q10 -82 72 -106.5t135 -25.5q91 -2 165 42.5
t90 139.5q15 84 -38 123t-129 41q-52 1 -106.5 -8.5t-96.5 -42.5z" />
    <glyph glyph-name="glottalstopbarinv" unicode="&#x1be;" horiz-adv-x="1536" 
d="M889 428q14 62 -23 120.5t-98 120t-121.5 131t-95 152.5t-16.5 185l7 34l-206 -3l56 320h190l65 372h434l-65 -372h241l-57 -320l-229 1l-9 -40q-21 -96 9 -163.5t86 -122t115 -110t99 -125t35 -169.5q-5 -126 -70 -216t-165.5 -146t-216 -82t-223.5 -24
q-153 3 -284.5 62t-214 171.5t-87.5 274.5l404 -2q4 -192 202 -195q76 -1 147.5 31.5t90.5 114.5z" />
    <glyph glyph-name="wynn" unicode="&#x1bf;" horiz-adv-x="1792" 
d="M1519 733q-37 -284 -190 -478t-379.5 -314t-486.5 -180l-67 -333h-434l358 2060l403 1l-25 -144q71 84 162 128.5t202 42.5q154 -2 251.5 -71t148 -179.5t63.5 -241.5t-2 -258zM934 1160q-157 7 -256 -126l-177 -930q222 80 383.5 233t199.5 398l4 31q8 51 11.5 117
t-7.5 128.5t-47.5 104t-110.5 44.5z" />
    <glyph glyph-name="pipe" unicode="&#x1c0;" horiz-adv-x="768" 
d="M698 2004l-348 -2004h-243l348 2004h243z" />
    <glyph glyph-name="pipedbl" unicode="&#x1c1;" horiz-adv-x="1024" 
d="M644 2004l-348 -2004h-243l347 2004h244zM1005 2004l-348 -2004h-243l347 2004h244z" />
    <glyph glyph-name="pipedblbar" unicode="&#x1c2;" horiz-adv-x="1280" 
d="M1113 880l-47 -264h-360l-107 -616h-244l112 615l-366 1l46 264h359l67 347l-366 1l47 264h360l89 512h244l-94 -511l366 -1l-47 -264h-358l-67 -347z" />
    <glyph glyph-name="exclam1" unicode="&#x1c3;" horiz-adv-x="768" 
d="M807 2048l-299 -1412h-352l191 1412h460zM249 -25q-97 0 -164 63.5t-69 161.5q-2 105 68 173.5t174 67.5q97 0 165.5 -63t70.5 -162q2 -106 -69.5 -174t-175.5 -67z" />
    <glyph glyph-name="Dzcaron_" unicode="&#x1c5;" horiz-adv-x="3184" 
d="M2367 2048l165 -183l225 182l380 8l2 -27l-472 -384h-277l-380 386l-1 26zM677 0h-698l355 2048l648 -1q208 -3 362 -86t251 -224t134.5 -319t13.5 -370q-28 -214 -112 -404t-220.5 -335t-321 -227.5t-412.5 -81.5zM939 1647l-221 1l-221 -1247l180 -2q193 -1 320.5 89.5
t199 240t96.5 325.5q14 101 6.5 204.5t-46 190.5t-115 141t-199.5 57zM2885 360l-63 -360h-1219l44 280l811 894l-626 2l63 360h1178l-49 -280l-808 -894z" />
    <glyph glyph-name="dzcaron" unicode="&#x1c6;" horiz-adv-x="2940" 
d="M2158 2048l165 -183l226 182l380 8l1 -27l-471 -384h-277l-381 386l-1 26zM1317 0h-437l12 63l-2 -1q-73 -40 -139.5 -65.5t-152.5 -24.5q-157 2 -265.5 73t-173 187t-87.5 253t-7 272q17 145 75.5 288t155 259.5t227 185.5t292.5 66q73 -1 141.5 -22t125.5 -68l18 -1
l112 583h449zM2649 360l-63 -360h-1219l44 280l811 894l-626 2l63 360h1178l-48 -280l-809 -894zM491 756q-8 -59 -10.5 -130.5t12.5 -136.5t57.5 -107.5t125.5 -44.5q102 -3 179 58t112 155q20 53 34 110.5t23 113.5q7 44 9 89t1 90q-1 92 -44 163.5t-147 75.5
q-117 5 -190 -64.5t-111 -173t-51 -198.5z" />
    <glyph glyph-name="LJ" unicode="&#x1c7;" horiz-adv-x="3372" 
d="M235 0zM1558 384l-67 -384h-1256l355 2048h453l-294 -1663zM2721 628l244 1420h449l-244 -1420q-27 -192 -131 -341.5t-264 -234t-358 -82.5q-297 4 -448 174.5t-144 460.5h452q-1 -60 10.5 -119t47.5 -99t109 -43q82 -4 139.5 37.5t91.5 108t46 138.5z" />
    <glyph glyph-name="Lj" unicode="&#x1c8;" horiz-adv-x="2708" 
d="M235 0zM1558 384l-67 -384h-1256l355 2048h453l-294 -1663zM2497 1619q-91 1 -162.5 64.5t-73.5 156.5q-3 100 72 168.5t172 68.5q92 -1 161 -64.5t72 -156.5q2 -100 -71 -168.5t-170 -68.5zM2221 1536h449l-271 -1583q-36 -269 -216 -401.5t-442 -132.5l-190 1l63 360
l71 -2q98 1 171 40t92 142z" />
    <glyph glyph-name="lj" unicode="&#x1c9;" horiz-adv-x="1888" 
d="M235 0zM1039 2048l-355 -2048h-449l355 2048h449zM1677 1619q-91 1 -162.5 64.5t-73.5 156.5q-3 100 72 168.5t172 68.5q92 -1 161 -64.5t72 -156.5q2 -100 -71 -168.5t-170 -68.5zM1401 1536h449l-271 -1583q-36 -269 -216 -401.5t-442 -132.5l-190 1l63 360l71 -2
q98 1 171 40t92 142z" />
    <glyph glyph-name="NJ" unicode="&#x1ca;" horiz-adv-x="3756" 
d="M235 0zM2207 2048l-355 -2048h-432l-487 1261l-18 2l-227 -1263h-453l355 2048h436l483 -1261l18 -2l227 1263h453zM3105 628l244 1420h449l-244 -1420q-27 -192 -131 -341.5t-264 -234t-358 -82.5q-297 4 -448 174.5t-144 460.5h452q-1 -60 10.5 -119t47.5 -99t109 -43
q82 -4 139.5 37.5t91.5 108t46 138.5z" />
    <glyph glyph-name="Nj" unicode="&#x1cb;" horiz-adv-x="3092" 
d="M235 0zM2207 2048l-355 -2048h-432l-487 1261l-18 2l-227 -1263h-453l355 2048h436l483 -1261l18 -2l227 1263h453zM2881 1619q-91 1 -162.5 64.5t-73.5 156.5q-3 100 72 168.5t172 68.5q92 -1 161 -64.5t72 -156.5q2 -100 -71 -168.5t-170 -68.5zM2605 1536h449
l-271 -1583q-36 -269 -216 -401.5t-442 -132.5l-190 1l63 360l71 -2q98 1 171 40t92 142z" />
    <glyph glyph-name="nj" unicode="&#x1cc;" horiz-adv-x="2796" 
d="M235 0zM823 816l-139 -816h-449l266 1536l415 1l-41 -168l7 1q168 191 424 186q167 -3 265.5 -89.5t135.5 -221.5t20 -285l-162 -960h-449l161 946q12 89 -19.5 166t-136.5 81q-102 5 -162.5 -56t-91.5 -150t-44 -171zM2585 1619q-91 1 -162.5 64.5t-73.5 156.5
q-3 100 72 168.5t172 68.5q92 -1 161 -64.5t72 -156.5q2 -100 -71 -168.5t-170 -68.5zM2309 1536h449l-271 -1583q-36 -269 -216 -401.5t-442 -132.5l-190 1l63 360l71 -2q98 1 171 40t92 142z" />
    <glyph glyph-name="Acaron" unicode="&#x1cd;" horiz-adv-x="2048" 
d="M0 0zM448 0h-511l1019 2048h484l317 -2048h-490l-38 384h-610zM1106 1471l-331 -713l418 -2l-65 715h-22zM1082 2536l165 -183l225 182l380 8l2 -27l-472 -384h-276l-381 386l-1 26z" />
    <glyph glyph-name="acaron" unicode="&#x1ce;" horiz-adv-x="1528" 
d="M7 0zM798 0l25 135h-5q-65 -88 -160.5 -126.5t-203.5 -37.5q-129 2 -231.5 56.5t-159 153t-48.5 232.5q9 148 75 250t171.5 164t232.5 90t257 28h174l14 85q11 82 -18.5 133t-119.5 54q-86 3 -142 -40.5t-90 -118.5l-421 58q39 152 149 250.5t255.5 145t292.5 44.5
q157 -2 288 -64t203 -179.5t54 -288.5l-174 -1024h-418zM883 659l-129 3q-107 0 -194.5 -57.5t-104.5 -169.5q-10 -61 24 -96t94 -37q87 -3 170 49.5t103 140.5zM749 2112l165 -183l225 182l380 8l2 -27l-472 -384h-276l-381 386l-1 26z" />
    <glyph glyph-name="Icaron" unicode="&#x1cf;" horiz-adv-x="720" 
d="M0 0zM787 2048l-355 -2048h-453l355 2048h453zM418 2536l165 -183l225 182l380 8l2 -27l-472 -384h-276l-381 386l-1 26z" />
    <glyph glyph-name="icaron" unicode="&#x1d0;" horiz-adv-x="748" 
d="M0 0zM710 1536l-266 -1536h-449l266 1536h449zM344 2080l165 -183l225 182l380 8l2 -27l-472 -384h-276l-381 386l-1 26z" />
    <glyph glyph-name="Ocaron" unicode="&#x1d1;" horiz-adv-x="1976" 
d="M125 0zM1835 1025q-26 -197 -102 -386t-201 -340.5t-298 -240.5t-393 -86q-217 3 -362 94.5t-225.5 243t-104.5 335t1 370.5q26 198 102.5 388.5t202 343.5t299.5 242.5t395 86.5q218 -3 362 -96.5t223.5 -246.5t102.5 -337.5t-2 -370.5zM1375 1006q12 84 18 192.5
t-12 211t-78.5 170.5t-181.5 72q-132 5 -224 -56t-151.5 -161.5t-93.5 -217.5t-48 -223q-12 -85 -18.5 -194t12.5 -210.5t80 -170t183 -72.5q130 -4 221 58t151 163.5t93.5 217.5t48.5 220zM1046 2536l165 -183l225 182l380 8l2 -27l-472 -384h-276l-381 386l-1 26z" />
    <glyph glyph-name="ocaron" unicode="&#x1d2;" horiz-adv-x="1544" 
d="M47 0zM644 -24q-223 3 -357 116t-187 291.5t-33 378.5q15 153 75 296.5t159.5 256.5t235 178.5t301.5 62.5q161 -2 276 -69.5t185.5 -179.5t98 -250.5t12.5 -281.5q-20 -212 -115 -395t-259 -295t-392 -109zM660 339q87 -3 146.5 38t97 108t58 144t27.5 146q6 54 8 124
t-11.5 136t-53 110.5t-115.5 47.5q-85 4 -143.5 -37t-94.5 -108t-55.5 -143t-26.5 -144q-6 -53 -9.5 -123.5t8.5 -137.5t50 -112t114 -49zM741 2112l165 -183l225 182l380 8l2 -27l-472 -384h-276l-381 386l-1 26z" />
    <glyph glyph-name="Ucaron" unicode="&#x1d3;" horiz-adv-x="1920" 
d="M74 0zM1499 2048h453l-233 -1351q-35 -235 -162 -398.5t-319.5 -247.5t-424.5 -82q-216 2 -387.5 88.5t-261.5 248t-61 390.5l232 1352h453l-233 -1353q-20 -146 60 -232.5t225 -90.5q153 -5 275 82t151 242zM1018 2536l165 -183l225 182l380 8l2 -27l-472 -384h-276
l-381 386l-1 26z" />
    <glyph glyph-name="ucaron" unicode="&#x1d4;" horiz-adv-x="1624" 
d="M66 0zM987 720l139 816h449l-266 -1536h-414l41 167l-8 -1q-81 -92 -190 -142t-233 -47q-167 4 -266 91t-136 223t-20 285l162 960h449l-161 -945q-11 -89 21 -166t136 -82q102 -5 162.5 56t91 150t43.5 171zM773 2112l165 -183l225 182l380 8l2 -27l-472 -384h-276
l-381 386l-1 26z" />
    <glyph glyph-name="Udieresismacron" unicode="&#x1d5;" horiz-adv-x="1920" 
d="M74 0zM1499 2048h453l-233 -1351q-35 -235 -162 -398.5t-319.5 -247.5t-424.5 -82q-216 2 -387.5 88.5t-261.5 248t-61 390.5l232 1352h453l-233 -1353q-20 -146 60 -232.5t225 -90.5q153 -5 275 82t151 242zM1794 2828l-41 -238h-928l42 238h927zM1331 2294
q-5 79 52.5 124.5t130.5 46.5q71 1 131 -41.5t64 -118.5q5 -80 -51.5 -125.5t-130.5 -46.5q-72 -1 -132 41.5t-64 119.5zM768 2294q-5 78 52 124t130 47q71 1 131.5 -41.5t65.5 -118.5q5 -80 -53 -125.5t-132 -46.5q-71 -1 -130.5 41.5t-63.5 119.5z" />
    <glyph glyph-name="udieresismacron" unicode="&#x1d6;" horiz-adv-x="1624" 
d="M66 0zM987 720l139 816h449l-266 -1536h-414l41 167l-8 -1q-81 -92 -190 -142t-233 -47q-167 4 -266 91t-136 223t-20 285l162 960h449l-161 -945q-11 -89 21 -166t136 -82q102 -5 162.5 56t91 150t43.5 171zM1556 2439l-42 -238h-927l42 238h927zM456 1872q-4 82 55 136
t138 55q76 1 136.5 -49t63.5 -128q4 -82 -54.5 -136t-137.5 -55q-76 -1 -136.5 49t-64.5 128zM1135 1872q-4 82 55 136t138 55q76 1 136.5 -49t63.5 -128q4 -82 -54.5 -136t-137.5 -55q-76 -1 -136.5 49t-64.5 128z" />
    <glyph glyph-name="Udieresisacute" unicode="&#x1d7;" horiz-adv-x="1920" 
d="M74 0zM1499 2048h453l-233 -1351q-35 -235 -162 -398.5t-319.5 -247.5t-424.5 -82q-216 2 -387.5 88.5t-261.5 248t-61 390.5l232 1352h453l-233 -1353q-20 -146 60 -232.5t225 -90.5q153 -5 275 82t151 242zM1135 2486l215 253l325 -1l-284 -252h-256zM1331 2294
q-5 79 52.5 124.5t130.5 46.5q72 1 131.5 -41.5t63.5 -118.5q5 -80 -51.5 -125.5t-130.5 -46.5q-72 -1 -132 41.5t-64 119.5zM768 2294q-5 78 52 124t130 47q71 1 131.5 -41.5t65.5 -118.5q5 -80 -53 -125.5t-132 -46.5q-72 -1 -130.5 41.5t-63.5 119.5z" />
    <glyph glyph-name="udieresisacute" unicode="&#x1d8;" horiz-adv-x="1624" 
d="M66 0zM987 720l139 816h449l-266 -1536h-414l41 167l-8 -1q-81 -92 -190 -142t-233 -47q-167 4 -266 91t-136 223t-20 285l162 960h449l-161 -945q-11 -89 21 -166t136 -82q102 -5 162.5 56t91 150t43.5 171zM823 2122l338 432l490 -1l-447 -431h-381zM456 1872
q-4 82 55 136t138 55q76 1 136.5 -49t63.5 -128q4 -82 -54.5 -136t-137.5 -55q-76 -1 -136.5 49t-64.5 128zM1135 1872q-4 82 55 136t138 55q76 1 136.5 -49t63.5 -128q4 -82 -54.5 -136t-137.5 -55q-76 -1 -136.5 49t-64.5 128z" />
    <glyph glyph-name="Udieresiscaron" unicode="&#x1d9;" horiz-adv-x="1920" 
d="M74 0zM1499 2048h453l-233 -1351q-35 -235 -162 -398.5t-319.5 -247.5t-424.5 -82q-216 2 -387.5 88.5t-261.5 248t-61 390.5l232 1352h453l-233 -1353q-20 -146 60 -232.5t225 -90.5q153 -5 275 82t151 242zM1147 2843l143 -148l195 147l381 6l1 -33l-420 -314h-303
l-353 318v31zM1331 2294q-5 79 52.5 124.5t130.5 46.5q72 1 131.5 -41.5t63.5 -118.5q5 -80 -51.5 -125.5t-130.5 -46.5q-73 -1 -132.5 41.5t-63.5 119.5zM768 2294q-5 78 52 124t130 47q71 1 131.5 -41.5t65.5 -118.5q5 -80 -53 -125.5t-132 -46.5q-71 -1 -130.5 41.5
t-63.5 119.5z" />
    <glyph glyph-name="udieresiscaron" unicode="&#x1da;" horiz-adv-x="1624" 
d="M66 0zM987 720l139 816h449l-266 -1536h-414l41 167l-8 -1q-81 -92 -190 -142t-233 -47q-167 4 -266 91t-136 223t-20 285l162 960h449l-161 -945q-11 -89 21 -166t136 -82q102 -5 162.5 56t91 150t43.5 171zM898 2555l164 -182l226 181l381 7l2 -28l-472 -382h-277
l-381 386l-1 26zM456 1872q-4 82 55 136t138 55q76 1 136.5 -49t63.5 -128q5 -82 -54 -136t-138 -55q-76 -1 -136.5 49t-64.5 128zM1135 1872q-4 82 55 136t138 55q76 1 136.5 -49t63.5 -128q5 -82 -54 -136t-138 -55q-76 -1 -136.5 49t-64.5 128z" />
    <glyph glyph-name="Udieresisgrave" unicode="&#x1db;" horiz-adv-x="1920" 
d="M74 0zM1499 2048h453l-233 -1351q-35 -235 -162 -398.5t-319.5 -247.5t-424.5 -82q-216 2 -387.5 88.5t-261.5 248t-61 390.5l232 1352h453l-233 -1353q-20 -146 60 -232.5t225 -90.5q153 -5 275 82t151 242zM1259 2739l140 -252l-208 -1l-210 251zM1331 2294
q-5 79 52.5 124.5t130.5 46.5q72 1 131.5 -41.5t63.5 -118.5q5 -80 -51.5 -125.5t-130.5 -46.5q-72 -1 -132 41.5t-64 119.5zM768 2294q-5 78 52 124t130 47q71 1 131.5 -41.5t65.5 -118.5q5 -80 -53 -125.5t-132 -46.5q-72 -1 -130.5 41.5t-63.5 119.5z" />
    <glyph glyph-name="udieresisgrave" unicode="&#x1dc;" horiz-adv-x="1624" 
d="M66 0zM987 720l139 816h449l-266 -1536h-414l41 167l-8 -1q-81 -92 -190 -142t-233 -47q-167 4 -266 91t-136 223t-20 285l162 960h449l-161 -945q-11 -89 21 -166t136 -82q102 -5 162.5 56t91 150t43.5 171zM1039 2554l205 -431l-335 -1l-313 430zM456 1872
q-4 82 55 136t138 55q76 1 136.5 -49t63.5 -128q5 -82 -54 -136t-138 -55q-76 -1 -136.5 49t-64.5 128zM1135 1872q-4 82 55 136t138 55q76 1 136.5 -49t63.5 -128q5 -82 -54 -136t-138 -55q-76 -1 -136.5 49t-64.5 128z" />
    <glyph glyph-name="eturn" unicode="&#x1dd;" horiz-adv-x="1536" 
d="M51 0zM788 1515q203 -2 344.5 -100.5t207.5 -261t43 -357.5l-7 -52q-28 -204 -125.5 -381.5t-260.5 -285.5t-385 -105q-196 3 -322 95t-179 244.5t-30 336.5l40 244l836 -2q8 115 -52.5 189.5t-179.5 78.5q-112 4 -213.5 -22.5t-203.5 -69.5l-87 289q72 63 171 98.5
t205 49t198 12.5zM629 330q81 -3 136 38.5t92 105.5t63 129l-423 -2l-9 -40q-19 -89 9.5 -158t131.5 -73z" />
    <glyph glyph-name="Adieresismacron" unicode="&#x1de;" horiz-adv-x="2048" 
d="M0 0zM448 0h-511l1019 2048h484l317 -2048h-490l-38 384h-610zM1106 1471l-331 -713l418 -2l-65 715h-22zM1858 2828l-41 -238h-928l42 238h927zM1395 2294q-5 79 52.5 124.5t130.5 46.5q71 1 131 -41.5t64 -118.5q5 -80 -51.5 -125.5t-130.5 -46.5q-72 -1 -132 41.5
t-64 119.5zM832 2294q-5 78 52 124t130 47q71 1 131.5 -41.5t65.5 -118.5q5 -80 -53 -125.5t-132 -46.5q-71 -1 -130.5 41.5t-63.5 119.5z" />
    <glyph glyph-name="adieresismacron" unicode="&#x1df;" horiz-adv-x="1528" 
d="M7 0zM798 0l25 135h-5q-65 -88 -160.5 -126.5t-203.5 -37.5q-129 2 -231.5 56.5t-159 153t-48.5 232.5q9 148 75 250t171.5 164t232.5 90t257 28h174l14 85q11 82 -18.5 133t-119.5 54q-86 3 -142 -40.5t-90 -118.5l-421 58q39 152 149 250.5t255.5 145t292.5 44.5
q157 -2 288 -64t203 -179.5t54 -288.5l-174 -1024h-418zM883 659l-129 3q-107 0 -194.5 -57.5t-104.5 -169.5q-10 -61 24 -96t94 -37q87 -3 170 49.5t103 140.5zM1532 2439l-42 -238h-927l42 238h927zM432 1872q-4 82 55 136t138 55q76 1 136.5 -49t63.5 -128
q4 -82 -54.5 -136t-137.5 -55q-76 -1 -136.5 49t-64.5 128zM1111 1872q-4 82 55 136t138 55q76 1 136.5 -49t63.5 -128q4 -82 -54.5 -136t-137.5 -55q-76 -1 -136.5 49t-64.5 128z" />
    <glyph glyph-name="Adotmacron" unicode="&#x1e0;" horiz-adv-x="2048" 
d="M0 0zM448 0h-511l1019 2048h484l317 -2048h-490l-38 384h-610zM1106 1471l-331 -713l418 -2l-65 715h-22zM1857 2825l-42 -238h-927l42 238h927zM1114 2305q-4 79 53.5 124.5t130.5 46.5q71 1 130.5 -41.5t64.5 -118.5q5 -79 -52 -125t-131 -47q-72 -1 -131.5 41.5
t-64.5 119.5z" />
    <glyph glyph-name="adotmacron" unicode="&#x1e1;" horiz-adv-x="1528" 
d="M7 0zM798 0l25 135h-5q-65 -88 -160.5 -126.5t-203.5 -37.5q-129 2 -231.5 56.5t-159 153t-48.5 232.5q9 148 75 250t171.5 164t232.5 90t257 28h174l14 85q11 82 -18.5 133t-119.5 54q-86 3 -142 -40.5t-90 -118.5l-421 58q39 152 149 250.5t255.5 145t292.5 44.5
q157 -2 288 -64t203 -179.5t54 -288.5l-174 -1024h-418zM883 659l-129 3q-107 0 -194.5 -57.5t-104.5 -169.5q-10 -61 24 -96t94 -37q87 -3 170 49.5t103 140.5zM1546 2519l-42 -238h-927l42 238h927zM765 1922q-4 94 58.5 152t153.5 58q87 0 149.5 -53.5t66.5 -142.5
q3 -93 -59.5 -151t-153.5 -58q-86 -1 -149 52.5t-66 142.5z" />
    <glyph glyph-name="AEmacron" unicode="&#x1e2;" horiz-adv-x="2710" 
d="M0 0zM2443 364l-63 -364h-1198l56 383l-568 1l-239 -384h-525l1356 2048h1391l-63 -364h-751l-70 -479l630 -1l-63 -360h-610l-71 -479zM889 758l395 -2l107 781zM2048 2436l-38 -236h-926l37 236h927z" />
    <glyph glyph-name="aemacron" unicode="&#x1e3;" horiz-adv-x="2420" 
d="M15 0zM1547 -28q-137 1 -274.5 51t-223.5 163q-123 -100 -267.5 -158.5t-305.5 -55.5q-125 2 -231.5 56.5t-168 153t-53.5 230.5q9 151 74.5 253t170 163.5t231.5 89t260 27.5h174l14 84q11 83 -19 133.5t-119 54.5q-86 3 -142 -40.5t-90 -118.5l-421 57
q40 153 149.5 251.5t255 145t292.5 44.5q111 -1 225.5 -31t197.5 -110q205 144 445 140q212 -3 342 -109t181 -275.5t25 -362.5l-31 -192l-898 2q-5 -123 61 -198.5t191 -79.5q98 -3 173 41t139 114l233 -253q-56 -97 -155.5 -157t-215 -87.5t-219.5 -25.5zM1694 1193
q-87 4 -148 -38.5t-103 -109.5t-72 -136l490 1q15 66 4.5 129.5t-52 106.5t-119.5 47zM891 659l-130 3q-106 0 -193.5 -57.5t-105.5 -169.5q-10 -62 24 -96.5t94 -36.5q87 -3 170 49.5t104 140.5zM1868 1996l-38 -236h-926l37 236h927z" />
    <glyph glyph-name="Gbar" unicode="&#x1e4;" horiz-adv-x="2000" 
d="M1886 672l-39 -212l-196 1q-122 -236 -327 -364t-475 -125q-223 2 -370.5 92t-228 240t-103.5 335.5t3 378.5q26 201 101 391t199.5 342t298.5 240.5t397 84.5q202 -3 343.5 -86t227 -227.5t120.5 -330.5l-427 -59q-25 124 -82.5 215.5t-201.5 98.5q-133 6 -225.5 -57.5
t-152 -168t-93 -223.5t-48.5 -224q-13 -95 -19.5 -207.5t14.5 -215.5t87 -170t198 -70q87 -2 157 27t133 88l-295 -6l38 212l342 -5q20 51 35 93l-364 -4l60 340h787l-71 -374q-3 -13 -7.5 -26.5t-8.5 -27.5z" />
    <glyph glyph-name="gbar" unicode="&#x1e5;" horiz-adv-x="1700" 
d="M1160 1529l411 -1l-111 -611l208 -1l-48 -264h-201l-99 -584q-30 -212 -143 -359.5t-286 -223.5t-383 -73q-151 1 -300.5 48t-266.5 145l215 295q158 -130 353 -134q164 -3 252 83.5t132 234.5l6 21l-8 -3q-123 -92 -287 -90q-154 1 -263 69t-174.5 180t-89.5 246.5
t-8 268.5q16 145 75 284.5t155 253t226 179.5t289 63q83 -1 160.5 -28t136.5 -89l16 -1zM497 778q-8 -59 -10.5 -129t12.5 -133.5t57 -105t123 -44.5q103 -2 183.5 56t124.5 148q10 21 18.5 42.5t17.5 42.5l-368 -3l47 264l347 -2q1 13 2.5 26.5t1.5 26.5q3 96 -52 162.5
t-155 70.5q-116 5 -188 -61.5t-110 -166t-51 -194.5z" />
    <glyph glyph-name="Gcaron" unicode="&#x1e6;" horiz-adv-x="1904" 
d="M124 0zM1778 1096l-63 -375q-34 -227 -151.5 -396t-300.5 -262t-415 -91q-223 2 -370.5 92t-228 240.5t-103 336t2.5 377.5q26 201 101.5 391t199.5 342t297.5 240.5t397.5 84.5q202 -3 343.5 -86t227 -227.5t120.5 -330.5l-427 -59q-25 124 -82.5 215.5t-201.5 98.5
q-133 6 -225.5 -57.5t-152.5 -168t-93.5 -223.5t-48.5 -225q-13 -96 -19 -208.5t15.5 -214.5t88.5 -169t199 -71q129 -3 209.5 52.5t127.5 149.5t74 206l-368 -2l60 340h786zM1086 2536l165 -183l225 182l380 8l2 -27l-472 -384h-276l-381 386l-1 26z" />
    <glyph glyph-name="gcaron" unicode="&#x1e7;" horiz-adv-x="1620" 
d="M0 0zM1160 1529l411 -1l-251 -1459q-31 -213 -143.5 -360.5t-285 -223.5t-382.5 -73q-151 1 -301 48t-267 145l215 295q157 -130 352 -133q165 -4 253 82.5t132 234.5l6 21l-8 -3q-123 -92 -287 -90q-154 1 -263 69.5t-174 180t-89 246t-9 269.5q17 144 75.5 284t155 253
t226 179t288.5 63q83 -1 160.5 -28t136.5 -89l16 -1zM496 777q-8 -59 -10 -129t13 -133.5t57.5 -104.5t123.5 -43q102 -3 185 55.5t122 152.5q21 52 34.5 108.5t21.5 112.5q13 88 8 174q-5 95 -54 160.5t-152 70.5q-115 4 -187.5 -62.5t-110.5 -166.5t-51 -195zM745 2112
l165 -183l225 182l380 8l2 -27l-472 -384h-276l-381 386l-1 26z" />
    <glyph glyph-name="Kcaron" unicode="&#x1e8;" horiz-adv-x="1920" 
d="M0 0zM1079 0l-292 717l-286 -318l-69 -399h-453l355 2048h453l-164 -888h9l766 887h583l-864 -961l478 -1086h-516zM906 2536l165 -183l225 182l380 8l2 -27l-472 -384h-276l-381 386l-1 26z" />
    <glyph glyph-name="kcaron" unicode="&#x1e9;" horiz-adv-x="1556" 
d="M0 0zM912 0l-247 550l-172 -173l-65 -377h-449l355 2048h449l-188 -1024h13l483 512l550 -1l-668 -673l409 -862h-470zM918 2536l165 -183l225 182l380 8l2 -27l-472 -384h-276l-381 386l-1 26z" />
    <glyph glyph-name="Oogonek" unicode="&#x1ea;" horiz-adv-x="1976" 
d="M125 0zM1835 1025q-26 -197 -102 -386t-201 -340.5t-298 -240.5t-393 -86q-217 3 -362 94.5t-225.5 243t-104.5 335t1 370.5q26 198 102.5 388.5t202 343.5t299.5 242.5t395 86.5q218 -3 362 -96.5t223.5 -246.5t102.5 -337.5t-2 -370.5zM1375 1006q12 84 18 192.5
t-12 211t-78.5 170.5t-181.5 72q-132 5 -224 -56t-151.5 -161.5t-93.5 -217.5t-48 -223q-12 -85 -18.5 -194t12.5 -210.5t80 -170t183 -72.5q130 -4 221 58t151 163.5t93.5 217.5t48.5 220zM728 84l243 -90q-66 -36 -142 -87t-89 -135q-12 -76 57 -78q25 0 48.5 8t46.5 17
l39 -235q-46 -30 -102 -43t-111 -12q-128 1 -214.5 76.5t-84.5 207.5q3 141 97.5 229t211.5 142z" />
    <glyph glyph-name="oogonek" unicode="&#x1eb;" horiz-adv-x="1544" 
d="M47 0zM644 -24q-223 3 -357 116t-187 291.5t-33 378.5q15 153 75 296.5t159.5 256.5t235 178.5t301.5 62.5q161 -2 276 -69.5t185.5 -179.5t98 -250.5t12.5 -281.5q-20 -212 -115 -395t-259 -295t-392 -109zM660 339q87 -3 146.5 38t97 108t58 144t27.5 146q6 54 8 124
t-11.5 136t-53 110.5t-115.5 47.5q-85 4 -143.5 -37t-94.5 -108t-55.5 -143t-26.5 -144q-6 -53 -9.5 -123.5t8.5 -137.5t50 -112t114 -49zM522 84l243 -90q-66 -36 -142 -87t-89 -135q-12 -76 57 -78q25 0 48.5 8t46.5 17l39 -235q-46 -30 -102 -43t-111 -12
q-128 1 -214.5 76.5t-84.5 207.5q3 141 97.5 229t211.5 142z" />
    <glyph glyph-name="Oogonekmacron" unicode="&#x1ec;" horiz-adv-x="1976" 
d="M125 0zM1835 1025q-26 -197 -102 -386t-201 -340.5t-298 -240.5t-393 -86q-217 3 -362 94.5t-225.5 243t-104.5 335t1 370.5q26 198 102.5 388.5t202 343.5t299.5 242.5t395 86.5q218 -3 362 -96.5t223.5 -246.5t102.5 -337.5t-2 -370.5zM1375 1006q12 84 18 192.5
t-12 211t-78.5 170.5t-181.5 72q-132 5 -224 -56t-151.5 -161.5t-93.5 -217.5t-48 -223q-12 -85 -18.5 -194t12.5 -210.5t80 -170t183 -72.5q130 -4 221 58t151 163.5t93.5 217.5t48.5 220zM728 84l243 -90q-66 -36 -142 -87t-89 -135q-12 -76 57 -78q25 0 48.5 8t46.5 17
l39 -235q-46 -30 -102 -43t-111 -12q-128 1 -214.5 76.5t-84.5 207.5q3 141 97.5 229t211.5 142zM1701 2420l-38 -236h-926l37 236h927z" />
    <glyph glyph-name="oogonekmacron" unicode="&#x1ed;" horiz-adv-x="1544" 
d="M47 0zM644 -24q-223 3 -357 116t-187 291.5t-33 378.5q15 153 75 296.5t159.5 256.5t235 178.5t301.5 62.5q161 -2 276 -69.5t185.5 -179.5t98 -250.5t12.5 -281.5q-20 -212 -115 -395t-259 -295t-392 -109zM660 339q87 -3 146.5 38t97 108t58 144t27.5 146q6 54 8 124
t-11.5 136t-53 110.5t-115.5 47.5q-85 4 -143.5 -37t-94.5 -108t-55.5 -143t-26.5 -144q-6 -53 -9.5 -123.5t8.5 -137.5t50 -112t114 -49zM522 84l243 -90q-66 -36 -142 -87t-89 -135q-12 -76 57 -78q25 0 48.5 8t46.5 17l39 -235q-46 -30 -102 -43t-111 -12
q-128 1 -214.5 76.5t-84.5 207.5q3 141 97.5 229t211.5 142zM1396 1996l-38 -236h-926l37 236h927z" />
    <glyph glyph-name="Ezhcaron" unicode="&#x1ee;" horiz-adv-x="2048" 
d="M980 2460l165 -183l226 182l380 8l1 -27l-471 -384h-277l-381 386l-1 26zM51 106l448 -1q1 -152 62.5 -241t224.5 -94q157 -5 256.5 69.5t152 196.5t70.5 260q11 87 13.5 177.5t-19 168t-80 126t-169.5 51.5l-399 1l46 267l566 539l-903 2l66 376h1485l-46 -263
l-602 -589q155 -25 257.5 -111t159 -209.5t73 -264.5t-1.5 -275q-32 -254 -155.5 -456.5t-325 -320t-467.5 -114.5q-328 4 -514 194t-198 511z" />
    <glyph glyph-name="ezhcaron" unicode="&#x1ef;" horiz-adv-x="1792" 
d="M903 2100l134 -182l201 181l379 6l1 -31l-427 -350h-304l-343 355l-1 28zM350 1488h1314l-55 -314l-550 -492q148 -34 238 -130t126.5 -227t24.5 -271q-14 -154 -88.5 -267t-189.5 -187t-252.5 -109.5t-276.5 -33.5q-180 2 -322.5 70t-224.5 197.5t-81 317.5l430 -1
q-2 -105 56.5 -166t165.5 -63q78 -2 154 26.5t130 85.5t68 140q26 161 -39.5 256t-232.5 99l-200 1l49 285l513 425l-819 2z" />
    <glyph glyph-name="jcaron" unicode="&#x1f0;" horiz-adv-x="916" 
d="M0 0zM429 1536h449l-271 -1583q-37 -268 -216.5 -401t-441.5 -133l-190 1l63 360l71 -2q97 1 170 40.5t93 141.5zM524 2080l165 -183l225 182l380 8l2 -27l-472 -384h-276l-381 386l-1 26z" />
    <glyph glyph-name="DZ" unicode="&#x1f1;" horiz-adv-x="3908" 
d="M235 0zM933 0h-698l355 2048h648q206 -3 360.5 -87t253 -225t137 -318.5t14.5 -368.5q-28 -214 -113 -404t-222 -335.5t-322.5 -228t-412.5 -81.5zM1195 1647l-221 1l-221 -1247l180 -2q194 -1 320 89.5t195.5 240t94.5 324.5q14 101 7 204.5t-44 190.5t-112.5 141.5
t-198.5 57.5zM3663 384l-66 -384h-1509l51 292l1185 1370l-948 2l67 384h1508l-49 -292l-1186 -1370z" />
    <glyph glyph-name="Dz" unicode="&#x1f2;" horiz-adv-x="3628" 
d="M235 0zM933 0h-698l355 2048h648q206 -3 360.5 -87t253 -225t137 -318.5t14.5 -368.5q-28 -214 -113 -404t-222 -335.5t-322.5 -228t-412.5 -81.5zM1195 1647l-221 1l-221 -1247l180 -2q194 -1 320 89.5t195.5 240t94.5 324.5q14 101 7 204.5t-44 190.5t-112.5 141.5
t-198.5 57.5zM3380 360l-63 -360h-1221l48 280l809 894l-626 2l63 360h1178l-48 -280l-809 -894z" />
    <glyph glyph-name="Gacute" unicode="&#x1f4;" horiz-adv-x="1904" 
d="M124 0zM1778 1096l-63 -375q-34 -227 -151.5 -396t-300.5 -262t-415 -91q-223 2 -370.5 92t-228 240.5t-103 336t2.5 377.5q26 201 101.5 391t199.5 342t297.5 240.5t397.5 84.5q202 -3 343.5 -86t227 -227.5t120.5 -330.5l-427 -59q-25 124 -82.5 215.5t-201.5 98.5
q-133 6 -225.5 -57.5t-152.5 -168t-93.5 -223.5t-48.5 -225q-13 -96 -19 -208.5t15.5 -214.5t88.5 -169t199 -71q129 -3 209.5 52.5t127.5 149.5t74 206l-368 -2l60 340h786zM1025 2104l332 432l487 -1l-437 -431h-382z" />
    <glyph glyph-name="gacute" unicode="&#x1f5;" horiz-adv-x="1620" 
d="M0 0zM1160 1529l411 -1l-251 -1459q-31 -213 -143.5 -360.5t-285 -223.5t-382.5 -73q-151 1 -301 48t-267 145l215 295q157 -130 352 -133q165 -4 253 82.5t132 234.5l6 21l-8 -3q-123 -92 -287 -90q-154 1 -263 69.5t-174 180t-89 246t-9 269.5q17 144 75.5 284t155 253
t226 179t288.5 63q83 -1 160.5 -28t136.5 -89l16 -1zM496 777q-8 -59 -10 -129t13 -133.5t57.5 -104.5t123.5 -43q102 -3 185 55.5t122 152.5q21 52 34.5 108.5t21.5 112.5q13 88 8 174q-5 95 -54 160.5t-152 70.5q-115 4 -187.5 -62.5t-110.5 -166.5t-51 -195zM684 1680
l332 432l487 -1l-437 -431h-382z" />
    <glyph glyph-name="uni01F6" unicode="&#x1f6;" horiz-adv-x="2936" 
d="M783 2048l-151 -839l720 -1l146 840h449l-232 -1353q-11 -81 -2 -158.5t54.5 -129.5t144.5 -56q105 -4 175.5 43.5t111.5 127.5t56 174l136 792h449l-136 -792q-33 -220 -140.5 -385t-279.5 -255.5t-400 -87.5q-204 3 -360 95.5t-228 254t-24 372.5h-5l31 145l-725 1
l-145 -836h-449l355 2048h449z" />
    <glyph glyph-name="uni01F7" unicode="&#x1f7;" horiz-adv-x="2048" 
d="M835 2005l-10 -44q152 71 325 70q259 -1 423 -123.5t231 -324.5t36 -443l-10 -72q-37 -252 -165.5 -456.5t-318.5 -362.5t-413.5 -269.5t-450.5 -176.5l-75 -375h-445l447 2576zM1131 1660q-100 3 -188.5 -39t-166.5 -101l-251 -1336q191 93 369 212.5t306 283.5t167 388
l12 77q13 85 17 174t-16.5 165.5t-78.5 125t-170 50.5z" />
    <glyph glyph-name="uni01F8" unicode="&#x1f8;" horiz-adv-x="1920" 
d="M0 0zM1951 2048l-355 -2048h-432l-487 1261l-18 2l-227 -1263h-453l355 2048h436l483 -1261l18 -2l227 1263h453zM1232 2536l206 -431l-334 -1l-316 430z" />
    <glyph glyph-name="uni01F9" unicode="&#x1f9;" horiz-adv-x="1624" 
d="M0 0zM567 816l-139 -816h-449l266 1536l415 1l-41 -168l7 1q168 191 424 186q167 -3 265.5 -89.5t135.5 -221.5t20 -285l-162 -960h-449l161 946q12 89 -19.5 166t-136.5 81q-102 5 -162.5 -56t-91.5 -150t-44 -171zM895 2112l206 -431l-334 -1l-316 430z" />
    <glyph glyph-name="Aringacute" unicode="&#x1fa;" horiz-adv-x="2048" 
d="M0 0zM448 0h-511l1019 2048h484l317 -2048h-490l-38 384h-610zM1106 1471l-331 -713l418 -2l-65 715h-22zM1169 2481l323 295l415 -1l-431 -295zM958 2155q-2 121 88 198.5t206 75.5q108 -2 188 -73.5t81 -182.5q2 -122 -86 -197t-204 -73q-108 2 -190 71t-83 181z
M1122 2157q-8 -46 15 -81.5t73 -35.5q56 0 96.5 39.5t50.5 92.5q8 46 -13 80.5t-71 35.5q-57 2 -99.5 -37.5t-51.5 -93.5z" />
    <glyph glyph-name="aringacute" unicode="&#x1fb;" horiz-adv-x="1528" 
d="M7 0zM798 0l25 135h-5q-65 -88 -160.5 -126.5t-203.5 -37.5q-129 2 -231.5 56.5t-159 153t-48.5 232.5q9 148 75 250t171.5 164t232.5 90t257 28h174l14 85q11 82 -18.5 133t-119.5 54q-86 3 -142 -40.5t-90 -118.5l-421 58q39 152 149 250.5t255.5 145t292.5 44.5
q157 -2 288 -64t203 -179.5t54 -288.5l-174 -1024h-418zM883 659l-129 3q-107 0 -194.5 -57.5t-104.5 -169.5q-10 -61 24 -96t94 -37q87 -3 170 49.5t103 140.5zM835 2057l323 295l415 -1l-431 -295zM624 1731q-2 121 88 198.5t206 75.5q108 -2 188 -73.5t81 -182.5
q2 -122 -86 -197t-204 -73q-108 2 -190 71t-83 181zM788 1733q-8 -46 15 -81.5t73 -35.5q56 0 96.5 39.5t50.5 92.5q8 46 -13 80.5t-71 35.5q-57 2 -99.5 -37.5t-51.5 -93.5z" />
    <glyph glyph-name="AEacute" unicode="&#x1fc;" horiz-adv-x="2710" 
d="M0 0zM2443 364l-63 -364h-1198l56 383l-568 1l-239 -384h-525l1356 2048h1391l-63 -364h-751l-70 -479l630 -1l-63 -360h-610l-71 -479zM889 758l395 -2l107 781zM1332 2120l332 432l487 -1l-437 -431h-382z" />
    <glyph glyph-name="aeacute" unicode="&#x1fd;" horiz-adv-x="2420" 
d="M15 0zM1547 -28q-137 1 -274.5 51t-223.5 163q-123 -100 -267.5 -158.5t-305.5 -55.5q-125 2 -231.5 56.5t-168 153t-53.5 230.5q9 151 74.5 253t170 163.5t231.5 89t260 27.5h174l14 84q11 83 -19 133.5t-119 54.5q-86 3 -142 -40.5t-90 -118.5l-421 57
q40 153 149.5 251.5t255 145t292.5 44.5q111 -1 225.5 -31t197.5 -110q205 144 445 140q212 -3 342 -109t181 -275.5t25 -362.5l-31 -192l-898 2q-5 -123 61 -198.5t191 -79.5q98 -3 173 41t139 114l233 -253q-56 -97 -155.5 -157t-215 -87.5t-219.5 -25.5zM1694 1193
q-87 4 -148 -38.5t-103 -109.5t-72 -136l490 1q15 66 4.5 129.5t-52 106.5t-119.5 47zM891 659l-130 3q-106 0 -193.5 -57.5t-105.5 -169.5q-10 -62 24 -96.5t94 -36.5q87 -3 170 49.5t104 140.5zM1152 1680l332 432l487 -1l-437 -431h-382z" />
    <glyph glyph-name="Oslashacute" unicode="&#x1fe;" horiz-adv-x="1976" 
d="M64 0zM1833 1025q-26 -198 -102 -387t-200 -340t-297 -240t-394 -87q-95 1 -187 22.5t-176 65.5l-113 -147l-300 1l230 289q-111 193 -141.5 392t-0.5 420q27 199 102.5 389.5t200.5 343t298.5 242t395.5 87.5q110 -1 216 -29.5t196 -91.5l139 177l295 -1l-264 -337
q82 -189 106 -376t-4 -393zM606 996q-15 -98 -24.5 -197t-6.5 -199l731 983q-33 39 -83.5 54t-100.5 17q-133 3 -224.5 -58t-150 -161t-92 -216t-49.5 -223zM1373 1005q13 84 23 169t15 170l-707 -954q33 -24 74.5 -33t82.5 -10q131 -3 221.5 59t149 162.5t92 216
t49.5 220.5zM987 2208l332 432l487 -1l-437 -431h-382z" />
    <glyph glyph-name="oslashacute" unicode="&#x1ff;" horiz-adv-x="1544" 
d="M9 0zM632 -25q-126 1 -241 44l-128 -187l-254 1l204 290q-105 144 -135 303t-10 334q18 155 79 298.5t162 257t237 178.5t304 63q120 -2 234 -47l136 198l254 -1l-214 -306q101 -142 135 -297.5t14 -328.5q-24 -212 -120 -395.5t-261.5 -295.5t-395.5 -109zM496 763
q-10 -57 -17.5 -114t-10.5 -114l427 650q-29 10 -64 11q-116 3 -184 -67t-102.5 -172t-48.5 -194zM647 337q117 -4 187 66.5t106 173t51 196.5q10 57 16.5 115t7.5 116l-432 -657q28 -10 64 -10zM535 1672l332 432l487 -1l-437 -431h-382z" />
    <glyph glyph-name="Adblgrave" unicode="&#x200;" horiz-adv-x="2048" 
d="M0 0zM448 0h-511l1019 2048h484l317 -2048h-490l-38 384h-610zM1106 1471l-331 -713l418 -2l-65 715h-22zM1706 2150l-333 -2l-279 363l389 2zM1217 2150l-331 -2l-335 363l386 2z" />
    <glyph glyph-name="adblgrave" unicode="&#x201;" horiz-adv-x="1528" 
d="M7 0zM798 0l25 135h-5q-65 -88 -160.5 -126.5t-203.5 -37.5q-129 2 -231.5 56.5t-159 153t-48.5 232.5q9 148 75 250t171.5 164t232.5 90t257 28h174l14 85q11 82 -18.5 133t-119.5 54q-86 3 -142 -40.5t-90 -118.5l-421 58q39 152 149 250.5t255.5 145t292.5 44.5
q157 -2 288 -64t203 -179.5t54 -288.5l-174 -1024h-418zM883 659l-129 3q-107 0 -194.5 -57.5t-104.5 -169.5q-10 -61 24 -96t94 -37q87 -3 170 49.5t103 140.5zM1372 1726l-333 -2l-279 363l389 2zM883 1726l-331 -2l-335 363l386 2z" />
    <glyph glyph-name="Ainvertedbreve" unicode="&#x202;" horiz-adv-x="2048" 
d="M0 0zM448 0h-511l1019 2048h484l317 -2048h-490l-38 384h-610zM1106 1471l-331 -713l418 -2l-65 715h-22zM1776 2183l-298 1q3 78 -32 126t-119 51q-86 3 -146.5 -44t-72.5 -133l-299 -1q4 141 79 236.5t192.5 143t247.5 44.5q195 -4 320 -115t128 -309z" />
    <glyph glyph-name="ainvertedbreve" unicode="&#x203;" horiz-adv-x="1528" 
d="M7 0zM798 0l25 135h-5q-65 -88 -160.5 -126.5t-203.5 -37.5q-129 2 -231.5 56.5t-159 153t-48.5 232.5q9 148 75 250t171.5 164t232.5 90t257 28h174l14 85q11 82 -18.5 133t-119.5 54q-86 3 -142 -40.5t-90 -118.5l-421 58q39 152 149 250.5t255.5 145t292.5 44.5
q157 -2 288 -64t203 -179.5t54 -288.5l-174 -1024h-418zM883 659l-129 3q-107 0 -194.5 -57.5t-104.5 -169.5q-10 -61 24 -96t94 -37q87 -3 170 49.5t103 140.5zM1442 1759l-298 1q3 78 -32 126t-119 51q-86 3 -146.5 -44t-72.5 -133l-299 -1q4 141 79 236.5t192.5 143
t247.5 44.5q195 -4 320 -115t128 -309z" />
    <glyph glyph-name="Edblgrave" unicode="&#x204;" horiz-adv-x="1624" 
d="M0 0zM1376 384l-67 -384h-1330l355 2048h1330l-67 -384h-876l-84 -447l747 -1l-67 -384h-740l-84 -447zM1514 2150l-333 -2l-279 363l389 2zM1025 2150l-331 -2l-335 363l386 2z" />
    <glyph glyph-name="edblgrave" unicode="&#x205;" horiz-adv-x="1536" 
d="M43 0zM702 -28q-217 2 -367.5 107t-221 278t-48.5 381q17 161 77 309t160 264t239 182t314 64q212 -3 343.5 -109.5t185 -276t29.5 -363.5l-28 -192l-899 1q-2 -123 66 -198.5t193 -78.5q98 -3 172 41t136 115l237 -254q-57 -96 -155.5 -156t-213 -88t-219.5 -26z
M829 1192q-86 4 -145.5 -38.5t-100.5 -109t-69 -135.5l490 1q20 100 -19 189t-156 93zM1380 1726l-333 -2l-279 363l389 2zM891 1726l-331 -2l-335 363l386 2z" />
    <glyph glyph-name="Einvertedbreve" unicode="&#x206;" horiz-adv-x="1624" 
d="M0 0zM1376 384l-67 -384h-1330l355 2048h1330l-67 -384h-876l-84 -447l747 -1l-67 -384h-740l-84 -447zM1584 2183l-298 1q3 78 -32 126t-119 51q-86 3 -146.5 -44t-72.5 -133l-299 -1q4 141 79 236.5t192.5 143t247.5 44.5q195 -4 320 -115t128 -309z" />
    <glyph glyph-name="einvertedbreve" unicode="&#x207;" horiz-adv-x="1536" 
d="M43 0zM702 -28q-217 2 -367.5 107t-221 278t-48.5 381q17 161 77 309t160 264t239 182t314 64q212 -3 343.5 -109.5t185 -276t29.5 -363.5l-28 -192l-899 1q-2 -123 66 -198.5t193 -78.5q98 -3 172 41t136 115l237 -254q-57 -96 -155.5 -156t-213 -88t-219.5 -26z
M829 1192q-86 4 -145.5 -38.5t-100.5 -109t-69 -135.5l490 1q20 100 -19 189t-156 93zM1450 1759l-298 1q3 78 -32 126t-119 51q-86 3 -146.5 -44t-72.5 -133l-299 -1q4 141 79 236.5t192.5 143t247.5 44.5q195 -4 320 -115t128 -309z" />
    <glyph glyph-name="Idblgrave" unicode="&#x208;" horiz-adv-x="720" 
d="M0 0zM787 2048l-355 -2048h-453l355 2048h453zM1042 2150l-333 -2l-279 363l389 2zM553 2150l-331 -2l-335 363l386 2z" />
    <glyph glyph-name="idblgrave" unicode="&#x209;" horiz-adv-x="748" 
d="M0 0zM710 1536l-266 -1536h-449l266 1536h449zM967 1694l-333 -2l-279 363l389 2zM478 1694l-331 -2l-335 363l386 2z" />
    <glyph glyph-name="Iinvertedbreve" unicode="&#x20a;" horiz-adv-x="720" 
d="M0 0zM787 2048l-355 -2048h-453l355 2048h453zM1112 2183l-298 1q3 78 -32 126t-119 51q-86 3 -146.5 -44t-72.5 -133l-299 -1q4 141 79 236.5t192.5 143t247.5 44.5q195 -4 320 -115t128 -309z" />
    <glyph glyph-name="iinvertedbreve" unicode="&#x20b;" horiz-adv-x="748" 
d="M0 0zM710 1536l-266 -1536h-449l266 1536h449zM1037 1727l-298 1q3 78 -32 126t-119 51q-86 3 -146.5 -44t-72.5 -133l-299 -1q4 141 79 236.5t192.5 143t247.5 44.5q195 -4 320 -115t128 -309z" />
    <glyph glyph-name="Odblgrave" unicode="&#x20c;" horiz-adv-x="1976" 
d="M125 0zM1835 1025q-26 -197 -102 -386t-201 -340.5t-298 -240.5t-393 -86q-217 3 -362 94.5t-225.5 243t-104.5 335t1 370.5q26 198 102.5 388.5t202 343.5t299.5 242.5t395 86.5q218 -3 362 -96.5t223.5 -246.5t102.5 -337.5t-2 -370.5zM1375 1006q12 84 18 192.5
t-12 211t-78.5 170.5t-181.5 72q-132 5 -224 -56t-151.5 -161.5t-93.5 -217.5t-48 -223q-12 -85 -18.5 -194t12.5 -210.5t80 -170t183 -72.5q130 -4 221 58t151 163.5t93.5 217.5t48.5 220zM1670 2150l-333 -2l-279 363l389 2zM1181 2150l-331 -2l-335 363l386 2z" />
    <glyph glyph-name="odblgrave" unicode="&#x20d;" horiz-adv-x="1544" 
d="M47 0zM644 -24q-223 3 -357 116t-187 291.5t-33 378.5q15 153 75 296.5t159.5 256.5t235 178.5t301.5 62.5q161 -2 276 -69.5t185.5 -179.5t98 -250.5t12.5 -281.5q-20 -212 -115 -395t-259 -295t-392 -109zM660 339q87 -3 146.5 38t97 108t58 144t27.5 146q6 54 8 124
t-11.5 136t-53 110.5t-115.5 47.5q-85 4 -143.5 -37t-94.5 -108t-55.5 -143t-26.5 -144q-6 -53 -9.5 -123.5t8.5 -137.5t50 -112t114 -49zM1364 1726l-333 -2l-279 363l389 2zM875 1726l-331 -2l-335 363l386 2z" />
    <glyph glyph-name="Oinvertedbreve" unicode="&#x20e;" horiz-adv-x="1976" 
d="M125 0zM1835 1025q-26 -197 -102 -386t-201 -340.5t-298 -240.5t-393 -86q-217 3 -362 94.5t-225.5 243t-104.5 335t1 370.5q26 198 102.5 388.5t202 343.5t299.5 242.5t395 86.5q218 -3 362 -96.5t223.5 -246.5t102.5 -337.5t-2 -370.5zM1375 1006q12 84 18 192.5
t-12 211t-78.5 170.5t-181.5 72q-132 5 -224 -56t-151.5 -161.5t-93.5 -217.5t-48 -223q-12 -85 -18.5 -194t12.5 -210.5t80 -170t183 -72.5q130 -4 221 58t151 163.5t93.5 217.5t48.5 220zM1740 2183l-298 1q3 78 -32 126t-119 51q-86 3 -146.5 -44t-72.5 -133l-299 -1
q4 141 79 236.5t192.5 143t247.5 44.5q195 -4 320 -115t128 -309z" />
    <glyph glyph-name="oinvertedbreve" unicode="&#x20f;" horiz-adv-x="1544" 
d="M47 0zM644 -24q-223 3 -357 116t-187 291.5t-33 378.5q15 153 75 296.5t159.5 256.5t235 178.5t301.5 62.5q161 -2 276 -69.5t185.5 -179.5t98 -250.5t12.5 -281.5q-20 -212 -115 -395t-259 -295t-392 -109zM660 339q87 -3 146.5 38t97 108t58 144t27.5 146q6 54 8 124
t-11.5 136t-53 110.5t-115.5 47.5q-85 4 -143.5 -37t-94.5 -108t-55.5 -143t-26.5 -144q-6 -53 -9.5 -123.5t8.5 -137.5t50 -112t114 -49zM1434 1759l-298 1q3 78 -32 126t-119 51q-86 3 -146.5 -44t-72.5 -133l-299 -1q4 141 79 236.5t192.5 143t247.5 44.5
q195 -4 320 -115t128 -309z" />
    <glyph glyph-name="Rdblgrave" unicode="&#x210;" horiz-adv-x="1756" 
d="M0 0zM1058 0l-219 752h-276l-131 -752h-453l355 2048l725 -1q176 -2 330 -71.5t244.5 -202t73.5 -325.5q-38 -426 -435 -578l266 -847v-23h-480zM721 1664l-98 -531l279 -3q134 0 232.5 68.5t119.5 207.5q18 118 -37 185.5t-175 71.5zM1566 2150l-333 -2l-279 363l389 2z
M1077 2150l-331 -2l-335 363l386 2z" />
    <glyph glyph-name="rdblgrave" unicode="&#x211;" horiz-adv-x="1020" 
d="M0 0zM1058 1550l-52 -431q-38 6 -82 6q-114 2 -216 -58t-126 -179l-154 -888h-449l266 1536h450l-47 -199l5 1q50 87 133 153.5t189 67.5q21 1 41.5 -2t41.5 -7zM1212 1726l-333 -2l-279 363l389 2zM723 1726l-331 -2l-335 363l386 2z" />
    <glyph glyph-name="Rinvertedbreve" unicode="&#x212;" horiz-adv-x="1756" 
d="M0 0zM1058 0l-219 752h-276l-131 -752h-453l355 2048l725 -1q176 -2 330 -71.5t244.5 -202t73.5 -325.5q-38 -426 -435 -578l266 -847v-23h-480zM721 1664l-98 -531l279 -3q134 0 232.5 68.5t119.5 207.5q18 118 -37 185.5t-175 71.5zM1636 2183l-298 1q3 78 -32 126
t-119 51q-86 3 -146.5 -44t-72.5 -133l-299 -1q4 141 79 236.5t192.5 143t247.5 44.5q195 -4 320 -115t128 -309z" />
    <glyph glyph-name="rinvertedbreve" unicode="&#x213;" horiz-adv-x="1020" 
d="M0 0zM1058 1550l-52 -431q-38 6 -82 6q-114 2 -216 -58t-126 -179l-154 -888h-449l266 1536h450l-47 -199l5 1q50 87 133 153.5t189 67.5q21 1 41.5 -2t41.5 -7zM1282 1759l-298 1q3 78 -32 126t-119 51q-86 3 -146.5 -44t-72.5 -133l-299 -1q4 141 79 236.5t192.5 143
t247.5 44.5q195 -4 320 -115t128 -309z" />
    <glyph glyph-name="Udblgrave" unicode="&#x214;" horiz-adv-x="1920" 
d="M74 0zM1499 2048h453l-233 -1351q-35 -235 -162 -398.5t-319.5 -247.5t-424.5 -82q-216 2 -387.5 88.5t-261.5 248t-61 390.5l232 1352h453l-233 -1353q-20 -146 60 -232.5t225 -90.5q153 -5 275 82t151 242zM1642 2150l-333 -2l-279 363l389 2zM1153 2150l-331 -2
l-335 363l386 2z" />
    <glyph glyph-name="udblgrave" unicode="&#x215;" horiz-adv-x="1624" 
d="M66 0zM987 720l139 816h449l-266 -1536h-414l41 167l-8 -1q-81 -92 -190 -142t-233 -47q-167 4 -266 91t-136 223t-20 285l162 960h449l-161 -945q-11 -89 21 -166t136 -82q102 -5 162.5 56t91 150t43.5 171zM1396 1726l-333 -2l-279 363l389 2zM907 1726l-331 -2
l-335 363l386 2z" />
    <glyph glyph-name="Uinvertedbreve" unicode="&#x216;" horiz-adv-x="1920" 
d="M74 0zM1499 2048h453l-233 -1351q-35 -235 -162 -398.5t-319.5 -247.5t-424.5 -82q-216 2 -387.5 88.5t-261.5 248t-61 390.5l232 1352h453l-233 -1353q-20 -146 60 -232.5t225 -90.5q153 -5 275 82t151 242zM1712 2183l-298 1q3 78 -32 126t-119 51q-86 3 -146.5 -44
t-72.5 -133l-299 -1q4 141 79 236.5t192.5 143t247.5 44.5q195 -4 320 -115t128 -309z" />
    <glyph glyph-name="uinvertedbreve" unicode="&#x217;" horiz-adv-x="1624" 
d="M66 0zM987 720l139 816h449l-266 -1536h-414l41 167l-8 -1q-81 -92 -190 -142t-233 -47q-167 4 -266 91t-136 223t-20 285l162 960h449l-161 -945q-11 -89 21 -166t136 -82q102 -5 162.5 56t91 150t43.5 171zM1466 1759l-298 1q3 78 -32 126t-119 51q-86 3 -146.5 -44
t-72.5 -133l-299 -1q4 141 79 236.5t192.5 143t247.5 44.5q195 -4 320 -115t128 -309z" />
    <glyph glyph-name="Scommaaccent" unicode="&#x218;" horiz-adv-x="1760" 
d="M23 0zM1253 1438q-1 118 -59 182.5t-179 66.5q-68 2 -138 -16.5t-122.5 -62.5t-67.5 -120q-12 -58 17.5 -98.5t80 -68.5t105 -48t93.5 -37l50 -25q140 -62 260.5 -142t190 -196.5t54.5 -289.5q-18 -215 -137 -351t-297.5 -199t-376.5 -61q-214 2 -373 85t-245 237.5
t-82 370.5h448q-2 -143 61 -225t215 -84q72 -1 144 23t125.5 74t70.5 126q14 69 -14.5 118.5t-81.5 85t-114 60t-111 41.5l-36 12q-148 50 -265.5 123.5t-181 187.5t-49.5 286q13 152 89.5 262.5t194.5 182.5t256 106t273 32q295 -4 473 -172.5t176 -465.5h-447zM884 -116
l-39 -227q-25 -160 -85.5 -303.5t-179.5 -256.5l-220 112q50 107 98.5 203t68.5 216l44 256h313z" />
    <glyph glyph-name="scommaaccent" unicode="&#x219;" horiz-adv-x="1384" 
d="M0 0zM162 1097q9 157 102 259.5t230 152t278 48.5q166 -2 311.5 -66.5t240.5 -204.5l-325 -224q-40 55 -96 87t-126 32q-49 1 -108 -20t-74 -76q-11 -42 17 -64.5t69 -34.5t68 -22l73 -29q100 -41 183.5 -109.5t132 -162t41.5 -208.5q-9 -154 -102.5 -263t-231.5 -166
t-280 -55q-178 2 -330 80t-255 223l343 240q42 -68 98.5 -111t141.5 -44q51 0 112.5 21.5t76.5 79.5q14 49 -26 82t-95.5 53.5t-86.5 33.5l-80 32q-135 58 -223 170.5t-79 265.5zM706 -116l-39 -227q-25 -160 -85.5 -303.5t-179.5 -256.5l-220 112q50 107 98.5 203t68.5 216
l44 256h313z" />
    <glyph glyph-name="uni021A" unicode="&#x21a;" horiz-adv-x="1788" 
d="M206 0zM1886 2048l-67 -384h-581l-289 -1664h-449l294 1663l-588 1l67 384h1613zM875 -100l-39 -227q-25 -160 -85.5 -303.5t-179.5 -256.5l-220 112q50 107 98.5 203t68.5 216l44 256h313z" />
    <glyph glyph-name="uni021B" unicode="&#x21b;" horiz-adv-x="1024" 
d="M92 0zM1046 1536l-57 -320h-233l-127 -734q-8 -54 11.5 -93t79.5 -43l138 -2l-49 -355q-60 -10 -119 -14.5t-119 -2.5q-121 5 -215 68t-143.5 165t-37.5 223l136 787l-188 1l58 320h182l57 328h450l-62 -327zM616 -116l-39 -227q-25 -160 -85.5 -303.5t-179.5 -256.5
l-220 112q50 107 98.5 203t68.5 216l44 256h313z" />
    <glyph glyph-name="uni021C" unicode="&#x21c;" horiz-adv-x="1792" 
d="M224 410l37 351q100 32 221 67t244.5 81.5t230.5 112.5t180 158t92 219q19 124 -39.5 189.5t-183.5 68.5q-101 3 -192.5 -44.5t-108.5 -156.5l-448 -2q4 147 75 255.5t185 179.5t248 105.5t263 33.5q130 -1 253 -33.5t219 -99.5t147 -173t37 -255q-16 -173 -96.5 -313.5
t-215.5 -246.5q192 -167 169 -420q-19 -216 -120.5 -382.5t-258 -288.5t-346 -206.5t-388 -135.5t-380.5 -76l41 371q149 31 312.5 83.5t310.5 136.5t250.5 208.5t133.5 297.5q9 47 12 106t-34 97q-204 -97 -417.5 -166.5t-432.5 -121.5z" />
    <glyph glyph-name="uni021D" unicode="&#x21d;" horiz-adv-x="1536" 
d="M202 198l32 323q89 32 201.5 71.5t219.5 95.5t184 136t96 192q12 73 -11.5 120t-104.5 50q-70 3 -131.5 -26t-75.5 -104l-435 -2q2 122 60.5 210t152 144.5t204 83t216.5 24.5q100 -1 203 -23t188 -71.5t134 -131.5t40 -203q-10 -142 -74.5 -256t-172.5 -203
q80 -71 111.5 -165t23.5 -200q-13 -169 -97 -297.5t-214 -223t-284.5 -161t-311.5 -111t-293 -73.5l34 332q106 41 224.5 87.5t227 110t187.5 153.5t107 217q15 71 6 137q-150 -85 -316 -139t-331 -97z" />
    <glyph glyph-name="uni021E" unicode="&#x21e;" horiz-adv-x="1920" 
d="M0 0zM787 2048l-149 -831l716 -1l144 832h453l-355 -2048h-453l150 831l-717 1l-144 -832h-453l355 2048h453zM1090 2536l165 -183l225 182l380 8l2 -27l-472 -384h-276l-381 386l-1 26z" />
    <glyph glyph-name="uni021F" unicode="&#x21f;" horiz-adv-x="1580" 
d="M0 0zM568 816l-140 -816h-449l355 2048h434l-130 -679l7 1q164 191 408 185q164 -4 251.5 -94.5t114.5 -226t10 -274.5l-163 -960h-449l165 965q6 50 3.5 102t-29 88t-89.5 39q-101 5 -162.5 -56.5t-93 -151.5t-43.5 -170zM812 2664l165 -183l225 182l380 8l2 -27
l-472 -384h-276l-381 386l-1 26z" />
    <glyph glyph-name="uni0220" unicode="&#x220;" horiz-adv-x="1792" 
d="M1347 -572h-438l344 1998q34 243 -202 249q-86 2 -166.5 -25t-157.5 -64l-282 -1586h-434l348 2004l415 6l-13 -69q167 93 366 90q175 -2 309.5 -79t204 -213t48.5 -315z" />
    <glyph glyph-name="uni0221" unicode="&#x221;" horiz-adv-x="2304" 
d="M1906 -201q-6 -145 -86.5 -233.5t-201.5 -128.5t-251 -38q-86 2 -177.5 22.5t-165 71.5t-104.5 142l-281 -210l-154 289l414 277l17 54q-53 -41 -116.5 -57t-130.5 -16q-157 1 -265.5 72.5t-172 187.5t-86 253.5t-6.5 271.5q17 145 75 288t154 259.5t227 185.5t292 66
q74 -1 142 -22t125 -68l19 -1l112 583h449l-338 -1883q40 5 88 4q115 0 213 -40t156 -121.5t53 -208.5zM564 757q-8 -59 -10 -130.5t12.5 -136.5t57.5 -107.5t125 -44.5q102 -3 178.5 58t111.5 154q20 53 34 110.5t23 113.5q6 44 8 89t2 90q-1 92 -44 163.5t-146 75.5
q-117 5 -189.5 -64.5t-111 -172.5t-51.5 -198zM1306 -171q-9 -51 1 -100t75 -51q51 -1 94.5 28.5t53.5 81.5q9 50 -25 68.5t-76 19.5q-29 1 -58.5 -3.5t-57.5 -10.5z" />
    <glyph glyph-name="uni0222" unicode="&#x222;" horiz-adv-x="1792" 
d="M924 1332l31 -1q73 0 145.5 15t125.5 58.5t67 127.5q12 65 -14 94t-86 44l41 364q153 -8 273.5 -64t186.5 -164t54 -274q-10 -145 -85.5 -244.5t-201.5 -163.5q154 -210 129 -469q-21 -219 -139 -372t-298.5 -233t-390.5 -78h-28q-197 4 -351.5 83.5t-236.5 227
t-63 354.5q16 160 90 285.5t210 211.5q-160 159 -145 382q13 186 106 298.5t238.5 164.5t313.5 56l-41 -363q-64 -17 -105.5 -52.5t-54.5 -104.5q-14 -77 18 -116t89.5 -52.5t121.5 -14.5zM922 956l-27 1q-145 1 -240 -90.5t-115 -231.5q-18 -120 33 -204t179 -91l26 -1
q146 -1 240.5 87t115.5 230q17 121 -32 207t-180 93z" />
    <glyph glyph-name="uni0223" unicode="&#x223;" horiz-adv-x="1792" 
d="M944 1295q143 -1 244 63.5t124 213.5q11 74 -7 133.5t-90 89.5l38 347q247 -15 378.5 -164.5t109.5 -397.5q-13 -156 -84 -276t-209 -196q81 -103 111.5 -219t18.5 -246q-21 -217 -136.5 -367t-293.5 -228t-385 -77l-28 1q-197 3 -348.5 81t-231.5 223.5t-60 352.5
q15 159 87 283t210 206q-83 97 -114 208.5t-20 238.5q24 280 206 425.5t452 152.5l-39 -347q-81 -31 -126.5 -93.5t-59.5 -147.5q-21 -130 37 -192t186 -67zM921 940h-27q-144 2 -244.5 -84.5t-121.5 -228.5q-19 -124 37 -206.5t186 -88.5l26 -1q146 -1 246 83.5t121 229.5
q19 126 -36 208t-187 88z" />
    <glyph glyph-name="uni0224" unicode="&#x224;" horiz-adv-x="1792" 
d="M1787 1755l-1189 -1369l389 -3q163 -3 281.5 -71.5t175.5 -191t35 -288.5l-30 -192h-369l18 110q8 58 5.5 113.5t-31.5 93.5t-102 43h-997l46 293l1189 1369l-949 2l67 384l1507 1z" />
    <glyph glyph-name="zhook" unicode="&#x225;" horiz-adv-x="1512" 
d="M1404 1256l-806 -894l140 -2q163 -4 280.5 -72.5t173.5 -191.5t36 -288l-31 -192h-368l17 109q9 57 8 118.5t-29 106t-102 50.5h-743l48 280l809 894l-626 2l63 360h1178z" />
    <glyph glyph-name="uni0226" unicode="&#x226;" horiz-adv-x="2048" 
d="M0 0zM448 0h-511l1019 2048h484l317 -2048h-490l-38 384h-610zM1106 1471l-331 -713l418 -2l-65 715h-22zM1064 2345q-4 93 59 150.5t153 57.5q85 1 148.5 -52t66.5 -142q4 -93 -59 -150.5t-153 -57.5q-86 -1 -149 52t-66 142z" />
    <glyph glyph-name="uni0227" unicode="&#x227;" horiz-adv-x="1528" 
d="M7 0zM798 0l25 135h-5q-65 -88 -160.5 -126.5t-203.5 -37.5q-129 2 -231.5 56.5t-159 153t-48.5 232.5q9 148 75 250t171.5 164t232.5 90t257 28h174l14 85q11 82 -18.5 133t-119.5 54q-86 3 -142 -40.5t-90 -118.5l-421 58q39 152 149 250.5t255.5 145t292.5 44.5
q157 -2 288 -64t203 -179.5t54 -288.5l-174 -1024h-418zM883 659l-129 3q-107 0 -194.5 -57.5t-104.5 -169.5q-10 -61 24 -96t94 -37q87 -3 170 49.5t103 140.5zM731 1921q-4 93 59 150.5t153 57.5q85 1 148.5 -52t66.5 -142q4 -93 -59 -150.5t-153 -57.5q-86 -1 -149 52
t-66 142z" />
    <glyph glyph-name="uni0228" unicode="&#x228;" horiz-adv-x="1624" 
d="M0 0zM1376 384l-67 -384h-1330l355 2048h1330l-67 -384h-876l-84 -447l747 -1l-67 -384h-740l-84 -447zM615 32l331 2l-32 -96q84 -15 126 -78.5t41 -144.5q0 -106 -50.5 -173.5t-131 -105t-173 -53.5t-176.5 -18l11 260q55 2 98.5 27.5t55.5 83.5q10 46 -17.5 64
t-69 21.5t-71.5 5.5z" />
    <glyph glyph-name="uni0229" unicode="&#x229;" horiz-adv-x="1536" 
d="M43 0zM702 -28q-217 2 -367.5 107t-221 278t-48.5 381q17 161 77 309t160 264t239 182t314 64q212 -3 343.5 -109.5t185 -276t29.5 -363.5l-28 -192l-899 1q-2 -123 66 -198.5t193 -78.5q98 -3 172 41t136 115l237 -254q-57 -96 -155.5 -156t-213 -88t-219.5 -26z
M829 1192q-86 4 -145.5 -38.5t-100.5 -109t-69 -135.5l490 1q20 100 -19 189t-156 93zM482 16l331 2l-32 -96q84 -15 126 -78.5t41 -144.5q0 -106 -50.5 -173.5t-131 -105t-173 -53.5t-176.5 -18l11 260q55 2 98.5 27.5t55.5 83.5q10 46 -17.5 64t-69 21.5t-71.5 5.5z" />
    <glyph glyph-name="uni022A" unicode="&#x22a;" horiz-adv-x="1976" 
d="M125 0zM1835 1025q-26 -197 -102 -386t-201 -340.5t-298 -240.5t-393 -86q-217 3 -362 94.5t-225.5 243t-104.5 335t1 370.5q26 198 102.5 388.5t202 343.5t299.5 242.5t395 86.5q218 -3 362 -96.5t223.5 -246.5t102.5 -337.5t-2 -370.5zM1375 1006q12 84 18 192.5
t-12 211t-78.5 170.5t-181.5 72q-132 5 -224 -56t-151.5 -161.5t-93.5 -217.5t-48 -223q-12 -85 -18.5 -194t12.5 -210.5t80 -170t183 -72.5q130 -4 221 58t151 163.5t93.5 217.5t48.5 220zM1822 2828l-41 -238h-928l42 238h927zM1359 2294q-5 79 52.5 124.5t130.5 46.5
q71 1 131 -41.5t64 -118.5q5 -80 -51.5 -125.5t-130.5 -46.5q-72 -1 -132 41.5t-64 119.5zM796 2294q-5 78 52 124t130 47q71 1 131.5 -41.5t65.5 -118.5q5 -80 -53 -125.5t-132 -46.5q-71 -1 -130.5 41.5t-63.5 119.5z" />
    <glyph glyph-name="uni022B" unicode="&#x22b;" horiz-adv-x="1544" 
d="M47 0zM644 -24q-223 3 -357 116t-187 291.5t-33 378.5q15 153 75 296.5t159.5 256.5t235 178.5t301.5 62.5q161 -2 276 -69.5t185.5 -179.5t98 -250.5t12.5 -281.5q-20 -212 -115 -395t-259 -295t-392 -109zM660 339q87 -3 146.5 38t97 108t58 144t27.5 146q6 54 8 124
t-11.5 136t-53 110.5t-115.5 47.5q-85 4 -143.5 -37t-94.5 -108t-55.5 -143t-26.5 -144q-6 -53 -9.5 -123.5t8.5 -137.5t50 -112t114 -49zM1524 2439l-42 -238h-927l42 238h927zM424 1872q-4 82 55 136t138 55q76 1 136.5 -49t63.5 -128q4 -82 -54.5 -136t-137.5 -55
q-76 -1 -136.5 49t-64.5 128zM1103 1872q-4 82 55 136t138 55q76 1 136.5 -49t63.5 -128q4 -82 -54.5 -136t-137.5 -55q-76 -1 -136.5 49t-64.5 128z" />
    <glyph glyph-name="uni022C" unicode="&#x22c;" horiz-adv-x="1976" 
d="M125 0zM1835 1025q-26 -197 -102 -386t-201 -340.5t-298 -240.5t-393 -86q-217 3 -362 94.5t-225.5 243t-104.5 335t1 370.5q26 198 102.5 388.5t202 343.5t299.5 242.5t395 86.5q218 -3 362 -96.5t223.5 -246.5t102.5 -337.5t-2 -370.5zM1375 1006q12 84 18 192.5
t-12 211t-78.5 170.5t-181.5 72q-132 5 -224 -56t-151.5 -161.5t-93.5 -217.5t-48 -223q-12 -85 -18.5 -194t12.5 -210.5t80 -170t183 -72.5q130 -4 221 58t151 163.5t93.5 217.5t48.5 220zM1824 2842l-41 -238h-928l42 238h927zM1503 2472l174 -49q-3 -96 -58.5 -176.5
t-162.5 -80.5q-58 0 -108.5 25t-100.5 49.5t-105 22.5q-50 -3 -73.5 -42t-32.5 -80l-179 53q4 95 60.5 174t162.5 79q57 -1 107.5 -26t101.5 -49t106 -21q49 3 73.5 41.5t34.5 79.5z" />
    <glyph glyph-name="uni022D" unicode="&#x22d;" horiz-adv-x="1544" 
d="M47 0zM644 -24q-223 3 -357 116t-187 291.5t-33 378.5q15 153 75 296.5t159.5 256.5t235 178.5t301.5 62.5q161 -2 276 -69.5t185.5 -179.5t98 -250.5t12.5 -281.5q-20 -212 -115 -395t-259 -295t-392 -109zM660 339q87 -3 146.5 38t97 108t58 144t27.5 146q6 54 8 124
t-11.5 136t-53 110.5t-115.5 47.5q-85 4 -143.5 -37t-94.5 -108t-55.5 -143t-26.5 -144q-6 -53 -9.5 -123.5t8.5 -137.5t50 -112t114 -49zM1538 2522l-41 -238h-928l42 238h927zM1258 2118l244 -15q-3 -93 -42 -181.5t-112.5 -145t-177.5 -54.5q-68 1 -125 32t-113.5 61
t-121.5 30q-59 0 -90 -37.5t-42 -89.5l-245 13q4 91 44 179.5t112.5 146t175.5 55.5q66 -1 123.5 -31.5t114.5 -60.5t123 -30q59 0 90 38t42 90z" />
    <glyph glyph-name="uni022E" unicode="&#x22e;" horiz-adv-x="1976" 
d="M125 0zM1835 1025q-26 -197 -102 -386t-201 -340.5t-298 -240.5t-393 -86q-217 3 -362 94.5t-225.5 243t-104.5 335t1 370.5q26 198 102.5 388.5t202 343.5t299.5 242.5t395 86.5q218 -3 362 -96.5t223.5 -246.5t102.5 -337.5t-2 -370.5zM1375 1006q12 84 18 192.5
t-12 211t-78.5 170.5t-181.5 72q-132 5 -224 -56t-151.5 -161.5t-93.5 -217.5t-48 -223q-12 -85 -18.5 -194t12.5 -210.5t80 -170t183 -72.5q130 -4 221 58t151 163.5t93.5 217.5t48.5 220zM1028 2345q-4 93 59 150.5t153 57.5q85 1 148.5 -52t66.5 -142q4 -93 -59 -150.5
t-153 -57.5q-86 -1 -149 52t-66 142z" />
    <glyph glyph-name="uni022F" unicode="&#x22f;" horiz-adv-x="1544" 
d="M47 0zM644 -24q-223 3 -357 116t-187 291.5t-33 378.5q15 153 75 296.5t159.5 256.5t235 178.5t301.5 62.5q161 -2 276 -69.5t185.5 -179.5t98 -250.5t12.5 -281.5q-20 -212 -115 -395t-259 -295t-392 -109zM660 339q87 -3 146.5 38t97 108t58 144t27.5 146q6 54 8 124
t-11.5 136t-53 110.5t-115.5 47.5q-85 4 -143.5 -37t-94.5 -108t-55.5 -143t-26.5 -144q-6 -53 -9.5 -123.5t8.5 -137.5t50 -112t114 -49zM722 1921q-4 93 59 150.5t153 57.5q85 1 148.5 -52t66.5 -142q4 -93 -59 -150.5t-153 -57.5q-86 -1 -149 52t-66 142z" />
    <glyph glyph-name="uni0230" unicode="&#x230;" horiz-adv-x="1976" 
d="M125 0zM1835 1025q-26 -197 -102 -386t-201 -340.5t-298 -240.5t-393 -86q-217 3 -362 94.5t-225.5 243t-104.5 335t1 370.5q26 198 102.5 388.5t202 343.5t299.5 242.5t395 86.5q218 -3 362 -96.5t223.5 -246.5t102.5 -337.5t-2 -370.5zM1375 1006q12 84 18 192.5
t-12 211t-78.5 170.5t-181.5 72q-132 5 -224 -56t-151.5 -161.5t-93.5 -217.5t-48 -223q-12 -85 -18.5 -194t12.5 -210.5t80 -170t183 -72.5q130 -4 221 58t151 163.5t93.5 217.5t48.5 220zM1821 2825l-42 -238h-927l42 238h927zM1078 2305q-4 79 53.5 124.5t130.5 46.5
q71 1 130.5 -41.5t64.5 -118.5q5 -79 -52 -125t-131 -47q-72 -1 -131.5 41.5t-64.5 119.5z" />
    <glyph glyph-name="uni0231" unicode="&#x231;" horiz-adv-x="1544" 
d="M47 0zM644 -24q-223 3 -357 116t-187 291.5t-33 378.5q15 153 75 296.5t159.5 256.5t235 178.5t301.5 62.5q161 -2 276 -69.5t185.5 -179.5t98 -250.5t12.5 -281.5q-20 -212 -115 -395t-259 -295t-392 -109zM660 339q87 -3 146.5 38t97 108t58 144t27.5 146q6 54 8 124
t-11.5 136t-53 110.5t-115.5 47.5q-85 4 -143.5 -37t-94.5 -108t-55.5 -143t-26.5 -144q-6 -53 -9.5 -123.5t8.5 -137.5t50 -112t114 -49zM1538 2519l-42 -238h-927l42 238h927zM757 1922q-4 94 58.5 152t153.5 58q87 0 149.5 -53.5t66.5 -142.5q3 -93 -59.5 -151
t-153.5 -58q-86 -1 -149 52.5t-66 142.5z" />
    <glyph glyph-name="uni0232" unicode="&#x232;" horiz-adv-x="2048" 
d="M299 0zM776 2048l266 -869l569 869h511l-917 -1306l-129 -742h-453l140 786l-464 1261zM1737 2420l-38 -236h-926l37 236h927z" />
    <glyph glyph-name="uni0233" unicode="&#x233;" horiz-adv-x="1536" 
d="M0 0zM396 -26l38 73l-274 1488l458 1l113 -815l374 815h478l-829 -1756q-78 -175 -229.5 -278.5t-345.5 -103.5q-51 0 -98.5 7.5t-96.5 21.5l39 354l26 -4t26 -2q114 -4 192.5 48t128.5 151zM1408 1996l-38 -236h-926l37 236h927z" />
    <glyph glyph-name="lcurl" unicode="&#x234;" horiz-adv-x="1184" 
d="M783 2048l-330 -1830q71 20 137 19q105 -1 187.5 -51.5t128.5 -136t42 -190.5q-6 -125 -74.5 -225t-175.5 -157t-230 -55q-133 3 -259 73.5t-181 195.5l-282 -209l-185 271l199 143q102 73 216 130l358 2022h449zM412 -115q-9 -48 1 -100.5t76 -51.5q42 2 74 37t39 74
q6 36 -14 60.5t-55 27.5q-28 3 -57.5 -2.5t-57.5 -10.5z" />
    <glyph glyph-name="ncurl" unicode="&#x235;" horiz-adv-x="2092" 
d="M568 816l-140 -816h-449l266 1536l415 1l-41 -168l7 1q169 191 425 186q168 -3 266 -89.5t134.5 -221.5t19.5 -285l-137 -741q70 19 136 18q105 -1 188 -52t128.5 -137t41.5 -191q-6 -125 -74.5 -224t-176 -155.5t-229.5 -54.5q-134 2 -259 72.5t-181 195.5l-281 -209
l-185 271l198 143q103 73 216 130l165 919q12 89 -19.5 166.5t-135.5 81.5q-102 5 -163 -56t-92 -150t-43 -171zM1292 -115q-8 -48 1.5 -100.5t75.5 -50.5q42 1 74 36t39 74q6 36 -14 60.5t-54 27.5q-29 2 -58 -3t-57 -10z" />
    <glyph glyph-name="tcurl" unicode="&#x236;" horiz-adv-x="1364" 
d="M1103 1536l-57 -320h-232l-92 -453q71 19 137 18q105 -1 188 -52t129 -137t41 -191q-6 -125 -74.5 -224.5t-176 -156.5t-229.5 -55q-133 3 -259.5 73.5t-179.5 197.5l-283 -210l-185 271l198 143q103 73 216 130l124 645l-188 1l58 320h182l57 328h450l-62 -327zM681 429
q-9 -48 1 -100.5t76 -51.5q42 2 74 37t39 74q6 35 -14 60t-55 28q-28 2 -57.5 -3t-57.5 -10z" />
    <glyph glyph-name="dotlessj" unicode="&#x237;" horiz-adv-x="916" 
d="M429 1536h449l-271 -1583q-37 -268 -216.5 -401t-441.5 -133l-190 1l63 360l71 -2q97 1 170 40.5t93 141.5z" />
    <glyph glyph-name="uni0238" unicode="&#x238;" horiz-adv-x="2560" 
d="M114 721l4 28q18 137 65.5 274t128 249.5t198.5 179.5t277 64q199 -4 319 -164l144 760h434l-146 -752q68 76 153.5 117.5t189.5 39.5q156 -2 254 -71.5t148 -181t62 -243t-4 -259.5l-4 -29q-18 -137 -64.5 -273.5t-125.5 -247.5t-196 -177t-277 -63q-202 4 -322 155
l-33 -127h-389l22 165q-73 -90 -167.5 -143t-213.5 -51q-151 2 -247.5 72t-147 181.5t-64 242t1.5 254.5zM553 750l-3 -28q-7 -52 -10.5 -117.5t7 -127t47 -102.5t110.5 -44q83 -3 147 36t112 104l101 548q-40 137 -189 142q-111 4 -177 -62t-99 -163t-46 -186zM1907 738
l3 28q7 55 11.5 121t-6.5 127.5t-48 102t-114 43.5q-79 3 -141.5 -30t-110.5 -94l-109 -586q22 -66 73.5 -93.5t118.5 -29.5q117 -4 182.5 59.5t96.5 160t44 191.5z" />
    <glyph glyph-name="uni0239" unicode="&#x239;" horiz-adv-x="2560" 
d="M114 726l4 28q18 136 65 272.5t127.5 248.5t198.5 178t276 62q107 -2 196 -49t144 -140l66 163h349l-23 -144q71 83 161.5 128.5t201.5 43.5q155 -3 252.5 -71.5t147.5 -179t62.5 -241.5t-2.5 -259l-4 -33q-17 -133 -65 -268.5t-129 -248.5t-197.5 -180t-271.5 -64
q-202 4 -321 159l-135 -703h-433l138 705q-69 -80 -157.5 -122t-194.5 -40q-152 3 -248 73.5t-146.5 183t-63.5 243.5t2 255zM553 754l-4 -28q-6 -52 -10 -117.5t7 -128t47 -104t110 -44.5q81 -4 145 31t112 98l106 573q-20 68 -71.5 96.5t-119.5 30.5q-111 3 -177 -61.5
t-99.5 -160t-45.5 -185.5zM1906 738l4 33q7 52 10 117t-9 126t-49 102t-110 44q-79 3 -141 -28.5t-110 -91.5l-109 -586q22 -65 73.5 -93.5t117.5 -29.5q110 -3 176.5 62t100.5 160.5t46 184.5z" />
    <glyph glyph-name="uni023A" unicode="&#x23a;" horiz-adv-x="2048" 
d="M622 0h-326l-308 -308h-318l575 575l885 1781h484l54 -357l345 345h318l-622 -621l223 -1415h-490l-38 384h-611zM1281 1471l-172 -348l202 211l-9 136zM1035 759l333 -3l-29 287z" />
    <glyph glyph-name="uni023B" unicode="&#x23b;" horiz-adv-x="2048" 
d="M1246 696l436 -62q-32 -212 -162.5 -360.5t-317.5 -226t-389 -76.5q-129 1 -251 38l-94 -181l-259 1l151 282q-116 128 -168 276t-58 308.5t16 326.5q27 196 99.5 385t192.5 341t290 241.5t390 87.5q77 -1 164 -15l63 115l259 -2l-100 -180q162 -101 233 -256t95 -338
l-446 -63q-6 67 -14.5 134t-41.5 127l-605 -1214q29 -16 63 -22t66 -7q155 -3 255.5 97t132.5 243zM610 1024q-16 -106 -26.5 -214.5t-1.5 -215.5l553 1098h-9q-133 -1 -224.5 -63.5t-150 -162t-91.5 -216t-50 -226.5z" />
    <glyph glyph-name="uni023C" unicode="&#x23c;" horiz-adv-x="1536" 
d="M1486 1020l-401 -74q-6 43 -14 84.5t-28 80.5l-389 -771q28 -5 49 -5q101 0 174.5 59t101.5 154l397 -71q-26 -167 -129.5 -280t-250.5 -170.5t-306 -55.5q-90 1 -188 24l-281 -567h-259l333 659q-135 136 -178 309.5t-20 360.5q27 216 131 400t276.5 294t405.5 105
q19 -1 37.5 -2.5t36.5 -2.5l229 453h258l-261 -511q130 -79 193 -203t83 -270zM522 760q-9 -57 -15.5 -114t-7.5 -114l335 665q-103 -25 -165.5 -93t-96 -159t-50.5 -185z" />
    <glyph glyph-name="L_bar" unicode="&#x23d;" horiz-adv-x="1792" 
d="M1104 1160l-48 -264h-243l-95 -511l809 -1l-67 -384h-1256l161 895l-274 1l47 264h267l154 888h453l-159 -887z" />
    <glyph glyph-name="uni023E" unicode="&#x23e;" horiz-adv-x="1792" 
d="M1886 2047l-59 -383h-233l-474 -721l-163 -943h-430l9 47l-149 -219h-266l485 738l196 1097l-588 1l67 384h1296l85 128l268 2l-98 -135zM1241 1664l-27 -170l118 168z" />
    <glyph glyph-name="uni023F" unicode="&#x23f;" horiz-adv-x="1384" 
d="M167 1096q10 158 103.5 260.5t231.5 152t279 48.5q166 -2 311.5 -67t239.5 -205l-326 -223q-40 55 -95.5 87t-125.5 32q-50 1 -109.5 -20t-76.5 -77q-12 -42 15 -64t67.5 -34t67.5 -22l72 -29q150 -62 256 -185t95 -294q-10 -158 -105.5 -266t-235 -163.5t-282.5 -55.5
q-18 0 -35.5 0.5t-35.5 1.5q11 -40 27.5 -90t46.5 -86.5t82 -38.5q70 -2 132 34t115 77l125 -261q-82 -80 -189.5 -133t-224.5 -51q-117 3 -200.5 60.5t-141.5 147.5t-97 188l-182 462l345 232q41 -68 97 -111t140 -44q52 0 114 22t79 79q15 49 -24 82t-93.5 53.5
t-85.5 33.5l-79 32q-135 58 -221 170.5t-76 264.5z" />
    <glyph glyph-name="uni0240" unicode="&#x240;" horiz-adv-x="1512" 
d="M589 353l3 1q99 21 165.5 -10.5t112 -94.5t81.5 -139t72 -146.5t82.5 -116t115.5 -47.5q65 -1 126 36.5t108 77.5l119 -306q-78 -83 -189.5 -134.5t-225.5 -48.5q-117 2 -190.5 59t-125 140.5t-100.5 167.5t-114.5 143t-168.5 65h-480l48 280l809 894l-626 2l63 360h1178
l-48 -280z" />
    <glyph glyph-name="uni0241" unicode="&#x241;" horiz-adv-x="1536" 
d="M372 0l125 720l185 -2q110 -1 175 54.5t97.5 142.5t47.5 181l27 177q7 52 11.5 116.5t-6.5 124t-47.5 98.5t-111.5 42q-109 4 -174.5 -66.5t-77.5 -171.5l-428 -2q8 186 107.5 326.5t257 217.5t336.5 75q214 -3 355 -109.5t201.5 -278.5t33.5 -372l-27 -177
q-25 -164 -93.5 -308t-183.5 -249.5t-281 -152.5l-76 -386h-453z" />
    <glyph glyph-name="uni0242" unicode="&#x242;" horiz-adv-x="1536" 
d="M506 684l135 -2q125 1 203 70.5t95 191.5q12 83 -11.5 149.5t-122.5 69.5q-95 3 -145 -66.5t-60 -152.5l-432 -2q5 176 100 306t244.5 200.5t316.5 68.5q172 -3 300.5 -71t195 -193.5t51.5 -301.5q-18 -206 -140 -335t-326 -159l-89 -457h-434z" />
    </font>
</defs>
</svg>
